G04 #@! TF.GenerationSoftware,KiCad,Pcbnew,5.1.3*
G04 #@! TF.CreationDate,2019-08-09T23:07:46+01:00*
G04 #@! TF.ProjectId,LEDregulator,4c454472-6567-4756-9c61-746f722e6b69,rev?*
G04 #@! TF.SameCoordinates,Original*
G04 #@! TF.FileFunction,Legend,Top*
G04 #@! TF.FilePolarity,Positive*
%FSLAX46Y46*%
G04 Gerber Fmt 4.6, Leading zero omitted, Abs format (unit mm)*
G04 Created by KiCad (PCBNEW 5.1.3) date 2019-08-09 23:07:46*
%MOMM*%
%LPD*%
G04 APERTURE LIST*
%ADD10C,0.150000*%
%ADD11C,0.120000*%
%ADD12C,0.110000*%
G04 APERTURE END LIST*
D10*
X170122857Y-57041904D02*
X170122857Y-57308571D01*
X170541904Y-57308571D02*
X169741904Y-57308571D01*
X169741904Y-56927619D01*
X170541904Y-56203809D02*
X170541904Y-56660952D01*
X170541904Y-56432380D02*
X169741904Y-56432380D01*
X169856190Y-56508571D01*
X169932380Y-56584761D01*
X169970476Y-56660952D01*
X170122857Y-55594285D02*
X170160952Y-55480000D01*
X170199047Y-55441904D01*
X170275238Y-55403809D01*
X170389523Y-55403809D01*
X170465714Y-55441904D01*
X170503809Y-55480000D01*
X170541904Y-55556190D01*
X170541904Y-55860952D01*
X169741904Y-55860952D01*
X169741904Y-55594285D01*
X169780000Y-55518095D01*
X169818095Y-55480000D01*
X169894285Y-55441904D01*
X169970476Y-55441904D01*
X170046666Y-55480000D01*
X170084761Y-55518095D01*
X170122857Y-55594285D01*
X170122857Y-55860952D01*
X170237142Y-55060952D02*
X170237142Y-54451428D01*
X170122857Y-49364761D02*
X170122857Y-49631428D01*
X170541904Y-49631428D02*
X169741904Y-49631428D01*
X169741904Y-49250476D01*
X170541904Y-48526666D02*
X170541904Y-48983809D01*
X170541904Y-48755238D02*
X169741904Y-48755238D01*
X169856190Y-48831428D01*
X169932380Y-48907619D01*
X169970476Y-48983809D01*
X170313333Y-48221904D02*
X170313333Y-47840952D01*
X170541904Y-48298095D02*
X169741904Y-48031428D01*
X170541904Y-47764761D01*
X170237142Y-47498095D02*
X170237142Y-46888571D01*
X168217857Y-57041904D02*
X168217857Y-57308571D01*
X168636904Y-57308571D02*
X167836904Y-57308571D01*
X167836904Y-56927619D01*
X168636904Y-56203809D02*
X168636904Y-56660952D01*
X168636904Y-56432380D02*
X167836904Y-56432380D01*
X167951190Y-56508571D01*
X168027380Y-56584761D01*
X168065476Y-56660952D01*
X168217857Y-55594285D02*
X168255952Y-55480000D01*
X168294047Y-55441904D01*
X168370238Y-55403809D01*
X168484523Y-55403809D01*
X168560714Y-55441904D01*
X168598809Y-55480000D01*
X168636904Y-55556190D01*
X168636904Y-55860952D01*
X167836904Y-55860952D01*
X167836904Y-55594285D01*
X167875000Y-55518095D01*
X167913095Y-55480000D01*
X167989285Y-55441904D01*
X168065476Y-55441904D01*
X168141666Y-55480000D01*
X168179761Y-55518095D01*
X168217857Y-55594285D01*
X168217857Y-55860952D01*
X168332142Y-55060952D02*
X168332142Y-54451428D01*
X168217857Y-49364761D02*
X168217857Y-49631428D01*
X168636904Y-49631428D02*
X167836904Y-49631428D01*
X167836904Y-49250476D01*
X168636904Y-48526666D02*
X168636904Y-48983809D01*
X168636904Y-48755238D02*
X167836904Y-48755238D01*
X167951190Y-48831428D01*
X168027380Y-48907619D01*
X168065476Y-48983809D01*
X168408333Y-48221904D02*
X168408333Y-47840952D01*
X168636904Y-48298095D02*
X167836904Y-48031428D01*
X168636904Y-47764761D01*
X168332142Y-47498095D02*
X168332142Y-46888571D01*
X170122857Y-53174761D02*
X170122857Y-53441428D01*
X170541904Y-53441428D02*
X169741904Y-53441428D01*
X169741904Y-53060476D01*
X170541904Y-52336666D02*
X170541904Y-52793809D01*
X170541904Y-52565238D02*
X169741904Y-52565238D01*
X169856190Y-52641428D01*
X169932380Y-52717619D01*
X169970476Y-52793809D01*
X170313333Y-52031904D02*
X170313333Y-51650952D01*
X170541904Y-52108095D02*
X169741904Y-51841428D01*
X170541904Y-51574761D01*
X170237142Y-51308095D02*
X170237142Y-50698571D01*
X170541904Y-51003333D02*
X169932380Y-51003333D01*
X170122857Y-60851904D02*
X170122857Y-61118571D01*
X170541904Y-61118571D02*
X169741904Y-61118571D01*
X169741904Y-60737619D01*
X170541904Y-60013809D02*
X170541904Y-60470952D01*
X170541904Y-60242380D02*
X169741904Y-60242380D01*
X169856190Y-60318571D01*
X169932380Y-60394761D01*
X169970476Y-60470952D01*
X170122857Y-59404285D02*
X170160952Y-59290000D01*
X170199047Y-59251904D01*
X170275238Y-59213809D01*
X170389523Y-59213809D01*
X170465714Y-59251904D01*
X170503809Y-59290000D01*
X170541904Y-59366190D01*
X170541904Y-59670952D01*
X169741904Y-59670952D01*
X169741904Y-59404285D01*
X169780000Y-59328095D01*
X169818095Y-59290000D01*
X169894285Y-59251904D01*
X169970476Y-59251904D01*
X170046666Y-59290000D01*
X170084761Y-59328095D01*
X170122857Y-59404285D01*
X170122857Y-59670952D01*
X170237142Y-58870952D02*
X170237142Y-58261428D01*
X170541904Y-58566190D02*
X169932380Y-58566190D01*
X168217857Y-53174761D02*
X168217857Y-53441428D01*
X168636904Y-53441428D02*
X167836904Y-53441428D01*
X167836904Y-53060476D01*
X168636904Y-52336666D02*
X168636904Y-52793809D01*
X168636904Y-52565238D02*
X167836904Y-52565238D01*
X167951190Y-52641428D01*
X168027380Y-52717619D01*
X168065476Y-52793809D01*
X168408333Y-52031904D02*
X168408333Y-51650952D01*
X168636904Y-52108095D02*
X167836904Y-51841428D01*
X168636904Y-51574761D01*
X168332142Y-51308095D02*
X168332142Y-50698571D01*
X168636904Y-51003333D02*
X168027380Y-51003333D01*
X168217857Y-60851904D02*
X168217857Y-61118571D01*
X168636904Y-61118571D02*
X167836904Y-61118571D01*
X167836904Y-60737619D01*
X168636904Y-60013809D02*
X168636904Y-60470952D01*
X168636904Y-60242380D02*
X167836904Y-60242380D01*
X167951190Y-60318571D01*
X168027380Y-60394761D01*
X168065476Y-60470952D01*
X168217857Y-59404285D02*
X168255952Y-59290000D01*
X168294047Y-59251904D01*
X168370238Y-59213809D01*
X168484523Y-59213809D01*
X168560714Y-59251904D01*
X168598809Y-59290000D01*
X168636904Y-59366190D01*
X168636904Y-59670952D01*
X167836904Y-59670952D01*
X167836904Y-59404285D01*
X167875000Y-59328095D01*
X167913095Y-59290000D01*
X167989285Y-59251904D01*
X168065476Y-59251904D01*
X168141666Y-59290000D01*
X168179761Y-59328095D01*
X168217857Y-59404285D01*
X168217857Y-59670952D01*
X168332142Y-58870952D02*
X168332142Y-58261428D01*
X168636904Y-58566190D02*
X168027380Y-58566190D01*
X170122857Y-69049761D02*
X170122857Y-69316428D01*
X170541904Y-69316428D02*
X169741904Y-69316428D01*
X169741904Y-68935476D01*
X169818095Y-68668809D02*
X169780000Y-68630714D01*
X169741904Y-68554523D01*
X169741904Y-68364047D01*
X169780000Y-68287857D01*
X169818095Y-68249761D01*
X169894285Y-68211666D01*
X169970476Y-68211666D01*
X170084761Y-68249761D01*
X170541904Y-68706904D01*
X170541904Y-68211666D01*
X170313333Y-67906904D02*
X170313333Y-67525952D01*
X170541904Y-67983095D02*
X169741904Y-67716428D01*
X170541904Y-67449761D01*
X170237142Y-67183095D02*
X170237142Y-66573571D01*
X170541904Y-66878333D02*
X169932380Y-66878333D01*
X170122857Y-65239761D02*
X170122857Y-65506428D01*
X170541904Y-65506428D02*
X169741904Y-65506428D01*
X169741904Y-65125476D01*
X169818095Y-64858809D02*
X169780000Y-64820714D01*
X169741904Y-64744523D01*
X169741904Y-64554047D01*
X169780000Y-64477857D01*
X169818095Y-64439761D01*
X169894285Y-64401666D01*
X169970476Y-64401666D01*
X170084761Y-64439761D01*
X170541904Y-64896904D01*
X170541904Y-64401666D01*
X170313333Y-64096904D02*
X170313333Y-63715952D01*
X170541904Y-64173095D02*
X169741904Y-63906428D01*
X170541904Y-63639761D01*
X170237142Y-63373095D02*
X170237142Y-62763571D01*
X168217857Y-69049761D02*
X168217857Y-69316428D01*
X168636904Y-69316428D02*
X167836904Y-69316428D01*
X167836904Y-68935476D01*
X167913095Y-68668809D02*
X167875000Y-68630714D01*
X167836904Y-68554523D01*
X167836904Y-68364047D01*
X167875000Y-68287857D01*
X167913095Y-68249761D01*
X167989285Y-68211666D01*
X168065476Y-68211666D01*
X168179761Y-68249761D01*
X168636904Y-68706904D01*
X168636904Y-68211666D01*
X168408333Y-67906904D02*
X168408333Y-67525952D01*
X168636904Y-67983095D02*
X167836904Y-67716428D01*
X168636904Y-67449761D01*
X168332142Y-67183095D02*
X168332142Y-66573571D01*
X168636904Y-66878333D02*
X168027380Y-66878333D01*
X168217857Y-65239761D02*
X168217857Y-65506428D01*
X168636904Y-65506428D02*
X167836904Y-65506428D01*
X167836904Y-65125476D01*
X167913095Y-64858809D02*
X167875000Y-64820714D01*
X167836904Y-64744523D01*
X167836904Y-64554047D01*
X167875000Y-64477857D01*
X167913095Y-64439761D01*
X167989285Y-64401666D01*
X168065476Y-64401666D01*
X168179761Y-64439761D01*
X168636904Y-64896904D01*
X168636904Y-64401666D01*
X168408333Y-64096904D02*
X168408333Y-63715952D01*
X168636904Y-64173095D02*
X167836904Y-63906428D01*
X168636904Y-63639761D01*
X168332142Y-63373095D02*
X168332142Y-62763571D01*
X170122857Y-72916904D02*
X170122857Y-73183571D01*
X170541904Y-73183571D02*
X169741904Y-73183571D01*
X169741904Y-72802619D01*
X169818095Y-72535952D02*
X169780000Y-72497857D01*
X169741904Y-72421666D01*
X169741904Y-72231190D01*
X169780000Y-72155000D01*
X169818095Y-72116904D01*
X169894285Y-72078809D01*
X169970476Y-72078809D01*
X170084761Y-72116904D01*
X170541904Y-72574047D01*
X170541904Y-72078809D01*
X170122857Y-71469285D02*
X170160952Y-71355000D01*
X170199047Y-71316904D01*
X170275238Y-71278809D01*
X170389523Y-71278809D01*
X170465714Y-71316904D01*
X170503809Y-71355000D01*
X170541904Y-71431190D01*
X170541904Y-71735952D01*
X169741904Y-71735952D01*
X169741904Y-71469285D01*
X169780000Y-71393095D01*
X169818095Y-71355000D01*
X169894285Y-71316904D01*
X169970476Y-71316904D01*
X170046666Y-71355000D01*
X170084761Y-71393095D01*
X170122857Y-71469285D01*
X170122857Y-71735952D01*
X170237142Y-70935952D02*
X170237142Y-70326428D01*
X170122857Y-76726904D02*
X170122857Y-76993571D01*
X170541904Y-76993571D02*
X169741904Y-76993571D01*
X169741904Y-76612619D01*
X169818095Y-76345952D02*
X169780000Y-76307857D01*
X169741904Y-76231666D01*
X169741904Y-76041190D01*
X169780000Y-75965000D01*
X169818095Y-75926904D01*
X169894285Y-75888809D01*
X169970476Y-75888809D01*
X170084761Y-75926904D01*
X170541904Y-76384047D01*
X170541904Y-75888809D01*
X170122857Y-75279285D02*
X170160952Y-75165000D01*
X170199047Y-75126904D01*
X170275238Y-75088809D01*
X170389523Y-75088809D01*
X170465714Y-75126904D01*
X170503809Y-75165000D01*
X170541904Y-75241190D01*
X170541904Y-75545952D01*
X169741904Y-75545952D01*
X169741904Y-75279285D01*
X169780000Y-75203095D01*
X169818095Y-75165000D01*
X169894285Y-75126904D01*
X169970476Y-75126904D01*
X170046666Y-75165000D01*
X170084761Y-75203095D01*
X170122857Y-75279285D01*
X170122857Y-75545952D01*
X170237142Y-74745952D02*
X170237142Y-74136428D01*
X170541904Y-74441190D02*
X169932380Y-74441190D01*
X168217857Y-72916904D02*
X168217857Y-73183571D01*
X168636904Y-73183571D02*
X167836904Y-73183571D01*
X167836904Y-72802619D01*
X167913095Y-72535952D02*
X167875000Y-72497857D01*
X167836904Y-72421666D01*
X167836904Y-72231190D01*
X167875000Y-72155000D01*
X167913095Y-72116904D01*
X167989285Y-72078809D01*
X168065476Y-72078809D01*
X168179761Y-72116904D01*
X168636904Y-72574047D01*
X168636904Y-72078809D01*
X168217857Y-71469285D02*
X168255952Y-71355000D01*
X168294047Y-71316904D01*
X168370238Y-71278809D01*
X168484523Y-71278809D01*
X168560714Y-71316904D01*
X168598809Y-71355000D01*
X168636904Y-71431190D01*
X168636904Y-71735952D01*
X167836904Y-71735952D01*
X167836904Y-71469285D01*
X167875000Y-71393095D01*
X167913095Y-71355000D01*
X167989285Y-71316904D01*
X168065476Y-71316904D01*
X168141666Y-71355000D01*
X168179761Y-71393095D01*
X168217857Y-71469285D01*
X168217857Y-71735952D01*
X168332142Y-70935952D02*
X168332142Y-70326428D01*
X168217857Y-76726904D02*
X168217857Y-76993571D01*
X168636904Y-76993571D02*
X167836904Y-76993571D01*
X167836904Y-76612619D01*
X167913095Y-76345952D02*
X167875000Y-76307857D01*
X167836904Y-76231666D01*
X167836904Y-76041190D01*
X167875000Y-75965000D01*
X167913095Y-75926904D01*
X167989285Y-75888809D01*
X168065476Y-75888809D01*
X168179761Y-75926904D01*
X168636904Y-76384047D01*
X168636904Y-75888809D01*
X168217857Y-75279285D02*
X168255952Y-75165000D01*
X168294047Y-75126904D01*
X168370238Y-75088809D01*
X168484523Y-75088809D01*
X168560714Y-75126904D01*
X168598809Y-75165000D01*
X168636904Y-75241190D01*
X168636904Y-75545952D01*
X167836904Y-75545952D01*
X167836904Y-75279285D01*
X167875000Y-75203095D01*
X167913095Y-75165000D01*
X167989285Y-75126904D01*
X168065476Y-75126904D01*
X168141666Y-75165000D01*
X168179761Y-75203095D01*
X168217857Y-75279285D01*
X168217857Y-75545952D01*
X168332142Y-74745952D02*
X168332142Y-74136428D01*
X168636904Y-74441190D02*
X168027380Y-74441190D01*
X170541904Y-86099523D02*
X170541904Y-86480476D01*
X169741904Y-86480476D01*
X170122857Y-85832857D02*
X170122857Y-85566190D01*
X170541904Y-85451904D02*
X170541904Y-85832857D01*
X169741904Y-85832857D01*
X169741904Y-85451904D01*
X170541904Y-85109047D02*
X169741904Y-85109047D01*
X169741904Y-84918571D01*
X169780000Y-84804285D01*
X169856190Y-84728095D01*
X169932380Y-84690000D01*
X170084761Y-84651904D01*
X170199047Y-84651904D01*
X170351428Y-84690000D01*
X170427619Y-84728095D01*
X170503809Y-84804285D01*
X170541904Y-84918571D01*
X170541904Y-85109047D01*
X170237142Y-84309047D02*
X170237142Y-83699523D01*
X170541904Y-84004285D02*
X169932380Y-84004285D01*
X170541904Y-82289523D02*
X170541904Y-82670476D01*
X169741904Y-82670476D01*
X170122857Y-82022857D02*
X170122857Y-81756190D01*
X170541904Y-81641904D02*
X170541904Y-82022857D01*
X169741904Y-82022857D01*
X169741904Y-81641904D01*
X170541904Y-81299047D02*
X169741904Y-81299047D01*
X169741904Y-81108571D01*
X169780000Y-80994285D01*
X169856190Y-80918095D01*
X169932380Y-80880000D01*
X170084761Y-80841904D01*
X170199047Y-80841904D01*
X170351428Y-80880000D01*
X170427619Y-80918095D01*
X170503809Y-80994285D01*
X170541904Y-81108571D01*
X170541904Y-81299047D01*
X170237142Y-80499047D02*
X170237142Y-79889523D01*
X119157714Y-52850952D02*
X119195809Y-52889047D01*
X119233904Y-53003333D01*
X119233904Y-53079523D01*
X119195809Y-53193809D01*
X119119619Y-53270000D01*
X119043428Y-53308095D01*
X118891047Y-53346190D01*
X118776761Y-53346190D01*
X118624380Y-53308095D01*
X118548190Y-53270000D01*
X118472000Y-53193809D01*
X118433904Y-53079523D01*
X118433904Y-53003333D01*
X118472000Y-52889047D01*
X118510095Y-52850952D01*
X118433904Y-52622380D02*
X118433904Y-52165238D01*
X119233904Y-52393809D02*
X118433904Y-52393809D01*
X119233904Y-51441428D02*
X118852952Y-51708095D01*
X119233904Y-51898571D02*
X118433904Y-51898571D01*
X118433904Y-51593809D01*
X118472000Y-51517619D01*
X118510095Y-51479523D01*
X118586285Y-51441428D01*
X118700571Y-51441428D01*
X118776761Y-51479523D01*
X118814857Y-51517619D01*
X118852952Y-51593809D01*
X118852952Y-51898571D01*
X119233904Y-50717619D02*
X119233904Y-51098571D01*
X118433904Y-51098571D01*
X118472000Y-56489523D02*
X118433904Y-56565714D01*
X118433904Y-56680000D01*
X118472000Y-56794285D01*
X118548190Y-56870476D01*
X118624380Y-56908571D01*
X118776761Y-56946666D01*
X118891047Y-56946666D01*
X119043428Y-56908571D01*
X119119619Y-56870476D01*
X119195809Y-56794285D01*
X119233904Y-56680000D01*
X119233904Y-56603809D01*
X119195809Y-56489523D01*
X119157714Y-56451428D01*
X118891047Y-56451428D01*
X118891047Y-56603809D01*
X119233904Y-56108571D02*
X118433904Y-56108571D01*
X119233904Y-55651428D01*
X118433904Y-55651428D01*
X119233904Y-55270476D02*
X118433904Y-55270476D01*
X118433904Y-55080000D01*
X118472000Y-54965714D01*
X118548190Y-54889523D01*
X118624380Y-54851428D01*
X118776761Y-54813333D01*
X118891047Y-54813333D01*
X119043428Y-54851428D01*
X119119619Y-54889523D01*
X119195809Y-54965714D01*
X119233904Y-55080000D01*
X119233904Y-55270476D01*
X149354166Y-43140380D02*
X149163690Y-43140380D01*
X149068452Y-43188000D01*
X149020833Y-43235619D01*
X148925595Y-43378476D01*
X148877976Y-43568952D01*
X148877976Y-43949904D01*
X148925595Y-44045142D01*
X148973214Y-44092761D01*
X149068452Y-44140380D01*
X149258928Y-44140380D01*
X149354166Y-44092761D01*
X149401785Y-44045142D01*
X149449404Y-43949904D01*
X149449404Y-43711809D01*
X149401785Y-43616571D01*
X149354166Y-43568952D01*
X149258928Y-43521333D01*
X149068452Y-43521333D01*
X148973214Y-43568952D01*
X148925595Y-43616571D01*
X148877976Y-43711809D01*
X149877976Y-44045142D02*
X149925595Y-44092761D01*
X149877976Y-44140380D01*
X149830357Y-44092761D01*
X149877976Y-44045142D01*
X149877976Y-44140380D01*
X149877976Y-43521333D02*
X149925595Y-43568952D01*
X149877976Y-43616571D01*
X149830357Y-43568952D01*
X149877976Y-43521333D01*
X149877976Y-43616571D01*
X150306547Y-43235619D02*
X150354166Y-43188000D01*
X150449404Y-43140380D01*
X150687500Y-43140380D01*
X150782738Y-43188000D01*
X150830357Y-43235619D01*
X150877976Y-43330857D01*
X150877976Y-43426095D01*
X150830357Y-43568952D01*
X150258928Y-44140380D01*
X150877976Y-44140380D01*
X151735119Y-43473714D02*
X151735119Y-44140380D01*
X151497023Y-43092761D02*
X151258928Y-43807047D01*
X151877976Y-43807047D01*
X152211309Y-44140380D02*
X152973214Y-43140380D01*
X152354166Y-43140380D02*
X152449404Y-43188000D01*
X152497023Y-43283238D01*
X152449404Y-43378476D01*
X152354166Y-43426095D01*
X152258928Y-43378476D01*
X152211309Y-43283238D01*
X152258928Y-43188000D01*
X152354166Y-43140380D01*
X152925595Y-44092761D02*
X152973214Y-43997523D01*
X152925595Y-43902285D01*
X152830357Y-43854666D01*
X152735119Y-43902285D01*
X152687500Y-43997523D01*
X152735119Y-44092761D01*
X152830357Y-44140380D01*
X152925595Y-44092761D01*
X141734166Y-43410714D02*
X141734166Y-44077380D01*
X141496071Y-43029761D02*
X141257976Y-43744047D01*
X141877023Y-43744047D01*
X142257976Y-43982142D02*
X142305595Y-44029761D01*
X142257976Y-44077380D01*
X142210357Y-44029761D01*
X142257976Y-43982142D01*
X142257976Y-44077380D01*
X142257976Y-43458333D02*
X142305595Y-43505952D01*
X142257976Y-43553571D01*
X142210357Y-43505952D01*
X142257976Y-43458333D01*
X142257976Y-43553571D01*
X143162738Y-43410714D02*
X143162738Y-44077380D01*
X142924642Y-43029761D02*
X142686547Y-43744047D01*
X143305595Y-43744047D01*
X143734166Y-44077380D02*
X143924642Y-44077380D01*
X144019880Y-44029761D01*
X144067500Y-43982142D01*
X144162738Y-43839285D01*
X144210357Y-43648809D01*
X144210357Y-43267857D01*
X144162738Y-43172619D01*
X144115119Y-43125000D01*
X144019880Y-43077380D01*
X143829404Y-43077380D01*
X143734166Y-43125000D01*
X143686547Y-43172619D01*
X143638928Y-43267857D01*
X143638928Y-43505952D01*
X143686547Y-43601190D01*
X143734166Y-43648809D01*
X143829404Y-43696428D01*
X144019880Y-43696428D01*
X144115119Y-43648809D01*
X144162738Y-43601190D01*
X144210357Y-43505952D01*
X144591309Y-44077380D02*
X145353214Y-43077380D01*
X144734166Y-43077380D02*
X144829404Y-43125000D01*
X144877023Y-43220238D01*
X144829404Y-43315476D01*
X144734166Y-43363095D01*
X144638928Y-43315476D01*
X144591309Y-43220238D01*
X144638928Y-43125000D01*
X144734166Y-43077380D01*
X145305595Y-44029761D02*
X145353214Y-43934523D01*
X145305595Y-43839285D01*
X145210357Y-43791666D01*
X145115119Y-43839285D01*
X145067500Y-43934523D01*
X145115119Y-44029761D01*
X145210357Y-44077380D01*
X145305595Y-44029761D01*
X141781785Y-44727380D02*
X141305595Y-44727380D01*
X141257976Y-45203571D01*
X141305595Y-45155952D01*
X141400833Y-45108333D01*
X141638928Y-45108333D01*
X141734166Y-45155952D01*
X141781785Y-45203571D01*
X141829404Y-45298809D01*
X141829404Y-45536904D01*
X141781785Y-45632142D01*
X141734166Y-45679761D01*
X141638928Y-45727380D01*
X141400833Y-45727380D01*
X141305595Y-45679761D01*
X141257976Y-45632142D01*
X142257976Y-45632142D02*
X142305595Y-45679761D01*
X142257976Y-45727380D01*
X142210357Y-45679761D01*
X142257976Y-45632142D01*
X142257976Y-45727380D01*
X142257976Y-45108333D02*
X142305595Y-45155952D01*
X142257976Y-45203571D01*
X142210357Y-45155952D01*
X142257976Y-45108333D01*
X142257976Y-45203571D01*
X142638928Y-44727380D02*
X143257976Y-44727380D01*
X142924642Y-45108333D01*
X143067500Y-45108333D01*
X143162738Y-45155952D01*
X143210357Y-45203571D01*
X143257976Y-45298809D01*
X143257976Y-45536904D01*
X143210357Y-45632142D01*
X143162738Y-45679761D01*
X143067500Y-45727380D01*
X142781785Y-45727380D01*
X142686547Y-45679761D01*
X142638928Y-45632142D01*
X144115119Y-44727380D02*
X143924642Y-44727380D01*
X143829404Y-44775000D01*
X143781785Y-44822619D01*
X143686547Y-44965476D01*
X143638928Y-45155952D01*
X143638928Y-45536904D01*
X143686547Y-45632142D01*
X143734166Y-45679761D01*
X143829404Y-45727380D01*
X144019880Y-45727380D01*
X144115119Y-45679761D01*
X144162738Y-45632142D01*
X144210357Y-45536904D01*
X144210357Y-45298809D01*
X144162738Y-45203571D01*
X144115119Y-45155952D01*
X144019880Y-45108333D01*
X143829404Y-45108333D01*
X143734166Y-45155952D01*
X143686547Y-45203571D01*
X143638928Y-45298809D01*
X144591309Y-45727380D02*
X145353214Y-44727380D01*
X144734166Y-44727380D02*
X144829404Y-44775000D01*
X144877023Y-44870238D01*
X144829404Y-44965476D01*
X144734166Y-45013095D01*
X144638928Y-44965476D01*
X144591309Y-44870238D01*
X144638928Y-44775000D01*
X144734166Y-44727380D01*
X145305595Y-45679761D02*
X145353214Y-45584523D01*
X145305595Y-45489285D01*
X145210357Y-45441666D01*
X145115119Y-45489285D01*
X145067500Y-45584523D01*
X145115119Y-45679761D01*
X145210357Y-45727380D01*
X145305595Y-45679761D01*
X133637976Y-43172619D02*
X133685595Y-43125000D01*
X133780833Y-43077380D01*
X134018928Y-43077380D01*
X134114166Y-43125000D01*
X134161785Y-43172619D01*
X134209404Y-43267857D01*
X134209404Y-43363095D01*
X134161785Y-43505952D01*
X133590357Y-44077380D01*
X134209404Y-44077380D01*
X134637976Y-43982142D02*
X134685595Y-44029761D01*
X134637976Y-44077380D01*
X134590357Y-44029761D01*
X134637976Y-43982142D01*
X134637976Y-44077380D01*
X134637976Y-43458333D02*
X134685595Y-43505952D01*
X134637976Y-43553571D01*
X134590357Y-43505952D01*
X134637976Y-43458333D01*
X134637976Y-43553571D01*
X135018928Y-43077380D02*
X135685595Y-43077380D01*
X135257023Y-44077380D01*
X136495119Y-43410714D02*
X136495119Y-44077380D01*
X136257023Y-43029761D02*
X136018928Y-43744047D01*
X136637976Y-43744047D01*
X136971309Y-44077380D02*
X137733214Y-43077380D01*
X137114166Y-43077380D02*
X137209404Y-43125000D01*
X137257023Y-43220238D01*
X137209404Y-43315476D01*
X137114166Y-43363095D01*
X137018928Y-43315476D01*
X136971309Y-43220238D01*
X137018928Y-43125000D01*
X137114166Y-43077380D01*
X137685595Y-44029761D02*
X137733214Y-43934523D01*
X137685595Y-43839285D01*
X137590357Y-43791666D01*
X137495119Y-43839285D01*
X137447500Y-43934523D01*
X137495119Y-44029761D01*
X137590357Y-44077380D01*
X137685595Y-44029761D01*
X133590357Y-44727380D02*
X134209404Y-44727380D01*
X133876071Y-45108333D01*
X134018928Y-45108333D01*
X134114166Y-45155952D01*
X134161785Y-45203571D01*
X134209404Y-45298809D01*
X134209404Y-45536904D01*
X134161785Y-45632142D01*
X134114166Y-45679761D01*
X134018928Y-45727380D01*
X133733214Y-45727380D01*
X133637976Y-45679761D01*
X133590357Y-45632142D01*
X134637976Y-45632142D02*
X134685595Y-45679761D01*
X134637976Y-45727380D01*
X134590357Y-45679761D01*
X134637976Y-45632142D01*
X134637976Y-45727380D01*
X134637976Y-45108333D02*
X134685595Y-45155952D01*
X134637976Y-45203571D01*
X134590357Y-45155952D01*
X134637976Y-45108333D01*
X134637976Y-45203571D01*
X135542738Y-44727380D02*
X135352261Y-44727380D01*
X135257023Y-44775000D01*
X135209404Y-44822619D01*
X135114166Y-44965476D01*
X135066547Y-45155952D01*
X135066547Y-45536904D01*
X135114166Y-45632142D01*
X135161785Y-45679761D01*
X135257023Y-45727380D01*
X135447500Y-45727380D01*
X135542738Y-45679761D01*
X135590357Y-45632142D01*
X135637976Y-45536904D01*
X135637976Y-45298809D01*
X135590357Y-45203571D01*
X135542738Y-45155952D01*
X135447500Y-45108333D01*
X135257023Y-45108333D01*
X135161785Y-45155952D01*
X135114166Y-45203571D01*
X135066547Y-45298809D01*
X136018928Y-44822619D02*
X136066547Y-44775000D01*
X136161785Y-44727380D01*
X136399880Y-44727380D01*
X136495119Y-44775000D01*
X136542738Y-44822619D01*
X136590357Y-44917857D01*
X136590357Y-45013095D01*
X136542738Y-45155952D01*
X135971309Y-45727380D01*
X136590357Y-45727380D01*
X136971309Y-45727380D02*
X137733214Y-44727380D01*
X137114166Y-44727380D02*
X137209404Y-44775000D01*
X137257023Y-44870238D01*
X137209404Y-44965476D01*
X137114166Y-45013095D01*
X137018928Y-44965476D01*
X136971309Y-44870238D01*
X137018928Y-44775000D01*
X137114166Y-44727380D01*
X137685595Y-45679761D02*
X137733214Y-45584523D01*
X137685595Y-45489285D01*
X137590357Y-45441666D01*
X137495119Y-45489285D01*
X137447500Y-45584523D01*
X137495119Y-45679761D01*
X137590357Y-45727380D01*
X137685595Y-45679761D01*
X126208452Y-43648809D02*
X126160833Y-43696428D01*
X126208452Y-43744047D01*
X126256071Y-43696428D01*
X126208452Y-43648809D01*
X126208452Y-43744047D01*
X126827500Y-43982142D02*
X126875119Y-44029761D01*
X126827500Y-44077380D01*
X126779880Y-44029761D01*
X126827500Y-43982142D01*
X126827500Y-44077380D01*
X126827500Y-43458333D02*
X126875119Y-43505952D01*
X126827500Y-43553571D01*
X126779880Y-43505952D01*
X126827500Y-43458333D01*
X126827500Y-43553571D01*
X127827500Y-44077380D02*
X127256071Y-44077380D01*
X127541785Y-44077380D02*
X127541785Y-43077380D01*
X127446547Y-43220238D01*
X127351309Y-43315476D01*
X127256071Y-43363095D01*
X128446547Y-43077380D02*
X128541785Y-43077380D01*
X128637023Y-43125000D01*
X128684642Y-43172619D01*
X128732261Y-43267857D01*
X128779880Y-43458333D01*
X128779880Y-43696428D01*
X128732261Y-43886904D01*
X128684642Y-43982142D01*
X128637023Y-44029761D01*
X128541785Y-44077380D01*
X128446547Y-44077380D01*
X128351309Y-44029761D01*
X128303690Y-43982142D01*
X128256071Y-43886904D01*
X128208452Y-43696428D01*
X128208452Y-43458333D01*
X128256071Y-43267857D01*
X128303690Y-43172619D01*
X128351309Y-43125000D01*
X128446547Y-43077380D01*
X129398928Y-43077380D02*
X129494166Y-43077380D01*
X129589404Y-43125000D01*
X129637023Y-43172619D01*
X129684642Y-43267857D01*
X129732261Y-43458333D01*
X129732261Y-43696428D01*
X129684642Y-43886904D01*
X129637023Y-43982142D01*
X129589404Y-44029761D01*
X129494166Y-44077380D01*
X129398928Y-44077380D01*
X129303690Y-44029761D01*
X129256071Y-43982142D01*
X129208452Y-43886904D01*
X129160833Y-43696428D01*
X129160833Y-43458333D01*
X129208452Y-43267857D01*
X129256071Y-43172619D01*
X129303690Y-43125000D01*
X129398928Y-43077380D01*
X130113214Y-44077380D02*
X130875119Y-43077380D01*
X130256071Y-43077380D02*
X130351309Y-43125000D01*
X130398928Y-43220238D01*
X130351309Y-43315476D01*
X130256071Y-43363095D01*
X130160833Y-43315476D01*
X130113214Y-43220238D01*
X130160833Y-43125000D01*
X130256071Y-43077380D01*
X130827500Y-44029761D02*
X130875119Y-43934523D01*
X130827500Y-43839285D01*
X130732261Y-43791666D01*
X130637023Y-43839285D01*
X130589404Y-43934523D01*
X130637023Y-44029761D01*
X130732261Y-44077380D01*
X130827500Y-44029761D01*
X126589404Y-45727380D02*
X126017976Y-45727380D01*
X126303690Y-45727380D02*
X126303690Y-44727380D01*
X126208452Y-44870238D01*
X126113214Y-44965476D01*
X126017976Y-45013095D01*
X127017976Y-45632142D02*
X127065595Y-45679761D01*
X127017976Y-45727380D01*
X126970357Y-45679761D01*
X127017976Y-45632142D01*
X127017976Y-45727380D01*
X127017976Y-45108333D02*
X127065595Y-45155952D01*
X127017976Y-45203571D01*
X126970357Y-45155952D01*
X127017976Y-45108333D01*
X127017976Y-45203571D01*
X127637023Y-45155952D02*
X127541785Y-45108333D01*
X127494166Y-45060714D01*
X127446547Y-44965476D01*
X127446547Y-44917857D01*
X127494166Y-44822619D01*
X127541785Y-44775000D01*
X127637023Y-44727380D01*
X127827500Y-44727380D01*
X127922738Y-44775000D01*
X127970357Y-44822619D01*
X128017976Y-44917857D01*
X128017976Y-44965476D01*
X127970357Y-45060714D01*
X127922738Y-45108333D01*
X127827500Y-45155952D01*
X127637023Y-45155952D01*
X127541785Y-45203571D01*
X127494166Y-45251190D01*
X127446547Y-45346428D01*
X127446547Y-45536904D01*
X127494166Y-45632142D01*
X127541785Y-45679761D01*
X127637023Y-45727380D01*
X127827500Y-45727380D01*
X127922738Y-45679761D01*
X127970357Y-45632142D01*
X128017976Y-45536904D01*
X128017976Y-45346428D01*
X127970357Y-45251190D01*
X127922738Y-45203571D01*
X127827500Y-45155952D01*
X128351309Y-44727380D02*
X129017976Y-44727380D01*
X128589404Y-45727380D01*
X129351309Y-45727380D02*
X130113214Y-44727380D01*
X129494166Y-44727380D02*
X129589404Y-44775000D01*
X129637023Y-44870238D01*
X129589404Y-44965476D01*
X129494166Y-45013095D01*
X129398928Y-44965476D01*
X129351309Y-44870238D01*
X129398928Y-44775000D01*
X129494166Y-44727380D01*
X130065595Y-45679761D02*
X130113214Y-45584523D01*
X130065595Y-45489285D01*
X129970357Y-45441666D01*
X129875119Y-45489285D01*
X129827500Y-45584523D01*
X129875119Y-45679761D01*
X129970357Y-45727380D01*
X130065595Y-45679761D01*
X134604761Y-39759380D02*
X134128571Y-39759380D01*
X134128571Y-38759380D01*
X134938095Y-39235571D02*
X135271428Y-39235571D01*
X135414285Y-39759380D02*
X134938095Y-39759380D01*
X134938095Y-38759380D01*
X135414285Y-38759380D01*
X135842857Y-39759380D02*
X135842857Y-38759380D01*
X136080952Y-38759380D01*
X136223809Y-38807000D01*
X136319047Y-38902238D01*
X136366666Y-38997476D01*
X136414285Y-39187952D01*
X136414285Y-39330809D01*
X136366666Y-39521285D01*
X136319047Y-39616523D01*
X136223809Y-39711761D01*
X136080952Y-39759380D01*
X135842857Y-39759380D01*
X138033333Y-39759380D02*
X138033333Y-38759380D01*
X138033333Y-39711761D02*
X137938095Y-39759380D01*
X137747619Y-39759380D01*
X137652380Y-39711761D01*
X137604761Y-39664142D01*
X137557142Y-39568904D01*
X137557142Y-39283190D01*
X137604761Y-39187952D01*
X137652380Y-39140333D01*
X137747619Y-39092714D01*
X137938095Y-39092714D01*
X138033333Y-39140333D01*
X138509523Y-39759380D02*
X138509523Y-39092714D01*
X138509523Y-39283190D02*
X138557142Y-39187952D01*
X138604761Y-39140333D01*
X138700000Y-39092714D01*
X138795238Y-39092714D01*
X139128571Y-39759380D02*
X139128571Y-39092714D01*
X139128571Y-38759380D02*
X139080952Y-38807000D01*
X139128571Y-38854619D01*
X139176190Y-38807000D01*
X139128571Y-38759380D01*
X139128571Y-38854619D01*
X139509523Y-39092714D02*
X139747619Y-39759380D01*
X139985714Y-39092714D01*
X140747619Y-39711761D02*
X140652380Y-39759380D01*
X140461904Y-39759380D01*
X140366666Y-39711761D01*
X140319047Y-39616523D01*
X140319047Y-39235571D01*
X140366666Y-39140333D01*
X140461904Y-39092714D01*
X140652380Y-39092714D01*
X140747619Y-39140333D01*
X140795238Y-39235571D01*
X140795238Y-39330809D01*
X140319047Y-39426047D01*
X141223809Y-39759380D02*
X141223809Y-39092714D01*
X141223809Y-39283190D02*
X141271428Y-39187952D01*
X141319047Y-39140333D01*
X141414285Y-39092714D01*
X141509523Y-39092714D01*
X142509523Y-39092714D02*
X142747619Y-39759380D01*
X142985714Y-39092714D01*
X143890476Y-39759380D02*
X143319047Y-39759380D01*
X143604761Y-39759380D02*
X143604761Y-38759380D01*
X143509523Y-38902238D01*
X143414285Y-38997476D01*
X143319047Y-39045095D01*
X144319047Y-39664142D02*
X144366666Y-39711761D01*
X144319047Y-39759380D01*
X144271428Y-39711761D01*
X144319047Y-39664142D01*
X144319047Y-39759380D01*
X145319047Y-39759380D02*
X144747619Y-39759380D01*
X145033333Y-39759380D02*
X145033333Y-38759380D01*
X144938095Y-38902238D01*
X144842857Y-38997476D01*
X144747619Y-39045095D01*
X132604761Y-40409380D02*
X132604761Y-41123666D01*
X132557142Y-41266523D01*
X132461904Y-41361761D01*
X132319047Y-41409380D01*
X132223809Y-41409380D01*
X133509523Y-41409380D02*
X133509523Y-40885571D01*
X133461904Y-40790333D01*
X133366666Y-40742714D01*
X133176190Y-40742714D01*
X133080952Y-40790333D01*
X133509523Y-41361761D02*
X133414285Y-41409380D01*
X133176190Y-41409380D01*
X133080952Y-41361761D01*
X133033333Y-41266523D01*
X133033333Y-41171285D01*
X133080952Y-41076047D01*
X133176190Y-41028428D01*
X133414285Y-41028428D01*
X133509523Y-40980809D01*
X133985714Y-41409380D02*
X133985714Y-40409380D01*
X134080952Y-41028428D02*
X134366666Y-41409380D01*
X134366666Y-40742714D02*
X133985714Y-41123666D01*
X135223809Y-40742714D02*
X135223809Y-41409380D01*
X134795238Y-40742714D02*
X134795238Y-41266523D01*
X134842857Y-41361761D01*
X134938095Y-41409380D01*
X135080952Y-41409380D01*
X135176190Y-41361761D01*
X135223809Y-41314142D01*
X135700000Y-41409380D02*
X135700000Y-40409380D01*
X135700000Y-40790333D02*
X135795238Y-40742714D01*
X135985714Y-40742714D01*
X136080952Y-40790333D01*
X136128571Y-40837952D01*
X136176190Y-40933190D01*
X136176190Y-41218904D01*
X136128571Y-41314142D01*
X136080952Y-41361761D01*
X135985714Y-41409380D01*
X135795238Y-41409380D01*
X135700000Y-41361761D01*
X137366666Y-41409380D02*
X137366666Y-40409380D01*
X137938095Y-41409380D01*
X137938095Y-40409380D01*
X138795238Y-41361761D02*
X138700000Y-41409380D01*
X138509523Y-41409380D01*
X138414285Y-41361761D01*
X138366666Y-41266523D01*
X138366666Y-40885571D01*
X138414285Y-40790333D01*
X138509523Y-40742714D01*
X138700000Y-40742714D01*
X138795238Y-40790333D01*
X138842857Y-40885571D01*
X138842857Y-40980809D01*
X138366666Y-41076047D01*
X139700000Y-41409380D02*
X139700000Y-40409380D01*
X139700000Y-41361761D02*
X139604761Y-41409380D01*
X139414285Y-41409380D01*
X139319047Y-41361761D01*
X139271428Y-41314142D01*
X139223809Y-41218904D01*
X139223809Y-40933190D01*
X139271428Y-40837952D01*
X139319047Y-40790333D01*
X139414285Y-40742714D01*
X139604761Y-40742714D01*
X139700000Y-40790333D01*
X140176190Y-41409380D02*
X140176190Y-40409380D01*
X140176190Y-40790333D02*
X140271428Y-40742714D01*
X140461904Y-40742714D01*
X140557142Y-40790333D01*
X140604761Y-40837952D01*
X140652380Y-40933190D01*
X140652380Y-41218904D01*
X140604761Y-41314142D01*
X140557142Y-41361761D01*
X140461904Y-41409380D01*
X140271428Y-41409380D01*
X140176190Y-41361761D01*
X141509523Y-41409380D02*
X141509523Y-40885571D01*
X141461904Y-40790333D01*
X141366666Y-40742714D01*
X141176190Y-40742714D01*
X141080952Y-40790333D01*
X141509523Y-41361761D02*
X141414285Y-41409380D01*
X141176190Y-41409380D01*
X141080952Y-41361761D01*
X141033333Y-41266523D01*
X141033333Y-41171285D01*
X141080952Y-41076047D01*
X141176190Y-41028428D01*
X141414285Y-41028428D01*
X141509523Y-40980809D01*
X142128571Y-41409380D02*
X142033333Y-41361761D01*
X141985714Y-41266523D01*
X141985714Y-40409380D01*
X142557142Y-41361761D02*
X142557142Y-41409380D01*
X142509523Y-41504619D01*
X142461904Y-41552238D01*
X143700000Y-40504619D02*
X143747619Y-40457000D01*
X143842857Y-40409380D01*
X144080952Y-40409380D01*
X144176190Y-40457000D01*
X144223809Y-40504619D01*
X144271428Y-40599857D01*
X144271428Y-40695095D01*
X144223809Y-40837952D01*
X143652380Y-41409380D01*
X144271428Y-41409380D01*
X144890476Y-40409380D02*
X144985714Y-40409380D01*
X145080952Y-40457000D01*
X145128571Y-40504619D01*
X145176190Y-40599857D01*
X145223809Y-40790333D01*
X145223809Y-41028428D01*
X145176190Y-41218904D01*
X145128571Y-41314142D01*
X145080952Y-41361761D01*
X144985714Y-41409380D01*
X144890476Y-41409380D01*
X144795238Y-41361761D01*
X144747619Y-41314142D01*
X144700000Y-41218904D01*
X144652380Y-41028428D01*
X144652380Y-40790333D01*
X144700000Y-40599857D01*
X144747619Y-40504619D01*
X144795238Y-40457000D01*
X144890476Y-40409380D01*
X146176190Y-41409380D02*
X145604761Y-41409380D01*
X145890476Y-41409380D02*
X145890476Y-40409380D01*
X145795238Y-40552238D01*
X145700000Y-40647476D01*
X145604761Y-40695095D01*
X146652380Y-41409380D02*
X146842857Y-41409380D01*
X146938095Y-41361761D01*
X146985714Y-41314142D01*
X147080952Y-41171285D01*
X147128571Y-40980809D01*
X147128571Y-40599857D01*
X147080952Y-40504619D01*
X147033333Y-40457000D01*
X146938095Y-40409380D01*
X146747619Y-40409380D01*
X146652380Y-40457000D01*
X146604761Y-40504619D01*
X146557142Y-40599857D01*
X146557142Y-40837952D01*
X146604761Y-40933190D01*
X146652380Y-40980809D01*
X146747619Y-41028428D01*
X146938095Y-41028428D01*
X147033333Y-40980809D01*
X147080952Y-40933190D01*
X147128571Y-40837952D01*
X119068857Y-67151142D02*
X119068857Y-66884476D01*
X119487904Y-66770190D02*
X119487904Y-67151142D01*
X118687904Y-67151142D01*
X118687904Y-66770190D01*
X118687904Y-66503523D02*
X119487904Y-65970190D01*
X118687904Y-65970190D02*
X119487904Y-66503523D01*
X118687904Y-65779714D02*
X118687904Y-65322571D01*
X119487904Y-65551142D02*
X118687904Y-65551142D01*
X119487904Y-69557809D02*
X118687904Y-69557809D01*
X119487904Y-69176857D02*
X118687904Y-69176857D01*
X119487904Y-68719714D01*
X118687904Y-68719714D01*
X118687904Y-68453047D02*
X118687904Y-67995904D01*
X119487904Y-68224476D02*
X118687904Y-68224476D01*
X120504000Y-56489523D02*
X120465904Y-56565714D01*
X120465904Y-56680000D01*
X120504000Y-56794285D01*
X120580190Y-56870476D01*
X120656380Y-56908571D01*
X120808761Y-56946666D01*
X120923047Y-56946666D01*
X121075428Y-56908571D01*
X121151619Y-56870476D01*
X121227809Y-56794285D01*
X121265904Y-56680000D01*
X121265904Y-56603809D01*
X121227809Y-56489523D01*
X121189714Y-56451428D01*
X120923047Y-56451428D01*
X120923047Y-56603809D01*
X121265904Y-56108571D02*
X120465904Y-56108571D01*
X121265904Y-55651428D01*
X120465904Y-55651428D01*
X121265904Y-55270476D02*
X120465904Y-55270476D01*
X120465904Y-55080000D01*
X120504000Y-54965714D01*
X120580190Y-54889523D01*
X120656380Y-54851428D01*
X120808761Y-54813333D01*
X120923047Y-54813333D01*
X121075428Y-54851428D01*
X121151619Y-54889523D01*
X121227809Y-54965714D01*
X121265904Y-55080000D01*
X121265904Y-55270476D01*
X121189714Y-52850952D02*
X121227809Y-52889047D01*
X121265904Y-53003333D01*
X121265904Y-53079523D01*
X121227809Y-53193809D01*
X121151619Y-53270000D01*
X121075428Y-53308095D01*
X120923047Y-53346190D01*
X120808761Y-53346190D01*
X120656380Y-53308095D01*
X120580190Y-53270000D01*
X120504000Y-53193809D01*
X120465904Y-53079523D01*
X120465904Y-53003333D01*
X120504000Y-52889047D01*
X120542095Y-52850952D01*
X120465904Y-52622380D02*
X120465904Y-52165238D01*
X121265904Y-52393809D02*
X120465904Y-52393809D01*
X121265904Y-51441428D02*
X120884952Y-51708095D01*
X121265904Y-51898571D02*
X120465904Y-51898571D01*
X120465904Y-51593809D01*
X120504000Y-51517619D01*
X120542095Y-51479523D01*
X120618285Y-51441428D01*
X120732571Y-51441428D01*
X120808761Y-51479523D01*
X120846857Y-51517619D01*
X120884952Y-51593809D01*
X120884952Y-51898571D01*
X121265904Y-50717619D02*
X121265904Y-51098571D01*
X120465904Y-51098571D01*
X168636904Y-86099523D02*
X168636904Y-86480476D01*
X167836904Y-86480476D01*
X168217857Y-85832857D02*
X168217857Y-85566190D01*
X168636904Y-85451904D02*
X168636904Y-85832857D01*
X167836904Y-85832857D01*
X167836904Y-85451904D01*
X168636904Y-85109047D02*
X167836904Y-85109047D01*
X167836904Y-84918571D01*
X167875000Y-84804285D01*
X167951190Y-84728095D01*
X168027380Y-84690000D01*
X168179761Y-84651904D01*
X168294047Y-84651904D01*
X168446428Y-84690000D01*
X168522619Y-84728095D01*
X168598809Y-84804285D01*
X168636904Y-84918571D01*
X168636904Y-85109047D01*
X168332142Y-84309047D02*
X168332142Y-83699523D01*
X168636904Y-84004285D02*
X168027380Y-84004285D01*
X168636904Y-82289523D02*
X168636904Y-82670476D01*
X167836904Y-82670476D01*
X168217857Y-82022857D02*
X168217857Y-81756190D01*
X168636904Y-81641904D02*
X168636904Y-82022857D01*
X167836904Y-82022857D01*
X167836904Y-81641904D01*
X168636904Y-81299047D02*
X167836904Y-81299047D01*
X167836904Y-81108571D01*
X167875000Y-80994285D01*
X167951190Y-80918095D01*
X168027380Y-80880000D01*
X168179761Y-80841904D01*
X168294047Y-80841904D01*
X168446428Y-80880000D01*
X168522619Y-80918095D01*
X168598809Y-80994285D01*
X168636904Y-81108571D01*
X168636904Y-81299047D01*
X168332142Y-80499047D02*
X168332142Y-79889523D01*
D11*
X157355000Y-83347779D02*
X157355000Y-83022221D01*
X156335000Y-83347779D02*
X156335000Y-83022221D01*
X155065000Y-87467221D02*
X155065000Y-87792779D01*
X156085000Y-87467221D02*
X156085000Y-87792779D01*
X160117064Y-43540000D02*
X158912936Y-43540000D01*
X160117064Y-45360000D02*
X158912936Y-45360000D01*
X158912936Y-41550000D02*
X160117064Y-41550000D01*
X158912936Y-39730000D02*
X160117064Y-39730000D01*
X156660436Y-75205000D02*
X157864564Y-75205000D01*
X156660436Y-73385000D02*
X157864564Y-73385000D01*
X156660436Y-79015000D02*
X157864564Y-79015000D01*
X156660436Y-77195000D02*
X157864564Y-77195000D01*
X160145000Y-84765000D02*
X158685000Y-84765000D01*
X160145000Y-81605000D02*
X157985000Y-81605000D01*
X160145000Y-81605000D02*
X160145000Y-82535000D01*
X160145000Y-84765000D02*
X160145000Y-83835000D01*
X161835000Y-69605000D02*
X161835000Y-70205000D01*
X162675000Y-69605000D02*
X161835000Y-69605000D01*
X169335000Y-76565000D02*
X168835000Y-76565000D01*
X169335000Y-74565000D02*
X168835000Y-74565000D01*
X168835000Y-74565000D02*
X168835000Y-76565000D01*
X169335000Y-74565000D02*
X169335000Y-76565000D01*
X165124000Y-74780000D02*
X164825000Y-74481000D01*
X166820000Y-76476000D02*
X166521000Y-76176000D01*
X164949000Y-74955000D02*
X164650000Y-74655000D01*
X166645000Y-76650000D02*
X166346000Y-76351000D01*
X169335000Y-72755000D02*
X168835000Y-72755000D01*
X169335000Y-70755000D02*
X168835000Y-70755000D01*
X168835000Y-70755000D02*
X168835000Y-72755000D01*
X169335000Y-70755000D02*
X169335000Y-72755000D01*
X164964000Y-70809000D02*
X164825000Y-70670000D01*
X166820000Y-72666000D02*
X166680000Y-72526000D01*
X164790000Y-70984000D02*
X164650000Y-70844000D01*
X166645000Y-72840000D02*
X166506000Y-72700000D01*
X169495000Y-77475000D02*
X162075000Y-77475000D01*
X169495000Y-69845000D02*
X162075000Y-69845000D01*
X162075000Y-69845000D02*
X162075000Y-77475000D01*
X169495000Y-69845000D02*
X169495000Y-77475000D01*
X167435000Y-69845000D02*
X167435000Y-77475000D01*
X164034000Y-69845000D02*
X164034000Y-77475000D01*
X162735000Y-69845000D02*
X162735000Y-77475000D01*
X167165000Y-75565000D02*
G75*
G03X167165000Y-75565000I-1430000J0D01*
G01*
X167165000Y-71755000D02*
G75*
G03X167165000Y-71755000I-1430000J0D01*
G01*
X161835000Y-61985000D02*
X161835000Y-62585000D01*
X162675000Y-61985000D02*
X161835000Y-61985000D01*
X169335000Y-68945000D02*
X168835000Y-68945000D01*
X169335000Y-66945000D02*
X168835000Y-66945000D01*
X168835000Y-66945000D02*
X168835000Y-68945000D01*
X169335000Y-66945000D02*
X169335000Y-68945000D01*
X165124000Y-67160000D02*
X164825000Y-66861000D01*
X166820000Y-68856000D02*
X166521000Y-68556000D01*
X164949000Y-67335000D02*
X164650000Y-67035000D01*
X166645000Y-69030000D02*
X166346000Y-68731000D01*
X169335000Y-65135000D02*
X168835000Y-65135000D01*
X169335000Y-63135000D02*
X168835000Y-63135000D01*
X168835000Y-63135000D02*
X168835000Y-65135000D01*
X169335000Y-63135000D02*
X169335000Y-65135000D01*
X164964000Y-63189000D02*
X164825000Y-63050000D01*
X166820000Y-65046000D02*
X166680000Y-64906000D01*
X164790000Y-63364000D02*
X164650000Y-63224000D01*
X166645000Y-65220000D02*
X166506000Y-65080000D01*
X169495000Y-69855000D02*
X162075000Y-69855000D01*
X169495000Y-62225000D02*
X162075000Y-62225000D01*
X162075000Y-62225000D02*
X162075000Y-69855000D01*
X169495000Y-62225000D02*
X169495000Y-69855000D01*
X167435000Y-62225000D02*
X167435000Y-69855000D01*
X164034000Y-62225000D02*
X164034000Y-69855000D01*
X162735000Y-62225000D02*
X162735000Y-69855000D01*
X167165000Y-67945000D02*
G75*
G03X167165000Y-67945000I-1430000J0D01*
G01*
X167165000Y-64135000D02*
G75*
G03X167165000Y-64135000I-1430000J0D01*
G01*
X161835000Y-53730000D02*
X161835000Y-54330000D01*
X162675000Y-53730000D02*
X161835000Y-53730000D01*
X169335000Y-60690000D02*
X168835000Y-60690000D01*
X169335000Y-58690000D02*
X168835000Y-58690000D01*
X168835000Y-58690000D02*
X168835000Y-60690000D01*
X169335000Y-58690000D02*
X169335000Y-60690000D01*
X165124000Y-58905000D02*
X164825000Y-58606000D01*
X166820000Y-60601000D02*
X166521000Y-60301000D01*
X164949000Y-59080000D02*
X164650000Y-58780000D01*
X166645000Y-60775000D02*
X166346000Y-60476000D01*
X169335000Y-56880000D02*
X168835000Y-56880000D01*
X169335000Y-54880000D02*
X168835000Y-54880000D01*
X168835000Y-54880000D02*
X168835000Y-56880000D01*
X169335000Y-54880000D02*
X169335000Y-56880000D01*
X164964000Y-54934000D02*
X164825000Y-54795000D01*
X166820000Y-56791000D02*
X166680000Y-56651000D01*
X164790000Y-55109000D02*
X164650000Y-54969000D01*
X166645000Y-56965000D02*
X166506000Y-56825000D01*
X169495000Y-61600000D02*
X162075000Y-61600000D01*
X169495000Y-53970000D02*
X162075000Y-53970000D01*
X162075000Y-53970000D02*
X162075000Y-61600000D01*
X169495000Y-53970000D02*
X169495000Y-61600000D01*
X167435000Y-53970000D02*
X167435000Y-61600000D01*
X164034000Y-53970000D02*
X164034000Y-61600000D01*
X162735000Y-53970000D02*
X162735000Y-61600000D01*
X167165000Y-59690000D02*
G75*
G03X167165000Y-59690000I-1430000J0D01*
G01*
X167165000Y-55880000D02*
G75*
G03X167165000Y-55880000I-1430000J0D01*
G01*
X161835000Y-46110000D02*
X161835000Y-46710000D01*
X162675000Y-46110000D02*
X161835000Y-46110000D01*
X169335000Y-53070000D02*
X168835000Y-53070000D01*
X169335000Y-51070000D02*
X168835000Y-51070000D01*
X168835000Y-51070000D02*
X168835000Y-53070000D01*
X169335000Y-51070000D02*
X169335000Y-53070000D01*
X165124000Y-51285000D02*
X164825000Y-50986000D01*
X166820000Y-52981000D02*
X166521000Y-52681000D01*
X164949000Y-51460000D02*
X164650000Y-51160000D01*
X166645000Y-53155000D02*
X166346000Y-52856000D01*
X169335000Y-49260000D02*
X168835000Y-49260000D01*
X169335000Y-47260000D02*
X168835000Y-47260000D01*
X168835000Y-47260000D02*
X168835000Y-49260000D01*
X169335000Y-47260000D02*
X169335000Y-49260000D01*
X164964000Y-47314000D02*
X164825000Y-47175000D01*
X166820000Y-49171000D02*
X166680000Y-49031000D01*
X164790000Y-47489000D02*
X164650000Y-47349000D01*
X166645000Y-49345000D02*
X166506000Y-49205000D01*
X169495000Y-53980000D02*
X162075000Y-53980000D01*
X169495000Y-46350000D02*
X162075000Y-46350000D01*
X162075000Y-46350000D02*
X162075000Y-53980000D01*
X169495000Y-46350000D02*
X169495000Y-53980000D01*
X167435000Y-46350000D02*
X167435000Y-53980000D01*
X164034000Y-46350000D02*
X164034000Y-53980000D01*
X162735000Y-46350000D02*
X162735000Y-53980000D01*
X167165000Y-52070000D02*
G75*
G03X167165000Y-52070000I-1430000J0D01*
G01*
X167165000Y-48260000D02*
G75*
G03X167165000Y-48260000I-1430000J0D01*
G01*
X161835000Y-79130000D02*
X161835000Y-79730000D01*
X162675000Y-79130000D02*
X161835000Y-79130000D01*
X169335000Y-86090000D02*
X168835000Y-86090000D01*
X169335000Y-84090000D02*
X168835000Y-84090000D01*
X168835000Y-84090000D02*
X168835000Y-86090000D01*
X169335000Y-84090000D02*
X169335000Y-86090000D01*
X165124000Y-84305000D02*
X164825000Y-84006000D01*
X166820000Y-86001000D02*
X166521000Y-85701000D01*
X164949000Y-84480000D02*
X164650000Y-84180000D01*
X166645000Y-86175000D02*
X166346000Y-85876000D01*
X169335000Y-82280000D02*
X168835000Y-82280000D01*
X169335000Y-80280000D02*
X168835000Y-80280000D01*
X168835000Y-80280000D02*
X168835000Y-82280000D01*
X169335000Y-80280000D02*
X169335000Y-82280000D01*
X164964000Y-80334000D02*
X164825000Y-80195000D01*
X166820000Y-82191000D02*
X166680000Y-82051000D01*
X164790000Y-80509000D02*
X164650000Y-80369000D01*
X166645000Y-82365000D02*
X166506000Y-82225000D01*
X169495000Y-87000000D02*
X162075000Y-87000000D01*
X169495000Y-79370000D02*
X162075000Y-79370000D01*
X162075000Y-79370000D02*
X162075000Y-87000000D01*
X169495000Y-79370000D02*
X169495000Y-87000000D01*
X167435000Y-79370000D02*
X167435000Y-87000000D01*
X164034000Y-79370000D02*
X164034000Y-87000000D01*
X162735000Y-79370000D02*
X162735000Y-87000000D01*
X167165000Y-85090000D02*
G75*
G03X167165000Y-85090000I-1430000J0D01*
G01*
X167165000Y-81280000D02*
G75*
G03X167165000Y-81280000I-1430000J0D01*
G01*
X123134000Y-78924000D02*
X123134000Y-82224000D01*
X123134000Y-73224000D02*
X123134000Y-76524000D01*
X128634000Y-82224000D02*
X119634000Y-82224000D01*
X119634000Y-82224000D02*
X119634000Y-73224000D01*
X134834000Y-80124000D02*
X134834000Y-82224000D01*
X133534000Y-82224000D02*
X134834000Y-82224000D01*
X119634000Y-73224000D02*
X134834000Y-73224000D01*
X134834000Y-73224000D02*
X134834000Y-75324000D01*
X134252000Y-61174000D02*
X141592000Y-61174000D01*
X134252000Y-61174000D02*
X134252000Y-61094000D01*
X141592000Y-61174000D02*
X141592000Y-61094000D01*
X140482000Y-56134000D02*
G75*
G03X140482000Y-56134000I-2560000J0D01*
G01*
X134252000Y-51174000D02*
X134252000Y-51094000D01*
X134252000Y-51094000D02*
X141592000Y-51094000D01*
X141592000Y-51094000D02*
X141592000Y-51174000D01*
X134252000Y-58554000D02*
X134252000Y-58794000D01*
X141592000Y-58794000D02*
X141592000Y-58554000D01*
X134252000Y-53474000D02*
X134252000Y-53714000D01*
X134252000Y-56014000D02*
X134252000Y-56254000D01*
X141592000Y-53474000D02*
X141592000Y-53714000D01*
X141592000Y-56014000D02*
X141592000Y-56254000D01*
X134252000Y-53594000D02*
X136752000Y-51094000D01*
X137922000Y-54102000D02*
X137922000Y-57942000D01*
X137922000Y-57912000D02*
X139202000Y-56632000D01*
X136642000Y-56632000D02*
X137922000Y-57912000D01*
X128032000Y-71632000D02*
X130032000Y-71632000D01*
X130032000Y-69592000D02*
X128032000Y-69592000D01*
X133220000Y-62866000D02*
X140840000Y-62866000D01*
X132460000Y-63626000D02*
X133220000Y-62866000D01*
X133220000Y-71246000D02*
X132460000Y-70486000D01*
X140840000Y-71246000D02*
X133220000Y-71246000D01*
X140840000Y-62866000D02*
X140840000Y-65546000D01*
X140840000Y-71246000D02*
X140840000Y-68566000D01*
X132460000Y-63626000D02*
X132460000Y-65546000D01*
X132460000Y-70486000D02*
X132460000Y-68566000D01*
X123409000Y-60344000D02*
X123409000Y-61044000D01*
X122209000Y-61044000D02*
X122209000Y-60344000D01*
X144180000Y-55456000D02*
X144180000Y-54756000D01*
X145380000Y-54756000D02*
X145380000Y-55456000D01*
X125480000Y-71546000D02*
X124480000Y-71546000D01*
X124480000Y-70186000D02*
X125480000Y-70186000D01*
X124734000Y-61804000D02*
X125734000Y-61804000D01*
X125734000Y-63164000D02*
X124734000Y-63164000D01*
X130806000Y-60026000D02*
X131806000Y-60026000D01*
X131806000Y-61386000D02*
X130806000Y-61386000D01*
X131818000Y-55544000D02*
X130818000Y-55544000D01*
X130818000Y-54184000D02*
X131818000Y-54184000D01*
X132838000Y-48088000D02*
X133838000Y-48088000D01*
X133838000Y-49448000D02*
X132838000Y-49448000D01*
X144444000Y-64016000D02*
X144444000Y-65016000D01*
X143084000Y-65016000D02*
X143084000Y-64016000D01*
X145460000Y-57920000D02*
X145460000Y-58920000D01*
X144100000Y-58920000D02*
X144100000Y-57920000D01*
X141228000Y-49448000D02*
X140228000Y-49448000D01*
X140228000Y-48088000D02*
X141228000Y-48088000D01*
X131236000Y-63762000D02*
X131236000Y-64762000D01*
X129876000Y-64762000D02*
X129876000Y-63762000D01*
X129520000Y-58084000D02*
X128520000Y-58084000D01*
X128520000Y-56724000D02*
X129520000Y-56724000D01*
X129814000Y-48088000D02*
X130814000Y-48088000D01*
X130814000Y-49448000D02*
X129814000Y-49448000D01*
X143084000Y-68814000D02*
X143084000Y-67814000D01*
X144444000Y-67814000D02*
X144444000Y-68814000D01*
X144100000Y-61968000D02*
X144100000Y-60968000D01*
X145460000Y-60968000D02*
X145460000Y-61968000D01*
X144264000Y-49448000D02*
X143264000Y-49448000D01*
X143264000Y-48088000D02*
X144264000Y-48088000D01*
D10*
X146670000Y-48498000D02*
X160670000Y-48498000D01*
X160670000Y-48498000D02*
X160670000Y-71898000D01*
X160670000Y-71898000D02*
X146670000Y-71898000D01*
X146670000Y-71898000D02*
X146670000Y-48498000D01*
X147955000Y-49403000D02*
G75*
G03X147955000Y-49403000I-381000J0D01*
G01*
D11*
X122742000Y-71434000D02*
X121412000Y-71434000D01*
X122742000Y-70104000D02*
X122742000Y-71434000D01*
X122742000Y-68834000D02*
X120082000Y-68834000D01*
X120082000Y-68834000D02*
X120082000Y-63694000D01*
X122742000Y-68834000D02*
X122742000Y-63694000D01*
X122742000Y-63694000D02*
X120082000Y-63694000D01*
D10*
X138054000Y-72390000D02*
X138054000Y-85090000D01*
X138054000Y-85090000D02*
X149474000Y-85090000D01*
X149474000Y-85090000D02*
X149474000Y-72390000D01*
X149474000Y-72390000D02*
X138054000Y-72390000D01*
D11*
X127564000Y-65280000D02*
X127564000Y-66740000D01*
X124404000Y-65280000D02*
X124404000Y-67440000D01*
X124404000Y-65280000D02*
X125334000Y-65280000D01*
X127564000Y-65280000D02*
X126634000Y-65280000D01*
X136440000Y-87630000D02*
X136440000Y-90170000D01*
X127680000Y-92710000D02*
X127680000Y-87630000D01*
X136440000Y-90170000D02*
X136440000Y-92710000D01*
X143000000Y-87630000D02*
X143000000Y-90170000D01*
X151760000Y-92710000D02*
X151760000Y-87630000D01*
X143000000Y-90170000D02*
X143000000Y-92710000D01*
X145500000Y-92710000D02*
X133940000Y-92710000D01*
X133940000Y-87630000D02*
X145630000Y-87630000D01*
X143000000Y-93600000D02*
X143000000Y-92580000D01*
X143000000Y-86740000D02*
X143000000Y-87630000D01*
X152530000Y-93600000D02*
X152530000Y-86740000D01*
X136440000Y-93600000D02*
X136440000Y-92710000D01*
X136440000Y-86740000D02*
X136440000Y-87630000D01*
X126790000Y-93600000D02*
X126790000Y-86740000D01*
X151760000Y-92710000D02*
X148970000Y-92710000D01*
X143000000Y-92710000D02*
X145670000Y-92710000D01*
X143000000Y-93600000D02*
X145800000Y-93600000D01*
X152530000Y-93600000D02*
X148720000Y-93600000D01*
X151760000Y-87630000D02*
X148970000Y-87630000D01*
X145540000Y-87630000D02*
X143000000Y-87630000D01*
X145540000Y-87630000D02*
X145670000Y-87630000D01*
X143000000Y-86740000D02*
X145800000Y-86740000D01*
X152530000Y-86740000D02*
X148840000Y-86740000D01*
X136440000Y-93600000D02*
X133520000Y-93600000D01*
X126790000Y-93600000D02*
X130470000Y-93600000D01*
X127680000Y-92710000D02*
X130350000Y-92710000D01*
X136440000Y-92710000D02*
X133650000Y-92710000D01*
X127680000Y-87630000D02*
X130350000Y-87630000D01*
X133940000Y-87630000D02*
X133400000Y-87630000D01*
X136440000Y-86740000D02*
X133400000Y-86740000D01*
X126790000Y-86740000D02*
X130600000Y-86740000D01*
X136410000Y-90170000D02*
X142910000Y-90170000D01*
X124620000Y-55880000D02*
G75*
G03X124620000Y-55880000I-1430000J0D01*
G01*
X124620000Y-52070000D02*
G75*
G03X124620000Y-52070000I-1430000J0D01*
G01*
X126190000Y-57790000D02*
X126190000Y-50160000D01*
X124891000Y-57790000D02*
X124891000Y-50160000D01*
X121490000Y-57790000D02*
X121490000Y-50160000D01*
X119430000Y-57790000D02*
X119430000Y-50160000D01*
X126850000Y-57790000D02*
X126850000Y-50160000D01*
X119430000Y-57790000D02*
X126850000Y-57790000D01*
X119430000Y-50160000D02*
X126850000Y-50160000D01*
X122280000Y-54795000D02*
X122419000Y-54935000D01*
X124135000Y-56651000D02*
X124275000Y-56791000D01*
X122105000Y-54969000D02*
X122245000Y-55109000D01*
X123961000Y-56826000D02*
X124100000Y-56965000D01*
X119590000Y-56880000D02*
X119590000Y-54880000D01*
X120090000Y-56880000D02*
X120090000Y-54880000D01*
X119590000Y-56880000D02*
X120090000Y-56880000D01*
X119590000Y-54880000D02*
X120090000Y-54880000D01*
X122280000Y-50985000D02*
X122579000Y-51284000D01*
X123976000Y-52680000D02*
X124275000Y-52980000D01*
X122105000Y-51159000D02*
X122404000Y-51459000D01*
X123801000Y-52855000D02*
X124100000Y-53154000D01*
X119590000Y-53070000D02*
X119590000Y-51070000D01*
X120090000Y-53070000D02*
X120090000Y-51070000D01*
X119590000Y-53070000D02*
X120090000Y-53070000D01*
X119590000Y-51070000D02*
X120090000Y-51070000D01*
X126250000Y-58030000D02*
X127090000Y-58030000D01*
X127090000Y-58030000D02*
X127090000Y-57430000D01*
X151490000Y-83787064D02*
X151490000Y-82582936D01*
X153310000Y-83787064D02*
X153310000Y-82582936D01*
D12*
X155731666Y-83635000D02*
X155398333Y-83868333D01*
X155731666Y-84035000D02*
X155031666Y-84035000D01*
X155031666Y-83768333D01*
X155065000Y-83701666D01*
X155098333Y-83668333D01*
X155165000Y-83635000D01*
X155265000Y-83635000D01*
X155331666Y-83668333D01*
X155365000Y-83701666D01*
X155398333Y-83768333D01*
X155398333Y-84035000D01*
X155731666Y-82968333D02*
X155731666Y-83368333D01*
X155731666Y-83168333D02*
X155031666Y-83168333D01*
X155131666Y-83235000D01*
X155198333Y-83301666D01*
X155231666Y-83368333D01*
X155031666Y-82735000D02*
X155031666Y-82268333D01*
X155731666Y-82568333D01*
X155393333Y-80963333D02*
X155426666Y-80930000D01*
X155493333Y-80896666D01*
X155660000Y-80896666D01*
X155726666Y-80930000D01*
X155760000Y-80963333D01*
X155793333Y-81030000D01*
X155793333Y-81096666D01*
X155760000Y-81196666D01*
X155360000Y-81596666D01*
X155793333Y-81596666D01*
X156026666Y-80896666D02*
X156493333Y-80896666D01*
X156193333Y-81596666D01*
X156760000Y-81596666D02*
X156760000Y-80896666D01*
X156826666Y-81330000D02*
X157026666Y-81596666D01*
X157026666Y-81130000D02*
X156760000Y-81396666D01*
X157321666Y-88080000D02*
X156988333Y-88313333D01*
X157321666Y-88480000D02*
X156621666Y-88480000D01*
X156621666Y-88213333D01*
X156655000Y-88146666D01*
X156688333Y-88113333D01*
X156755000Y-88080000D01*
X156855000Y-88080000D01*
X156921666Y-88113333D01*
X156955000Y-88146666D01*
X156988333Y-88213333D01*
X156988333Y-88480000D01*
X157321666Y-87413333D02*
X157321666Y-87813333D01*
X157321666Y-87613333D02*
X156621666Y-87613333D01*
X156721666Y-87680000D01*
X156788333Y-87746666D01*
X156821666Y-87813333D01*
X156621666Y-86813333D02*
X156621666Y-86946666D01*
X156655000Y-87013333D01*
X156688333Y-87046666D01*
X156788333Y-87113333D01*
X156921666Y-87146666D01*
X157188333Y-87146666D01*
X157255000Y-87113333D01*
X157288333Y-87080000D01*
X157321666Y-87013333D01*
X157321666Y-86880000D01*
X157288333Y-86813333D01*
X157255000Y-86780000D01*
X157188333Y-86746666D01*
X157021666Y-86746666D01*
X156955000Y-86780000D01*
X156921666Y-86813333D01*
X156888333Y-86880000D01*
X156888333Y-87013333D01*
X156921666Y-87080000D01*
X156955000Y-87113333D01*
X157021666Y-87146666D01*
X154758333Y-89218333D02*
X154791666Y-89185000D01*
X154858333Y-89151666D01*
X155025000Y-89151666D01*
X155091666Y-89185000D01*
X155125000Y-89218333D01*
X155158333Y-89285000D01*
X155158333Y-89351666D01*
X155125000Y-89451666D01*
X154725000Y-89851666D01*
X155158333Y-89851666D01*
X155391666Y-89151666D02*
X155858333Y-89151666D01*
X155558333Y-89851666D01*
X156125000Y-89851666D02*
X156125000Y-89151666D01*
X156191666Y-89585000D02*
X156391666Y-89851666D01*
X156391666Y-89385000D02*
X156125000Y-89651666D01*
X156093333Y-44700000D02*
X156060000Y-44733333D01*
X155960000Y-44766666D01*
X155893333Y-44766666D01*
X155793333Y-44733333D01*
X155726666Y-44666666D01*
X155693333Y-44600000D01*
X155660000Y-44466666D01*
X155660000Y-44366666D01*
X155693333Y-44233333D01*
X155726666Y-44166666D01*
X155793333Y-44100000D01*
X155893333Y-44066666D01*
X155960000Y-44066666D01*
X156060000Y-44100000D01*
X156093333Y-44133333D01*
X156693333Y-44066666D02*
X156560000Y-44066666D01*
X156493333Y-44100000D01*
X156460000Y-44133333D01*
X156393333Y-44233333D01*
X156360000Y-44366666D01*
X156360000Y-44633333D01*
X156393333Y-44700000D01*
X156426666Y-44733333D01*
X156493333Y-44766666D01*
X156626666Y-44766666D01*
X156693333Y-44733333D01*
X156726666Y-44700000D01*
X156760000Y-44633333D01*
X156760000Y-44466666D01*
X156726666Y-44400000D01*
X156693333Y-44366666D01*
X156626666Y-44333333D01*
X156493333Y-44333333D01*
X156426666Y-44366666D01*
X156393333Y-44400000D01*
X156360000Y-44466666D01*
X157731666Y-46671666D02*
X157331666Y-46671666D01*
X157531666Y-46671666D02*
X157531666Y-45971666D01*
X157465000Y-46071666D01*
X157398333Y-46138333D01*
X157331666Y-46171666D01*
X158165000Y-45971666D02*
X158231666Y-45971666D01*
X158298333Y-46005000D01*
X158331666Y-46038333D01*
X158365000Y-46105000D01*
X158398333Y-46238333D01*
X158398333Y-46405000D01*
X158365000Y-46538333D01*
X158331666Y-46605000D01*
X158298333Y-46638333D01*
X158231666Y-46671666D01*
X158165000Y-46671666D01*
X158098333Y-46638333D01*
X158065000Y-46605000D01*
X158031666Y-46538333D01*
X157998333Y-46405000D01*
X157998333Y-46238333D01*
X158031666Y-46105000D01*
X158065000Y-46038333D01*
X158098333Y-46005000D01*
X158165000Y-45971666D01*
X158998333Y-46205000D02*
X158998333Y-46671666D01*
X158698333Y-46205000D02*
X158698333Y-46571666D01*
X158731666Y-46638333D01*
X158798333Y-46671666D01*
X158898333Y-46671666D01*
X158965000Y-46638333D01*
X158998333Y-46605000D01*
X159831666Y-45938333D02*
X159231666Y-46838333D01*
X160398333Y-45971666D02*
X160065000Y-45971666D01*
X160031666Y-46305000D01*
X160065000Y-46271666D01*
X160131666Y-46238333D01*
X160298333Y-46238333D01*
X160365000Y-46271666D01*
X160398333Y-46305000D01*
X160431666Y-46371666D01*
X160431666Y-46538333D01*
X160398333Y-46605000D01*
X160365000Y-46638333D01*
X160298333Y-46671666D01*
X160131666Y-46671666D01*
X160065000Y-46638333D01*
X160031666Y-46605000D01*
X160865000Y-45971666D02*
X160931666Y-45971666D01*
X160998333Y-46005000D01*
X161031666Y-46038333D01*
X161065000Y-46105000D01*
X161098333Y-46238333D01*
X161098333Y-46405000D01*
X161065000Y-46538333D01*
X161031666Y-46605000D01*
X160998333Y-46638333D01*
X160931666Y-46671666D01*
X160865000Y-46671666D01*
X160798333Y-46638333D01*
X160765000Y-46605000D01*
X160731666Y-46538333D01*
X160698333Y-46405000D01*
X160698333Y-46238333D01*
X160731666Y-46105000D01*
X160765000Y-46038333D01*
X160798333Y-46005000D01*
X160865000Y-45971666D01*
X161298333Y-45971666D02*
X161531666Y-46671666D01*
X161765000Y-45971666D01*
X156093333Y-40890000D02*
X156060000Y-40923333D01*
X155960000Y-40956666D01*
X155893333Y-40956666D01*
X155793333Y-40923333D01*
X155726666Y-40856666D01*
X155693333Y-40790000D01*
X155660000Y-40656666D01*
X155660000Y-40556666D01*
X155693333Y-40423333D01*
X155726666Y-40356666D01*
X155793333Y-40290000D01*
X155893333Y-40256666D01*
X155960000Y-40256666D01*
X156060000Y-40290000D01*
X156093333Y-40323333D01*
X156726666Y-40256666D02*
X156393333Y-40256666D01*
X156360000Y-40590000D01*
X156393333Y-40556666D01*
X156460000Y-40523333D01*
X156626666Y-40523333D01*
X156693333Y-40556666D01*
X156726666Y-40590000D01*
X156760000Y-40656666D01*
X156760000Y-40823333D01*
X156726666Y-40890000D01*
X156693333Y-40923333D01*
X156626666Y-40956666D01*
X156460000Y-40956666D01*
X156393333Y-40923333D01*
X156360000Y-40890000D01*
X157731666Y-42776666D02*
X157331666Y-42776666D01*
X157531666Y-42776666D02*
X157531666Y-42076666D01*
X157465000Y-42176666D01*
X157398333Y-42243333D01*
X157331666Y-42276666D01*
X158165000Y-42076666D02*
X158231666Y-42076666D01*
X158298333Y-42110000D01*
X158331666Y-42143333D01*
X158365000Y-42210000D01*
X158398333Y-42343333D01*
X158398333Y-42510000D01*
X158365000Y-42643333D01*
X158331666Y-42710000D01*
X158298333Y-42743333D01*
X158231666Y-42776666D01*
X158165000Y-42776666D01*
X158098333Y-42743333D01*
X158065000Y-42710000D01*
X158031666Y-42643333D01*
X157998333Y-42510000D01*
X157998333Y-42343333D01*
X158031666Y-42210000D01*
X158065000Y-42143333D01*
X158098333Y-42110000D01*
X158165000Y-42076666D01*
X158998333Y-42310000D02*
X158998333Y-42776666D01*
X158698333Y-42310000D02*
X158698333Y-42676666D01*
X158731666Y-42743333D01*
X158798333Y-42776666D01*
X158898333Y-42776666D01*
X158965000Y-42743333D01*
X158998333Y-42710000D01*
X159831666Y-42043333D02*
X159231666Y-42943333D01*
X160398333Y-42076666D02*
X160065000Y-42076666D01*
X160031666Y-42410000D01*
X160065000Y-42376666D01*
X160131666Y-42343333D01*
X160298333Y-42343333D01*
X160365000Y-42376666D01*
X160398333Y-42410000D01*
X160431666Y-42476666D01*
X160431666Y-42643333D01*
X160398333Y-42710000D01*
X160365000Y-42743333D01*
X160298333Y-42776666D01*
X160131666Y-42776666D01*
X160065000Y-42743333D01*
X160031666Y-42710000D01*
X160865000Y-42076666D02*
X160931666Y-42076666D01*
X160998333Y-42110000D01*
X161031666Y-42143333D01*
X161065000Y-42210000D01*
X161098333Y-42343333D01*
X161098333Y-42510000D01*
X161065000Y-42643333D01*
X161031666Y-42710000D01*
X160998333Y-42743333D01*
X160931666Y-42776666D01*
X160865000Y-42776666D01*
X160798333Y-42743333D01*
X160765000Y-42710000D01*
X160731666Y-42643333D01*
X160698333Y-42510000D01*
X160698333Y-42343333D01*
X160731666Y-42210000D01*
X160765000Y-42143333D01*
X160798333Y-42110000D01*
X160865000Y-42076666D01*
X161298333Y-42076666D02*
X161531666Y-42776666D01*
X161765000Y-42076666D01*
X153220000Y-74611666D02*
X152986666Y-74278333D01*
X152820000Y-74611666D02*
X152820000Y-73911666D01*
X153086666Y-73911666D01*
X153153333Y-73945000D01*
X153186666Y-73978333D01*
X153220000Y-74045000D01*
X153220000Y-74145000D01*
X153186666Y-74211666D01*
X153153333Y-74245000D01*
X153086666Y-74278333D01*
X152820000Y-74278333D01*
X153886666Y-74611666D02*
X153486666Y-74611666D01*
X153686666Y-74611666D02*
X153686666Y-73911666D01*
X153620000Y-74011666D01*
X153553333Y-74078333D01*
X153486666Y-74111666D01*
X154220000Y-74611666D02*
X154353333Y-74611666D01*
X154420000Y-74578333D01*
X154453333Y-74545000D01*
X154520000Y-74445000D01*
X154553333Y-74311666D01*
X154553333Y-74045000D01*
X154520000Y-73978333D01*
X154486666Y-73945000D01*
X154420000Y-73911666D01*
X154286666Y-73911666D01*
X154220000Y-73945000D01*
X154186666Y-73978333D01*
X154153333Y-74045000D01*
X154153333Y-74211666D01*
X154186666Y-74278333D01*
X154220000Y-74311666D01*
X154286666Y-74345000D01*
X154420000Y-74345000D01*
X154486666Y-74311666D01*
X154520000Y-74278333D01*
X154553333Y-74211666D01*
X154212500Y-76431666D02*
X153812500Y-76431666D01*
X154012500Y-76431666D02*
X154012500Y-75731666D01*
X153945833Y-75831666D01*
X153879166Y-75898333D01*
X153812500Y-75931666D01*
X154645833Y-75731666D02*
X154712500Y-75731666D01*
X154779166Y-75765000D01*
X154812500Y-75798333D01*
X154845833Y-75865000D01*
X154879166Y-75998333D01*
X154879166Y-76165000D01*
X154845833Y-76298333D01*
X154812500Y-76365000D01*
X154779166Y-76398333D01*
X154712500Y-76431666D01*
X154645833Y-76431666D01*
X154579166Y-76398333D01*
X154545833Y-76365000D01*
X154512500Y-76298333D01*
X154479166Y-76165000D01*
X154479166Y-75998333D01*
X154512500Y-75865000D01*
X154545833Y-75798333D01*
X154579166Y-75765000D01*
X154645833Y-75731666D01*
X155312500Y-75731666D02*
X155379166Y-75731666D01*
X155445833Y-75765000D01*
X155479166Y-75798333D01*
X155512500Y-75865000D01*
X155545833Y-75998333D01*
X155545833Y-76165000D01*
X155512500Y-76298333D01*
X155479166Y-76365000D01*
X155445833Y-76398333D01*
X155379166Y-76431666D01*
X155312500Y-76431666D01*
X155245833Y-76398333D01*
X155212500Y-76365000D01*
X155179166Y-76298333D01*
X155145833Y-76165000D01*
X155145833Y-75998333D01*
X155179166Y-75865000D01*
X155212500Y-75798333D01*
X155245833Y-75765000D01*
X155312500Y-75731666D01*
X156245833Y-76431666D02*
X156012500Y-76098333D01*
X155845833Y-76431666D02*
X155845833Y-75731666D01*
X156112500Y-75731666D01*
X156179166Y-75765000D01*
X156212500Y-75798333D01*
X156245833Y-75865000D01*
X156245833Y-75965000D01*
X156212500Y-76031666D01*
X156179166Y-76065000D01*
X156112500Y-76098333D01*
X155845833Y-76098333D01*
X157045833Y-75698333D02*
X156445833Y-76598333D01*
X157612500Y-75731666D02*
X157279166Y-75731666D01*
X157245833Y-76065000D01*
X157279166Y-76031666D01*
X157345833Y-75998333D01*
X157512500Y-75998333D01*
X157579166Y-76031666D01*
X157612500Y-76065000D01*
X157645833Y-76131666D01*
X157645833Y-76298333D01*
X157612500Y-76365000D01*
X157579166Y-76398333D01*
X157512500Y-76431666D01*
X157345833Y-76431666D01*
X157279166Y-76398333D01*
X157245833Y-76365000D01*
X158079166Y-75731666D02*
X158145833Y-75731666D01*
X158212500Y-75765000D01*
X158245833Y-75798333D01*
X158279166Y-75865000D01*
X158312500Y-75998333D01*
X158312500Y-76165000D01*
X158279166Y-76298333D01*
X158245833Y-76365000D01*
X158212500Y-76398333D01*
X158145833Y-76431666D01*
X158079166Y-76431666D01*
X158012500Y-76398333D01*
X157979166Y-76365000D01*
X157945833Y-76298333D01*
X157912500Y-76165000D01*
X157912500Y-75998333D01*
X157945833Y-75865000D01*
X157979166Y-75798333D01*
X158012500Y-75765000D01*
X158079166Y-75731666D01*
X158745833Y-75731666D02*
X158812500Y-75731666D01*
X158879166Y-75765000D01*
X158912500Y-75798333D01*
X158945833Y-75865000D01*
X158979166Y-75998333D01*
X158979166Y-76165000D01*
X158945833Y-76298333D01*
X158912500Y-76365000D01*
X158879166Y-76398333D01*
X158812500Y-76431666D01*
X158745833Y-76431666D01*
X158679166Y-76398333D01*
X158645833Y-76365000D01*
X158612500Y-76298333D01*
X158579166Y-76165000D01*
X158579166Y-75998333D01*
X158612500Y-75865000D01*
X158645833Y-75798333D01*
X158679166Y-75765000D01*
X158745833Y-75731666D01*
X159279166Y-76431666D02*
X159279166Y-75965000D01*
X159279166Y-76031666D02*
X159312500Y-75998333D01*
X159379166Y-75965000D01*
X159479166Y-75965000D01*
X159545833Y-75998333D01*
X159579166Y-76065000D01*
X159579166Y-76431666D01*
X159579166Y-76065000D02*
X159612500Y-75998333D01*
X159679166Y-75965000D01*
X159779166Y-75965000D01*
X159845833Y-75998333D01*
X159879166Y-76065000D01*
X159879166Y-76431666D01*
X160145833Y-75731666D02*
X160312500Y-76431666D01*
X160445833Y-75931666D01*
X160579166Y-76431666D01*
X160745833Y-75731666D01*
X153220000Y-78421666D02*
X152986666Y-78088333D01*
X152820000Y-78421666D02*
X152820000Y-77721666D01*
X153086666Y-77721666D01*
X153153333Y-77755000D01*
X153186666Y-77788333D01*
X153220000Y-77855000D01*
X153220000Y-77955000D01*
X153186666Y-78021666D01*
X153153333Y-78055000D01*
X153086666Y-78088333D01*
X152820000Y-78088333D01*
X153886666Y-78421666D02*
X153486666Y-78421666D01*
X153686666Y-78421666D02*
X153686666Y-77721666D01*
X153620000Y-77821666D01*
X153553333Y-77888333D01*
X153486666Y-77921666D01*
X154286666Y-78021666D02*
X154220000Y-77988333D01*
X154186666Y-77955000D01*
X154153333Y-77888333D01*
X154153333Y-77855000D01*
X154186666Y-77788333D01*
X154220000Y-77755000D01*
X154286666Y-77721666D01*
X154420000Y-77721666D01*
X154486666Y-77755000D01*
X154520000Y-77788333D01*
X154553333Y-77855000D01*
X154553333Y-77888333D01*
X154520000Y-77955000D01*
X154486666Y-77988333D01*
X154420000Y-78021666D01*
X154286666Y-78021666D01*
X154220000Y-78055000D01*
X154186666Y-78088333D01*
X154153333Y-78155000D01*
X154153333Y-78288333D01*
X154186666Y-78355000D01*
X154220000Y-78388333D01*
X154286666Y-78421666D01*
X154420000Y-78421666D01*
X154486666Y-78388333D01*
X154520000Y-78355000D01*
X154553333Y-78288333D01*
X154553333Y-78155000D01*
X154520000Y-78088333D01*
X154486666Y-78055000D01*
X154420000Y-78021666D01*
X154212500Y-80241666D02*
X153812500Y-80241666D01*
X154012500Y-80241666D02*
X154012500Y-79541666D01*
X153945833Y-79641666D01*
X153879166Y-79708333D01*
X153812500Y-79741666D01*
X154645833Y-79541666D02*
X154712500Y-79541666D01*
X154779166Y-79575000D01*
X154812500Y-79608333D01*
X154845833Y-79675000D01*
X154879166Y-79808333D01*
X154879166Y-79975000D01*
X154845833Y-80108333D01*
X154812500Y-80175000D01*
X154779166Y-80208333D01*
X154712500Y-80241666D01*
X154645833Y-80241666D01*
X154579166Y-80208333D01*
X154545833Y-80175000D01*
X154512500Y-80108333D01*
X154479166Y-79975000D01*
X154479166Y-79808333D01*
X154512500Y-79675000D01*
X154545833Y-79608333D01*
X154579166Y-79575000D01*
X154645833Y-79541666D01*
X155312500Y-79541666D02*
X155379166Y-79541666D01*
X155445833Y-79575000D01*
X155479166Y-79608333D01*
X155512500Y-79675000D01*
X155545833Y-79808333D01*
X155545833Y-79975000D01*
X155512500Y-80108333D01*
X155479166Y-80175000D01*
X155445833Y-80208333D01*
X155379166Y-80241666D01*
X155312500Y-80241666D01*
X155245833Y-80208333D01*
X155212500Y-80175000D01*
X155179166Y-80108333D01*
X155145833Y-79975000D01*
X155145833Y-79808333D01*
X155179166Y-79675000D01*
X155212500Y-79608333D01*
X155245833Y-79575000D01*
X155312500Y-79541666D01*
X156245833Y-80241666D02*
X156012500Y-79908333D01*
X155845833Y-80241666D02*
X155845833Y-79541666D01*
X156112500Y-79541666D01*
X156179166Y-79575000D01*
X156212500Y-79608333D01*
X156245833Y-79675000D01*
X156245833Y-79775000D01*
X156212500Y-79841666D01*
X156179166Y-79875000D01*
X156112500Y-79908333D01*
X155845833Y-79908333D01*
X157045833Y-79508333D02*
X156445833Y-80408333D01*
X157612500Y-79541666D02*
X157279166Y-79541666D01*
X157245833Y-79875000D01*
X157279166Y-79841666D01*
X157345833Y-79808333D01*
X157512500Y-79808333D01*
X157579166Y-79841666D01*
X157612500Y-79875000D01*
X157645833Y-79941666D01*
X157645833Y-80108333D01*
X157612500Y-80175000D01*
X157579166Y-80208333D01*
X157512500Y-80241666D01*
X157345833Y-80241666D01*
X157279166Y-80208333D01*
X157245833Y-80175000D01*
X158079166Y-79541666D02*
X158145833Y-79541666D01*
X158212500Y-79575000D01*
X158245833Y-79608333D01*
X158279166Y-79675000D01*
X158312500Y-79808333D01*
X158312500Y-79975000D01*
X158279166Y-80108333D01*
X158245833Y-80175000D01*
X158212500Y-80208333D01*
X158145833Y-80241666D01*
X158079166Y-80241666D01*
X158012500Y-80208333D01*
X157979166Y-80175000D01*
X157945833Y-80108333D01*
X157912500Y-79975000D01*
X157912500Y-79808333D01*
X157945833Y-79675000D01*
X157979166Y-79608333D01*
X158012500Y-79575000D01*
X158079166Y-79541666D01*
X158745833Y-79541666D02*
X158812500Y-79541666D01*
X158879166Y-79575000D01*
X158912500Y-79608333D01*
X158945833Y-79675000D01*
X158979166Y-79808333D01*
X158979166Y-79975000D01*
X158945833Y-80108333D01*
X158912500Y-80175000D01*
X158879166Y-80208333D01*
X158812500Y-80241666D01*
X158745833Y-80241666D01*
X158679166Y-80208333D01*
X158645833Y-80175000D01*
X158612500Y-80108333D01*
X158579166Y-79975000D01*
X158579166Y-79808333D01*
X158612500Y-79675000D01*
X158645833Y-79608333D01*
X158679166Y-79575000D01*
X158745833Y-79541666D01*
X159279166Y-80241666D02*
X159279166Y-79775000D01*
X159279166Y-79841666D02*
X159312500Y-79808333D01*
X159379166Y-79775000D01*
X159479166Y-79775000D01*
X159545833Y-79808333D01*
X159579166Y-79875000D01*
X159579166Y-80241666D01*
X159579166Y-79875000D02*
X159612500Y-79808333D01*
X159679166Y-79775000D01*
X159779166Y-79775000D01*
X159845833Y-79808333D01*
X159879166Y-79875000D01*
X159879166Y-80241666D01*
X160145833Y-79541666D02*
X160312500Y-80241666D01*
X160445833Y-79741666D01*
X160579166Y-80241666D01*
X160745833Y-79541666D01*
X159191333Y-81409333D02*
X159124666Y-81376000D01*
X159058000Y-81309333D01*
X158958000Y-81209333D01*
X158891333Y-81176000D01*
X158824666Y-81176000D01*
X158858000Y-81342666D02*
X158791333Y-81309333D01*
X158724666Y-81242666D01*
X158691333Y-81109333D01*
X158691333Y-80876000D01*
X158724666Y-80742666D01*
X158791333Y-80676000D01*
X158858000Y-80642666D01*
X158991333Y-80642666D01*
X159058000Y-80676000D01*
X159124666Y-80742666D01*
X159158000Y-80876000D01*
X159158000Y-81109333D01*
X159124666Y-81242666D01*
X159058000Y-81309333D01*
X158991333Y-81342666D01*
X158858000Y-81342666D01*
X159824666Y-81342666D02*
X159424666Y-81342666D01*
X159624666Y-81342666D02*
X159624666Y-80642666D01*
X159558000Y-80742666D01*
X159491333Y-80809333D01*
X159424666Y-80842666D01*
X157368333Y-85294000D02*
X157468333Y-85327333D01*
X157501666Y-85360666D01*
X157535000Y-85427333D01*
X157535000Y-85527333D01*
X157501666Y-85594000D01*
X157468333Y-85627333D01*
X157401666Y-85660666D01*
X157135000Y-85660666D01*
X157135000Y-84960666D01*
X157368333Y-84960666D01*
X157435000Y-84994000D01*
X157468333Y-85027333D01*
X157501666Y-85094000D01*
X157501666Y-85160666D01*
X157468333Y-85227333D01*
X157435000Y-85260666D01*
X157368333Y-85294000D01*
X157135000Y-85294000D01*
X157801666Y-85627333D02*
X157901666Y-85660666D01*
X158068333Y-85660666D01*
X158135000Y-85627333D01*
X158168333Y-85594000D01*
X158201666Y-85527333D01*
X158201666Y-85460666D01*
X158168333Y-85394000D01*
X158135000Y-85360666D01*
X158068333Y-85327333D01*
X157935000Y-85294000D01*
X157868333Y-85260666D01*
X157835000Y-85227333D01*
X157801666Y-85160666D01*
X157801666Y-85094000D01*
X157835000Y-85027333D01*
X157868333Y-84994000D01*
X157935000Y-84960666D01*
X158101666Y-84960666D01*
X158201666Y-84994000D01*
X158468333Y-85627333D02*
X158568333Y-85660666D01*
X158735000Y-85660666D01*
X158801666Y-85627333D01*
X158835000Y-85594000D01*
X158868333Y-85527333D01*
X158868333Y-85460666D01*
X158835000Y-85394000D01*
X158801666Y-85360666D01*
X158735000Y-85327333D01*
X158601666Y-85294000D01*
X158535000Y-85260666D01*
X158501666Y-85227333D01*
X158468333Y-85160666D01*
X158468333Y-85094000D01*
X158501666Y-85027333D01*
X158535000Y-84994000D01*
X158601666Y-84960666D01*
X158768333Y-84960666D01*
X158868333Y-84994000D01*
X159535000Y-85660666D02*
X159135000Y-85660666D01*
X159335000Y-85660666D02*
X159335000Y-84960666D01*
X159268333Y-85060666D01*
X159201666Y-85127333D01*
X159135000Y-85160666D01*
X159768333Y-84960666D02*
X160201666Y-84960666D01*
X159968333Y-85227333D01*
X160068333Y-85227333D01*
X160135000Y-85260666D01*
X160168333Y-85294000D01*
X160201666Y-85360666D01*
X160201666Y-85527333D01*
X160168333Y-85594000D01*
X160135000Y-85627333D01*
X160068333Y-85660666D01*
X159868333Y-85660666D01*
X159801666Y-85627333D01*
X159768333Y-85594000D01*
X160601666Y-85260666D02*
X160535000Y-85227333D01*
X160501666Y-85194000D01*
X160468333Y-85127333D01*
X160468333Y-85094000D01*
X160501666Y-85027333D01*
X160535000Y-84994000D01*
X160601666Y-84960666D01*
X160735000Y-84960666D01*
X160801666Y-84994000D01*
X160835000Y-85027333D01*
X160868333Y-85094000D01*
X160868333Y-85127333D01*
X160835000Y-85194000D01*
X160801666Y-85227333D01*
X160735000Y-85260666D01*
X160601666Y-85260666D01*
X160535000Y-85294000D01*
X160501666Y-85327333D01*
X160468333Y-85394000D01*
X160468333Y-85527333D01*
X160501666Y-85594000D01*
X160535000Y-85627333D01*
X160601666Y-85660666D01*
X160735000Y-85660666D01*
X160801666Y-85627333D01*
X160835000Y-85594000D01*
X160868333Y-85527333D01*
X160868333Y-85394000D01*
X160835000Y-85327333D01*
X160801666Y-85294000D01*
X160735000Y-85260666D01*
X161101666Y-84960666D02*
X161268333Y-85660666D01*
X161401666Y-85160666D01*
X161535000Y-85660666D01*
X161701666Y-84960666D01*
X160906666Y-77068333D02*
X161406666Y-77068333D01*
X161506666Y-77101666D01*
X161573333Y-77168333D01*
X161606666Y-77268333D01*
X161606666Y-77335000D01*
X160906666Y-76801666D02*
X160906666Y-76335000D01*
X161606666Y-76635000D01*
X160906666Y-68813333D02*
X161406666Y-68813333D01*
X161506666Y-68846666D01*
X161573333Y-68913333D01*
X161606666Y-69013333D01*
X161606666Y-69080000D01*
X160906666Y-68180000D02*
X160906666Y-68313333D01*
X160940000Y-68380000D01*
X160973333Y-68413333D01*
X161073333Y-68480000D01*
X161206666Y-68513333D01*
X161473333Y-68513333D01*
X161540000Y-68480000D01*
X161573333Y-68446666D01*
X161606666Y-68380000D01*
X161606666Y-68246666D01*
X161573333Y-68180000D01*
X161540000Y-68146666D01*
X161473333Y-68113333D01*
X161306666Y-68113333D01*
X161240000Y-68146666D01*
X161206666Y-68180000D01*
X161173333Y-68246666D01*
X161173333Y-68380000D01*
X161206666Y-68446666D01*
X161240000Y-68480000D01*
X161306666Y-68513333D01*
X160906666Y-61193333D02*
X161406666Y-61193333D01*
X161506666Y-61226666D01*
X161573333Y-61293333D01*
X161606666Y-61393333D01*
X161606666Y-61460000D01*
X160906666Y-60526666D02*
X160906666Y-60860000D01*
X161240000Y-60893333D01*
X161206666Y-60860000D01*
X161173333Y-60793333D01*
X161173333Y-60626666D01*
X161206666Y-60560000D01*
X161240000Y-60526666D01*
X161306666Y-60493333D01*
X161473333Y-60493333D01*
X161540000Y-60526666D01*
X161573333Y-60560000D01*
X161606666Y-60626666D01*
X161606666Y-60793333D01*
X161573333Y-60860000D01*
X161540000Y-60893333D01*
X160906666Y-52938333D02*
X161406666Y-52938333D01*
X161506666Y-52971666D01*
X161573333Y-53038333D01*
X161606666Y-53138333D01*
X161606666Y-53205000D01*
X161140000Y-52305000D02*
X161606666Y-52305000D01*
X160873333Y-52471666D02*
X161373333Y-52638333D01*
X161373333Y-52205000D01*
X160906666Y-86593333D02*
X161406666Y-86593333D01*
X161506666Y-86626666D01*
X161573333Y-86693333D01*
X161606666Y-86793333D01*
X161606666Y-86860000D01*
X160906666Y-86326666D02*
X160906666Y-85893333D01*
X161173333Y-86126666D01*
X161173333Y-86026666D01*
X161206666Y-85960000D01*
X161240000Y-85926666D01*
X161306666Y-85893333D01*
X161473333Y-85893333D01*
X161540000Y-85926666D01*
X161573333Y-85960000D01*
X161606666Y-86026666D01*
X161606666Y-86226666D01*
X161573333Y-86293333D01*
X161540000Y-86326666D01*
D10*
X121653333Y-82619904D02*
X121653333Y-83191333D01*
X121615238Y-83305619D01*
X121539047Y-83381809D01*
X121424761Y-83419904D01*
X121348571Y-83419904D01*
X122453333Y-83419904D02*
X121996190Y-83419904D01*
X122224761Y-83419904D02*
X122224761Y-82619904D01*
X122148571Y-82734190D01*
X122072380Y-82810380D01*
X121996190Y-82848476D01*
X136855333Y-50615809D02*
X136969619Y-50653904D01*
X137160095Y-50653904D01*
X137236285Y-50615809D01*
X137274380Y-50577714D01*
X137312476Y-50501523D01*
X137312476Y-50425333D01*
X137274380Y-50349142D01*
X137236285Y-50311047D01*
X137160095Y-50272952D01*
X137007714Y-50234857D01*
X136931523Y-50196761D01*
X136893428Y-50158666D01*
X136855333Y-50082476D01*
X136855333Y-50006285D01*
X136893428Y-49930095D01*
X136931523Y-49892000D01*
X137007714Y-49853904D01*
X137198190Y-49853904D01*
X137312476Y-49892000D01*
X137579142Y-49853904D02*
X137769619Y-50653904D01*
X137922000Y-50082476D01*
X138074380Y-50653904D01*
X138264857Y-49853904D01*
X138531523Y-49930095D02*
X138569619Y-49892000D01*
X138645809Y-49853904D01*
X138836285Y-49853904D01*
X138912476Y-49892000D01*
X138950571Y-49930095D01*
X138988666Y-50006285D01*
X138988666Y-50082476D01*
X138950571Y-50196761D01*
X138493428Y-50653904D01*
X138988666Y-50653904D01*
X128898666Y-69119714D02*
X128860571Y-69157809D01*
X128746285Y-69195904D01*
X128670095Y-69195904D01*
X128555809Y-69157809D01*
X128479619Y-69081619D01*
X128441523Y-69005428D01*
X128403428Y-68853047D01*
X128403428Y-68738761D01*
X128441523Y-68586380D01*
X128479619Y-68510190D01*
X128555809Y-68434000D01*
X128670095Y-68395904D01*
X128746285Y-68395904D01*
X128860571Y-68434000D01*
X128898666Y-68472095D01*
X129660571Y-69195904D02*
X129203428Y-69195904D01*
X129432000Y-69195904D02*
X129432000Y-68395904D01*
X129355809Y-68510190D01*
X129279619Y-68586380D01*
X129203428Y-68624476D01*
D11*
X127248666Y-72706666D02*
X126848666Y-72706666D01*
X127048666Y-72706666D02*
X127048666Y-72006666D01*
X126982000Y-72106666D01*
X126915333Y-72173333D01*
X126848666Y-72206666D01*
X127682000Y-72006666D02*
X127748666Y-72006666D01*
X127815333Y-72040000D01*
X127848666Y-72073333D01*
X127882000Y-72140000D01*
X127915333Y-72273333D01*
X127915333Y-72440000D01*
X127882000Y-72573333D01*
X127848666Y-72640000D01*
X127815333Y-72673333D01*
X127748666Y-72706666D01*
X127682000Y-72706666D01*
X127615333Y-72673333D01*
X127582000Y-72640000D01*
X127548666Y-72573333D01*
X127515333Y-72440000D01*
X127515333Y-72273333D01*
X127548666Y-72140000D01*
X127582000Y-72073333D01*
X127615333Y-72040000D01*
X127682000Y-72006666D01*
X128515333Y-72240000D02*
X128515333Y-72706666D01*
X128215333Y-72240000D02*
X128215333Y-72606666D01*
X128248666Y-72673333D01*
X128315333Y-72706666D01*
X128415333Y-72706666D01*
X128482000Y-72673333D01*
X128515333Y-72640000D01*
X129348666Y-71973333D02*
X128748666Y-72873333D01*
X129915333Y-72006666D02*
X129582000Y-72006666D01*
X129548666Y-72340000D01*
X129582000Y-72306666D01*
X129648666Y-72273333D01*
X129815333Y-72273333D01*
X129882000Y-72306666D01*
X129915333Y-72340000D01*
X129948666Y-72406666D01*
X129948666Y-72573333D01*
X129915333Y-72640000D01*
X129882000Y-72673333D01*
X129815333Y-72706666D01*
X129648666Y-72706666D01*
X129582000Y-72673333D01*
X129548666Y-72640000D01*
X130382000Y-72006666D02*
X130448666Y-72006666D01*
X130515333Y-72040000D01*
X130548666Y-72073333D01*
X130582000Y-72140000D01*
X130615333Y-72273333D01*
X130615333Y-72440000D01*
X130582000Y-72573333D01*
X130548666Y-72640000D01*
X130515333Y-72673333D01*
X130448666Y-72706666D01*
X130382000Y-72706666D01*
X130315333Y-72673333D01*
X130282000Y-72640000D01*
X130248666Y-72573333D01*
X130215333Y-72440000D01*
X130215333Y-72273333D01*
X130248666Y-72140000D01*
X130282000Y-72073333D01*
X130315333Y-72040000D01*
X130382000Y-72006666D01*
X130815333Y-72006666D02*
X131048666Y-72706666D01*
X131282000Y-72006666D01*
D10*
X133978666Y-62515714D02*
X133940571Y-62553809D01*
X133826285Y-62591904D01*
X133750095Y-62591904D01*
X133635809Y-62553809D01*
X133559619Y-62477619D01*
X133521523Y-62401428D01*
X133483428Y-62249047D01*
X133483428Y-62134761D01*
X133521523Y-61982380D01*
X133559619Y-61906190D01*
X133635809Y-61830000D01*
X133750095Y-61791904D01*
X133826285Y-61791904D01*
X133940571Y-61830000D01*
X133978666Y-61868095D01*
X134283428Y-61868095D02*
X134321523Y-61830000D01*
X134397714Y-61791904D01*
X134588190Y-61791904D01*
X134664380Y-61830000D01*
X134702476Y-61868095D01*
X134740571Y-61944285D01*
X134740571Y-62020476D01*
X134702476Y-62134761D01*
X134245333Y-62591904D01*
X134740571Y-62591904D01*
D11*
X134800000Y-71732000D02*
X134800000Y-72198666D01*
X134633333Y-71465333D02*
X134466666Y-71965333D01*
X134900000Y-71965333D01*
X135100000Y-71498666D02*
X135566666Y-71498666D01*
X135266666Y-72198666D01*
X136133333Y-71732000D02*
X136133333Y-72198666D01*
X135833333Y-71732000D02*
X135833333Y-72098666D01*
X135866666Y-72165333D01*
X135933333Y-72198666D01*
X136033333Y-72198666D01*
X136100000Y-72165333D01*
X136133333Y-72132000D01*
X136966666Y-71465333D02*
X136366666Y-72365333D01*
X137500000Y-71498666D02*
X137366666Y-71498666D01*
X137300000Y-71532000D01*
X137266666Y-71565333D01*
X137200000Y-71665333D01*
X137166666Y-71798666D01*
X137166666Y-72065333D01*
X137200000Y-72132000D01*
X137233333Y-72165333D01*
X137300000Y-72198666D01*
X137433333Y-72198666D01*
X137500000Y-72165333D01*
X137533333Y-72132000D01*
X137566666Y-72065333D01*
X137566666Y-71898666D01*
X137533333Y-71832000D01*
X137500000Y-71798666D01*
X137433333Y-71765333D01*
X137300000Y-71765333D01*
X137233333Y-71798666D01*
X137200000Y-71832000D01*
X137166666Y-71898666D01*
X137800000Y-71498666D02*
X138233333Y-71498666D01*
X138000000Y-71765333D01*
X138100000Y-71765333D01*
X138166666Y-71798666D01*
X138200000Y-71832000D01*
X138233333Y-71898666D01*
X138233333Y-72065333D01*
X138200000Y-72132000D01*
X138166666Y-72165333D01*
X138100000Y-72198666D01*
X137900000Y-72198666D01*
X137833333Y-72165333D01*
X137800000Y-72132000D01*
X138433333Y-71498666D02*
X138666666Y-72198666D01*
X138900000Y-71498666D01*
D10*
X131489047Y-71037428D02*
X132250952Y-71037428D01*
X131870000Y-71418380D02*
X131870000Y-70656476D01*
X121951714Y-60815333D02*
X121989809Y-60853428D01*
X122027904Y-60967714D01*
X122027904Y-61043904D01*
X121989809Y-61158190D01*
X121913619Y-61234380D01*
X121837428Y-61272476D01*
X121685047Y-61310571D01*
X121570761Y-61310571D01*
X121418380Y-61272476D01*
X121342190Y-61234380D01*
X121266000Y-61158190D01*
X121227904Y-61043904D01*
X121227904Y-60967714D01*
X121266000Y-60853428D01*
X121304095Y-60815333D01*
X121227904Y-60548666D02*
X121227904Y-60053428D01*
X121532666Y-60320095D01*
X121532666Y-60205809D01*
X121570761Y-60129619D01*
X121608857Y-60091523D01*
X121685047Y-60053428D01*
X121875523Y-60053428D01*
X121951714Y-60091523D01*
X121989809Y-60129619D01*
X122027904Y-60205809D01*
X122027904Y-60434380D01*
X121989809Y-60510571D01*
X121951714Y-60548666D01*
D11*
X124268666Y-61465333D02*
X124268666Y-61865333D01*
X124268666Y-61665333D02*
X123568666Y-61665333D01*
X123668666Y-61732000D01*
X123735333Y-61798666D01*
X123768666Y-61865333D01*
X123568666Y-61032000D02*
X123568666Y-60965333D01*
X123602000Y-60898666D01*
X123635333Y-60865333D01*
X123702000Y-60832000D01*
X123835333Y-60798666D01*
X124002000Y-60798666D01*
X124135333Y-60832000D01*
X124202000Y-60865333D01*
X124235333Y-60898666D01*
X124268666Y-60965333D01*
X124268666Y-61032000D01*
X124235333Y-61098666D01*
X124202000Y-61132000D01*
X124135333Y-61165333D01*
X124002000Y-61198666D01*
X123835333Y-61198666D01*
X123702000Y-61165333D01*
X123635333Y-61132000D01*
X123602000Y-61098666D01*
X123568666Y-61032000D01*
X123568666Y-60365333D02*
X123568666Y-60298666D01*
X123602000Y-60232000D01*
X123635333Y-60198666D01*
X123702000Y-60165333D01*
X123835333Y-60132000D01*
X124002000Y-60132000D01*
X124135333Y-60165333D01*
X124202000Y-60198666D01*
X124235333Y-60232000D01*
X124268666Y-60298666D01*
X124268666Y-60365333D01*
X124235333Y-60432000D01*
X124202000Y-60465333D01*
X124135333Y-60498666D01*
X124002000Y-60532000D01*
X123835333Y-60532000D01*
X123702000Y-60498666D01*
X123635333Y-60465333D01*
X123602000Y-60432000D01*
X123568666Y-60365333D01*
X123802000Y-59832000D02*
X124268666Y-59832000D01*
X123868666Y-59832000D02*
X123835333Y-59798666D01*
X123802000Y-59732000D01*
X123802000Y-59632000D01*
X123835333Y-59565333D01*
X123902000Y-59532000D01*
X124268666Y-59532000D01*
D10*
X143795714Y-55239333D02*
X143833809Y-55277428D01*
X143871904Y-55391714D01*
X143871904Y-55467904D01*
X143833809Y-55582190D01*
X143757619Y-55658380D01*
X143681428Y-55696476D01*
X143529047Y-55734571D01*
X143414761Y-55734571D01*
X143262380Y-55696476D01*
X143186190Y-55658380D01*
X143110000Y-55582190D01*
X143071904Y-55467904D01*
X143071904Y-55391714D01*
X143110000Y-55277428D01*
X143148095Y-55239333D01*
X143338571Y-54553619D02*
X143871904Y-54553619D01*
X143033809Y-54744095D02*
X143605238Y-54934571D01*
X143605238Y-54439333D01*
D11*
X146366666Y-55889333D02*
X146366666Y-56289333D01*
X146366666Y-56089333D02*
X145666666Y-56089333D01*
X145766666Y-56156000D01*
X145833333Y-56222666D01*
X145866666Y-56289333D01*
X145666666Y-55456000D02*
X145666666Y-55389333D01*
X145700000Y-55322666D01*
X145733333Y-55289333D01*
X145800000Y-55256000D01*
X145933333Y-55222666D01*
X146100000Y-55222666D01*
X146233333Y-55256000D01*
X146300000Y-55289333D01*
X146333333Y-55322666D01*
X146366666Y-55389333D01*
X146366666Y-55456000D01*
X146333333Y-55522666D01*
X146300000Y-55556000D01*
X146233333Y-55589333D01*
X146100000Y-55622666D01*
X145933333Y-55622666D01*
X145800000Y-55589333D01*
X145733333Y-55556000D01*
X145700000Y-55522666D01*
X145666666Y-55456000D01*
X145666666Y-54789333D02*
X145666666Y-54722666D01*
X145700000Y-54656000D01*
X145733333Y-54622666D01*
X145800000Y-54589333D01*
X145933333Y-54556000D01*
X146100000Y-54556000D01*
X146233333Y-54589333D01*
X146300000Y-54622666D01*
X146333333Y-54656000D01*
X146366666Y-54722666D01*
X146366666Y-54789333D01*
X146333333Y-54856000D01*
X146300000Y-54889333D01*
X146233333Y-54922666D01*
X146100000Y-54956000D01*
X145933333Y-54956000D01*
X145800000Y-54922666D01*
X145733333Y-54889333D01*
X145700000Y-54856000D01*
X145666666Y-54789333D01*
X145900000Y-54256000D02*
X146366666Y-54256000D01*
X145966666Y-54256000D02*
X145933333Y-54222666D01*
X145900000Y-54156000D01*
X145900000Y-54056000D01*
X145933333Y-53989333D01*
X146000000Y-53956000D01*
X146366666Y-53956000D01*
D10*
X124858666Y-69957904D02*
X124592000Y-69576952D01*
X124401523Y-69957904D02*
X124401523Y-69157904D01*
X124706285Y-69157904D01*
X124782476Y-69196000D01*
X124820571Y-69234095D01*
X124858666Y-69310285D01*
X124858666Y-69424571D01*
X124820571Y-69500761D01*
X124782476Y-69538857D01*
X124706285Y-69576952D01*
X124401523Y-69576952D01*
X125620571Y-69957904D02*
X125163428Y-69957904D01*
X125392000Y-69957904D02*
X125392000Y-69157904D01*
X125315809Y-69272190D01*
X125239619Y-69348380D01*
X125163428Y-69386476D01*
D11*
X124175333Y-72073333D02*
X124208666Y-72040000D01*
X124275333Y-72006666D01*
X124442000Y-72006666D01*
X124508666Y-72040000D01*
X124542000Y-72073333D01*
X124575333Y-72140000D01*
X124575333Y-72206666D01*
X124542000Y-72306666D01*
X124142000Y-72706666D01*
X124575333Y-72706666D01*
X124808666Y-72006666D02*
X125275333Y-72006666D01*
X124975333Y-72706666D01*
X125542000Y-72706666D02*
X125542000Y-72006666D01*
X125608666Y-72440000D02*
X125808666Y-72706666D01*
X125808666Y-72240000D02*
X125542000Y-72506666D01*
D10*
X125100666Y-61575904D02*
X124834000Y-61194952D01*
X124643523Y-61575904D02*
X124643523Y-60775904D01*
X124948285Y-60775904D01*
X125024476Y-60814000D01*
X125062571Y-60852095D01*
X125100666Y-60928285D01*
X125100666Y-61042571D01*
X125062571Y-61118761D01*
X125024476Y-61156857D01*
X124948285Y-61194952D01*
X124643523Y-61194952D01*
X125405428Y-60852095D02*
X125443523Y-60814000D01*
X125519714Y-60775904D01*
X125710190Y-60775904D01*
X125786380Y-60814000D01*
X125824476Y-60852095D01*
X125862571Y-60928285D01*
X125862571Y-61004476D01*
X125824476Y-61118761D01*
X125367333Y-61575904D01*
X125862571Y-61575904D01*
D11*
X124805333Y-64070666D02*
X124405333Y-64070666D01*
X124605333Y-64070666D02*
X124605333Y-63370666D01*
X124538666Y-63470666D01*
X124472000Y-63537333D01*
X124405333Y-63570666D01*
X125105333Y-64070666D02*
X125105333Y-63370666D01*
X125172000Y-63804000D02*
X125372000Y-64070666D01*
X125372000Y-63604000D02*
X125105333Y-63870666D01*
X125805333Y-63370666D02*
X125872000Y-63370666D01*
X125938666Y-63404000D01*
X125972000Y-63437333D01*
X126005333Y-63504000D01*
X126038666Y-63637333D01*
X126038666Y-63804000D01*
X126005333Y-63937333D01*
X125972000Y-64004000D01*
X125938666Y-64037333D01*
X125872000Y-64070666D01*
X125805333Y-64070666D01*
X125738666Y-64037333D01*
X125705333Y-64004000D01*
X125672000Y-63937333D01*
X125638666Y-63804000D01*
X125638666Y-63637333D01*
X125672000Y-63504000D01*
X125705333Y-63437333D01*
X125738666Y-63404000D01*
X125805333Y-63370666D01*
D10*
X131172666Y-59617904D02*
X130906000Y-59236952D01*
X130715523Y-59617904D02*
X130715523Y-58817904D01*
X131020285Y-58817904D01*
X131096476Y-58856000D01*
X131134571Y-58894095D01*
X131172666Y-58970285D01*
X131172666Y-59084571D01*
X131134571Y-59160761D01*
X131096476Y-59198857D01*
X131020285Y-59236952D01*
X130715523Y-59236952D01*
X131858380Y-59084571D02*
X131858380Y-59617904D01*
X131667904Y-58779809D02*
X131477428Y-59351238D01*
X131972666Y-59351238D01*
D11*
X130822666Y-61822666D02*
X130689333Y-61822666D01*
X130622666Y-61856000D01*
X130589333Y-61889333D01*
X130522666Y-61989333D01*
X130489333Y-62122666D01*
X130489333Y-62389333D01*
X130522666Y-62456000D01*
X130556000Y-62489333D01*
X130622666Y-62522666D01*
X130756000Y-62522666D01*
X130822666Y-62489333D01*
X130856000Y-62456000D01*
X130889333Y-62389333D01*
X130889333Y-62222666D01*
X130856000Y-62156000D01*
X130822666Y-62122666D01*
X130756000Y-62089333D01*
X130622666Y-62089333D01*
X130556000Y-62122666D01*
X130522666Y-62156000D01*
X130489333Y-62222666D01*
X131189333Y-62522666D02*
X131189333Y-61822666D01*
X131256000Y-62256000D02*
X131456000Y-62522666D01*
X131456000Y-62056000D02*
X131189333Y-62322666D01*
X131856000Y-62122666D02*
X131789333Y-62089333D01*
X131756000Y-62056000D01*
X131722666Y-61989333D01*
X131722666Y-61956000D01*
X131756000Y-61889333D01*
X131789333Y-61856000D01*
X131856000Y-61822666D01*
X131989333Y-61822666D01*
X132056000Y-61856000D01*
X132089333Y-61889333D01*
X132122666Y-61956000D01*
X132122666Y-61989333D01*
X132089333Y-62056000D01*
X132056000Y-62089333D01*
X131989333Y-62122666D01*
X131856000Y-62122666D01*
X131789333Y-62156000D01*
X131756000Y-62189333D01*
X131722666Y-62256000D01*
X131722666Y-62389333D01*
X131756000Y-62456000D01*
X131789333Y-62489333D01*
X131856000Y-62522666D01*
X131989333Y-62522666D01*
X132056000Y-62489333D01*
X132089333Y-62456000D01*
X132122666Y-62389333D01*
X132122666Y-62256000D01*
X132089333Y-62189333D01*
X132056000Y-62156000D01*
X131989333Y-62122666D01*
D10*
X131184666Y-53955904D02*
X130918000Y-53574952D01*
X130727523Y-53955904D02*
X130727523Y-53155904D01*
X131032285Y-53155904D01*
X131108476Y-53194000D01*
X131146571Y-53232095D01*
X131184666Y-53308285D01*
X131184666Y-53422571D01*
X131146571Y-53498761D01*
X131108476Y-53536857D01*
X131032285Y-53574952D01*
X130727523Y-53574952D01*
X131908476Y-53155904D02*
X131527523Y-53155904D01*
X131489428Y-53536857D01*
X131527523Y-53498761D01*
X131603714Y-53460666D01*
X131794190Y-53460666D01*
X131870380Y-53498761D01*
X131908476Y-53536857D01*
X131946571Y-53613047D01*
X131946571Y-53803523D01*
X131908476Y-53879714D01*
X131870380Y-53917809D01*
X131794190Y-53955904D01*
X131603714Y-53955904D01*
X131527523Y-53917809D01*
X131489428Y-53879714D01*
D11*
X130501333Y-55817333D02*
X130534666Y-55784000D01*
X130601333Y-55750666D01*
X130768000Y-55750666D01*
X130834666Y-55784000D01*
X130868000Y-55817333D01*
X130901333Y-55884000D01*
X130901333Y-55950666D01*
X130868000Y-56050666D01*
X130468000Y-56450666D01*
X130901333Y-56450666D01*
X131201333Y-56450666D02*
X131201333Y-55750666D01*
X131268000Y-56184000D02*
X131468000Y-56450666D01*
X131468000Y-55984000D02*
X131201333Y-56250666D01*
X131701333Y-55750666D02*
X132168000Y-55750666D01*
X131868000Y-56450666D01*
D10*
X133204666Y-47679904D02*
X132938000Y-47298952D01*
X132747523Y-47679904D02*
X132747523Y-46879904D01*
X133052285Y-46879904D01*
X133128476Y-46918000D01*
X133166571Y-46956095D01*
X133204666Y-47032285D01*
X133204666Y-47146571D01*
X133166571Y-47222761D01*
X133128476Y-47260857D01*
X133052285Y-47298952D01*
X132747523Y-47298952D01*
X133890380Y-46879904D02*
X133738000Y-46879904D01*
X133661809Y-46918000D01*
X133623714Y-46956095D01*
X133547523Y-47070380D01*
X133509428Y-47222761D01*
X133509428Y-47527523D01*
X133547523Y-47603714D01*
X133585619Y-47641809D01*
X133661809Y-47679904D01*
X133814190Y-47679904D01*
X133890380Y-47641809D01*
X133928476Y-47603714D01*
X133966571Y-47527523D01*
X133966571Y-47337047D01*
X133928476Y-47260857D01*
X133890380Y-47222761D01*
X133814190Y-47184666D01*
X133661809Y-47184666D01*
X133585619Y-47222761D01*
X133547523Y-47260857D01*
X133509428Y-47337047D01*
D11*
X132266666Y-49954666D02*
X132200000Y-49921333D01*
X132166666Y-49888000D01*
X132133333Y-49821333D01*
X132133333Y-49788000D01*
X132166666Y-49721333D01*
X132200000Y-49688000D01*
X132266666Y-49654666D01*
X132400000Y-49654666D01*
X132466666Y-49688000D01*
X132500000Y-49721333D01*
X132533333Y-49788000D01*
X132533333Y-49821333D01*
X132500000Y-49888000D01*
X132466666Y-49921333D01*
X132400000Y-49954666D01*
X132266666Y-49954666D01*
X132200000Y-49988000D01*
X132166666Y-50021333D01*
X132133333Y-50088000D01*
X132133333Y-50221333D01*
X132166666Y-50288000D01*
X132200000Y-50321333D01*
X132266666Y-50354666D01*
X132400000Y-50354666D01*
X132466666Y-50321333D01*
X132500000Y-50288000D01*
X132533333Y-50221333D01*
X132533333Y-50088000D01*
X132500000Y-50021333D01*
X132466666Y-49988000D01*
X132400000Y-49954666D01*
X132800000Y-49721333D02*
X132833333Y-49688000D01*
X132900000Y-49654666D01*
X133066666Y-49654666D01*
X133133333Y-49688000D01*
X133166666Y-49721333D01*
X133200000Y-49788000D01*
X133200000Y-49854666D01*
X133166666Y-49954666D01*
X132766666Y-50354666D01*
X133200000Y-50354666D01*
X133633333Y-49654666D02*
X133700000Y-49654666D01*
X133766666Y-49688000D01*
X133800000Y-49721333D01*
X133833333Y-49788000D01*
X133866666Y-49921333D01*
X133866666Y-50088000D01*
X133833333Y-50221333D01*
X133800000Y-50288000D01*
X133766666Y-50321333D01*
X133700000Y-50354666D01*
X133633333Y-50354666D01*
X133566666Y-50321333D01*
X133533333Y-50288000D01*
X133500000Y-50221333D01*
X133466666Y-50088000D01*
X133466666Y-49921333D01*
X133500000Y-49788000D01*
X133533333Y-49721333D01*
X133566666Y-49688000D01*
X133633333Y-49654666D01*
X134566666Y-50354666D02*
X134333333Y-50021333D01*
X134166666Y-50354666D02*
X134166666Y-49654666D01*
X134433333Y-49654666D01*
X134500000Y-49688000D01*
X134533333Y-49721333D01*
X134566666Y-49788000D01*
X134566666Y-49888000D01*
X134533333Y-49954666D01*
X134500000Y-49988000D01*
X134433333Y-50021333D01*
X134166666Y-50021333D01*
D10*
X142855904Y-64649333D02*
X142474952Y-64916000D01*
X142855904Y-65106476D02*
X142055904Y-65106476D01*
X142055904Y-64801714D01*
X142094000Y-64725523D01*
X142132095Y-64687428D01*
X142208285Y-64649333D01*
X142322571Y-64649333D01*
X142398761Y-64687428D01*
X142436857Y-64725523D01*
X142474952Y-64801714D01*
X142474952Y-65106476D01*
X142055904Y-64382666D02*
X142055904Y-63849333D01*
X142855904Y-64192190D01*
D11*
X144950666Y-65599333D02*
X144917333Y-65666000D01*
X144884000Y-65699333D01*
X144817333Y-65732666D01*
X144784000Y-65732666D01*
X144717333Y-65699333D01*
X144684000Y-65666000D01*
X144650666Y-65599333D01*
X144650666Y-65466000D01*
X144684000Y-65399333D01*
X144717333Y-65366000D01*
X144784000Y-65332666D01*
X144817333Y-65332666D01*
X144884000Y-65366000D01*
X144917333Y-65399333D01*
X144950666Y-65466000D01*
X144950666Y-65599333D01*
X144984000Y-65666000D01*
X145017333Y-65699333D01*
X145084000Y-65732666D01*
X145217333Y-65732666D01*
X145284000Y-65699333D01*
X145317333Y-65666000D01*
X145350666Y-65599333D01*
X145350666Y-65466000D01*
X145317333Y-65399333D01*
X145284000Y-65366000D01*
X145217333Y-65332666D01*
X145084000Y-65332666D01*
X145017333Y-65366000D01*
X144984000Y-65399333D01*
X144950666Y-65466000D01*
X144717333Y-65066000D02*
X144684000Y-65032666D01*
X144650666Y-64966000D01*
X144650666Y-64799333D01*
X144684000Y-64732666D01*
X144717333Y-64699333D01*
X144784000Y-64666000D01*
X144850666Y-64666000D01*
X144950666Y-64699333D01*
X145350666Y-65099333D01*
X145350666Y-64666000D01*
X144650666Y-64232666D02*
X144650666Y-64166000D01*
X144684000Y-64099333D01*
X144717333Y-64066000D01*
X144784000Y-64032666D01*
X144917333Y-63999333D01*
X145084000Y-63999333D01*
X145217333Y-64032666D01*
X145284000Y-64066000D01*
X145317333Y-64099333D01*
X145350666Y-64166000D01*
X145350666Y-64232666D01*
X145317333Y-64299333D01*
X145284000Y-64332666D01*
X145217333Y-64366000D01*
X145084000Y-64399333D01*
X144917333Y-64399333D01*
X144784000Y-64366000D01*
X144717333Y-64332666D01*
X144684000Y-64299333D01*
X144650666Y-64232666D01*
X145350666Y-63299333D02*
X145017333Y-63532666D01*
X145350666Y-63699333D02*
X144650666Y-63699333D01*
X144650666Y-63432666D01*
X144684000Y-63366000D01*
X144717333Y-63332666D01*
X144784000Y-63299333D01*
X144884000Y-63299333D01*
X144950666Y-63332666D01*
X144984000Y-63366000D01*
X145017333Y-63432666D01*
X145017333Y-63699333D01*
D10*
X143871904Y-58553333D02*
X143490952Y-58820000D01*
X143871904Y-59010476D02*
X143071904Y-59010476D01*
X143071904Y-58705714D01*
X143110000Y-58629523D01*
X143148095Y-58591428D01*
X143224285Y-58553333D01*
X143338571Y-58553333D01*
X143414761Y-58591428D01*
X143452857Y-58629523D01*
X143490952Y-58705714D01*
X143490952Y-59010476D01*
X143414761Y-58096190D02*
X143376666Y-58172380D01*
X143338571Y-58210476D01*
X143262380Y-58248571D01*
X143224285Y-58248571D01*
X143148095Y-58210476D01*
X143110000Y-58172380D01*
X143071904Y-58096190D01*
X143071904Y-57943809D01*
X143110000Y-57867619D01*
X143148095Y-57829523D01*
X143224285Y-57791428D01*
X143262380Y-57791428D01*
X143338571Y-57829523D01*
X143376666Y-57867619D01*
X143414761Y-57943809D01*
X143414761Y-58096190D01*
X143452857Y-58172380D01*
X143490952Y-58210476D01*
X143567142Y-58248571D01*
X143719523Y-58248571D01*
X143795714Y-58210476D01*
X143833809Y-58172380D01*
X143871904Y-58096190D01*
X143871904Y-57943809D01*
X143833809Y-57867619D01*
X143795714Y-57829523D01*
X143719523Y-57791428D01*
X143567142Y-57791428D01*
X143490952Y-57829523D01*
X143452857Y-57867619D01*
X143414761Y-57943809D01*
D11*
X145666666Y-59670000D02*
X145666666Y-59236666D01*
X145933333Y-59470000D01*
X145933333Y-59370000D01*
X145966666Y-59303333D01*
X146000000Y-59270000D01*
X146066666Y-59236666D01*
X146233333Y-59236666D01*
X146300000Y-59270000D01*
X146333333Y-59303333D01*
X146366666Y-59370000D01*
X146366666Y-59570000D01*
X146333333Y-59636666D01*
X146300000Y-59670000D01*
X146366666Y-58903333D02*
X146366666Y-58770000D01*
X146333333Y-58703333D01*
X146300000Y-58670000D01*
X146200000Y-58603333D01*
X146066666Y-58570000D01*
X145800000Y-58570000D01*
X145733333Y-58603333D01*
X145700000Y-58636666D01*
X145666666Y-58703333D01*
X145666666Y-58836666D01*
X145700000Y-58903333D01*
X145733333Y-58936666D01*
X145800000Y-58970000D01*
X145966666Y-58970000D01*
X146033333Y-58936666D01*
X146066666Y-58903333D01*
X146100000Y-58836666D01*
X146100000Y-58703333D01*
X146066666Y-58636666D01*
X146033333Y-58603333D01*
X145966666Y-58570000D01*
X145666666Y-58136666D02*
X145666666Y-58070000D01*
X145700000Y-58003333D01*
X145733333Y-57970000D01*
X145800000Y-57936666D01*
X145933333Y-57903333D01*
X146100000Y-57903333D01*
X146233333Y-57936666D01*
X146300000Y-57970000D01*
X146333333Y-58003333D01*
X146366666Y-58070000D01*
X146366666Y-58136666D01*
X146333333Y-58203333D01*
X146300000Y-58236666D01*
X146233333Y-58270000D01*
X146100000Y-58303333D01*
X145933333Y-58303333D01*
X145800000Y-58270000D01*
X145733333Y-58236666D01*
X145700000Y-58203333D01*
X145666666Y-58136666D01*
X146366666Y-57203333D02*
X146033333Y-57436666D01*
X146366666Y-57603333D02*
X145666666Y-57603333D01*
X145666666Y-57336666D01*
X145700000Y-57270000D01*
X145733333Y-57236666D01*
X145800000Y-57203333D01*
X145900000Y-57203333D01*
X145966666Y-57236666D01*
X146000000Y-57270000D01*
X146033333Y-57336666D01*
X146033333Y-57603333D01*
D10*
X140594666Y-47605904D02*
X140328000Y-47224952D01*
X140137523Y-47605904D02*
X140137523Y-46805904D01*
X140442285Y-46805904D01*
X140518476Y-46844000D01*
X140556571Y-46882095D01*
X140594666Y-46958285D01*
X140594666Y-47072571D01*
X140556571Y-47148761D01*
X140518476Y-47186857D01*
X140442285Y-47224952D01*
X140137523Y-47224952D01*
X140975619Y-47605904D02*
X141128000Y-47605904D01*
X141204190Y-47567809D01*
X141242285Y-47529714D01*
X141318476Y-47415428D01*
X141356571Y-47263047D01*
X141356571Y-46958285D01*
X141318476Y-46882095D01*
X141280380Y-46844000D01*
X141204190Y-46805904D01*
X141051809Y-46805904D01*
X140975619Y-46844000D01*
X140937523Y-46882095D01*
X140899428Y-46958285D01*
X140899428Y-47148761D01*
X140937523Y-47224952D01*
X140975619Y-47263047D01*
X141051809Y-47301142D01*
X141204190Y-47301142D01*
X141280380Y-47263047D01*
X141318476Y-47224952D01*
X141356571Y-47148761D01*
D11*
X139499333Y-49721333D02*
X139532666Y-49688000D01*
X139599333Y-49654666D01*
X139766000Y-49654666D01*
X139832666Y-49688000D01*
X139866000Y-49721333D01*
X139899333Y-49788000D01*
X139899333Y-49854666D01*
X139866000Y-49954666D01*
X139466000Y-50354666D01*
X139899333Y-50354666D01*
X140132666Y-49654666D02*
X140599333Y-49654666D01*
X140299333Y-50354666D01*
X140999333Y-49654666D02*
X141066000Y-49654666D01*
X141132666Y-49688000D01*
X141166000Y-49721333D01*
X141199333Y-49788000D01*
X141232666Y-49921333D01*
X141232666Y-50088000D01*
X141199333Y-50221333D01*
X141166000Y-50288000D01*
X141132666Y-50321333D01*
X141066000Y-50354666D01*
X140999333Y-50354666D01*
X140932666Y-50321333D01*
X140899333Y-50288000D01*
X140866000Y-50221333D01*
X140832666Y-50088000D01*
X140832666Y-49921333D01*
X140866000Y-49788000D01*
X140899333Y-49721333D01*
X140932666Y-49688000D01*
X140999333Y-49654666D01*
X141932666Y-50354666D02*
X141699333Y-50021333D01*
X141532666Y-50354666D02*
X141532666Y-49654666D01*
X141799333Y-49654666D01*
X141866000Y-49688000D01*
X141899333Y-49721333D01*
X141932666Y-49788000D01*
X141932666Y-49888000D01*
X141899333Y-49954666D01*
X141866000Y-49988000D01*
X141799333Y-50021333D01*
X141532666Y-50021333D01*
D10*
X129467904Y-64776285D02*
X129086952Y-65042952D01*
X129467904Y-65233428D02*
X128667904Y-65233428D01*
X128667904Y-64928666D01*
X128706000Y-64852476D01*
X128744095Y-64814380D01*
X128820285Y-64776285D01*
X128934571Y-64776285D01*
X129010761Y-64814380D01*
X129048857Y-64852476D01*
X129086952Y-64928666D01*
X129086952Y-65233428D01*
X129467904Y-64014380D02*
X129467904Y-64471523D01*
X129467904Y-64242952D02*
X128667904Y-64242952D01*
X128782190Y-64319142D01*
X128858380Y-64395333D01*
X128896476Y-64471523D01*
X128667904Y-63519142D02*
X128667904Y-63442952D01*
X128706000Y-63366761D01*
X128744095Y-63328666D01*
X128820285Y-63290571D01*
X128972666Y-63252476D01*
X129163142Y-63252476D01*
X129315523Y-63290571D01*
X129391714Y-63328666D01*
X129429809Y-63366761D01*
X129467904Y-63442952D01*
X129467904Y-63519142D01*
X129429809Y-63595333D01*
X129391714Y-63633428D01*
X129315523Y-63671523D01*
X129163142Y-63709619D01*
X128972666Y-63709619D01*
X128820285Y-63671523D01*
X128744095Y-63633428D01*
X128706000Y-63595333D01*
X128667904Y-63519142D01*
D11*
X130872666Y-67872666D02*
X130872666Y-68272666D01*
X130872666Y-68072666D02*
X130172666Y-68072666D01*
X130272666Y-68139333D01*
X130339333Y-68206000D01*
X130372666Y-68272666D01*
X130172666Y-67439333D02*
X130172666Y-67372666D01*
X130206000Y-67306000D01*
X130239333Y-67272666D01*
X130306000Y-67239333D01*
X130439333Y-67206000D01*
X130606000Y-67206000D01*
X130739333Y-67239333D01*
X130806000Y-67272666D01*
X130839333Y-67306000D01*
X130872666Y-67372666D01*
X130872666Y-67439333D01*
X130839333Y-67506000D01*
X130806000Y-67539333D01*
X130739333Y-67572666D01*
X130606000Y-67606000D01*
X130439333Y-67606000D01*
X130306000Y-67572666D01*
X130239333Y-67539333D01*
X130206000Y-67506000D01*
X130172666Y-67439333D01*
X130172666Y-66772666D02*
X130172666Y-66706000D01*
X130206000Y-66639333D01*
X130239333Y-66606000D01*
X130306000Y-66572666D01*
X130439333Y-66539333D01*
X130606000Y-66539333D01*
X130739333Y-66572666D01*
X130806000Y-66606000D01*
X130839333Y-66639333D01*
X130872666Y-66706000D01*
X130872666Y-66772666D01*
X130839333Y-66839333D01*
X130806000Y-66872666D01*
X130739333Y-66906000D01*
X130606000Y-66939333D01*
X130439333Y-66939333D01*
X130306000Y-66906000D01*
X130239333Y-66872666D01*
X130206000Y-66839333D01*
X130172666Y-66772666D01*
X130872666Y-65839333D02*
X130539333Y-66072666D01*
X130872666Y-66239333D02*
X130172666Y-66239333D01*
X130172666Y-65972666D01*
X130206000Y-65906000D01*
X130239333Y-65872666D01*
X130306000Y-65839333D01*
X130406000Y-65839333D01*
X130472666Y-65872666D01*
X130506000Y-65906000D01*
X130539333Y-65972666D01*
X130539333Y-66239333D01*
D10*
X128505714Y-56495904D02*
X128239047Y-56114952D01*
X128048571Y-56495904D02*
X128048571Y-55695904D01*
X128353333Y-55695904D01*
X128429523Y-55734000D01*
X128467619Y-55772095D01*
X128505714Y-55848285D01*
X128505714Y-55962571D01*
X128467619Y-56038761D01*
X128429523Y-56076857D01*
X128353333Y-56114952D01*
X128048571Y-56114952D01*
X129267619Y-56495904D02*
X128810476Y-56495904D01*
X129039047Y-56495904D02*
X129039047Y-55695904D01*
X128962857Y-55810190D01*
X128886666Y-55886380D01*
X128810476Y-55924476D01*
X130029523Y-56495904D02*
X129572380Y-56495904D01*
X129800952Y-56495904D02*
X129800952Y-55695904D01*
X129724761Y-55810190D01*
X129648571Y-55886380D01*
X129572380Y-55924476D01*
D11*
X127791333Y-58357333D02*
X127824666Y-58324000D01*
X127891333Y-58290666D01*
X128058000Y-58290666D01*
X128124666Y-58324000D01*
X128158000Y-58357333D01*
X128191333Y-58424000D01*
X128191333Y-58490666D01*
X128158000Y-58590666D01*
X127758000Y-58990666D01*
X128191333Y-58990666D01*
X128458000Y-58357333D02*
X128491333Y-58324000D01*
X128558000Y-58290666D01*
X128724666Y-58290666D01*
X128791333Y-58324000D01*
X128824666Y-58357333D01*
X128858000Y-58424000D01*
X128858000Y-58490666D01*
X128824666Y-58590666D01*
X128424666Y-58990666D01*
X128858000Y-58990666D01*
X129291333Y-58290666D02*
X129358000Y-58290666D01*
X129424666Y-58324000D01*
X129458000Y-58357333D01*
X129491333Y-58424000D01*
X129524666Y-58557333D01*
X129524666Y-58724000D01*
X129491333Y-58857333D01*
X129458000Y-58924000D01*
X129424666Y-58957333D01*
X129358000Y-58990666D01*
X129291333Y-58990666D01*
X129224666Y-58957333D01*
X129191333Y-58924000D01*
X129158000Y-58857333D01*
X129124666Y-58724000D01*
X129124666Y-58557333D01*
X129158000Y-58424000D01*
X129191333Y-58357333D01*
X129224666Y-58324000D01*
X129291333Y-58290666D01*
X130224666Y-58990666D02*
X129991333Y-58657333D01*
X129824666Y-58990666D02*
X129824666Y-58290666D01*
X130091333Y-58290666D01*
X130158000Y-58324000D01*
X130191333Y-58357333D01*
X130224666Y-58424000D01*
X130224666Y-58524000D01*
X130191333Y-58590666D01*
X130158000Y-58624000D01*
X130091333Y-58657333D01*
X129824666Y-58657333D01*
D10*
X129799714Y-47679904D02*
X129533047Y-47298952D01*
X129342571Y-47679904D02*
X129342571Y-46879904D01*
X129647333Y-46879904D01*
X129723523Y-46918000D01*
X129761619Y-46956095D01*
X129799714Y-47032285D01*
X129799714Y-47146571D01*
X129761619Y-47222761D01*
X129723523Y-47260857D01*
X129647333Y-47298952D01*
X129342571Y-47298952D01*
X130561619Y-47679904D02*
X130104476Y-47679904D01*
X130333047Y-47679904D02*
X130333047Y-46879904D01*
X130256857Y-46994190D01*
X130180666Y-47070380D01*
X130104476Y-47108476D01*
X130866380Y-46956095D02*
X130904476Y-46918000D01*
X130980666Y-46879904D01*
X131171142Y-46879904D01*
X131247333Y-46918000D01*
X131285428Y-46956095D01*
X131323523Y-47032285D01*
X131323523Y-47108476D01*
X131285428Y-47222761D01*
X130828285Y-47679904D01*
X131323523Y-47679904D01*
D11*
X129230666Y-49954666D02*
X129164000Y-49921333D01*
X129130666Y-49888000D01*
X129097333Y-49821333D01*
X129097333Y-49788000D01*
X129130666Y-49721333D01*
X129164000Y-49688000D01*
X129230666Y-49654666D01*
X129364000Y-49654666D01*
X129430666Y-49688000D01*
X129464000Y-49721333D01*
X129497333Y-49788000D01*
X129497333Y-49821333D01*
X129464000Y-49888000D01*
X129430666Y-49921333D01*
X129364000Y-49954666D01*
X129230666Y-49954666D01*
X129164000Y-49988000D01*
X129130666Y-50021333D01*
X129097333Y-50088000D01*
X129097333Y-50221333D01*
X129130666Y-50288000D01*
X129164000Y-50321333D01*
X129230666Y-50354666D01*
X129364000Y-50354666D01*
X129430666Y-50321333D01*
X129464000Y-50288000D01*
X129497333Y-50221333D01*
X129497333Y-50088000D01*
X129464000Y-50021333D01*
X129430666Y-49988000D01*
X129364000Y-49954666D01*
X129764000Y-49721333D02*
X129797333Y-49688000D01*
X129864000Y-49654666D01*
X130030666Y-49654666D01*
X130097333Y-49688000D01*
X130130666Y-49721333D01*
X130164000Y-49788000D01*
X130164000Y-49854666D01*
X130130666Y-49954666D01*
X129730666Y-50354666D01*
X130164000Y-50354666D01*
X130597333Y-49654666D02*
X130664000Y-49654666D01*
X130730666Y-49688000D01*
X130764000Y-49721333D01*
X130797333Y-49788000D01*
X130830666Y-49921333D01*
X130830666Y-50088000D01*
X130797333Y-50221333D01*
X130764000Y-50288000D01*
X130730666Y-50321333D01*
X130664000Y-50354666D01*
X130597333Y-50354666D01*
X130530666Y-50321333D01*
X130497333Y-50288000D01*
X130464000Y-50221333D01*
X130430666Y-50088000D01*
X130430666Y-49921333D01*
X130464000Y-49788000D01*
X130497333Y-49721333D01*
X130530666Y-49688000D01*
X130597333Y-49654666D01*
X131530666Y-50354666D02*
X131297333Y-50021333D01*
X131130666Y-50354666D02*
X131130666Y-49654666D01*
X131397333Y-49654666D01*
X131464000Y-49688000D01*
X131497333Y-49721333D01*
X131530666Y-49788000D01*
X131530666Y-49888000D01*
X131497333Y-49954666D01*
X131464000Y-49988000D01*
X131397333Y-50021333D01*
X131130666Y-50021333D01*
D10*
X142855904Y-68828285D02*
X142474952Y-69094952D01*
X142855904Y-69285428D02*
X142055904Y-69285428D01*
X142055904Y-68980666D01*
X142094000Y-68904476D01*
X142132095Y-68866380D01*
X142208285Y-68828285D01*
X142322571Y-68828285D01*
X142398761Y-68866380D01*
X142436857Y-68904476D01*
X142474952Y-68980666D01*
X142474952Y-69285428D01*
X142855904Y-68066380D02*
X142855904Y-68523523D01*
X142855904Y-68294952D02*
X142055904Y-68294952D01*
X142170190Y-68371142D01*
X142246380Y-68447333D01*
X142284476Y-68523523D01*
X142055904Y-67799714D02*
X142055904Y-67304476D01*
X142360666Y-67571142D01*
X142360666Y-67456857D01*
X142398761Y-67380666D01*
X142436857Y-67342571D01*
X142513047Y-67304476D01*
X142703523Y-67304476D01*
X142779714Y-67342571D01*
X142817809Y-67380666D01*
X142855904Y-67456857D01*
X142855904Y-67685428D01*
X142817809Y-67761619D01*
X142779714Y-67799714D01*
D11*
X145350666Y-69130666D02*
X145350666Y-69530666D01*
X145350666Y-69330666D02*
X144650666Y-69330666D01*
X144750666Y-69397333D01*
X144817333Y-69464000D01*
X144850666Y-69530666D01*
X144650666Y-68497333D02*
X144650666Y-68830666D01*
X144984000Y-68864000D01*
X144950666Y-68830666D01*
X144917333Y-68764000D01*
X144917333Y-68597333D01*
X144950666Y-68530666D01*
X144984000Y-68497333D01*
X145050666Y-68464000D01*
X145217333Y-68464000D01*
X145284000Y-68497333D01*
X145317333Y-68530666D01*
X145350666Y-68597333D01*
X145350666Y-68764000D01*
X145317333Y-68830666D01*
X145284000Y-68864000D01*
X144650666Y-68030666D02*
X144650666Y-67964000D01*
X144684000Y-67897333D01*
X144717333Y-67864000D01*
X144784000Y-67830666D01*
X144917333Y-67797333D01*
X145084000Y-67797333D01*
X145217333Y-67830666D01*
X145284000Y-67864000D01*
X145317333Y-67897333D01*
X145350666Y-67964000D01*
X145350666Y-68030666D01*
X145317333Y-68097333D01*
X145284000Y-68130666D01*
X145217333Y-68164000D01*
X145084000Y-68197333D01*
X144917333Y-68197333D01*
X144784000Y-68164000D01*
X144717333Y-68130666D01*
X144684000Y-68097333D01*
X144650666Y-68030666D01*
X145350666Y-67097333D02*
X145017333Y-67330666D01*
X145350666Y-67497333D02*
X144650666Y-67497333D01*
X144650666Y-67230666D01*
X144684000Y-67164000D01*
X144717333Y-67130666D01*
X144784000Y-67097333D01*
X144884000Y-67097333D01*
X144950666Y-67130666D01*
X144984000Y-67164000D01*
X145017333Y-67230666D01*
X145017333Y-67497333D01*
D10*
X143871904Y-61982285D02*
X143490952Y-62248952D01*
X143871904Y-62439428D02*
X143071904Y-62439428D01*
X143071904Y-62134666D01*
X143110000Y-62058476D01*
X143148095Y-62020380D01*
X143224285Y-61982285D01*
X143338571Y-61982285D01*
X143414761Y-62020380D01*
X143452857Y-62058476D01*
X143490952Y-62134666D01*
X143490952Y-62439428D01*
X143871904Y-61220380D02*
X143871904Y-61677523D01*
X143871904Y-61448952D02*
X143071904Y-61448952D01*
X143186190Y-61525142D01*
X143262380Y-61601333D01*
X143300476Y-61677523D01*
X143338571Y-60534666D02*
X143871904Y-60534666D01*
X143033809Y-60725142D02*
X143605238Y-60915619D01*
X143605238Y-60420380D01*
D11*
X146366666Y-62284666D02*
X146366666Y-62684666D01*
X146366666Y-62484666D02*
X145666666Y-62484666D01*
X145766666Y-62551333D01*
X145833333Y-62618000D01*
X145866666Y-62684666D01*
X145966666Y-61884666D02*
X145933333Y-61951333D01*
X145900000Y-61984666D01*
X145833333Y-62018000D01*
X145800000Y-62018000D01*
X145733333Y-61984666D01*
X145700000Y-61951333D01*
X145666666Y-61884666D01*
X145666666Y-61751333D01*
X145700000Y-61684666D01*
X145733333Y-61651333D01*
X145800000Y-61618000D01*
X145833333Y-61618000D01*
X145900000Y-61651333D01*
X145933333Y-61684666D01*
X145966666Y-61751333D01*
X145966666Y-61884666D01*
X146000000Y-61951333D01*
X146033333Y-61984666D01*
X146100000Y-62018000D01*
X146233333Y-62018000D01*
X146300000Y-61984666D01*
X146333333Y-61951333D01*
X146366666Y-61884666D01*
X146366666Y-61751333D01*
X146333333Y-61684666D01*
X146300000Y-61651333D01*
X146233333Y-61618000D01*
X146100000Y-61618000D01*
X146033333Y-61651333D01*
X146000000Y-61684666D01*
X145966666Y-61751333D01*
X145666666Y-61184666D02*
X145666666Y-61118000D01*
X145700000Y-61051333D01*
X145733333Y-61018000D01*
X145800000Y-60984666D01*
X145933333Y-60951333D01*
X146100000Y-60951333D01*
X146233333Y-60984666D01*
X146300000Y-61018000D01*
X146333333Y-61051333D01*
X146366666Y-61118000D01*
X146366666Y-61184666D01*
X146333333Y-61251333D01*
X146300000Y-61284666D01*
X146233333Y-61318000D01*
X146100000Y-61351333D01*
X145933333Y-61351333D01*
X145800000Y-61318000D01*
X145733333Y-61284666D01*
X145700000Y-61251333D01*
X145666666Y-61184666D01*
X146366666Y-60251333D02*
X146033333Y-60484666D01*
X146366666Y-60651333D02*
X145666666Y-60651333D01*
X145666666Y-60384666D01*
X145700000Y-60318000D01*
X145733333Y-60284666D01*
X145800000Y-60251333D01*
X145900000Y-60251333D01*
X145966666Y-60284666D01*
X146000000Y-60318000D01*
X146033333Y-60384666D01*
X146033333Y-60651333D01*
D10*
X143249714Y-47605904D02*
X142983047Y-47224952D01*
X142792571Y-47605904D02*
X142792571Y-46805904D01*
X143097333Y-46805904D01*
X143173523Y-46844000D01*
X143211619Y-46882095D01*
X143249714Y-46958285D01*
X143249714Y-47072571D01*
X143211619Y-47148761D01*
X143173523Y-47186857D01*
X143097333Y-47224952D01*
X142792571Y-47224952D01*
X144011619Y-47605904D02*
X143554476Y-47605904D01*
X143783047Y-47605904D02*
X143783047Y-46805904D01*
X143706857Y-46920190D01*
X143630666Y-46996380D01*
X143554476Y-47034476D01*
X144735428Y-46805904D02*
X144354476Y-46805904D01*
X144316380Y-47186857D01*
X144354476Y-47148761D01*
X144430666Y-47110666D01*
X144621142Y-47110666D01*
X144697333Y-47148761D01*
X144735428Y-47186857D01*
X144773523Y-47263047D01*
X144773523Y-47453523D01*
X144735428Y-47529714D01*
X144697333Y-47567809D01*
X144621142Y-47605904D01*
X144430666Y-47605904D01*
X144354476Y-47567809D01*
X144316380Y-47529714D01*
D11*
X143214000Y-49888000D02*
X143214000Y-50354666D01*
X143047333Y-49621333D02*
X142880666Y-50121333D01*
X143314000Y-50121333D01*
X143514000Y-49654666D02*
X143980666Y-49654666D01*
X143680666Y-50354666D01*
X144647333Y-50354666D02*
X144414000Y-50021333D01*
X144247333Y-50354666D02*
X144247333Y-49654666D01*
X144514000Y-49654666D01*
X144580666Y-49688000D01*
X144614000Y-49721333D01*
X144647333Y-49788000D01*
X144647333Y-49888000D01*
X144614000Y-49954666D01*
X144580666Y-49988000D01*
X144514000Y-50021333D01*
X144247333Y-50021333D01*
D10*
X146837523Y-48113904D02*
X146837523Y-47313904D01*
X147028000Y-47313904D01*
X147142285Y-47352000D01*
X147218476Y-47428190D01*
X147256571Y-47504380D01*
X147294666Y-47656761D01*
X147294666Y-47771047D01*
X147256571Y-47923428D01*
X147218476Y-47999619D01*
X147142285Y-48075809D01*
X147028000Y-48113904D01*
X146837523Y-48113904D01*
X148094666Y-48037714D02*
X148056571Y-48075809D01*
X147942285Y-48113904D01*
X147866095Y-48113904D01*
X147751809Y-48075809D01*
X147675619Y-47999619D01*
X147637523Y-47923428D01*
X147599428Y-47771047D01*
X147599428Y-47656761D01*
X147637523Y-47504380D01*
X147675619Y-47428190D01*
X147751809Y-47352000D01*
X147866095Y-47313904D01*
X147942285Y-47313904D01*
X148056571Y-47352000D01*
X148094666Y-47390095D01*
X148856571Y-48113904D02*
X148399428Y-48113904D01*
X148628000Y-48113904D02*
X148628000Y-47313904D01*
X148551809Y-47428190D01*
X148475619Y-47504380D01*
X148399428Y-47542476D01*
D11*
X150170000Y-48068666D02*
X149836666Y-48068666D01*
X149836666Y-47368666D01*
X150403333Y-48068666D02*
X150403333Y-47368666D01*
X150570000Y-47368666D01*
X150670000Y-47402000D01*
X150736666Y-47468666D01*
X150770000Y-47535333D01*
X150803333Y-47668666D01*
X150803333Y-47768666D01*
X150770000Y-47902000D01*
X150736666Y-47968666D01*
X150670000Y-48035333D01*
X150570000Y-48068666D01*
X150403333Y-48068666D01*
X151103333Y-47368666D02*
X151103333Y-47935333D01*
X151136666Y-48002000D01*
X151170000Y-48035333D01*
X151236666Y-48068666D01*
X151370000Y-48068666D01*
X151436666Y-48035333D01*
X151470000Y-48002000D01*
X151503333Y-47935333D01*
X151503333Y-47368666D01*
X151803333Y-47435333D02*
X151836666Y-47402000D01*
X151903333Y-47368666D01*
X152070000Y-47368666D01*
X152136666Y-47402000D01*
X152170000Y-47435333D01*
X152203333Y-47502000D01*
X152203333Y-47568666D01*
X152170000Y-47668666D01*
X151770000Y-48068666D01*
X152203333Y-48068666D01*
X152803333Y-47602000D02*
X152803333Y-48068666D01*
X152636666Y-47335333D02*
X152470000Y-47835333D01*
X152903333Y-47835333D01*
X153103333Y-47368666D02*
X153536666Y-47368666D01*
X153303333Y-47635333D01*
X153403333Y-47635333D01*
X153470000Y-47668666D01*
X153503333Y-47702000D01*
X153536666Y-47768666D01*
X153536666Y-47935333D01*
X153503333Y-48002000D01*
X153470000Y-48035333D01*
X153403333Y-48068666D01*
X153203333Y-48068666D01*
X153136666Y-48035333D01*
X153103333Y-48002000D01*
X153970000Y-47368666D02*
X154036666Y-47368666D01*
X154103333Y-47402000D01*
X154136666Y-47435333D01*
X154170000Y-47502000D01*
X154203333Y-47635333D01*
X154203333Y-47802000D01*
X154170000Y-47935333D01*
X154136666Y-48002000D01*
X154103333Y-48035333D01*
X154036666Y-48068666D01*
X153970000Y-48068666D01*
X153903333Y-48035333D01*
X153870000Y-48002000D01*
X153836666Y-47935333D01*
X153803333Y-47802000D01*
X153803333Y-47635333D01*
X153836666Y-47502000D01*
X153870000Y-47435333D01*
X153903333Y-47402000D01*
X153970000Y-47368666D01*
X154470000Y-48035333D02*
X154570000Y-48068666D01*
X154736666Y-48068666D01*
X154803333Y-48035333D01*
X154836666Y-48002000D01*
X154870000Y-47935333D01*
X154870000Y-47868666D01*
X154836666Y-47802000D01*
X154803333Y-47768666D01*
X154736666Y-47735333D01*
X154603333Y-47702000D01*
X154536666Y-47668666D01*
X154503333Y-47635333D01*
X154470000Y-47568666D01*
X154470000Y-47502000D01*
X154503333Y-47435333D01*
X154536666Y-47402000D01*
X154603333Y-47368666D01*
X154770000Y-47368666D01*
X154870000Y-47402000D01*
X155536666Y-48068666D02*
X155136666Y-48068666D01*
X155336666Y-48068666D02*
X155336666Y-47368666D01*
X155270000Y-47468666D01*
X155203333Y-47535333D01*
X155136666Y-47568666D01*
X155970000Y-47368666D02*
X156036666Y-47368666D01*
X156103333Y-47402000D01*
X156136666Y-47435333D01*
X156170000Y-47502000D01*
X156203333Y-47635333D01*
X156203333Y-47802000D01*
X156170000Y-47935333D01*
X156136666Y-48002000D01*
X156103333Y-48035333D01*
X156036666Y-48068666D01*
X155970000Y-48068666D01*
X155903333Y-48035333D01*
X155870000Y-48002000D01*
X155836666Y-47935333D01*
X155803333Y-47802000D01*
X155803333Y-47635333D01*
X155836666Y-47502000D01*
X155870000Y-47435333D01*
X155903333Y-47402000D01*
X155970000Y-47368666D01*
X156636666Y-47368666D02*
X156703333Y-47368666D01*
X156770000Y-47402000D01*
X156803333Y-47435333D01*
X156836666Y-47502000D01*
X156870000Y-47635333D01*
X156870000Y-47802000D01*
X156836666Y-47935333D01*
X156803333Y-48002000D01*
X156770000Y-48035333D01*
X156703333Y-48068666D01*
X156636666Y-48068666D01*
X156570000Y-48035333D01*
X156536666Y-48002000D01*
X156503333Y-47935333D01*
X156470000Y-47802000D01*
X156470000Y-47635333D01*
X156503333Y-47502000D01*
X156536666Y-47435333D01*
X156570000Y-47402000D01*
X156636666Y-47368666D01*
X157303333Y-47368666D02*
X157370000Y-47368666D01*
X157436666Y-47402000D01*
X157470000Y-47435333D01*
X157503333Y-47502000D01*
X157536666Y-47635333D01*
X157536666Y-47802000D01*
X157503333Y-47935333D01*
X157470000Y-48002000D01*
X157436666Y-48035333D01*
X157370000Y-48068666D01*
X157303333Y-48068666D01*
X157236666Y-48035333D01*
X157203333Y-48002000D01*
X157170000Y-47935333D01*
X157136666Y-47802000D01*
X157136666Y-47635333D01*
X157170000Y-47502000D01*
X157203333Y-47435333D01*
X157236666Y-47402000D01*
X157303333Y-47368666D01*
D10*
X120745333Y-71951904D02*
X120745333Y-72523333D01*
X120707238Y-72637619D01*
X120631047Y-72713809D01*
X120516761Y-72751904D01*
X120440571Y-72751904D01*
X121126285Y-72751904D02*
X121126285Y-71951904D01*
X121431047Y-71951904D01*
X121507238Y-71990000D01*
X121545333Y-72028095D01*
X121583428Y-72104285D01*
X121583428Y-72218571D01*
X121545333Y-72294761D01*
X121507238Y-72332857D01*
X121431047Y-72370952D01*
X121126285Y-72370952D01*
X122345333Y-72751904D02*
X121888190Y-72751904D01*
X122116761Y-72751904D02*
X122116761Y-71951904D01*
X122040571Y-72066190D01*
X121964380Y-72142380D01*
X121888190Y-72180476D01*
X142697333Y-71951809D02*
X142811619Y-71989904D01*
X143002095Y-71989904D01*
X143078285Y-71951809D01*
X143116380Y-71913714D01*
X143154476Y-71837523D01*
X143154476Y-71761333D01*
X143116380Y-71685142D01*
X143078285Y-71647047D01*
X143002095Y-71608952D01*
X142849714Y-71570857D01*
X142773523Y-71532761D01*
X142735428Y-71494666D01*
X142697333Y-71418476D01*
X142697333Y-71342285D01*
X142735428Y-71266095D01*
X142773523Y-71228000D01*
X142849714Y-71189904D01*
X143040190Y-71189904D01*
X143154476Y-71228000D01*
X143421142Y-71189904D02*
X143611619Y-71989904D01*
X143764000Y-71418476D01*
X143916380Y-71989904D01*
X144106857Y-71189904D01*
X144830666Y-71989904D02*
X144373523Y-71989904D01*
X144602095Y-71989904D02*
X144602095Y-71189904D01*
X144525904Y-71304190D01*
X144449714Y-71380380D01*
X144373523Y-71418476D01*
X126917523Y-64877904D02*
X126917523Y-64077904D01*
X127108000Y-64077904D01*
X127222285Y-64116000D01*
X127298476Y-64192190D01*
X127336571Y-64268380D01*
X127374666Y-64420761D01*
X127374666Y-64535047D01*
X127336571Y-64687428D01*
X127298476Y-64763619D01*
X127222285Y-64839809D01*
X127108000Y-64877904D01*
X126917523Y-64877904D01*
X128136571Y-64877904D02*
X127679428Y-64877904D01*
X127908000Y-64877904D02*
X127908000Y-64077904D01*
X127831809Y-64192190D01*
X127755619Y-64268380D01*
X127679428Y-64306476D01*
D11*
X123784000Y-68642666D02*
X123784000Y-67942666D01*
X124017333Y-68442666D01*
X124250666Y-67942666D01*
X124250666Y-68642666D01*
X124550666Y-68442666D02*
X124884000Y-68442666D01*
X124484000Y-68642666D02*
X124717333Y-67942666D01*
X124950666Y-68642666D01*
X125117333Y-67942666D02*
X125584000Y-68642666D01*
X125584000Y-67942666D02*
X125117333Y-68642666D01*
X126150666Y-67942666D02*
X126017333Y-67942666D01*
X125950666Y-67976000D01*
X125917333Y-68009333D01*
X125850666Y-68109333D01*
X125817333Y-68242666D01*
X125817333Y-68509333D01*
X125850666Y-68576000D01*
X125884000Y-68609333D01*
X125950666Y-68642666D01*
X126084000Y-68642666D01*
X126150666Y-68609333D01*
X126184000Y-68576000D01*
X126217333Y-68509333D01*
X126217333Y-68342666D01*
X126184000Y-68276000D01*
X126150666Y-68242666D01*
X126084000Y-68209333D01*
X125950666Y-68209333D01*
X125884000Y-68242666D01*
X125850666Y-68276000D01*
X125817333Y-68342666D01*
X126650666Y-67942666D02*
X126717333Y-67942666D01*
X126784000Y-67976000D01*
X126817333Y-68009333D01*
X126850666Y-68076000D01*
X126884000Y-68209333D01*
X126884000Y-68376000D01*
X126850666Y-68509333D01*
X126817333Y-68576000D01*
X126784000Y-68609333D01*
X126717333Y-68642666D01*
X126650666Y-68642666D01*
X126584000Y-68609333D01*
X126550666Y-68576000D01*
X126517333Y-68509333D01*
X126484000Y-68376000D01*
X126484000Y-68209333D01*
X126517333Y-68076000D01*
X126550666Y-68009333D01*
X126584000Y-67976000D01*
X126650666Y-67942666D01*
X127317333Y-67942666D02*
X127384000Y-67942666D01*
X127450666Y-67976000D01*
X127484000Y-68009333D01*
X127517333Y-68076000D01*
X127550666Y-68209333D01*
X127550666Y-68376000D01*
X127517333Y-68509333D01*
X127484000Y-68576000D01*
X127450666Y-68609333D01*
X127384000Y-68642666D01*
X127317333Y-68642666D01*
X127250666Y-68609333D01*
X127217333Y-68576000D01*
X127184000Y-68509333D01*
X127150666Y-68376000D01*
X127150666Y-68209333D01*
X127184000Y-68076000D01*
X127217333Y-68009333D01*
X127250666Y-67976000D01*
X127317333Y-67942666D01*
X128150666Y-67942666D02*
X128017333Y-67942666D01*
X127950666Y-67976000D01*
X127917333Y-68009333D01*
X127850666Y-68109333D01*
X127817333Y-68242666D01*
X127817333Y-68509333D01*
X127850666Y-68576000D01*
X127884000Y-68609333D01*
X127950666Y-68642666D01*
X128084000Y-68642666D01*
X128150666Y-68609333D01*
X128184000Y-68576000D01*
X128217333Y-68509333D01*
X128217333Y-68342666D01*
X128184000Y-68276000D01*
X128150666Y-68242666D01*
X128084000Y-68209333D01*
X127950666Y-68209333D01*
X127884000Y-68242666D01*
X127850666Y-68276000D01*
X127817333Y-68342666D01*
D10*
X139433333Y-93414857D02*
X139166666Y-93414857D01*
X139166666Y-93833904D02*
X139166666Y-93033904D01*
X139547619Y-93033904D01*
X140271428Y-93833904D02*
X139814285Y-93833904D01*
X140042857Y-93833904D02*
X140042857Y-93033904D01*
X139966666Y-93148190D01*
X139890476Y-93224380D01*
X139814285Y-93262476D01*
D11*
X138033333Y-86484666D02*
X138433333Y-86484666D01*
X138233333Y-87184666D02*
X138233333Y-86484666D01*
X139033333Y-87184666D02*
X138633333Y-87184666D01*
X138833333Y-87184666D02*
X138833333Y-86484666D01*
X138766666Y-86584666D01*
X138700000Y-86651333D01*
X138633333Y-86684666D01*
X139333333Y-87118000D02*
X139366666Y-87151333D01*
X139333333Y-87184666D01*
X139300000Y-87151333D01*
X139333333Y-87118000D01*
X139333333Y-87184666D01*
X139633333Y-86551333D02*
X139666666Y-86518000D01*
X139733333Y-86484666D01*
X139900000Y-86484666D01*
X139966666Y-86518000D01*
X140000000Y-86551333D01*
X140033333Y-86618000D01*
X140033333Y-86684666D01*
X140000000Y-86784666D01*
X139600000Y-87184666D01*
X140033333Y-87184666D01*
X140666666Y-86484666D02*
X140333333Y-86484666D01*
X140300000Y-86818000D01*
X140333333Y-86784666D01*
X140400000Y-86751333D01*
X140566666Y-86751333D01*
X140633333Y-86784666D01*
X140666666Y-86818000D01*
X140700000Y-86884666D01*
X140700000Y-87051333D01*
X140666666Y-87118000D01*
X140633333Y-87151333D01*
X140566666Y-87184666D01*
X140400000Y-87184666D01*
X140333333Y-87151333D01*
X140300000Y-87118000D01*
X140966666Y-86984666D02*
X141300000Y-86984666D01*
X140900000Y-87184666D02*
X141133333Y-86484666D01*
X141366666Y-87184666D01*
D10*
X118770476Y-94341904D02*
X118770476Y-93541904D01*
X118770476Y-93922857D02*
X119227619Y-93922857D01*
X119227619Y-94341904D02*
X119227619Y-93541904D01*
X120027619Y-94341904D02*
X119570476Y-94341904D01*
X119799047Y-94341904D02*
X119799047Y-93541904D01*
X119722857Y-93656190D01*
X119646666Y-93732380D01*
X119570476Y-93770476D01*
X118618095Y-39822380D02*
X118618095Y-38822380D01*
X118618095Y-39298571D02*
X119189523Y-39298571D01*
X119189523Y-39822380D02*
X119189523Y-38822380D01*
X119618095Y-38917619D02*
X119665714Y-38870000D01*
X119760952Y-38822380D01*
X119999047Y-38822380D01*
X120094285Y-38870000D01*
X120141904Y-38917619D01*
X120189523Y-39012857D01*
X120189523Y-39108095D01*
X120141904Y-39250952D01*
X119570476Y-39822380D01*
X120189523Y-39822380D01*
X168783095Y-39822380D02*
X168783095Y-38822380D01*
X168783095Y-39298571D02*
X169354523Y-39298571D01*
X169354523Y-39822380D02*
X169354523Y-38822380D01*
X169735476Y-38822380D02*
X170354523Y-38822380D01*
X170021190Y-39203333D01*
X170164047Y-39203333D01*
X170259285Y-39250952D01*
X170306904Y-39298571D01*
X170354523Y-39393809D01*
X170354523Y-39631904D01*
X170306904Y-39727142D01*
X170259285Y-39774761D01*
X170164047Y-39822380D01*
X169878333Y-39822380D01*
X169783095Y-39774761D01*
X169735476Y-39727142D01*
X168935476Y-94341904D02*
X168935476Y-93541904D01*
X168935476Y-93922857D02*
X169392619Y-93922857D01*
X169392619Y-94341904D02*
X169392619Y-93541904D01*
X170116428Y-93808571D02*
X170116428Y-94341904D01*
X169925952Y-93503809D02*
X169735476Y-94075238D01*
X170230714Y-94075238D01*
X122856666Y-48347380D02*
X122856666Y-49061666D01*
X122809047Y-49204523D01*
X122713809Y-49299761D01*
X122570952Y-49347380D01*
X122475714Y-49347380D01*
X123285238Y-48442619D02*
X123332857Y-48395000D01*
X123428095Y-48347380D01*
X123666190Y-48347380D01*
X123761428Y-48395000D01*
X123809047Y-48442619D01*
X123856666Y-48537857D01*
X123856666Y-48633095D01*
X123809047Y-48775952D01*
X123237619Y-49347380D01*
X123856666Y-49347380D01*
D12*
X150896666Y-83301666D02*
X150563333Y-83535000D01*
X150896666Y-83701666D02*
X150196666Y-83701666D01*
X150196666Y-83435000D01*
X150230000Y-83368333D01*
X150263333Y-83335000D01*
X150330000Y-83301666D01*
X150430000Y-83301666D01*
X150496666Y-83335000D01*
X150530000Y-83368333D01*
X150563333Y-83435000D01*
X150563333Y-83701666D01*
X150196666Y-83068333D02*
X150196666Y-82635000D01*
X150463333Y-82868333D01*
X150463333Y-82768333D01*
X150496666Y-82701666D01*
X150530000Y-82668333D01*
X150596666Y-82635000D01*
X150763333Y-82635000D01*
X150830000Y-82668333D01*
X150863333Y-82701666D01*
X150896666Y-82768333D01*
X150896666Y-82968333D01*
X150863333Y-83035000D01*
X150830000Y-83068333D01*
X153836666Y-87538333D02*
X153836666Y-87871666D01*
X154170000Y-87905000D01*
X154136666Y-87871666D01*
X154103333Y-87805000D01*
X154103333Y-87638333D01*
X154136666Y-87571666D01*
X154170000Y-87538333D01*
X154236666Y-87505000D01*
X154403333Y-87505000D01*
X154470000Y-87538333D01*
X154503333Y-87571666D01*
X154536666Y-87638333D01*
X154536666Y-87805000D01*
X154503333Y-87871666D01*
X154470000Y-87905000D01*
X153836666Y-86905000D02*
X153836666Y-87038333D01*
X153870000Y-87105000D01*
X153903333Y-87138333D01*
X154003333Y-87205000D01*
X154136666Y-87238333D01*
X154403333Y-87238333D01*
X154470000Y-87205000D01*
X154503333Y-87171666D01*
X154536666Y-87105000D01*
X154536666Y-86971666D01*
X154503333Y-86905000D01*
X154470000Y-86871666D01*
X154403333Y-86838333D01*
X154236666Y-86838333D01*
X154170000Y-86871666D01*
X154136666Y-86905000D01*
X154103333Y-86971666D01*
X154103333Y-87105000D01*
X154136666Y-87171666D01*
X154170000Y-87205000D01*
X154236666Y-87238333D01*
X153836666Y-86405000D02*
X153836666Y-86338333D01*
X153870000Y-86271666D01*
X153903333Y-86238333D01*
X153970000Y-86205000D01*
X154103333Y-86171666D01*
X154270000Y-86171666D01*
X154403333Y-86205000D01*
X154470000Y-86238333D01*
X154503333Y-86271666D01*
X154536666Y-86338333D01*
X154536666Y-86405000D01*
X154503333Y-86471666D01*
X154470000Y-86505000D01*
X154403333Y-86538333D01*
X154270000Y-86571666D01*
X154103333Y-86571666D01*
X153970000Y-86538333D01*
X153903333Y-86505000D01*
X153870000Y-86471666D01*
X153836666Y-86405000D01*
X154536666Y-85471666D02*
X154203333Y-85705000D01*
X154536666Y-85871666D02*
X153836666Y-85871666D01*
X153836666Y-85605000D01*
X153870000Y-85538333D01*
X153903333Y-85505000D01*
X153970000Y-85471666D01*
X154070000Y-85471666D01*
X154136666Y-85505000D01*
X154170000Y-85538333D01*
X154203333Y-85605000D01*
X154203333Y-85871666D01*
X153803333Y-84671666D02*
X154703333Y-85271666D01*
X153836666Y-84105000D02*
X153836666Y-84438333D01*
X154170000Y-84471666D01*
X154136666Y-84438333D01*
X154103333Y-84371666D01*
X154103333Y-84205000D01*
X154136666Y-84138333D01*
X154170000Y-84105000D01*
X154236666Y-84071666D01*
X154403333Y-84071666D01*
X154470000Y-84105000D01*
X154503333Y-84138333D01*
X154536666Y-84205000D01*
X154536666Y-84371666D01*
X154503333Y-84438333D01*
X154470000Y-84471666D01*
X153836666Y-83638333D02*
X153836666Y-83571666D01*
X153870000Y-83505000D01*
X153903333Y-83471666D01*
X153970000Y-83438333D01*
X154103333Y-83405000D01*
X154270000Y-83405000D01*
X154403333Y-83438333D01*
X154470000Y-83471666D01*
X154503333Y-83505000D01*
X154536666Y-83571666D01*
X154536666Y-83638333D01*
X154503333Y-83705000D01*
X154470000Y-83738333D01*
X154403333Y-83771666D01*
X154270000Y-83805000D01*
X154103333Y-83805000D01*
X153970000Y-83771666D01*
X153903333Y-83738333D01*
X153870000Y-83705000D01*
X153836666Y-83638333D01*
X153836666Y-82971666D02*
X153836666Y-82905000D01*
X153870000Y-82838333D01*
X153903333Y-82805000D01*
X153970000Y-82771666D01*
X154103333Y-82738333D01*
X154270000Y-82738333D01*
X154403333Y-82771666D01*
X154470000Y-82805000D01*
X154503333Y-82838333D01*
X154536666Y-82905000D01*
X154536666Y-82971666D01*
X154503333Y-83038333D01*
X154470000Y-83071666D01*
X154403333Y-83105000D01*
X154270000Y-83138333D01*
X154103333Y-83138333D01*
X153970000Y-83105000D01*
X153903333Y-83071666D01*
X153870000Y-83038333D01*
X153836666Y-82971666D01*
X154536666Y-82438333D02*
X154070000Y-82438333D01*
X154136666Y-82438333D02*
X154103333Y-82405000D01*
X154070000Y-82338333D01*
X154070000Y-82238333D01*
X154103333Y-82171666D01*
X154170000Y-82138333D01*
X154536666Y-82138333D01*
X154170000Y-82138333D02*
X154103333Y-82105000D01*
X154070000Y-82038333D01*
X154070000Y-81938333D01*
X154103333Y-81871666D01*
X154170000Y-81838333D01*
X154536666Y-81838333D01*
X153836666Y-81571666D02*
X154536666Y-81405000D01*
X154036666Y-81271666D01*
X154536666Y-81138333D01*
X153836666Y-80971666D01*
M02*
