M48
METRIC,TZ
T1C0.400
T2C0.762
T3C1.000
T4C1.020
T5C1.350
T6C1.520
T7C2.300
T8C3.200
%
G90
G05
T1
X127381Y-57404
X128270Y-66548
X128778Y-48768
X131572Y-69596
X131826Y-64262
X131826Y-64262
X140462Y-68326
X143002Y-70104
X144780Y-62738
X145034Y-48768
X145288Y-54356
X148590Y-66548
T2
X148590Y-51308
X148590Y-53848
X148590Y-56388
X148590Y-66548
X148590Y-69088
X158750Y-51308
X158750Y-53848
X158750Y-66548
X158750Y-69088
T3
X134112Y-52324
X134112Y-54864
X134112Y-57404
X134112Y-59944
X141732Y-52324
X141732Y-54864
X141732Y-57404
X141732Y-59944
X121412Y-65024
X121412Y-67564
X121412Y-70104
T5
X132000Y-87630
X132000Y-92710
X147320Y-87630
X147320Y-92710
T6
X123444Y-51308
X123444Y-56388
X155956Y-77216
X155956Y-82296
T7
X123734Y-77724
T8
X157480Y-41910
X121920Y-91440
X121920Y-41910
X157480Y-91440
T3
G00X140704Y-74040
M15
G01X142004Y-74040
M16
G05
G00X140704Y-78740
M15
G01X142004Y-78740
M16
G05
G00X140704Y-83440
M15
G01X142004Y-83440
M16
G05
G00X145524Y-74040
M15
G01X146824Y-74040
M16
G05
G00X145524Y-78740
M15
G01X146824Y-78740
M16
G05
G00X145524Y-83440
M15
G01X146824Y-83440
M16
G05
T4
G00X127534Y-76964
M15
G01X127534Y-78484
M16
G05
G00X130324Y-82724
M15
G01X131844Y-82724
M16
G05
G00X134134Y-76964
M15
G01X134134Y-78484
M16
G05
T0
M30
