G04 #@! TF.GenerationSoftware,KiCad,Pcbnew,5.1.2-f72e74a~84~ubuntu16.04.1*
G04 #@! TF.CreationDate,2019-06-07T11:45:15+01:00*
G04 #@! TF.ProjectId,LEDregulator,4c454472-6567-4756-9c61-746f722e6b69,rev?*
G04 #@! TF.SameCoordinates,Original*
G04 #@! TF.FileFunction,Copper,L1,Top*
G04 #@! TF.FilePolarity,Positive*
%FSLAX46Y46*%
G04 Gerber Fmt 4.6, Leading zero omitted, Abs format (unit mm)*
G04 Created by KiCad (PCBNEW 5.1.2-f72e74a~84~ubuntu16.04.1) date 2019-06-07 11:45:15*
%MOMM*%
%LPD*%
G04 APERTURE LIST*
%ADD10O,2.100000X1.900000*%
%ADD11R,2.100000X1.900000*%
%ADD12R,1.000000X1.600000*%
%ADD13R,4.000000X2.500000*%
%ADD14R,0.750000X0.800000*%
%ADD15C,3.000000*%
%ADD16R,3.000000X3.000000*%
%ADD17R,0.500000X0.900000*%
%ADD18R,0.900000X0.500000*%
%ADD19C,4.800000*%
%ADD20C,2.400000*%
%ADD21C,1.524000*%
%ADD22O,1.700000X1.700000*%
%ADD23R,1.700000X1.700000*%
%ADD24O,3.800000X2.500000*%
%ADD25R,0.800000X0.900000*%
%ADD26C,2.350000*%
%ADD27C,0.800000*%
%ADD28C,1.024000*%
%ADD29C,2.000000*%
%ADD30C,0.254000*%
G04 APERTURE END LIST*
D10*
X141732000Y-52324000D03*
X134112000Y-52324000D03*
D11*
X134112000Y-59944000D03*
D10*
X141732000Y-59944000D03*
X134112000Y-57404000D03*
X141732000Y-54864000D03*
X134112000Y-54864000D03*
X141732000Y-57404000D03*
D12*
X130532000Y-70612000D03*
X127532000Y-70612000D03*
D13*
X139700000Y-67056000D03*
X133600000Y-67056000D03*
D14*
X122809000Y-59944000D03*
X122809000Y-61444000D03*
X144780000Y-55856000D03*
X144780000Y-54356000D03*
D15*
X123444000Y-56388000D03*
D16*
X123444000Y-51308000D03*
X155956000Y-82296000D03*
D15*
X155956000Y-77216000D03*
D17*
X124230000Y-70866000D03*
X125730000Y-70866000D03*
X125984000Y-62484000D03*
X124484000Y-62484000D03*
X132056000Y-60706000D03*
X130556000Y-60706000D03*
X130568000Y-54864000D03*
X132068000Y-54864000D03*
X134088000Y-48768000D03*
X132588000Y-48768000D03*
D18*
X143764000Y-65266000D03*
X143764000Y-63766000D03*
X144780000Y-59170000D03*
X144780000Y-57670000D03*
D17*
X139978000Y-48768000D03*
X141478000Y-48768000D03*
D18*
X130556000Y-65012000D03*
X130556000Y-63512000D03*
D17*
X128270000Y-57404000D03*
X129770000Y-57404000D03*
X131064000Y-48768000D03*
X129564000Y-48768000D03*
D18*
X143764000Y-67564000D03*
X143764000Y-69064000D03*
X144780000Y-60718000D03*
X144780000Y-62218000D03*
D17*
X143014000Y-48768000D03*
X144514000Y-48768000D03*
D19*
X131084000Y-82724000D03*
X134134000Y-77724000D03*
X127534000Y-77724000D03*
D20*
X123734000Y-77724000D03*
D21*
X148590000Y-51308000D03*
X148590000Y-53848000D03*
X148590000Y-56388000D03*
X148590000Y-66548000D03*
X148590000Y-69088000D03*
X158750000Y-69088000D03*
X158750000Y-66548000D03*
X158750000Y-53848000D03*
X158750000Y-51308000D03*
D22*
X121412000Y-65024000D03*
X121412000Y-67564000D03*
D23*
X121412000Y-70104000D03*
D24*
X141354000Y-83440000D03*
X141354000Y-78740000D03*
X141354000Y-74040000D03*
X146174000Y-83440000D03*
X146174000Y-78740000D03*
X146174000Y-74040000D03*
D25*
X125984000Y-65040000D03*
X126934000Y-67040000D03*
X125034000Y-67040000D03*
D26*
X147320000Y-87630000D03*
X147320000Y-92710000D03*
X132000000Y-87630000D03*
X132000000Y-92710000D03*
D18*
X150622000Y-81280000D03*
X150622000Y-82780000D03*
X150622000Y-84074000D03*
X150622000Y-85574000D03*
D17*
X153440000Y-87122000D03*
X154940000Y-87122000D03*
D27*
X128778000Y-48768000D03*
X127381000Y-57404000D03*
X131826000Y-64262000D03*
X148590000Y-66548000D03*
X128270000Y-66548000D03*
X131826000Y-64262000D03*
X143002000Y-70104000D03*
X140462000Y-68326000D03*
X144780000Y-62738000D03*
X145034000Y-48768000D03*
X145288000Y-54356000D03*
X131572000Y-69596000D03*
D28*
X129564000Y-48768000D02*
X128778000Y-48768000D01*
X128270000Y-57404000D02*
X127381000Y-57404000D01*
X122809000Y-57023000D02*
X123444000Y-56388000D01*
X122809000Y-59944000D02*
X122809000Y-57023000D01*
X130556000Y-65012000D02*
X131076000Y-65012000D01*
X131076000Y-65012000D02*
X131826000Y-64262000D01*
X126934000Y-67040000D02*
X127778000Y-67040000D01*
X127778000Y-67040000D02*
X128270000Y-66548000D01*
X143764000Y-69064000D02*
X143764000Y-69342000D01*
X143764000Y-69342000D02*
X143002000Y-70104000D01*
X139700000Y-67056000D02*
X139700000Y-67564000D01*
X139700000Y-67564000D02*
X140462000Y-68326000D01*
X144780000Y-62218000D02*
X144780000Y-62738000D01*
X148082000Y-54356000D02*
X148590000Y-53848000D01*
X146050000Y-48768000D02*
X148590000Y-51308000D01*
X148590000Y-51308000D02*
X148590000Y-53848000D01*
X144514000Y-48768000D02*
X145034000Y-48768000D01*
X145034000Y-48768000D02*
X146050000Y-48768000D01*
X144780000Y-54356000D02*
X145288000Y-54356000D01*
X145288000Y-54356000D02*
X148082000Y-54356000D01*
X130762000Y-70406000D02*
X131572000Y-69596000D01*
D29*
X134370000Y-67056000D02*
X141354000Y-74040000D01*
X133600000Y-67056000D02*
X134370000Y-67056000D01*
X157672370Y-53848000D02*
X158750000Y-53848000D01*
X146627999Y-64892371D02*
X157672370Y-53848000D01*
X146627999Y-69416001D02*
X146627999Y-64892371D01*
X142004000Y-74040000D02*
X146627999Y-69416001D01*
X141354000Y-74040000D02*
X142004000Y-74040000D01*
X158750000Y-52770370D02*
X157672370Y-53848000D01*
X158750000Y-51308000D02*
X158750000Y-52770370D01*
X131088000Y-67056000D02*
X127532000Y-70612000D01*
X133600000Y-67056000D02*
X131088000Y-67056000D01*
D28*
X127278000Y-70866000D02*
X127532000Y-70612000D01*
X125730000Y-70866000D02*
X127278000Y-70866000D01*
X124484000Y-64492000D02*
X124484000Y-62484000D01*
X121412000Y-67564000D02*
X124484000Y-64492000D01*
X123444000Y-61444000D02*
X124484000Y-62484000D01*
X122809000Y-61444000D02*
X123444000Y-61444000D01*
X145312000Y-56388000D02*
X144780000Y-55856000D01*
X148590000Y-56388000D02*
X145312000Y-56388000D01*
X142724000Y-55856000D02*
X141732000Y-54864000D01*
X144780000Y-55856000D02*
X142724000Y-55856000D01*
X139192000Y-57404000D02*
X141732000Y-54864000D01*
X134112000Y-57404000D02*
X139192000Y-57404000D01*
X132038000Y-57404000D02*
X134112000Y-57404000D01*
X130275999Y-59166001D02*
X132038000Y-57404000D01*
X125984000Y-62284000D02*
X129101999Y-59166001D01*
X129101999Y-59166001D02*
X130275999Y-59166001D01*
X125984000Y-62484000D02*
X125984000Y-62284000D01*
X150622000Y-84074000D02*
X150622000Y-82780000D01*
X130556000Y-60706000D02*
X130556000Y-63512000D01*
X130568000Y-56606000D02*
X129770000Y-57404000D01*
X130568000Y-54864000D02*
X130568000Y-56606000D01*
X132588000Y-48768000D02*
X131064000Y-48768000D01*
X143764000Y-67564000D02*
X143764000Y-65266000D01*
X144780000Y-59170000D02*
X144780000Y-60718000D01*
D29*
X153798000Y-74040000D02*
X158750000Y-69088000D01*
X146174000Y-74040000D02*
X153798000Y-74040000D01*
X158750000Y-66548000D02*
X158750000Y-69088000D01*
X132000000Y-92710000D02*
X132000000Y-87630000D01*
X133174999Y-86455001D02*
X132000000Y-87630000D01*
X134684001Y-84945999D02*
X133174999Y-86455001D01*
X134684001Y-78274001D02*
X134684001Y-84945999D01*
X134134000Y-77724000D02*
X134684001Y-78274001D01*
D28*
X120920000Y-51308000D02*
X123444000Y-51308000D01*
X120565999Y-51662001D02*
X120920000Y-51308000D01*
X120565999Y-62975918D02*
X120565999Y-51662001D01*
X121412000Y-63821919D02*
X120565999Y-62975918D01*
X121412000Y-65024000D02*
X121412000Y-63821919D01*
D29*
X152400000Y-78740000D02*
X155956000Y-82296000D01*
X146174000Y-78740000D02*
X152400000Y-78740000D01*
D28*
X123468000Y-70104000D02*
X124230000Y-70866000D01*
X121412000Y-70104000D02*
X123468000Y-70104000D01*
X123468000Y-70080000D02*
X123468000Y-70104000D01*
X125034000Y-68514000D02*
X123468000Y-70080000D01*
X125034000Y-67040000D02*
X125034000Y-68514000D01*
X143514000Y-81280000D02*
X141354000Y-83440000D01*
X150622000Y-81280000D02*
X143514000Y-81280000D01*
X149856000Y-87122000D02*
X153440000Y-87122000D01*
X146174000Y-83440000D02*
X149856000Y-87122000D01*
X133350000Y-60706000D02*
X134112000Y-59944000D01*
X132056000Y-60706000D02*
X133350000Y-60706000D01*
X132068000Y-54864000D02*
X134112000Y-54864000D01*
X134112000Y-48792000D02*
X134088000Y-48768000D01*
X134112000Y-52324000D02*
X134112000Y-48792000D01*
X141732000Y-61734000D02*
X143764000Y-63766000D01*
X141732000Y-59944000D02*
X141732000Y-61734000D01*
X144514000Y-57404000D02*
X144780000Y-57670000D01*
X141732000Y-57404000D02*
X144514000Y-57404000D01*
X139978000Y-50570000D02*
X141732000Y-52324000D01*
X139978000Y-48768000D02*
X139978000Y-50570000D01*
D29*
X141354000Y-78740000D02*
X140970000Y-78740000D01*
X141429163Y-87630000D02*
X145658300Y-87630000D01*
X137454000Y-83654837D02*
X141429163Y-87630000D01*
X137454000Y-81990000D02*
X137454000Y-83654837D01*
X140704000Y-78740000D02*
X137454000Y-81990000D01*
X145658300Y-87630000D02*
X147320000Y-87630000D01*
X141354000Y-78740000D02*
X140704000Y-78740000D01*
X147320000Y-92710000D02*
X147320000Y-87630000D01*
D28*
X154940000Y-85648000D02*
X154940000Y-87122000D01*
X154866000Y-85574000D02*
X154940000Y-85648000D01*
X150622000Y-85574000D02*
X154866000Y-85574000D01*
X143014000Y-48768000D02*
X141478000Y-48768000D01*
D30*
G36*
X160580000Y-94540000D02*
G01*
X118820000Y-94540000D01*
X118820000Y-91219872D01*
X119685000Y-91219872D01*
X119685000Y-91660128D01*
X119770890Y-92091925D01*
X119939369Y-92498669D01*
X120183962Y-92864729D01*
X120495271Y-93176038D01*
X120861331Y-93420631D01*
X121268075Y-93589110D01*
X121699872Y-93675000D01*
X122140128Y-93675000D01*
X122571925Y-93589110D01*
X122978669Y-93420631D01*
X123344729Y-93176038D01*
X123656038Y-92864729D01*
X123900631Y-92498669D01*
X124069110Y-92091925D01*
X124155000Y-91660128D01*
X124155000Y-91219872D01*
X124069110Y-90788075D01*
X123900631Y-90381331D01*
X123656038Y-90015271D01*
X123344729Y-89703962D01*
X122978669Y-89459369D01*
X122571925Y-89290890D01*
X122140128Y-89205000D01*
X121699872Y-89205000D01*
X121268075Y-89290890D01*
X120861331Y-89459369D01*
X120495271Y-89703962D01*
X120183962Y-90015271D01*
X119939369Y-90381331D01*
X119770890Y-90788075D01*
X119685000Y-91219872D01*
X118820000Y-91219872D01*
X118820000Y-82425079D01*
X128049000Y-82425079D01*
X128049000Y-83022921D01*
X128165633Y-83609277D01*
X128394418Y-84161612D01*
X128726562Y-84658700D01*
X129149300Y-85081438D01*
X129646388Y-85413582D01*
X130198723Y-85642367D01*
X130785079Y-85759000D01*
X131382921Y-85759000D01*
X131602422Y-85715339D01*
X131397206Y-85920555D01*
X131142643Y-86025999D01*
X130846192Y-86224081D01*
X130594081Y-86476192D01*
X130395999Y-86772643D01*
X130259557Y-87102042D01*
X130190000Y-87451731D01*
X130190000Y-87808269D01*
X130259557Y-88157958D01*
X130365001Y-88412521D01*
X130365000Y-91927481D01*
X130259557Y-92182042D01*
X130190000Y-92531731D01*
X130190000Y-92888269D01*
X130259557Y-93237958D01*
X130395999Y-93567357D01*
X130594081Y-93863808D01*
X130846192Y-94115919D01*
X131142643Y-94314001D01*
X131472042Y-94450443D01*
X131821731Y-94520000D01*
X132178269Y-94520000D01*
X132527958Y-94450443D01*
X132857357Y-94314001D01*
X133153808Y-94115919D01*
X133405919Y-93863808D01*
X133604001Y-93567357D01*
X133740443Y-93237958D01*
X133810000Y-92888269D01*
X133810000Y-92531731D01*
X133740443Y-92182042D01*
X133635000Y-91927481D01*
X133635000Y-88412519D01*
X133709445Y-88232794D01*
X134387915Y-87554325D01*
X134387924Y-87554314D01*
X135783319Y-86158920D01*
X135845715Y-86107713D01*
X136050032Y-85858751D01*
X136201853Y-85574714D01*
X136295344Y-85266515D01*
X136319001Y-85026321D01*
X136319001Y-85026319D01*
X136326912Y-84946000D01*
X136319001Y-84865680D01*
X136319001Y-84838475D01*
X136354682Y-84867757D01*
X140216243Y-88729319D01*
X140267449Y-88791714D01*
X140516411Y-88996031D01*
X140800448Y-89147852D01*
X141108647Y-89241343D01*
X141348841Y-89265000D01*
X141348843Y-89265000D01*
X141429162Y-89272911D01*
X141509482Y-89265000D01*
X145685001Y-89265000D01*
X145685000Y-91927481D01*
X145579557Y-92182042D01*
X145510000Y-92531731D01*
X145510000Y-92888269D01*
X145579557Y-93237958D01*
X145715999Y-93567357D01*
X145914081Y-93863808D01*
X146166192Y-94115919D01*
X146462643Y-94314001D01*
X146792042Y-94450443D01*
X147141731Y-94520000D01*
X147498269Y-94520000D01*
X147847958Y-94450443D01*
X148177357Y-94314001D01*
X148473808Y-94115919D01*
X148725919Y-93863808D01*
X148924001Y-93567357D01*
X149060443Y-93237958D01*
X149130000Y-92888269D01*
X149130000Y-92531731D01*
X149060443Y-92182042D01*
X148955000Y-91927481D01*
X148955000Y-91219872D01*
X155245000Y-91219872D01*
X155245000Y-91660128D01*
X155330890Y-92091925D01*
X155499369Y-92498669D01*
X155743962Y-92864729D01*
X156055271Y-93176038D01*
X156421331Y-93420631D01*
X156828075Y-93589110D01*
X157259872Y-93675000D01*
X157700128Y-93675000D01*
X158131925Y-93589110D01*
X158538669Y-93420631D01*
X158904729Y-93176038D01*
X159216038Y-92864729D01*
X159460631Y-92498669D01*
X159629110Y-92091925D01*
X159715000Y-91660128D01*
X159715000Y-91219872D01*
X159629110Y-90788075D01*
X159460631Y-90381331D01*
X159216038Y-90015271D01*
X158904729Y-89703962D01*
X158538669Y-89459369D01*
X158131925Y-89290890D01*
X157700128Y-89205000D01*
X157259872Y-89205000D01*
X156828075Y-89290890D01*
X156421331Y-89459369D01*
X156055271Y-89703962D01*
X155743962Y-90015271D01*
X155499369Y-90381331D01*
X155330890Y-90788075D01*
X155245000Y-91219872D01*
X148955000Y-91219872D01*
X148955000Y-88412519D01*
X149060443Y-88157958D01*
X149095505Y-87981686D01*
X149215677Y-88080309D01*
X149322184Y-88137238D01*
X149414939Y-88186816D01*
X149631149Y-88252403D01*
X149799660Y-88269000D01*
X149799669Y-88269000D01*
X149855999Y-88274548D01*
X149912329Y-88269000D01*
X153496340Y-88269000D01*
X153664851Y-88252403D01*
X153881061Y-88186816D01*
X153920862Y-88165542D01*
X153934180Y-88161502D01*
X154044494Y-88102537D01*
X154055249Y-88093711D01*
X154080322Y-88080309D01*
X154190001Y-87990298D01*
X154299679Y-88080309D01*
X154324750Y-88093710D01*
X154335506Y-88102537D01*
X154445820Y-88161502D01*
X154459140Y-88165543D01*
X154498940Y-88186816D01*
X154715150Y-88252403D01*
X154940000Y-88274549D01*
X155164851Y-88252403D01*
X155381061Y-88186816D01*
X155420862Y-88165542D01*
X155434180Y-88161502D01*
X155544494Y-88102537D01*
X155555249Y-88093711D01*
X155580322Y-88080309D01*
X155754975Y-87936975D01*
X155898309Y-87762322D01*
X156004816Y-87563061D01*
X156070403Y-87346851D01*
X156087000Y-87178340D01*
X156087000Y-85704329D01*
X156092548Y-85648000D01*
X156087000Y-85591671D01*
X156087000Y-85591660D01*
X156070403Y-85423149D01*
X156004816Y-85206939D01*
X155898309Y-85007678D01*
X155754975Y-84833025D01*
X155714331Y-84799670D01*
X155680975Y-84759025D01*
X155506322Y-84615691D01*
X155307061Y-84509184D01*
X155090851Y-84443597D01*
X154994143Y-84434072D01*
X157456000Y-84434072D01*
X157580482Y-84421812D01*
X157700180Y-84385502D01*
X157810494Y-84326537D01*
X157907185Y-84247185D01*
X157986537Y-84150494D01*
X158045502Y-84040180D01*
X158081812Y-83920482D01*
X158094072Y-83796000D01*
X158094072Y-80796000D01*
X158081812Y-80671518D01*
X158045502Y-80551820D01*
X157986537Y-80441506D01*
X157907185Y-80344815D01*
X157810494Y-80265463D01*
X157700180Y-80206498D01*
X157580482Y-80170188D01*
X157456000Y-80157928D01*
X156130167Y-80157928D01*
X155190773Y-79218535D01*
X155579551Y-79328044D01*
X155998824Y-79360902D01*
X156416451Y-79311334D01*
X156816383Y-79181243D01*
X157112038Y-79023214D01*
X157268048Y-78707653D01*
X155956000Y-77395605D01*
X155941858Y-77409748D01*
X155762253Y-77230143D01*
X155776395Y-77216000D01*
X156135605Y-77216000D01*
X157447653Y-78528048D01*
X157763214Y-78372038D01*
X157954020Y-77997255D01*
X158068044Y-77592449D01*
X158100902Y-77173176D01*
X158051334Y-76755549D01*
X157921243Y-76355617D01*
X157763214Y-76059962D01*
X157447653Y-75903952D01*
X156135605Y-77216000D01*
X155776395Y-77216000D01*
X154464347Y-75903952D01*
X154148786Y-76059962D01*
X153957980Y-76434745D01*
X153843956Y-76839551D01*
X153811098Y-77258824D01*
X153860666Y-77676451D01*
X153962861Y-77990622D01*
X153612925Y-77640687D01*
X153561714Y-77578286D01*
X153312752Y-77373969D01*
X153028715Y-77222148D01*
X152720516Y-77128657D01*
X152480322Y-77105000D01*
X152480319Y-77105000D01*
X152400000Y-77097089D01*
X152319681Y-77105000D01*
X147763884Y-77105000D01*
X147548848Y-76990061D01*
X147193524Y-76882275D01*
X146916597Y-76855000D01*
X145431403Y-76855000D01*
X145154476Y-76882275D01*
X144799152Y-76990061D01*
X144471683Y-77165097D01*
X144184655Y-77400655D01*
X143949097Y-77687683D01*
X143774061Y-78015152D01*
X143764000Y-78048319D01*
X143753939Y-78015152D01*
X143578903Y-77687683D01*
X143343345Y-77400655D01*
X143056317Y-77165097D01*
X142728848Y-76990061D01*
X142373524Y-76882275D01*
X142096597Y-76855000D01*
X140611403Y-76855000D01*
X140334476Y-76882275D01*
X139979152Y-76990061D01*
X139651683Y-77165097D01*
X139364655Y-77400655D01*
X139129097Y-77687683D01*
X138954061Y-78015152D01*
X138883282Y-78248479D01*
X136354687Y-80777075D01*
X136319001Y-80806362D01*
X136319001Y-79831137D01*
X136491438Y-79658700D01*
X136823582Y-79161612D01*
X137052367Y-78609277D01*
X137169000Y-78022921D01*
X137169000Y-77425079D01*
X137052367Y-76838723D01*
X136823582Y-76286388D01*
X136491438Y-75789300D01*
X136068700Y-75366562D01*
X135571612Y-75034418D01*
X135019277Y-74805633D01*
X134432921Y-74689000D01*
X133835079Y-74689000D01*
X133248723Y-74805633D01*
X132696388Y-75034418D01*
X132199300Y-75366562D01*
X131776562Y-75789300D01*
X131444418Y-76286388D01*
X131215633Y-76838723D01*
X131099000Y-77425079D01*
X131099000Y-78022921D01*
X131215633Y-78609277D01*
X131444418Y-79161612D01*
X131776562Y-79658700D01*
X131912127Y-79794265D01*
X131382921Y-79689000D01*
X130785079Y-79689000D01*
X130198723Y-79805633D01*
X129646388Y-80034418D01*
X129149300Y-80366562D01*
X128726562Y-80789300D01*
X128394418Y-81286388D01*
X128165633Y-81838723D01*
X128049000Y-82425079D01*
X118820000Y-82425079D01*
X118820000Y-79856029D01*
X125581576Y-79856029D01*
X125845740Y-80263755D01*
X126373661Y-80544317D01*
X126946173Y-80716496D01*
X127541275Y-80773676D01*
X128136098Y-80713658D01*
X128707782Y-80538750D01*
X129222260Y-80263755D01*
X129486424Y-79856029D01*
X127534000Y-77903605D01*
X125581576Y-79856029D01*
X118820000Y-79856029D01*
X118820000Y-77543268D01*
X121899000Y-77543268D01*
X121899000Y-77904732D01*
X121969518Y-78259250D01*
X122107844Y-78593199D01*
X122308662Y-78893744D01*
X122564256Y-79149338D01*
X122864801Y-79350156D01*
X123198750Y-79488482D01*
X123553268Y-79559000D01*
X123914732Y-79559000D01*
X124269250Y-79488482D01*
X124603199Y-79350156D01*
X124866877Y-79173972D01*
X124994245Y-79412260D01*
X125401971Y-79676424D01*
X127354395Y-77724000D01*
X127713605Y-77724000D01*
X129666029Y-79676424D01*
X130073755Y-79412260D01*
X130354317Y-78884339D01*
X130526496Y-78311827D01*
X130583676Y-77716725D01*
X130523658Y-77121902D01*
X130348750Y-76550218D01*
X130073755Y-76035740D01*
X129666029Y-75771576D01*
X127713605Y-77724000D01*
X127354395Y-77724000D01*
X125401971Y-75771576D01*
X124994245Y-76035740D01*
X124867416Y-76274388D01*
X124603199Y-76097844D01*
X124269250Y-75959518D01*
X123914732Y-75889000D01*
X123553268Y-75889000D01*
X123198750Y-75959518D01*
X122864801Y-76097844D01*
X122564256Y-76298662D01*
X122308662Y-76554256D01*
X122107844Y-76854801D01*
X121969518Y-77188750D01*
X121899000Y-77543268D01*
X118820000Y-77543268D01*
X118820000Y-75591971D01*
X125581576Y-75591971D01*
X127534000Y-77544395D01*
X129486424Y-75591971D01*
X129222260Y-75184245D01*
X128694339Y-74903683D01*
X128121827Y-74731504D01*
X127526725Y-74674324D01*
X126931902Y-74734342D01*
X126360218Y-74909250D01*
X125845740Y-75184245D01*
X125581576Y-75591971D01*
X118820000Y-75591971D01*
X118820000Y-51662001D01*
X119413451Y-51662001D01*
X119419000Y-51718340D01*
X119418999Y-62919589D01*
X119413451Y-62975918D01*
X119418999Y-63032247D01*
X119418999Y-63032257D01*
X119435596Y-63200768D01*
X119501183Y-63416978D01*
X119607690Y-63616239D01*
X119751024Y-63790893D01*
X119794789Y-63826810D01*
X120168393Y-64200414D01*
X120033401Y-64452966D01*
X119948487Y-64732889D01*
X119919815Y-65024000D01*
X119948487Y-65315111D01*
X120033401Y-65595034D01*
X120171294Y-65853014D01*
X120356866Y-66079134D01*
X120582986Y-66264706D01*
X120637791Y-66294000D01*
X120582986Y-66323294D01*
X120356866Y-66508866D01*
X120171294Y-66734986D01*
X120033401Y-66992966D01*
X119948487Y-67272889D01*
X119919815Y-67564000D01*
X119948487Y-67855111D01*
X120033401Y-68135034D01*
X120171294Y-68393014D01*
X120356866Y-68619134D01*
X120386687Y-68643607D01*
X120317820Y-68664498D01*
X120207506Y-68723463D01*
X120110815Y-68802815D01*
X120031463Y-68899506D01*
X119972498Y-69009820D01*
X119936188Y-69129518D01*
X119923928Y-69254000D01*
X119923928Y-70954000D01*
X119936188Y-71078482D01*
X119972498Y-71198180D01*
X120031463Y-71308494D01*
X120110815Y-71405185D01*
X120207506Y-71484537D01*
X120317820Y-71543502D01*
X120437518Y-71579812D01*
X120562000Y-71592072D01*
X122262000Y-71592072D01*
X122386482Y-71579812D01*
X122506180Y-71543502D01*
X122616494Y-71484537D01*
X122713185Y-71405185D01*
X122792537Y-71308494D01*
X122823269Y-71251000D01*
X122992898Y-71251000D01*
X123458788Y-71716890D01*
X123589678Y-71824309D01*
X123614752Y-71837711D01*
X123625506Y-71846537D01*
X123735820Y-71905502D01*
X123749136Y-71909541D01*
X123788938Y-71930816D01*
X124005149Y-71996403D01*
X124230000Y-72018548D01*
X124454850Y-71996403D01*
X124671061Y-71930816D01*
X124710862Y-71909542D01*
X124724180Y-71905502D01*
X124834494Y-71846537D01*
X124845249Y-71837711D01*
X124870322Y-71824309D01*
X124980000Y-71734299D01*
X125089678Y-71824309D01*
X125114751Y-71837711D01*
X125125506Y-71846537D01*
X125235820Y-71905502D01*
X125249138Y-71909542D01*
X125288939Y-71930816D01*
X125505149Y-71996403D01*
X125673660Y-72013000D01*
X126684672Y-72013000D01*
X126903286Y-72129852D01*
X127211484Y-72223342D01*
X127532000Y-72254911D01*
X127852516Y-72223342D01*
X128160714Y-72129852D01*
X128444752Y-71978030D01*
X128631323Y-71824915D01*
X129396030Y-71060209D01*
X129393928Y-71412000D01*
X129406188Y-71536482D01*
X129442498Y-71656180D01*
X129501463Y-71766494D01*
X129580815Y-71863185D01*
X129677506Y-71942537D01*
X129787820Y-72001502D01*
X129907518Y-72037812D01*
X130032000Y-72050072D01*
X130246250Y-72047000D01*
X130405000Y-71888250D01*
X130405000Y-70739000D01*
X130659000Y-70739000D01*
X130659000Y-71888250D01*
X130817750Y-72047000D01*
X131032000Y-72050072D01*
X131156482Y-72037812D01*
X131276180Y-72001502D01*
X131386494Y-71942537D01*
X131483185Y-71863185D01*
X131562537Y-71766494D01*
X131621502Y-71656180D01*
X131657812Y-71536482D01*
X131670072Y-71412000D01*
X131667000Y-70897750D01*
X131508250Y-70739000D01*
X130659000Y-70739000D01*
X130405000Y-70739000D01*
X130385000Y-70739000D01*
X130385000Y-70485000D01*
X130405000Y-70485000D01*
X130405000Y-70465000D01*
X130659000Y-70465000D01*
X130659000Y-70485000D01*
X131508250Y-70485000D01*
X131667000Y-70326250D01*
X131670072Y-69812000D01*
X131657812Y-69687518D01*
X131621502Y-69567820D01*
X131562537Y-69457506D01*
X131483185Y-69360815D01*
X131386494Y-69281463D01*
X131276180Y-69222498D01*
X131243618Y-69212620D01*
X131520042Y-68936197D01*
X131600000Y-68944072D01*
X133945834Y-68944072D01*
X138830671Y-73828910D01*
X138809880Y-74040000D01*
X138846275Y-74409524D01*
X138954061Y-74764848D01*
X139129097Y-75092317D01*
X139364655Y-75379345D01*
X139651683Y-75614903D01*
X139979152Y-75789939D01*
X140334476Y-75897725D01*
X140611403Y-75925000D01*
X142096597Y-75925000D01*
X142373524Y-75897725D01*
X142728848Y-75789939D01*
X143056317Y-75614903D01*
X143343345Y-75379345D01*
X143578903Y-75092317D01*
X143753939Y-74764848D01*
X143764000Y-74731681D01*
X143774061Y-74764848D01*
X143949097Y-75092317D01*
X144184655Y-75379345D01*
X144471683Y-75614903D01*
X144799152Y-75789939D01*
X145154476Y-75897725D01*
X145431403Y-75925000D01*
X146916597Y-75925000D01*
X147193524Y-75897725D01*
X147548848Y-75789939D01*
X147671562Y-75724347D01*
X154643952Y-75724347D01*
X155956000Y-77036395D01*
X157268048Y-75724347D01*
X157112038Y-75408786D01*
X156737255Y-75217980D01*
X156332449Y-75103956D01*
X155913176Y-75071098D01*
X155495549Y-75120666D01*
X155095617Y-75250757D01*
X154799962Y-75408786D01*
X154643952Y-75724347D01*
X147671562Y-75724347D01*
X147763884Y-75675000D01*
X153717681Y-75675000D01*
X153798000Y-75682911D01*
X153878319Y-75675000D01*
X153878322Y-75675000D01*
X154118516Y-75651343D01*
X154426715Y-75557852D01*
X154710752Y-75406031D01*
X154959714Y-75201714D01*
X155010925Y-75139313D01*
X159849324Y-70300916D01*
X159911714Y-70249714D01*
X160116031Y-70000752D01*
X160267852Y-69716715D01*
X160334707Y-69496323D01*
X160361343Y-69408517D01*
X160392912Y-69088000D01*
X160385000Y-69007670D01*
X160385000Y-66467678D01*
X160361343Y-66227484D01*
X160267852Y-65919285D01*
X160116031Y-65635248D01*
X159911714Y-65386286D01*
X159662751Y-65181969D01*
X159378714Y-65030148D01*
X159070515Y-64936657D01*
X158750000Y-64905089D01*
X158429484Y-64936657D01*
X158121285Y-65030148D01*
X157837248Y-65181969D01*
X157588286Y-65386286D01*
X157383969Y-65635249D01*
X157232148Y-65919286D01*
X157138657Y-66227485D01*
X157115000Y-66467679D01*
X157115001Y-68410759D01*
X153120762Y-72405000D01*
X147763884Y-72405000D01*
X147548848Y-72290061D01*
X147193524Y-72182275D01*
X146916597Y-72155000D01*
X146201239Y-72155000D01*
X147727319Y-70628920D01*
X147789713Y-70577715D01*
X147980561Y-70345165D01*
X148120048Y-70410756D01*
X148387135Y-70477023D01*
X148662017Y-70489910D01*
X148934133Y-70448922D01*
X149193023Y-70355636D01*
X149308980Y-70293656D01*
X149375960Y-70053565D01*
X148590000Y-69267605D01*
X148575858Y-69281748D01*
X148396253Y-69102143D01*
X148410395Y-69088000D01*
X148769605Y-69088000D01*
X149555565Y-69873960D01*
X149795656Y-69806980D01*
X149912756Y-69557952D01*
X149979023Y-69290865D01*
X149991910Y-69015983D01*
X149950922Y-68743867D01*
X149857636Y-68484977D01*
X149795656Y-68369020D01*
X149555565Y-68302040D01*
X148769605Y-69088000D01*
X148410395Y-69088000D01*
X148396253Y-69073858D01*
X148575858Y-68894253D01*
X148590000Y-68908395D01*
X149375960Y-68122435D01*
X149308980Y-67882344D01*
X149178356Y-67820921D01*
X149193023Y-67815636D01*
X149308980Y-67753656D01*
X149375960Y-67513565D01*
X148590000Y-66727605D01*
X148575858Y-66741748D01*
X148396253Y-66562143D01*
X148410395Y-66548000D01*
X148769605Y-66548000D01*
X149555565Y-67333960D01*
X149795656Y-67266980D01*
X149912756Y-67017952D01*
X149979023Y-66750865D01*
X149991910Y-66475983D01*
X149950922Y-66203867D01*
X149857636Y-65944977D01*
X149795656Y-65829020D01*
X149555565Y-65762040D01*
X148769605Y-66548000D01*
X148410395Y-66548000D01*
X148396253Y-66533858D01*
X148575858Y-66354253D01*
X148590000Y-66368395D01*
X149375960Y-65582435D01*
X149308980Y-65342344D01*
X149059952Y-65225244D01*
X148792865Y-65158977D01*
X148678971Y-65153637D01*
X158349609Y-55483000D01*
X158830322Y-55483000D01*
X159070516Y-55459343D01*
X159378715Y-55365852D01*
X159662752Y-55214031D01*
X159911714Y-55009714D01*
X160116031Y-54760752D01*
X160267852Y-54476715D01*
X160361343Y-54168516D01*
X160392911Y-53848000D01*
X160361343Y-53527484D01*
X160295123Y-53309185D01*
X160361343Y-53090886D01*
X160385000Y-52850692D01*
X160385000Y-52850690D01*
X160392911Y-52770370D01*
X160385000Y-52690051D01*
X160385000Y-51227678D01*
X160361343Y-50987484D01*
X160267852Y-50679285D01*
X160116031Y-50395248D01*
X159911714Y-50146286D01*
X159662751Y-49941969D01*
X159378714Y-49790148D01*
X159070515Y-49696657D01*
X158750000Y-49665089D01*
X158429484Y-49696657D01*
X158121285Y-49790148D01*
X157837248Y-49941969D01*
X157588286Y-50146286D01*
X157383969Y-50395249D01*
X157232148Y-50679286D01*
X157138657Y-50987485D01*
X157115000Y-51227679D01*
X157115000Y-52093132D01*
X156573057Y-52635075D01*
X156510656Y-52686286D01*
X156459450Y-52748681D01*
X145528681Y-63679451D01*
X145466286Y-63730657D01*
X145274633Y-63964188D01*
X145261969Y-63979619D01*
X145110147Y-64263657D01*
X145016657Y-64571855D01*
X144985088Y-64892371D01*
X144993000Y-64972700D01*
X144992999Y-68738762D01*
X144794763Y-68936998D01*
X144694252Y-68936998D01*
X144849000Y-68782250D01*
X144837104Y-68676603D01*
X144798326Y-68557682D01*
X144737093Y-68448611D01*
X144655758Y-68353581D01*
X144621762Y-68326838D01*
X144722309Y-68204322D01*
X144735711Y-68179249D01*
X144744537Y-68168494D01*
X144803502Y-68058180D01*
X144807542Y-68044862D01*
X144828816Y-68005061D01*
X144894403Y-67788851D01*
X144911000Y-67620340D01*
X144911000Y-65209660D01*
X144894403Y-65041149D01*
X144828816Y-64824939D01*
X144807542Y-64785138D01*
X144803502Y-64771820D01*
X144744537Y-64661506D01*
X144735711Y-64650751D01*
X144722309Y-64625678D01*
X144632298Y-64516000D01*
X144722309Y-64406321D01*
X144735709Y-64381251D01*
X144744537Y-64370494D01*
X144803502Y-64260180D01*
X144807543Y-64246858D01*
X144828815Y-64207061D01*
X144894402Y-63990850D01*
X144916548Y-63766000D01*
X144894402Y-63541149D01*
X144828815Y-63324938D01*
X144807542Y-63285140D01*
X144803502Y-63271820D01*
X144744537Y-63161506D01*
X144735711Y-63150751D01*
X144722309Y-63125678D01*
X144614889Y-62994786D01*
X144608676Y-62988574D01*
X144653000Y-62944250D01*
X144653000Y-62341000D01*
X144907000Y-62341000D01*
X144907000Y-62944250D01*
X145065750Y-63103000D01*
X145216805Y-63105936D01*
X145341514Y-63096252D01*
X145461937Y-63062425D01*
X145573447Y-63005755D01*
X145671758Y-62928419D01*
X145753093Y-62833389D01*
X145814326Y-62724318D01*
X145853104Y-62605397D01*
X145865000Y-62499750D01*
X145706250Y-62341000D01*
X144907000Y-62341000D01*
X144653000Y-62341000D01*
X144633000Y-62341000D01*
X144633000Y-62095000D01*
X144653000Y-62095000D01*
X144653000Y-62071000D01*
X144907000Y-62071000D01*
X144907000Y-62095000D01*
X145706250Y-62095000D01*
X145865000Y-61936250D01*
X145853104Y-61830603D01*
X145814326Y-61711682D01*
X145753093Y-61602611D01*
X145671758Y-61507581D01*
X145637762Y-61480838D01*
X145738309Y-61358322D01*
X145751711Y-61333249D01*
X145760537Y-61322494D01*
X145819502Y-61212180D01*
X145823542Y-61198862D01*
X145844816Y-61159061D01*
X145910403Y-60942851D01*
X145927000Y-60774340D01*
X145927000Y-59113660D01*
X145910403Y-58945149D01*
X145844816Y-58728939D01*
X145823542Y-58689138D01*
X145819502Y-58675820D01*
X145760537Y-58565506D01*
X145751711Y-58554751D01*
X145738309Y-58529678D01*
X145648299Y-58420000D01*
X145738309Y-58310322D01*
X145751711Y-58285249D01*
X145760537Y-58274494D01*
X145819502Y-58164180D01*
X145823543Y-58150859D01*
X145844815Y-58111061D01*
X145910402Y-57894850D01*
X145932548Y-57670000D01*
X145919252Y-57535000D01*
X147792075Y-57535000D01*
X147928273Y-57626005D01*
X148182510Y-57731314D01*
X148452408Y-57785000D01*
X148727592Y-57785000D01*
X148997490Y-57731314D01*
X149251727Y-57626005D01*
X149480535Y-57473120D01*
X149675120Y-57278535D01*
X149828005Y-57049727D01*
X149933314Y-56795490D01*
X149987000Y-56525592D01*
X149987000Y-56250408D01*
X149933314Y-55980510D01*
X149828005Y-55726273D01*
X149675120Y-55497465D01*
X149480535Y-55302880D01*
X149251727Y-55149995D01*
X149180057Y-55120308D01*
X149193023Y-55115636D01*
X149308980Y-55053656D01*
X149375960Y-54813565D01*
X148590000Y-54027605D01*
X147804040Y-54813565D01*
X147871020Y-55053656D01*
X148006760Y-55117485D01*
X147928273Y-55149995D01*
X147792075Y-55241000D01*
X145787102Y-55241000D01*
X145729092Y-55182990D01*
X145687939Y-55106000D01*
X145744502Y-55000180D01*
X145780812Y-54880482D01*
X145793072Y-54756000D01*
X145790000Y-54641750D01*
X145631250Y-54483000D01*
X144907000Y-54483000D01*
X144907000Y-54503000D01*
X144653000Y-54503000D01*
X144653000Y-54483000D01*
X143928750Y-54483000D01*
X143770000Y-54641750D01*
X143768192Y-54709000D01*
X143409403Y-54709000D01*
X143394066Y-54553286D01*
X143303434Y-54254512D01*
X143156256Y-53979161D01*
X143137249Y-53956000D01*
X143766928Y-53956000D01*
X143770000Y-54070250D01*
X143928750Y-54229000D01*
X144653000Y-54229000D01*
X144653000Y-53479750D01*
X144907000Y-53479750D01*
X144907000Y-54229000D01*
X145631250Y-54229000D01*
X145790000Y-54070250D01*
X145793072Y-53956000D01*
X145789529Y-53920017D01*
X147188090Y-53920017D01*
X147229078Y-54192133D01*
X147322364Y-54451023D01*
X147384344Y-54566980D01*
X147624435Y-54633960D01*
X148410395Y-53848000D01*
X148769605Y-53848000D01*
X149555565Y-54633960D01*
X149795656Y-54566980D01*
X149912756Y-54317952D01*
X149979023Y-54050865D01*
X149991910Y-53775983D01*
X149950922Y-53503867D01*
X149857636Y-53244977D01*
X149795656Y-53129020D01*
X149555565Y-53062040D01*
X148769605Y-53848000D01*
X148410395Y-53848000D01*
X147624435Y-53062040D01*
X147384344Y-53129020D01*
X147267244Y-53378048D01*
X147200977Y-53645135D01*
X147188090Y-53920017D01*
X145789529Y-53920017D01*
X145780812Y-53831518D01*
X145744502Y-53711820D01*
X145685537Y-53601506D01*
X145606185Y-53504815D01*
X145509494Y-53425463D01*
X145399180Y-53366498D01*
X145279482Y-53330188D01*
X145155000Y-53317928D01*
X145065750Y-53321000D01*
X144907000Y-53479750D01*
X144653000Y-53479750D01*
X144494250Y-53321000D01*
X144405000Y-53317928D01*
X144280518Y-53330188D01*
X144160820Y-53366498D01*
X144050506Y-53425463D01*
X143953815Y-53504815D01*
X143874463Y-53601506D01*
X143815498Y-53711820D01*
X143779188Y-53831518D01*
X143766928Y-53956000D01*
X143137249Y-53956000D01*
X142958187Y-53737813D01*
X142782950Y-53594000D01*
X142958187Y-53450187D01*
X143156256Y-53208839D01*
X143303434Y-52933488D01*
X143394066Y-52634714D01*
X143424669Y-52324000D01*
X143419702Y-52273565D01*
X147804040Y-52273565D01*
X147871020Y-52513656D01*
X148001644Y-52575079D01*
X147986977Y-52580364D01*
X147871020Y-52642344D01*
X147804040Y-52882435D01*
X148590000Y-53668395D01*
X149375960Y-52882435D01*
X149308980Y-52642344D01*
X149178356Y-52580921D01*
X149193023Y-52575636D01*
X149308980Y-52513656D01*
X149375960Y-52273565D01*
X148590000Y-51487605D01*
X147804040Y-52273565D01*
X143419702Y-52273565D01*
X143394066Y-52013286D01*
X143303434Y-51714512D01*
X143156256Y-51439161D01*
X143107718Y-51380017D01*
X147188090Y-51380017D01*
X147229078Y-51652133D01*
X147322364Y-51911023D01*
X147384344Y-52026980D01*
X147624435Y-52093960D01*
X148410395Y-51308000D01*
X148769605Y-51308000D01*
X149555565Y-52093960D01*
X149795656Y-52026980D01*
X149912756Y-51777952D01*
X149979023Y-51510865D01*
X149991910Y-51235983D01*
X149950922Y-50963867D01*
X149857636Y-50704977D01*
X149795656Y-50589020D01*
X149555565Y-50522040D01*
X148769605Y-51308000D01*
X148410395Y-51308000D01*
X147624435Y-50522040D01*
X147384344Y-50589020D01*
X147267244Y-50838048D01*
X147200977Y-51105135D01*
X147188090Y-51380017D01*
X143107718Y-51380017D01*
X142958187Y-51197813D01*
X142716839Y-50999744D01*
X142441488Y-50852566D01*
X142142714Y-50761934D01*
X141909864Y-50739000D01*
X141769103Y-50739000D01*
X141372538Y-50342435D01*
X147804040Y-50342435D01*
X148590000Y-51128395D01*
X149375960Y-50342435D01*
X149308980Y-50102344D01*
X149059952Y-49985244D01*
X148792865Y-49918977D01*
X148517983Y-49906090D01*
X148245867Y-49947078D01*
X147986977Y-50040364D01*
X147871020Y-50102344D01*
X147804040Y-50342435D01*
X141372538Y-50342435D01*
X141125000Y-50094898D01*
X141125000Y-49859529D01*
X141253149Y-49898403D01*
X141421660Y-49915000D01*
X143070340Y-49915000D01*
X143238851Y-49898403D01*
X143455061Y-49832816D01*
X143494862Y-49811542D01*
X143508180Y-49807502D01*
X143618494Y-49748537D01*
X143629249Y-49739711D01*
X143654322Y-49726309D01*
X143776838Y-49625762D01*
X143803581Y-49659758D01*
X143898611Y-49741093D01*
X144007682Y-49802326D01*
X144126603Y-49841104D01*
X144232250Y-49853000D01*
X144391000Y-49694250D01*
X144391000Y-48895000D01*
X144637000Y-48895000D01*
X144637000Y-49694250D01*
X144795750Y-49853000D01*
X144901397Y-49841104D01*
X145020318Y-49802326D01*
X145129389Y-49741093D01*
X145224419Y-49659758D01*
X145301755Y-49561447D01*
X145358425Y-49449937D01*
X145392252Y-49329514D01*
X145401936Y-49204805D01*
X145399000Y-49053750D01*
X145240250Y-48895000D01*
X144637000Y-48895000D01*
X144391000Y-48895000D01*
X144367000Y-48895000D01*
X144367000Y-48641000D01*
X144391000Y-48641000D01*
X144391000Y-47841750D01*
X144637000Y-47841750D01*
X144637000Y-48641000D01*
X145240250Y-48641000D01*
X145399000Y-48482250D01*
X145401936Y-48331195D01*
X145392252Y-48206486D01*
X145358425Y-48086063D01*
X145301755Y-47974553D01*
X145224419Y-47876242D01*
X145129389Y-47794907D01*
X145020318Y-47733674D01*
X144901397Y-47694896D01*
X144795750Y-47683000D01*
X144637000Y-47841750D01*
X144391000Y-47841750D01*
X144232250Y-47683000D01*
X144126603Y-47694896D01*
X144007682Y-47733674D01*
X143898611Y-47794907D01*
X143803581Y-47876242D01*
X143776838Y-47910238D01*
X143654322Y-47809691D01*
X143629249Y-47796289D01*
X143618494Y-47787463D01*
X143508180Y-47728498D01*
X143494862Y-47724458D01*
X143455061Y-47703184D01*
X143238851Y-47637597D01*
X143070340Y-47621000D01*
X141421660Y-47621000D01*
X141253149Y-47637597D01*
X141036939Y-47703184D01*
X140997138Y-47724458D01*
X140983820Y-47728498D01*
X140873506Y-47787463D01*
X140862751Y-47796289D01*
X140837678Y-47809691D01*
X140728000Y-47899702D01*
X140618321Y-47809691D01*
X140593250Y-47796290D01*
X140582494Y-47787463D01*
X140472180Y-47728498D01*
X140458860Y-47724457D01*
X140419060Y-47703184D01*
X140202850Y-47637597D01*
X139978000Y-47615451D01*
X139753149Y-47637597D01*
X139536939Y-47703184D01*
X139497138Y-47724458D01*
X139483820Y-47728498D01*
X139373506Y-47787463D01*
X139362751Y-47796289D01*
X139337678Y-47809691D01*
X139163025Y-47953025D01*
X139019691Y-48127679D01*
X138913184Y-48326940D01*
X138847597Y-48543150D01*
X138831000Y-48711661D01*
X138831000Y-50513671D01*
X138825452Y-50570000D01*
X138831000Y-50626329D01*
X138831000Y-50626340D01*
X138847598Y-50794851D01*
X138879650Y-50900510D01*
X138913185Y-51011061D01*
X139019691Y-51210321D01*
X139033937Y-51227679D01*
X139163026Y-51384975D01*
X139206785Y-51420887D01*
X140045658Y-52259761D01*
X140039331Y-52324000D01*
X140069934Y-52634714D01*
X140160566Y-52933488D01*
X140307744Y-53208839D01*
X140505813Y-53450187D01*
X140681050Y-53594000D01*
X140505813Y-53737813D01*
X140307744Y-53979161D01*
X140160566Y-54254512D01*
X140069934Y-54553286D01*
X140039331Y-54864000D01*
X140045658Y-54928239D01*
X138716898Y-56257000D01*
X135312826Y-56257000D01*
X135162950Y-56134000D01*
X135338187Y-55990187D01*
X135536256Y-55748839D01*
X135683434Y-55473488D01*
X135774066Y-55174714D01*
X135804669Y-54864000D01*
X135774066Y-54553286D01*
X135683434Y-54254512D01*
X135536256Y-53979161D01*
X135338187Y-53737813D01*
X135162950Y-53594000D01*
X135338187Y-53450187D01*
X135536256Y-53208839D01*
X135683434Y-52933488D01*
X135774066Y-52634714D01*
X135804669Y-52324000D01*
X135774066Y-52013286D01*
X135683434Y-51714512D01*
X135536256Y-51439161D01*
X135338187Y-51197813D01*
X135259000Y-51132826D01*
X135259000Y-48848329D01*
X135264548Y-48791999D01*
X135259000Y-48735670D01*
X135259000Y-48735660D01*
X135242403Y-48567149D01*
X135176816Y-48350939D01*
X135070309Y-48151678D01*
X134926975Y-47977025D01*
X134883210Y-47941108D01*
X134859213Y-47917111D01*
X134728321Y-47809691D01*
X134703251Y-47796291D01*
X134692494Y-47787463D01*
X134582180Y-47728498D01*
X134568858Y-47724457D01*
X134529061Y-47703185D01*
X134312850Y-47637598D01*
X134088000Y-47615452D01*
X133863150Y-47637598D01*
X133646939Y-47703185D01*
X133607142Y-47724457D01*
X133593820Y-47728498D01*
X133483506Y-47787463D01*
X133472749Y-47796291D01*
X133447679Y-47809691D01*
X133338000Y-47899702D01*
X133228322Y-47809691D01*
X133203249Y-47796289D01*
X133192494Y-47787463D01*
X133082180Y-47728498D01*
X133068862Y-47724458D01*
X133029061Y-47703184D01*
X132812851Y-47637597D01*
X132644340Y-47621000D01*
X131007660Y-47621000D01*
X130839149Y-47637597D01*
X130622939Y-47703184D01*
X130583138Y-47724458D01*
X130569820Y-47728498D01*
X130459506Y-47787463D01*
X130448751Y-47796289D01*
X130423678Y-47809691D01*
X130301162Y-47910238D01*
X130274419Y-47876242D01*
X130179389Y-47794907D01*
X130070318Y-47733674D01*
X129951397Y-47694896D01*
X129845750Y-47683000D01*
X129687000Y-47841750D01*
X129687000Y-48641000D01*
X129711000Y-48641000D01*
X129711000Y-48895000D01*
X129687000Y-48895000D01*
X129687000Y-49694250D01*
X129845750Y-49853000D01*
X129951397Y-49841104D01*
X130070318Y-49802326D01*
X130179389Y-49741093D01*
X130274419Y-49659758D01*
X130301162Y-49625762D01*
X130423678Y-49726309D01*
X130448751Y-49739711D01*
X130459506Y-49748537D01*
X130569820Y-49807502D01*
X130583138Y-49811542D01*
X130622939Y-49832816D01*
X130839149Y-49898403D01*
X131007660Y-49915000D01*
X132644340Y-49915000D01*
X132812851Y-49898403D01*
X132965001Y-49852249D01*
X132965000Y-51132826D01*
X132885813Y-51197813D01*
X132687744Y-51439161D01*
X132540566Y-51714512D01*
X132449934Y-52013286D01*
X132419331Y-52324000D01*
X132449934Y-52634714D01*
X132540566Y-52933488D01*
X132687744Y-53208839D01*
X132885813Y-53450187D01*
X133061050Y-53594000D01*
X132911174Y-53717000D01*
X132011660Y-53717000D01*
X131843149Y-53733597D01*
X131626939Y-53799184D01*
X131587138Y-53820458D01*
X131573820Y-53824498D01*
X131463506Y-53883463D01*
X131452751Y-53892289D01*
X131427678Y-53905691D01*
X131318000Y-53995702D01*
X131208321Y-53905691D01*
X131183250Y-53892290D01*
X131172494Y-53883463D01*
X131062180Y-53824498D01*
X131048860Y-53820457D01*
X131009060Y-53799184D01*
X130792850Y-53733597D01*
X130568000Y-53711451D01*
X130343149Y-53733597D01*
X130126939Y-53799184D01*
X130087138Y-53820458D01*
X130073820Y-53824498D01*
X129963506Y-53883463D01*
X129952751Y-53892289D01*
X129927678Y-53905691D01*
X129753025Y-54049025D01*
X129609691Y-54223679D01*
X129503184Y-54422940D01*
X129437597Y-54639150D01*
X129421000Y-54807661D01*
X129421000Y-56130897D01*
X129006501Y-56545397D01*
X128980419Y-56512242D01*
X128885389Y-56430907D01*
X128776318Y-56369674D01*
X128657397Y-56330896D01*
X128551750Y-56319000D01*
X128393000Y-56477750D01*
X128393000Y-57277000D01*
X128417000Y-57277000D01*
X128417000Y-57531000D01*
X128393000Y-57531000D01*
X128393000Y-57551000D01*
X128147000Y-57551000D01*
X128147000Y-57531000D01*
X127543750Y-57531000D01*
X127385000Y-57689750D01*
X127382064Y-57840805D01*
X127391748Y-57965514D01*
X127425575Y-58085937D01*
X127482245Y-58197447D01*
X127559581Y-58295758D01*
X127654611Y-58377093D01*
X127763682Y-58438326D01*
X127882603Y-58477104D01*
X127988250Y-58489000D01*
X128142998Y-58334252D01*
X128142998Y-58489000D01*
X128156897Y-58489000D01*
X125212785Y-61433113D01*
X125169026Y-61469025D01*
X125133913Y-61511810D01*
X124294892Y-60672790D01*
X124258975Y-60629025D01*
X124084322Y-60485691D01*
X123885061Y-60379184D01*
X123820535Y-60359610D01*
X123822072Y-60344000D01*
X123819000Y-60229750D01*
X123660250Y-60071000D01*
X122936000Y-60071000D01*
X122936000Y-60091000D01*
X122682000Y-60091000D01*
X122682000Y-60071000D01*
X121957750Y-60071000D01*
X121799000Y-60229750D01*
X121795928Y-60344000D01*
X121808188Y-60468482D01*
X121844498Y-60588180D01*
X121901061Y-60694000D01*
X121844498Y-60799820D01*
X121833665Y-60835531D01*
X121744184Y-61002939D01*
X121712999Y-61105742D01*
X121712999Y-59544000D01*
X121795928Y-59544000D01*
X121799000Y-59658250D01*
X121957750Y-59817000D01*
X122682000Y-59817000D01*
X122682000Y-59067750D01*
X122936000Y-59067750D01*
X122936000Y-59817000D01*
X123660250Y-59817000D01*
X123819000Y-59658250D01*
X123822072Y-59544000D01*
X123809812Y-59419518D01*
X123773502Y-59299820D01*
X123714537Y-59189506D01*
X123635185Y-59092815D01*
X123538494Y-59013463D01*
X123428180Y-58954498D01*
X123308482Y-58918188D01*
X123184000Y-58905928D01*
X123094750Y-58909000D01*
X122936000Y-59067750D01*
X122682000Y-59067750D01*
X122523250Y-58909000D01*
X122434000Y-58905928D01*
X122309518Y-58918188D01*
X122189820Y-58954498D01*
X122079506Y-59013463D01*
X121982815Y-59092815D01*
X121903463Y-59189506D01*
X121844498Y-59299820D01*
X121808188Y-59419518D01*
X121795928Y-59544000D01*
X121712999Y-59544000D01*
X121712999Y-57879653D01*
X122131952Y-57879653D01*
X122287962Y-58195214D01*
X122662745Y-58386020D01*
X123067551Y-58500044D01*
X123486824Y-58532902D01*
X123904451Y-58483334D01*
X124304383Y-58353243D01*
X124600038Y-58195214D01*
X124756048Y-57879653D01*
X123444000Y-56567605D01*
X122131952Y-57879653D01*
X121712999Y-57879653D01*
X121712999Y-57581717D01*
X121952347Y-57700048D01*
X123264395Y-56388000D01*
X123623605Y-56388000D01*
X124935653Y-57700048D01*
X125251214Y-57544038D01*
X125442020Y-57169255D01*
X125498935Y-56967195D01*
X127382064Y-56967195D01*
X127385000Y-57118250D01*
X127543750Y-57277000D01*
X128147000Y-57277000D01*
X128147000Y-56477750D01*
X127988250Y-56319000D01*
X127882603Y-56330896D01*
X127763682Y-56369674D01*
X127654611Y-56430907D01*
X127559581Y-56512242D01*
X127482245Y-56610553D01*
X127425575Y-56722063D01*
X127391748Y-56842486D01*
X127382064Y-56967195D01*
X125498935Y-56967195D01*
X125556044Y-56764449D01*
X125588902Y-56345176D01*
X125539334Y-55927549D01*
X125409243Y-55527617D01*
X125251214Y-55231962D01*
X124935653Y-55075952D01*
X123623605Y-56388000D01*
X123264395Y-56388000D01*
X121952347Y-55075952D01*
X121712999Y-55194283D01*
X121712999Y-54896347D01*
X122131952Y-54896347D01*
X123444000Y-56208395D01*
X124756048Y-54896347D01*
X124600038Y-54580786D01*
X124225255Y-54389980D01*
X123820449Y-54275956D01*
X123401176Y-54243098D01*
X122983549Y-54292666D01*
X122583617Y-54422757D01*
X122287962Y-54580786D01*
X122131952Y-54896347D01*
X121712999Y-54896347D01*
X121712999Y-53401500D01*
X121819518Y-53433812D01*
X121944000Y-53446072D01*
X124944000Y-53446072D01*
X125068482Y-53433812D01*
X125188180Y-53397502D01*
X125298494Y-53338537D01*
X125395185Y-53259185D01*
X125474537Y-53162494D01*
X125533502Y-53052180D01*
X125569812Y-52932482D01*
X125582072Y-52808000D01*
X125582072Y-49808000D01*
X125569812Y-49683518D01*
X125533502Y-49563820D01*
X125474537Y-49453506D01*
X125395185Y-49356815D01*
X125298494Y-49277463D01*
X125188180Y-49218498D01*
X125143041Y-49204805D01*
X128676064Y-49204805D01*
X128685748Y-49329514D01*
X128719575Y-49449937D01*
X128776245Y-49561447D01*
X128853581Y-49659758D01*
X128948611Y-49741093D01*
X129057682Y-49802326D01*
X129176603Y-49841104D01*
X129282250Y-49853000D01*
X129441000Y-49694250D01*
X129441000Y-48895000D01*
X128837750Y-48895000D01*
X128679000Y-49053750D01*
X128676064Y-49204805D01*
X125143041Y-49204805D01*
X125068482Y-49182188D01*
X124944000Y-49169928D01*
X121944000Y-49169928D01*
X121819518Y-49182188D01*
X121699820Y-49218498D01*
X121589506Y-49277463D01*
X121492815Y-49356815D01*
X121413463Y-49453506D01*
X121354498Y-49563820D01*
X121318188Y-49683518D01*
X121305928Y-49808000D01*
X121305928Y-50161000D01*
X120976329Y-50161000D01*
X120919999Y-50155452D01*
X120863670Y-50161000D01*
X120863660Y-50161000D01*
X120695149Y-50177597D01*
X120478939Y-50243184D01*
X120279678Y-50349691D01*
X120105025Y-50493025D01*
X120069108Y-50536790D01*
X119794784Y-50811114D01*
X119751025Y-50847026D01*
X119715113Y-50890785D01*
X119715110Y-50890788D01*
X119607690Y-51021680D01*
X119528194Y-51170408D01*
X119501184Y-51220940D01*
X119464700Y-51341213D01*
X119435597Y-51437151D01*
X119413451Y-51662001D01*
X118820000Y-51662001D01*
X118820000Y-48331195D01*
X128676064Y-48331195D01*
X128679000Y-48482250D01*
X128837750Y-48641000D01*
X129441000Y-48641000D01*
X129441000Y-47841750D01*
X129282250Y-47683000D01*
X129176603Y-47694896D01*
X129057682Y-47733674D01*
X128948611Y-47794907D01*
X128853581Y-47876242D01*
X128776245Y-47974553D01*
X128719575Y-48086063D01*
X128685748Y-48206486D01*
X128676064Y-48331195D01*
X118820000Y-48331195D01*
X118820000Y-41689872D01*
X119685000Y-41689872D01*
X119685000Y-42130128D01*
X119770890Y-42561925D01*
X119939369Y-42968669D01*
X120183962Y-43334729D01*
X120495271Y-43646038D01*
X120861331Y-43890631D01*
X121268075Y-44059110D01*
X121699872Y-44145000D01*
X122140128Y-44145000D01*
X122571925Y-44059110D01*
X122978669Y-43890631D01*
X123344729Y-43646038D01*
X123656038Y-43334729D01*
X123900631Y-42968669D01*
X124069110Y-42561925D01*
X124155000Y-42130128D01*
X124155000Y-41689872D01*
X155245000Y-41689872D01*
X155245000Y-42130128D01*
X155330890Y-42561925D01*
X155499369Y-42968669D01*
X155743962Y-43334729D01*
X156055271Y-43646038D01*
X156421331Y-43890631D01*
X156828075Y-44059110D01*
X157259872Y-44145000D01*
X157700128Y-44145000D01*
X158131925Y-44059110D01*
X158538669Y-43890631D01*
X158904729Y-43646038D01*
X159216038Y-43334729D01*
X159460631Y-42968669D01*
X159629110Y-42561925D01*
X159715000Y-42130128D01*
X159715000Y-41689872D01*
X159629110Y-41258075D01*
X159460631Y-40851331D01*
X159216038Y-40485271D01*
X158904729Y-40173962D01*
X158538669Y-39929369D01*
X158131925Y-39760890D01*
X157700128Y-39675000D01*
X157259872Y-39675000D01*
X156828075Y-39760890D01*
X156421331Y-39929369D01*
X156055271Y-40173962D01*
X155743962Y-40485271D01*
X155499369Y-40851331D01*
X155330890Y-41258075D01*
X155245000Y-41689872D01*
X124155000Y-41689872D01*
X124069110Y-41258075D01*
X123900631Y-40851331D01*
X123656038Y-40485271D01*
X123344729Y-40173962D01*
X122978669Y-39929369D01*
X122571925Y-39760890D01*
X122140128Y-39675000D01*
X121699872Y-39675000D01*
X121268075Y-39760890D01*
X120861331Y-39929369D01*
X120495271Y-40173962D01*
X120183962Y-40485271D01*
X119939369Y-40851331D01*
X119770890Y-41258075D01*
X119685000Y-41689872D01*
X118820000Y-41689872D01*
X118820000Y-38810000D01*
X160580001Y-38810000D01*
X160580000Y-94540000D01*
X160580000Y-94540000D01*
G37*
X160580000Y-94540000D02*
X118820000Y-94540000D01*
X118820000Y-91219872D01*
X119685000Y-91219872D01*
X119685000Y-91660128D01*
X119770890Y-92091925D01*
X119939369Y-92498669D01*
X120183962Y-92864729D01*
X120495271Y-93176038D01*
X120861331Y-93420631D01*
X121268075Y-93589110D01*
X121699872Y-93675000D01*
X122140128Y-93675000D01*
X122571925Y-93589110D01*
X122978669Y-93420631D01*
X123344729Y-93176038D01*
X123656038Y-92864729D01*
X123900631Y-92498669D01*
X124069110Y-92091925D01*
X124155000Y-91660128D01*
X124155000Y-91219872D01*
X124069110Y-90788075D01*
X123900631Y-90381331D01*
X123656038Y-90015271D01*
X123344729Y-89703962D01*
X122978669Y-89459369D01*
X122571925Y-89290890D01*
X122140128Y-89205000D01*
X121699872Y-89205000D01*
X121268075Y-89290890D01*
X120861331Y-89459369D01*
X120495271Y-89703962D01*
X120183962Y-90015271D01*
X119939369Y-90381331D01*
X119770890Y-90788075D01*
X119685000Y-91219872D01*
X118820000Y-91219872D01*
X118820000Y-82425079D01*
X128049000Y-82425079D01*
X128049000Y-83022921D01*
X128165633Y-83609277D01*
X128394418Y-84161612D01*
X128726562Y-84658700D01*
X129149300Y-85081438D01*
X129646388Y-85413582D01*
X130198723Y-85642367D01*
X130785079Y-85759000D01*
X131382921Y-85759000D01*
X131602422Y-85715339D01*
X131397206Y-85920555D01*
X131142643Y-86025999D01*
X130846192Y-86224081D01*
X130594081Y-86476192D01*
X130395999Y-86772643D01*
X130259557Y-87102042D01*
X130190000Y-87451731D01*
X130190000Y-87808269D01*
X130259557Y-88157958D01*
X130365001Y-88412521D01*
X130365000Y-91927481D01*
X130259557Y-92182042D01*
X130190000Y-92531731D01*
X130190000Y-92888269D01*
X130259557Y-93237958D01*
X130395999Y-93567357D01*
X130594081Y-93863808D01*
X130846192Y-94115919D01*
X131142643Y-94314001D01*
X131472042Y-94450443D01*
X131821731Y-94520000D01*
X132178269Y-94520000D01*
X132527958Y-94450443D01*
X132857357Y-94314001D01*
X133153808Y-94115919D01*
X133405919Y-93863808D01*
X133604001Y-93567357D01*
X133740443Y-93237958D01*
X133810000Y-92888269D01*
X133810000Y-92531731D01*
X133740443Y-92182042D01*
X133635000Y-91927481D01*
X133635000Y-88412519D01*
X133709445Y-88232794D01*
X134387915Y-87554325D01*
X134387924Y-87554314D01*
X135783319Y-86158920D01*
X135845715Y-86107713D01*
X136050032Y-85858751D01*
X136201853Y-85574714D01*
X136295344Y-85266515D01*
X136319001Y-85026321D01*
X136319001Y-85026319D01*
X136326912Y-84946000D01*
X136319001Y-84865680D01*
X136319001Y-84838475D01*
X136354682Y-84867757D01*
X140216243Y-88729319D01*
X140267449Y-88791714D01*
X140516411Y-88996031D01*
X140800448Y-89147852D01*
X141108647Y-89241343D01*
X141348841Y-89265000D01*
X141348843Y-89265000D01*
X141429162Y-89272911D01*
X141509482Y-89265000D01*
X145685001Y-89265000D01*
X145685000Y-91927481D01*
X145579557Y-92182042D01*
X145510000Y-92531731D01*
X145510000Y-92888269D01*
X145579557Y-93237958D01*
X145715999Y-93567357D01*
X145914081Y-93863808D01*
X146166192Y-94115919D01*
X146462643Y-94314001D01*
X146792042Y-94450443D01*
X147141731Y-94520000D01*
X147498269Y-94520000D01*
X147847958Y-94450443D01*
X148177357Y-94314001D01*
X148473808Y-94115919D01*
X148725919Y-93863808D01*
X148924001Y-93567357D01*
X149060443Y-93237958D01*
X149130000Y-92888269D01*
X149130000Y-92531731D01*
X149060443Y-92182042D01*
X148955000Y-91927481D01*
X148955000Y-91219872D01*
X155245000Y-91219872D01*
X155245000Y-91660128D01*
X155330890Y-92091925D01*
X155499369Y-92498669D01*
X155743962Y-92864729D01*
X156055271Y-93176038D01*
X156421331Y-93420631D01*
X156828075Y-93589110D01*
X157259872Y-93675000D01*
X157700128Y-93675000D01*
X158131925Y-93589110D01*
X158538669Y-93420631D01*
X158904729Y-93176038D01*
X159216038Y-92864729D01*
X159460631Y-92498669D01*
X159629110Y-92091925D01*
X159715000Y-91660128D01*
X159715000Y-91219872D01*
X159629110Y-90788075D01*
X159460631Y-90381331D01*
X159216038Y-90015271D01*
X158904729Y-89703962D01*
X158538669Y-89459369D01*
X158131925Y-89290890D01*
X157700128Y-89205000D01*
X157259872Y-89205000D01*
X156828075Y-89290890D01*
X156421331Y-89459369D01*
X156055271Y-89703962D01*
X155743962Y-90015271D01*
X155499369Y-90381331D01*
X155330890Y-90788075D01*
X155245000Y-91219872D01*
X148955000Y-91219872D01*
X148955000Y-88412519D01*
X149060443Y-88157958D01*
X149095505Y-87981686D01*
X149215677Y-88080309D01*
X149322184Y-88137238D01*
X149414939Y-88186816D01*
X149631149Y-88252403D01*
X149799660Y-88269000D01*
X149799669Y-88269000D01*
X149855999Y-88274548D01*
X149912329Y-88269000D01*
X153496340Y-88269000D01*
X153664851Y-88252403D01*
X153881061Y-88186816D01*
X153920862Y-88165542D01*
X153934180Y-88161502D01*
X154044494Y-88102537D01*
X154055249Y-88093711D01*
X154080322Y-88080309D01*
X154190001Y-87990298D01*
X154299679Y-88080309D01*
X154324750Y-88093710D01*
X154335506Y-88102537D01*
X154445820Y-88161502D01*
X154459140Y-88165543D01*
X154498940Y-88186816D01*
X154715150Y-88252403D01*
X154940000Y-88274549D01*
X155164851Y-88252403D01*
X155381061Y-88186816D01*
X155420862Y-88165542D01*
X155434180Y-88161502D01*
X155544494Y-88102537D01*
X155555249Y-88093711D01*
X155580322Y-88080309D01*
X155754975Y-87936975D01*
X155898309Y-87762322D01*
X156004816Y-87563061D01*
X156070403Y-87346851D01*
X156087000Y-87178340D01*
X156087000Y-85704329D01*
X156092548Y-85648000D01*
X156087000Y-85591671D01*
X156087000Y-85591660D01*
X156070403Y-85423149D01*
X156004816Y-85206939D01*
X155898309Y-85007678D01*
X155754975Y-84833025D01*
X155714331Y-84799670D01*
X155680975Y-84759025D01*
X155506322Y-84615691D01*
X155307061Y-84509184D01*
X155090851Y-84443597D01*
X154994143Y-84434072D01*
X157456000Y-84434072D01*
X157580482Y-84421812D01*
X157700180Y-84385502D01*
X157810494Y-84326537D01*
X157907185Y-84247185D01*
X157986537Y-84150494D01*
X158045502Y-84040180D01*
X158081812Y-83920482D01*
X158094072Y-83796000D01*
X158094072Y-80796000D01*
X158081812Y-80671518D01*
X158045502Y-80551820D01*
X157986537Y-80441506D01*
X157907185Y-80344815D01*
X157810494Y-80265463D01*
X157700180Y-80206498D01*
X157580482Y-80170188D01*
X157456000Y-80157928D01*
X156130167Y-80157928D01*
X155190773Y-79218535D01*
X155579551Y-79328044D01*
X155998824Y-79360902D01*
X156416451Y-79311334D01*
X156816383Y-79181243D01*
X157112038Y-79023214D01*
X157268048Y-78707653D01*
X155956000Y-77395605D01*
X155941858Y-77409748D01*
X155762253Y-77230143D01*
X155776395Y-77216000D01*
X156135605Y-77216000D01*
X157447653Y-78528048D01*
X157763214Y-78372038D01*
X157954020Y-77997255D01*
X158068044Y-77592449D01*
X158100902Y-77173176D01*
X158051334Y-76755549D01*
X157921243Y-76355617D01*
X157763214Y-76059962D01*
X157447653Y-75903952D01*
X156135605Y-77216000D01*
X155776395Y-77216000D01*
X154464347Y-75903952D01*
X154148786Y-76059962D01*
X153957980Y-76434745D01*
X153843956Y-76839551D01*
X153811098Y-77258824D01*
X153860666Y-77676451D01*
X153962861Y-77990622D01*
X153612925Y-77640687D01*
X153561714Y-77578286D01*
X153312752Y-77373969D01*
X153028715Y-77222148D01*
X152720516Y-77128657D01*
X152480322Y-77105000D01*
X152480319Y-77105000D01*
X152400000Y-77097089D01*
X152319681Y-77105000D01*
X147763884Y-77105000D01*
X147548848Y-76990061D01*
X147193524Y-76882275D01*
X146916597Y-76855000D01*
X145431403Y-76855000D01*
X145154476Y-76882275D01*
X144799152Y-76990061D01*
X144471683Y-77165097D01*
X144184655Y-77400655D01*
X143949097Y-77687683D01*
X143774061Y-78015152D01*
X143764000Y-78048319D01*
X143753939Y-78015152D01*
X143578903Y-77687683D01*
X143343345Y-77400655D01*
X143056317Y-77165097D01*
X142728848Y-76990061D01*
X142373524Y-76882275D01*
X142096597Y-76855000D01*
X140611403Y-76855000D01*
X140334476Y-76882275D01*
X139979152Y-76990061D01*
X139651683Y-77165097D01*
X139364655Y-77400655D01*
X139129097Y-77687683D01*
X138954061Y-78015152D01*
X138883282Y-78248479D01*
X136354687Y-80777075D01*
X136319001Y-80806362D01*
X136319001Y-79831137D01*
X136491438Y-79658700D01*
X136823582Y-79161612D01*
X137052367Y-78609277D01*
X137169000Y-78022921D01*
X137169000Y-77425079D01*
X137052367Y-76838723D01*
X136823582Y-76286388D01*
X136491438Y-75789300D01*
X136068700Y-75366562D01*
X135571612Y-75034418D01*
X135019277Y-74805633D01*
X134432921Y-74689000D01*
X133835079Y-74689000D01*
X133248723Y-74805633D01*
X132696388Y-75034418D01*
X132199300Y-75366562D01*
X131776562Y-75789300D01*
X131444418Y-76286388D01*
X131215633Y-76838723D01*
X131099000Y-77425079D01*
X131099000Y-78022921D01*
X131215633Y-78609277D01*
X131444418Y-79161612D01*
X131776562Y-79658700D01*
X131912127Y-79794265D01*
X131382921Y-79689000D01*
X130785079Y-79689000D01*
X130198723Y-79805633D01*
X129646388Y-80034418D01*
X129149300Y-80366562D01*
X128726562Y-80789300D01*
X128394418Y-81286388D01*
X128165633Y-81838723D01*
X128049000Y-82425079D01*
X118820000Y-82425079D01*
X118820000Y-79856029D01*
X125581576Y-79856029D01*
X125845740Y-80263755D01*
X126373661Y-80544317D01*
X126946173Y-80716496D01*
X127541275Y-80773676D01*
X128136098Y-80713658D01*
X128707782Y-80538750D01*
X129222260Y-80263755D01*
X129486424Y-79856029D01*
X127534000Y-77903605D01*
X125581576Y-79856029D01*
X118820000Y-79856029D01*
X118820000Y-77543268D01*
X121899000Y-77543268D01*
X121899000Y-77904732D01*
X121969518Y-78259250D01*
X122107844Y-78593199D01*
X122308662Y-78893744D01*
X122564256Y-79149338D01*
X122864801Y-79350156D01*
X123198750Y-79488482D01*
X123553268Y-79559000D01*
X123914732Y-79559000D01*
X124269250Y-79488482D01*
X124603199Y-79350156D01*
X124866877Y-79173972D01*
X124994245Y-79412260D01*
X125401971Y-79676424D01*
X127354395Y-77724000D01*
X127713605Y-77724000D01*
X129666029Y-79676424D01*
X130073755Y-79412260D01*
X130354317Y-78884339D01*
X130526496Y-78311827D01*
X130583676Y-77716725D01*
X130523658Y-77121902D01*
X130348750Y-76550218D01*
X130073755Y-76035740D01*
X129666029Y-75771576D01*
X127713605Y-77724000D01*
X127354395Y-77724000D01*
X125401971Y-75771576D01*
X124994245Y-76035740D01*
X124867416Y-76274388D01*
X124603199Y-76097844D01*
X124269250Y-75959518D01*
X123914732Y-75889000D01*
X123553268Y-75889000D01*
X123198750Y-75959518D01*
X122864801Y-76097844D01*
X122564256Y-76298662D01*
X122308662Y-76554256D01*
X122107844Y-76854801D01*
X121969518Y-77188750D01*
X121899000Y-77543268D01*
X118820000Y-77543268D01*
X118820000Y-75591971D01*
X125581576Y-75591971D01*
X127534000Y-77544395D01*
X129486424Y-75591971D01*
X129222260Y-75184245D01*
X128694339Y-74903683D01*
X128121827Y-74731504D01*
X127526725Y-74674324D01*
X126931902Y-74734342D01*
X126360218Y-74909250D01*
X125845740Y-75184245D01*
X125581576Y-75591971D01*
X118820000Y-75591971D01*
X118820000Y-51662001D01*
X119413451Y-51662001D01*
X119419000Y-51718340D01*
X119418999Y-62919589D01*
X119413451Y-62975918D01*
X119418999Y-63032247D01*
X119418999Y-63032257D01*
X119435596Y-63200768D01*
X119501183Y-63416978D01*
X119607690Y-63616239D01*
X119751024Y-63790893D01*
X119794789Y-63826810D01*
X120168393Y-64200414D01*
X120033401Y-64452966D01*
X119948487Y-64732889D01*
X119919815Y-65024000D01*
X119948487Y-65315111D01*
X120033401Y-65595034D01*
X120171294Y-65853014D01*
X120356866Y-66079134D01*
X120582986Y-66264706D01*
X120637791Y-66294000D01*
X120582986Y-66323294D01*
X120356866Y-66508866D01*
X120171294Y-66734986D01*
X120033401Y-66992966D01*
X119948487Y-67272889D01*
X119919815Y-67564000D01*
X119948487Y-67855111D01*
X120033401Y-68135034D01*
X120171294Y-68393014D01*
X120356866Y-68619134D01*
X120386687Y-68643607D01*
X120317820Y-68664498D01*
X120207506Y-68723463D01*
X120110815Y-68802815D01*
X120031463Y-68899506D01*
X119972498Y-69009820D01*
X119936188Y-69129518D01*
X119923928Y-69254000D01*
X119923928Y-70954000D01*
X119936188Y-71078482D01*
X119972498Y-71198180D01*
X120031463Y-71308494D01*
X120110815Y-71405185D01*
X120207506Y-71484537D01*
X120317820Y-71543502D01*
X120437518Y-71579812D01*
X120562000Y-71592072D01*
X122262000Y-71592072D01*
X122386482Y-71579812D01*
X122506180Y-71543502D01*
X122616494Y-71484537D01*
X122713185Y-71405185D01*
X122792537Y-71308494D01*
X122823269Y-71251000D01*
X122992898Y-71251000D01*
X123458788Y-71716890D01*
X123589678Y-71824309D01*
X123614752Y-71837711D01*
X123625506Y-71846537D01*
X123735820Y-71905502D01*
X123749136Y-71909541D01*
X123788938Y-71930816D01*
X124005149Y-71996403D01*
X124230000Y-72018548D01*
X124454850Y-71996403D01*
X124671061Y-71930816D01*
X124710862Y-71909542D01*
X124724180Y-71905502D01*
X124834494Y-71846537D01*
X124845249Y-71837711D01*
X124870322Y-71824309D01*
X124980000Y-71734299D01*
X125089678Y-71824309D01*
X125114751Y-71837711D01*
X125125506Y-71846537D01*
X125235820Y-71905502D01*
X125249138Y-71909542D01*
X125288939Y-71930816D01*
X125505149Y-71996403D01*
X125673660Y-72013000D01*
X126684672Y-72013000D01*
X126903286Y-72129852D01*
X127211484Y-72223342D01*
X127532000Y-72254911D01*
X127852516Y-72223342D01*
X128160714Y-72129852D01*
X128444752Y-71978030D01*
X128631323Y-71824915D01*
X129396030Y-71060209D01*
X129393928Y-71412000D01*
X129406188Y-71536482D01*
X129442498Y-71656180D01*
X129501463Y-71766494D01*
X129580815Y-71863185D01*
X129677506Y-71942537D01*
X129787820Y-72001502D01*
X129907518Y-72037812D01*
X130032000Y-72050072D01*
X130246250Y-72047000D01*
X130405000Y-71888250D01*
X130405000Y-70739000D01*
X130659000Y-70739000D01*
X130659000Y-71888250D01*
X130817750Y-72047000D01*
X131032000Y-72050072D01*
X131156482Y-72037812D01*
X131276180Y-72001502D01*
X131386494Y-71942537D01*
X131483185Y-71863185D01*
X131562537Y-71766494D01*
X131621502Y-71656180D01*
X131657812Y-71536482D01*
X131670072Y-71412000D01*
X131667000Y-70897750D01*
X131508250Y-70739000D01*
X130659000Y-70739000D01*
X130405000Y-70739000D01*
X130385000Y-70739000D01*
X130385000Y-70485000D01*
X130405000Y-70485000D01*
X130405000Y-70465000D01*
X130659000Y-70465000D01*
X130659000Y-70485000D01*
X131508250Y-70485000D01*
X131667000Y-70326250D01*
X131670072Y-69812000D01*
X131657812Y-69687518D01*
X131621502Y-69567820D01*
X131562537Y-69457506D01*
X131483185Y-69360815D01*
X131386494Y-69281463D01*
X131276180Y-69222498D01*
X131243618Y-69212620D01*
X131520042Y-68936197D01*
X131600000Y-68944072D01*
X133945834Y-68944072D01*
X138830671Y-73828910D01*
X138809880Y-74040000D01*
X138846275Y-74409524D01*
X138954061Y-74764848D01*
X139129097Y-75092317D01*
X139364655Y-75379345D01*
X139651683Y-75614903D01*
X139979152Y-75789939D01*
X140334476Y-75897725D01*
X140611403Y-75925000D01*
X142096597Y-75925000D01*
X142373524Y-75897725D01*
X142728848Y-75789939D01*
X143056317Y-75614903D01*
X143343345Y-75379345D01*
X143578903Y-75092317D01*
X143753939Y-74764848D01*
X143764000Y-74731681D01*
X143774061Y-74764848D01*
X143949097Y-75092317D01*
X144184655Y-75379345D01*
X144471683Y-75614903D01*
X144799152Y-75789939D01*
X145154476Y-75897725D01*
X145431403Y-75925000D01*
X146916597Y-75925000D01*
X147193524Y-75897725D01*
X147548848Y-75789939D01*
X147671562Y-75724347D01*
X154643952Y-75724347D01*
X155956000Y-77036395D01*
X157268048Y-75724347D01*
X157112038Y-75408786D01*
X156737255Y-75217980D01*
X156332449Y-75103956D01*
X155913176Y-75071098D01*
X155495549Y-75120666D01*
X155095617Y-75250757D01*
X154799962Y-75408786D01*
X154643952Y-75724347D01*
X147671562Y-75724347D01*
X147763884Y-75675000D01*
X153717681Y-75675000D01*
X153798000Y-75682911D01*
X153878319Y-75675000D01*
X153878322Y-75675000D01*
X154118516Y-75651343D01*
X154426715Y-75557852D01*
X154710752Y-75406031D01*
X154959714Y-75201714D01*
X155010925Y-75139313D01*
X159849324Y-70300916D01*
X159911714Y-70249714D01*
X160116031Y-70000752D01*
X160267852Y-69716715D01*
X160334707Y-69496323D01*
X160361343Y-69408517D01*
X160392912Y-69088000D01*
X160385000Y-69007670D01*
X160385000Y-66467678D01*
X160361343Y-66227484D01*
X160267852Y-65919285D01*
X160116031Y-65635248D01*
X159911714Y-65386286D01*
X159662751Y-65181969D01*
X159378714Y-65030148D01*
X159070515Y-64936657D01*
X158750000Y-64905089D01*
X158429484Y-64936657D01*
X158121285Y-65030148D01*
X157837248Y-65181969D01*
X157588286Y-65386286D01*
X157383969Y-65635249D01*
X157232148Y-65919286D01*
X157138657Y-66227485D01*
X157115000Y-66467679D01*
X157115001Y-68410759D01*
X153120762Y-72405000D01*
X147763884Y-72405000D01*
X147548848Y-72290061D01*
X147193524Y-72182275D01*
X146916597Y-72155000D01*
X146201239Y-72155000D01*
X147727319Y-70628920D01*
X147789713Y-70577715D01*
X147980561Y-70345165D01*
X148120048Y-70410756D01*
X148387135Y-70477023D01*
X148662017Y-70489910D01*
X148934133Y-70448922D01*
X149193023Y-70355636D01*
X149308980Y-70293656D01*
X149375960Y-70053565D01*
X148590000Y-69267605D01*
X148575858Y-69281748D01*
X148396253Y-69102143D01*
X148410395Y-69088000D01*
X148769605Y-69088000D01*
X149555565Y-69873960D01*
X149795656Y-69806980D01*
X149912756Y-69557952D01*
X149979023Y-69290865D01*
X149991910Y-69015983D01*
X149950922Y-68743867D01*
X149857636Y-68484977D01*
X149795656Y-68369020D01*
X149555565Y-68302040D01*
X148769605Y-69088000D01*
X148410395Y-69088000D01*
X148396253Y-69073858D01*
X148575858Y-68894253D01*
X148590000Y-68908395D01*
X149375960Y-68122435D01*
X149308980Y-67882344D01*
X149178356Y-67820921D01*
X149193023Y-67815636D01*
X149308980Y-67753656D01*
X149375960Y-67513565D01*
X148590000Y-66727605D01*
X148575858Y-66741748D01*
X148396253Y-66562143D01*
X148410395Y-66548000D01*
X148769605Y-66548000D01*
X149555565Y-67333960D01*
X149795656Y-67266980D01*
X149912756Y-67017952D01*
X149979023Y-66750865D01*
X149991910Y-66475983D01*
X149950922Y-66203867D01*
X149857636Y-65944977D01*
X149795656Y-65829020D01*
X149555565Y-65762040D01*
X148769605Y-66548000D01*
X148410395Y-66548000D01*
X148396253Y-66533858D01*
X148575858Y-66354253D01*
X148590000Y-66368395D01*
X149375960Y-65582435D01*
X149308980Y-65342344D01*
X149059952Y-65225244D01*
X148792865Y-65158977D01*
X148678971Y-65153637D01*
X158349609Y-55483000D01*
X158830322Y-55483000D01*
X159070516Y-55459343D01*
X159378715Y-55365852D01*
X159662752Y-55214031D01*
X159911714Y-55009714D01*
X160116031Y-54760752D01*
X160267852Y-54476715D01*
X160361343Y-54168516D01*
X160392911Y-53848000D01*
X160361343Y-53527484D01*
X160295123Y-53309185D01*
X160361343Y-53090886D01*
X160385000Y-52850692D01*
X160385000Y-52850690D01*
X160392911Y-52770370D01*
X160385000Y-52690051D01*
X160385000Y-51227678D01*
X160361343Y-50987484D01*
X160267852Y-50679285D01*
X160116031Y-50395248D01*
X159911714Y-50146286D01*
X159662751Y-49941969D01*
X159378714Y-49790148D01*
X159070515Y-49696657D01*
X158750000Y-49665089D01*
X158429484Y-49696657D01*
X158121285Y-49790148D01*
X157837248Y-49941969D01*
X157588286Y-50146286D01*
X157383969Y-50395249D01*
X157232148Y-50679286D01*
X157138657Y-50987485D01*
X157115000Y-51227679D01*
X157115000Y-52093132D01*
X156573057Y-52635075D01*
X156510656Y-52686286D01*
X156459450Y-52748681D01*
X145528681Y-63679451D01*
X145466286Y-63730657D01*
X145274633Y-63964188D01*
X145261969Y-63979619D01*
X145110147Y-64263657D01*
X145016657Y-64571855D01*
X144985088Y-64892371D01*
X144993000Y-64972700D01*
X144992999Y-68738762D01*
X144794763Y-68936998D01*
X144694252Y-68936998D01*
X144849000Y-68782250D01*
X144837104Y-68676603D01*
X144798326Y-68557682D01*
X144737093Y-68448611D01*
X144655758Y-68353581D01*
X144621762Y-68326838D01*
X144722309Y-68204322D01*
X144735711Y-68179249D01*
X144744537Y-68168494D01*
X144803502Y-68058180D01*
X144807542Y-68044862D01*
X144828816Y-68005061D01*
X144894403Y-67788851D01*
X144911000Y-67620340D01*
X144911000Y-65209660D01*
X144894403Y-65041149D01*
X144828816Y-64824939D01*
X144807542Y-64785138D01*
X144803502Y-64771820D01*
X144744537Y-64661506D01*
X144735711Y-64650751D01*
X144722309Y-64625678D01*
X144632298Y-64516000D01*
X144722309Y-64406321D01*
X144735709Y-64381251D01*
X144744537Y-64370494D01*
X144803502Y-64260180D01*
X144807543Y-64246858D01*
X144828815Y-64207061D01*
X144894402Y-63990850D01*
X144916548Y-63766000D01*
X144894402Y-63541149D01*
X144828815Y-63324938D01*
X144807542Y-63285140D01*
X144803502Y-63271820D01*
X144744537Y-63161506D01*
X144735711Y-63150751D01*
X144722309Y-63125678D01*
X144614889Y-62994786D01*
X144608676Y-62988574D01*
X144653000Y-62944250D01*
X144653000Y-62341000D01*
X144907000Y-62341000D01*
X144907000Y-62944250D01*
X145065750Y-63103000D01*
X145216805Y-63105936D01*
X145341514Y-63096252D01*
X145461937Y-63062425D01*
X145573447Y-63005755D01*
X145671758Y-62928419D01*
X145753093Y-62833389D01*
X145814326Y-62724318D01*
X145853104Y-62605397D01*
X145865000Y-62499750D01*
X145706250Y-62341000D01*
X144907000Y-62341000D01*
X144653000Y-62341000D01*
X144633000Y-62341000D01*
X144633000Y-62095000D01*
X144653000Y-62095000D01*
X144653000Y-62071000D01*
X144907000Y-62071000D01*
X144907000Y-62095000D01*
X145706250Y-62095000D01*
X145865000Y-61936250D01*
X145853104Y-61830603D01*
X145814326Y-61711682D01*
X145753093Y-61602611D01*
X145671758Y-61507581D01*
X145637762Y-61480838D01*
X145738309Y-61358322D01*
X145751711Y-61333249D01*
X145760537Y-61322494D01*
X145819502Y-61212180D01*
X145823542Y-61198862D01*
X145844816Y-61159061D01*
X145910403Y-60942851D01*
X145927000Y-60774340D01*
X145927000Y-59113660D01*
X145910403Y-58945149D01*
X145844816Y-58728939D01*
X145823542Y-58689138D01*
X145819502Y-58675820D01*
X145760537Y-58565506D01*
X145751711Y-58554751D01*
X145738309Y-58529678D01*
X145648299Y-58420000D01*
X145738309Y-58310322D01*
X145751711Y-58285249D01*
X145760537Y-58274494D01*
X145819502Y-58164180D01*
X145823543Y-58150859D01*
X145844815Y-58111061D01*
X145910402Y-57894850D01*
X145932548Y-57670000D01*
X145919252Y-57535000D01*
X147792075Y-57535000D01*
X147928273Y-57626005D01*
X148182510Y-57731314D01*
X148452408Y-57785000D01*
X148727592Y-57785000D01*
X148997490Y-57731314D01*
X149251727Y-57626005D01*
X149480535Y-57473120D01*
X149675120Y-57278535D01*
X149828005Y-57049727D01*
X149933314Y-56795490D01*
X149987000Y-56525592D01*
X149987000Y-56250408D01*
X149933314Y-55980510D01*
X149828005Y-55726273D01*
X149675120Y-55497465D01*
X149480535Y-55302880D01*
X149251727Y-55149995D01*
X149180057Y-55120308D01*
X149193023Y-55115636D01*
X149308980Y-55053656D01*
X149375960Y-54813565D01*
X148590000Y-54027605D01*
X147804040Y-54813565D01*
X147871020Y-55053656D01*
X148006760Y-55117485D01*
X147928273Y-55149995D01*
X147792075Y-55241000D01*
X145787102Y-55241000D01*
X145729092Y-55182990D01*
X145687939Y-55106000D01*
X145744502Y-55000180D01*
X145780812Y-54880482D01*
X145793072Y-54756000D01*
X145790000Y-54641750D01*
X145631250Y-54483000D01*
X144907000Y-54483000D01*
X144907000Y-54503000D01*
X144653000Y-54503000D01*
X144653000Y-54483000D01*
X143928750Y-54483000D01*
X143770000Y-54641750D01*
X143768192Y-54709000D01*
X143409403Y-54709000D01*
X143394066Y-54553286D01*
X143303434Y-54254512D01*
X143156256Y-53979161D01*
X143137249Y-53956000D01*
X143766928Y-53956000D01*
X143770000Y-54070250D01*
X143928750Y-54229000D01*
X144653000Y-54229000D01*
X144653000Y-53479750D01*
X144907000Y-53479750D01*
X144907000Y-54229000D01*
X145631250Y-54229000D01*
X145790000Y-54070250D01*
X145793072Y-53956000D01*
X145789529Y-53920017D01*
X147188090Y-53920017D01*
X147229078Y-54192133D01*
X147322364Y-54451023D01*
X147384344Y-54566980D01*
X147624435Y-54633960D01*
X148410395Y-53848000D01*
X148769605Y-53848000D01*
X149555565Y-54633960D01*
X149795656Y-54566980D01*
X149912756Y-54317952D01*
X149979023Y-54050865D01*
X149991910Y-53775983D01*
X149950922Y-53503867D01*
X149857636Y-53244977D01*
X149795656Y-53129020D01*
X149555565Y-53062040D01*
X148769605Y-53848000D01*
X148410395Y-53848000D01*
X147624435Y-53062040D01*
X147384344Y-53129020D01*
X147267244Y-53378048D01*
X147200977Y-53645135D01*
X147188090Y-53920017D01*
X145789529Y-53920017D01*
X145780812Y-53831518D01*
X145744502Y-53711820D01*
X145685537Y-53601506D01*
X145606185Y-53504815D01*
X145509494Y-53425463D01*
X145399180Y-53366498D01*
X145279482Y-53330188D01*
X145155000Y-53317928D01*
X145065750Y-53321000D01*
X144907000Y-53479750D01*
X144653000Y-53479750D01*
X144494250Y-53321000D01*
X144405000Y-53317928D01*
X144280518Y-53330188D01*
X144160820Y-53366498D01*
X144050506Y-53425463D01*
X143953815Y-53504815D01*
X143874463Y-53601506D01*
X143815498Y-53711820D01*
X143779188Y-53831518D01*
X143766928Y-53956000D01*
X143137249Y-53956000D01*
X142958187Y-53737813D01*
X142782950Y-53594000D01*
X142958187Y-53450187D01*
X143156256Y-53208839D01*
X143303434Y-52933488D01*
X143394066Y-52634714D01*
X143424669Y-52324000D01*
X143419702Y-52273565D01*
X147804040Y-52273565D01*
X147871020Y-52513656D01*
X148001644Y-52575079D01*
X147986977Y-52580364D01*
X147871020Y-52642344D01*
X147804040Y-52882435D01*
X148590000Y-53668395D01*
X149375960Y-52882435D01*
X149308980Y-52642344D01*
X149178356Y-52580921D01*
X149193023Y-52575636D01*
X149308980Y-52513656D01*
X149375960Y-52273565D01*
X148590000Y-51487605D01*
X147804040Y-52273565D01*
X143419702Y-52273565D01*
X143394066Y-52013286D01*
X143303434Y-51714512D01*
X143156256Y-51439161D01*
X143107718Y-51380017D01*
X147188090Y-51380017D01*
X147229078Y-51652133D01*
X147322364Y-51911023D01*
X147384344Y-52026980D01*
X147624435Y-52093960D01*
X148410395Y-51308000D01*
X148769605Y-51308000D01*
X149555565Y-52093960D01*
X149795656Y-52026980D01*
X149912756Y-51777952D01*
X149979023Y-51510865D01*
X149991910Y-51235983D01*
X149950922Y-50963867D01*
X149857636Y-50704977D01*
X149795656Y-50589020D01*
X149555565Y-50522040D01*
X148769605Y-51308000D01*
X148410395Y-51308000D01*
X147624435Y-50522040D01*
X147384344Y-50589020D01*
X147267244Y-50838048D01*
X147200977Y-51105135D01*
X147188090Y-51380017D01*
X143107718Y-51380017D01*
X142958187Y-51197813D01*
X142716839Y-50999744D01*
X142441488Y-50852566D01*
X142142714Y-50761934D01*
X141909864Y-50739000D01*
X141769103Y-50739000D01*
X141372538Y-50342435D01*
X147804040Y-50342435D01*
X148590000Y-51128395D01*
X149375960Y-50342435D01*
X149308980Y-50102344D01*
X149059952Y-49985244D01*
X148792865Y-49918977D01*
X148517983Y-49906090D01*
X148245867Y-49947078D01*
X147986977Y-50040364D01*
X147871020Y-50102344D01*
X147804040Y-50342435D01*
X141372538Y-50342435D01*
X141125000Y-50094898D01*
X141125000Y-49859529D01*
X141253149Y-49898403D01*
X141421660Y-49915000D01*
X143070340Y-49915000D01*
X143238851Y-49898403D01*
X143455061Y-49832816D01*
X143494862Y-49811542D01*
X143508180Y-49807502D01*
X143618494Y-49748537D01*
X143629249Y-49739711D01*
X143654322Y-49726309D01*
X143776838Y-49625762D01*
X143803581Y-49659758D01*
X143898611Y-49741093D01*
X144007682Y-49802326D01*
X144126603Y-49841104D01*
X144232250Y-49853000D01*
X144391000Y-49694250D01*
X144391000Y-48895000D01*
X144637000Y-48895000D01*
X144637000Y-49694250D01*
X144795750Y-49853000D01*
X144901397Y-49841104D01*
X145020318Y-49802326D01*
X145129389Y-49741093D01*
X145224419Y-49659758D01*
X145301755Y-49561447D01*
X145358425Y-49449937D01*
X145392252Y-49329514D01*
X145401936Y-49204805D01*
X145399000Y-49053750D01*
X145240250Y-48895000D01*
X144637000Y-48895000D01*
X144391000Y-48895000D01*
X144367000Y-48895000D01*
X144367000Y-48641000D01*
X144391000Y-48641000D01*
X144391000Y-47841750D01*
X144637000Y-47841750D01*
X144637000Y-48641000D01*
X145240250Y-48641000D01*
X145399000Y-48482250D01*
X145401936Y-48331195D01*
X145392252Y-48206486D01*
X145358425Y-48086063D01*
X145301755Y-47974553D01*
X145224419Y-47876242D01*
X145129389Y-47794907D01*
X145020318Y-47733674D01*
X144901397Y-47694896D01*
X144795750Y-47683000D01*
X144637000Y-47841750D01*
X144391000Y-47841750D01*
X144232250Y-47683000D01*
X144126603Y-47694896D01*
X144007682Y-47733674D01*
X143898611Y-47794907D01*
X143803581Y-47876242D01*
X143776838Y-47910238D01*
X143654322Y-47809691D01*
X143629249Y-47796289D01*
X143618494Y-47787463D01*
X143508180Y-47728498D01*
X143494862Y-47724458D01*
X143455061Y-47703184D01*
X143238851Y-47637597D01*
X143070340Y-47621000D01*
X141421660Y-47621000D01*
X141253149Y-47637597D01*
X141036939Y-47703184D01*
X140997138Y-47724458D01*
X140983820Y-47728498D01*
X140873506Y-47787463D01*
X140862751Y-47796289D01*
X140837678Y-47809691D01*
X140728000Y-47899702D01*
X140618321Y-47809691D01*
X140593250Y-47796290D01*
X140582494Y-47787463D01*
X140472180Y-47728498D01*
X140458860Y-47724457D01*
X140419060Y-47703184D01*
X140202850Y-47637597D01*
X139978000Y-47615451D01*
X139753149Y-47637597D01*
X139536939Y-47703184D01*
X139497138Y-47724458D01*
X139483820Y-47728498D01*
X139373506Y-47787463D01*
X139362751Y-47796289D01*
X139337678Y-47809691D01*
X139163025Y-47953025D01*
X139019691Y-48127679D01*
X138913184Y-48326940D01*
X138847597Y-48543150D01*
X138831000Y-48711661D01*
X138831000Y-50513671D01*
X138825452Y-50570000D01*
X138831000Y-50626329D01*
X138831000Y-50626340D01*
X138847598Y-50794851D01*
X138879650Y-50900510D01*
X138913185Y-51011061D01*
X139019691Y-51210321D01*
X139033937Y-51227679D01*
X139163026Y-51384975D01*
X139206785Y-51420887D01*
X140045658Y-52259761D01*
X140039331Y-52324000D01*
X140069934Y-52634714D01*
X140160566Y-52933488D01*
X140307744Y-53208839D01*
X140505813Y-53450187D01*
X140681050Y-53594000D01*
X140505813Y-53737813D01*
X140307744Y-53979161D01*
X140160566Y-54254512D01*
X140069934Y-54553286D01*
X140039331Y-54864000D01*
X140045658Y-54928239D01*
X138716898Y-56257000D01*
X135312826Y-56257000D01*
X135162950Y-56134000D01*
X135338187Y-55990187D01*
X135536256Y-55748839D01*
X135683434Y-55473488D01*
X135774066Y-55174714D01*
X135804669Y-54864000D01*
X135774066Y-54553286D01*
X135683434Y-54254512D01*
X135536256Y-53979161D01*
X135338187Y-53737813D01*
X135162950Y-53594000D01*
X135338187Y-53450187D01*
X135536256Y-53208839D01*
X135683434Y-52933488D01*
X135774066Y-52634714D01*
X135804669Y-52324000D01*
X135774066Y-52013286D01*
X135683434Y-51714512D01*
X135536256Y-51439161D01*
X135338187Y-51197813D01*
X135259000Y-51132826D01*
X135259000Y-48848329D01*
X135264548Y-48791999D01*
X135259000Y-48735670D01*
X135259000Y-48735660D01*
X135242403Y-48567149D01*
X135176816Y-48350939D01*
X135070309Y-48151678D01*
X134926975Y-47977025D01*
X134883210Y-47941108D01*
X134859213Y-47917111D01*
X134728321Y-47809691D01*
X134703251Y-47796291D01*
X134692494Y-47787463D01*
X134582180Y-47728498D01*
X134568858Y-47724457D01*
X134529061Y-47703185D01*
X134312850Y-47637598D01*
X134088000Y-47615452D01*
X133863150Y-47637598D01*
X133646939Y-47703185D01*
X133607142Y-47724457D01*
X133593820Y-47728498D01*
X133483506Y-47787463D01*
X133472749Y-47796291D01*
X133447679Y-47809691D01*
X133338000Y-47899702D01*
X133228322Y-47809691D01*
X133203249Y-47796289D01*
X133192494Y-47787463D01*
X133082180Y-47728498D01*
X133068862Y-47724458D01*
X133029061Y-47703184D01*
X132812851Y-47637597D01*
X132644340Y-47621000D01*
X131007660Y-47621000D01*
X130839149Y-47637597D01*
X130622939Y-47703184D01*
X130583138Y-47724458D01*
X130569820Y-47728498D01*
X130459506Y-47787463D01*
X130448751Y-47796289D01*
X130423678Y-47809691D01*
X130301162Y-47910238D01*
X130274419Y-47876242D01*
X130179389Y-47794907D01*
X130070318Y-47733674D01*
X129951397Y-47694896D01*
X129845750Y-47683000D01*
X129687000Y-47841750D01*
X129687000Y-48641000D01*
X129711000Y-48641000D01*
X129711000Y-48895000D01*
X129687000Y-48895000D01*
X129687000Y-49694250D01*
X129845750Y-49853000D01*
X129951397Y-49841104D01*
X130070318Y-49802326D01*
X130179389Y-49741093D01*
X130274419Y-49659758D01*
X130301162Y-49625762D01*
X130423678Y-49726309D01*
X130448751Y-49739711D01*
X130459506Y-49748537D01*
X130569820Y-49807502D01*
X130583138Y-49811542D01*
X130622939Y-49832816D01*
X130839149Y-49898403D01*
X131007660Y-49915000D01*
X132644340Y-49915000D01*
X132812851Y-49898403D01*
X132965001Y-49852249D01*
X132965000Y-51132826D01*
X132885813Y-51197813D01*
X132687744Y-51439161D01*
X132540566Y-51714512D01*
X132449934Y-52013286D01*
X132419331Y-52324000D01*
X132449934Y-52634714D01*
X132540566Y-52933488D01*
X132687744Y-53208839D01*
X132885813Y-53450187D01*
X133061050Y-53594000D01*
X132911174Y-53717000D01*
X132011660Y-53717000D01*
X131843149Y-53733597D01*
X131626939Y-53799184D01*
X131587138Y-53820458D01*
X131573820Y-53824498D01*
X131463506Y-53883463D01*
X131452751Y-53892289D01*
X131427678Y-53905691D01*
X131318000Y-53995702D01*
X131208321Y-53905691D01*
X131183250Y-53892290D01*
X131172494Y-53883463D01*
X131062180Y-53824498D01*
X131048860Y-53820457D01*
X131009060Y-53799184D01*
X130792850Y-53733597D01*
X130568000Y-53711451D01*
X130343149Y-53733597D01*
X130126939Y-53799184D01*
X130087138Y-53820458D01*
X130073820Y-53824498D01*
X129963506Y-53883463D01*
X129952751Y-53892289D01*
X129927678Y-53905691D01*
X129753025Y-54049025D01*
X129609691Y-54223679D01*
X129503184Y-54422940D01*
X129437597Y-54639150D01*
X129421000Y-54807661D01*
X129421000Y-56130897D01*
X129006501Y-56545397D01*
X128980419Y-56512242D01*
X128885389Y-56430907D01*
X128776318Y-56369674D01*
X128657397Y-56330896D01*
X128551750Y-56319000D01*
X128393000Y-56477750D01*
X128393000Y-57277000D01*
X128417000Y-57277000D01*
X128417000Y-57531000D01*
X128393000Y-57531000D01*
X128393000Y-57551000D01*
X128147000Y-57551000D01*
X128147000Y-57531000D01*
X127543750Y-57531000D01*
X127385000Y-57689750D01*
X127382064Y-57840805D01*
X127391748Y-57965514D01*
X127425575Y-58085937D01*
X127482245Y-58197447D01*
X127559581Y-58295758D01*
X127654611Y-58377093D01*
X127763682Y-58438326D01*
X127882603Y-58477104D01*
X127988250Y-58489000D01*
X128142998Y-58334252D01*
X128142998Y-58489000D01*
X128156897Y-58489000D01*
X125212785Y-61433113D01*
X125169026Y-61469025D01*
X125133913Y-61511810D01*
X124294892Y-60672790D01*
X124258975Y-60629025D01*
X124084322Y-60485691D01*
X123885061Y-60379184D01*
X123820535Y-60359610D01*
X123822072Y-60344000D01*
X123819000Y-60229750D01*
X123660250Y-60071000D01*
X122936000Y-60071000D01*
X122936000Y-60091000D01*
X122682000Y-60091000D01*
X122682000Y-60071000D01*
X121957750Y-60071000D01*
X121799000Y-60229750D01*
X121795928Y-60344000D01*
X121808188Y-60468482D01*
X121844498Y-60588180D01*
X121901061Y-60694000D01*
X121844498Y-60799820D01*
X121833665Y-60835531D01*
X121744184Y-61002939D01*
X121712999Y-61105742D01*
X121712999Y-59544000D01*
X121795928Y-59544000D01*
X121799000Y-59658250D01*
X121957750Y-59817000D01*
X122682000Y-59817000D01*
X122682000Y-59067750D01*
X122936000Y-59067750D01*
X122936000Y-59817000D01*
X123660250Y-59817000D01*
X123819000Y-59658250D01*
X123822072Y-59544000D01*
X123809812Y-59419518D01*
X123773502Y-59299820D01*
X123714537Y-59189506D01*
X123635185Y-59092815D01*
X123538494Y-59013463D01*
X123428180Y-58954498D01*
X123308482Y-58918188D01*
X123184000Y-58905928D01*
X123094750Y-58909000D01*
X122936000Y-59067750D01*
X122682000Y-59067750D01*
X122523250Y-58909000D01*
X122434000Y-58905928D01*
X122309518Y-58918188D01*
X122189820Y-58954498D01*
X122079506Y-59013463D01*
X121982815Y-59092815D01*
X121903463Y-59189506D01*
X121844498Y-59299820D01*
X121808188Y-59419518D01*
X121795928Y-59544000D01*
X121712999Y-59544000D01*
X121712999Y-57879653D01*
X122131952Y-57879653D01*
X122287962Y-58195214D01*
X122662745Y-58386020D01*
X123067551Y-58500044D01*
X123486824Y-58532902D01*
X123904451Y-58483334D01*
X124304383Y-58353243D01*
X124600038Y-58195214D01*
X124756048Y-57879653D01*
X123444000Y-56567605D01*
X122131952Y-57879653D01*
X121712999Y-57879653D01*
X121712999Y-57581717D01*
X121952347Y-57700048D01*
X123264395Y-56388000D01*
X123623605Y-56388000D01*
X124935653Y-57700048D01*
X125251214Y-57544038D01*
X125442020Y-57169255D01*
X125498935Y-56967195D01*
X127382064Y-56967195D01*
X127385000Y-57118250D01*
X127543750Y-57277000D01*
X128147000Y-57277000D01*
X128147000Y-56477750D01*
X127988250Y-56319000D01*
X127882603Y-56330896D01*
X127763682Y-56369674D01*
X127654611Y-56430907D01*
X127559581Y-56512242D01*
X127482245Y-56610553D01*
X127425575Y-56722063D01*
X127391748Y-56842486D01*
X127382064Y-56967195D01*
X125498935Y-56967195D01*
X125556044Y-56764449D01*
X125588902Y-56345176D01*
X125539334Y-55927549D01*
X125409243Y-55527617D01*
X125251214Y-55231962D01*
X124935653Y-55075952D01*
X123623605Y-56388000D01*
X123264395Y-56388000D01*
X121952347Y-55075952D01*
X121712999Y-55194283D01*
X121712999Y-54896347D01*
X122131952Y-54896347D01*
X123444000Y-56208395D01*
X124756048Y-54896347D01*
X124600038Y-54580786D01*
X124225255Y-54389980D01*
X123820449Y-54275956D01*
X123401176Y-54243098D01*
X122983549Y-54292666D01*
X122583617Y-54422757D01*
X122287962Y-54580786D01*
X122131952Y-54896347D01*
X121712999Y-54896347D01*
X121712999Y-53401500D01*
X121819518Y-53433812D01*
X121944000Y-53446072D01*
X124944000Y-53446072D01*
X125068482Y-53433812D01*
X125188180Y-53397502D01*
X125298494Y-53338537D01*
X125395185Y-53259185D01*
X125474537Y-53162494D01*
X125533502Y-53052180D01*
X125569812Y-52932482D01*
X125582072Y-52808000D01*
X125582072Y-49808000D01*
X125569812Y-49683518D01*
X125533502Y-49563820D01*
X125474537Y-49453506D01*
X125395185Y-49356815D01*
X125298494Y-49277463D01*
X125188180Y-49218498D01*
X125143041Y-49204805D01*
X128676064Y-49204805D01*
X128685748Y-49329514D01*
X128719575Y-49449937D01*
X128776245Y-49561447D01*
X128853581Y-49659758D01*
X128948611Y-49741093D01*
X129057682Y-49802326D01*
X129176603Y-49841104D01*
X129282250Y-49853000D01*
X129441000Y-49694250D01*
X129441000Y-48895000D01*
X128837750Y-48895000D01*
X128679000Y-49053750D01*
X128676064Y-49204805D01*
X125143041Y-49204805D01*
X125068482Y-49182188D01*
X124944000Y-49169928D01*
X121944000Y-49169928D01*
X121819518Y-49182188D01*
X121699820Y-49218498D01*
X121589506Y-49277463D01*
X121492815Y-49356815D01*
X121413463Y-49453506D01*
X121354498Y-49563820D01*
X121318188Y-49683518D01*
X121305928Y-49808000D01*
X121305928Y-50161000D01*
X120976329Y-50161000D01*
X120919999Y-50155452D01*
X120863670Y-50161000D01*
X120863660Y-50161000D01*
X120695149Y-50177597D01*
X120478939Y-50243184D01*
X120279678Y-50349691D01*
X120105025Y-50493025D01*
X120069108Y-50536790D01*
X119794784Y-50811114D01*
X119751025Y-50847026D01*
X119715113Y-50890785D01*
X119715110Y-50890788D01*
X119607690Y-51021680D01*
X119528194Y-51170408D01*
X119501184Y-51220940D01*
X119464700Y-51341213D01*
X119435597Y-51437151D01*
X119413451Y-51662001D01*
X118820000Y-51662001D01*
X118820000Y-48331195D01*
X128676064Y-48331195D01*
X128679000Y-48482250D01*
X128837750Y-48641000D01*
X129441000Y-48641000D01*
X129441000Y-47841750D01*
X129282250Y-47683000D01*
X129176603Y-47694896D01*
X129057682Y-47733674D01*
X128948611Y-47794907D01*
X128853581Y-47876242D01*
X128776245Y-47974553D01*
X128719575Y-48086063D01*
X128685748Y-48206486D01*
X128676064Y-48331195D01*
X118820000Y-48331195D01*
X118820000Y-41689872D01*
X119685000Y-41689872D01*
X119685000Y-42130128D01*
X119770890Y-42561925D01*
X119939369Y-42968669D01*
X120183962Y-43334729D01*
X120495271Y-43646038D01*
X120861331Y-43890631D01*
X121268075Y-44059110D01*
X121699872Y-44145000D01*
X122140128Y-44145000D01*
X122571925Y-44059110D01*
X122978669Y-43890631D01*
X123344729Y-43646038D01*
X123656038Y-43334729D01*
X123900631Y-42968669D01*
X124069110Y-42561925D01*
X124155000Y-42130128D01*
X124155000Y-41689872D01*
X155245000Y-41689872D01*
X155245000Y-42130128D01*
X155330890Y-42561925D01*
X155499369Y-42968669D01*
X155743962Y-43334729D01*
X156055271Y-43646038D01*
X156421331Y-43890631D01*
X156828075Y-44059110D01*
X157259872Y-44145000D01*
X157700128Y-44145000D01*
X158131925Y-44059110D01*
X158538669Y-43890631D01*
X158904729Y-43646038D01*
X159216038Y-43334729D01*
X159460631Y-42968669D01*
X159629110Y-42561925D01*
X159715000Y-42130128D01*
X159715000Y-41689872D01*
X159629110Y-41258075D01*
X159460631Y-40851331D01*
X159216038Y-40485271D01*
X158904729Y-40173962D01*
X158538669Y-39929369D01*
X158131925Y-39760890D01*
X157700128Y-39675000D01*
X157259872Y-39675000D01*
X156828075Y-39760890D01*
X156421331Y-39929369D01*
X156055271Y-40173962D01*
X155743962Y-40485271D01*
X155499369Y-40851331D01*
X155330890Y-41258075D01*
X155245000Y-41689872D01*
X124155000Y-41689872D01*
X124069110Y-41258075D01*
X123900631Y-40851331D01*
X123656038Y-40485271D01*
X123344729Y-40173962D01*
X122978669Y-39929369D01*
X122571925Y-39760890D01*
X122140128Y-39675000D01*
X121699872Y-39675000D01*
X121268075Y-39760890D01*
X120861331Y-39929369D01*
X120495271Y-40173962D01*
X120183962Y-40485271D01*
X119939369Y-40851331D01*
X119770890Y-41258075D01*
X119685000Y-41689872D01*
X118820000Y-41689872D01*
X118820000Y-38810000D01*
X160580001Y-38810000D01*
X160580000Y-94540000D01*
G36*
X140307744Y-58288839D02*
G01*
X140505813Y-58530187D01*
X140681050Y-58674000D01*
X140505813Y-58817813D01*
X140307744Y-59059161D01*
X140160566Y-59334512D01*
X140069934Y-59633286D01*
X140039331Y-59944000D01*
X140069934Y-60254714D01*
X140160566Y-60553488D01*
X140307744Y-60828839D01*
X140505813Y-61070187D01*
X140585000Y-61135174D01*
X140585000Y-61677671D01*
X140579452Y-61734000D01*
X140585000Y-61790329D01*
X140585000Y-61790340D01*
X140601598Y-61958851D01*
X140640830Y-62088180D01*
X140667185Y-62175061D01*
X140773691Y-62374321D01*
X140863702Y-62483999D01*
X140917026Y-62548975D01*
X140960785Y-62584887D01*
X142893987Y-64518090D01*
X142805692Y-64625678D01*
X142792292Y-64650748D01*
X142783463Y-64661506D01*
X142724498Y-64771820D01*
X142720457Y-64785142D01*
X142699185Y-64824939D01*
X142633598Y-65041149D01*
X142617001Y-65209660D01*
X142617000Y-67620339D01*
X142633597Y-67788850D01*
X142699184Y-68005060D01*
X142720457Y-68044860D01*
X142724498Y-68058180D01*
X142783463Y-68168494D01*
X142792290Y-68179250D01*
X142805691Y-68204321D01*
X142906238Y-68326838D01*
X142872242Y-68353581D01*
X142790907Y-68448611D01*
X142729674Y-68557682D01*
X142690896Y-68676603D01*
X142679000Y-68782250D01*
X142837750Y-68941000D01*
X143637000Y-68941000D01*
X143637000Y-68917000D01*
X143891000Y-68917000D01*
X143891000Y-68941000D01*
X143911000Y-68941000D01*
X143911000Y-69187000D01*
X143891000Y-69187000D01*
X143891000Y-69790250D01*
X143916256Y-69815506D01*
X141679001Y-72052761D01*
X138971990Y-69345750D01*
X142679000Y-69345750D01*
X142690896Y-69451397D01*
X142729674Y-69570318D01*
X142790907Y-69679389D01*
X142872242Y-69774419D01*
X142970553Y-69851755D01*
X143082063Y-69908425D01*
X143202486Y-69942252D01*
X143327195Y-69951936D01*
X143478250Y-69949000D01*
X143637000Y-69790250D01*
X143637000Y-69187000D01*
X142837750Y-69187000D01*
X142679000Y-69345750D01*
X138971990Y-69345750D01*
X138568754Y-68942515D01*
X139414250Y-68941000D01*
X139573000Y-68782250D01*
X139573000Y-67183000D01*
X139827000Y-67183000D01*
X139827000Y-68782250D01*
X139985750Y-68941000D01*
X141700000Y-68944072D01*
X141824482Y-68931812D01*
X141944180Y-68895502D01*
X142054494Y-68836537D01*
X142151185Y-68757185D01*
X142230537Y-68660494D01*
X142289502Y-68550180D01*
X142325812Y-68430482D01*
X142338072Y-68306000D01*
X142335000Y-67341750D01*
X142176250Y-67183000D01*
X139827000Y-67183000D01*
X139573000Y-67183000D01*
X137223750Y-67183000D01*
X137065000Y-67341750D01*
X137064692Y-67438453D01*
X136238072Y-66611834D01*
X136238072Y-65806000D01*
X137061928Y-65806000D01*
X137065000Y-66770250D01*
X137223750Y-66929000D01*
X139573000Y-66929000D01*
X139573000Y-65329750D01*
X139827000Y-65329750D01*
X139827000Y-66929000D01*
X142176250Y-66929000D01*
X142335000Y-66770250D01*
X142338072Y-65806000D01*
X142325812Y-65681518D01*
X142289502Y-65561820D01*
X142230537Y-65451506D01*
X142151185Y-65354815D01*
X142054494Y-65275463D01*
X141944180Y-65216498D01*
X141824482Y-65180188D01*
X141700000Y-65167928D01*
X139985750Y-65171000D01*
X139827000Y-65329750D01*
X139573000Y-65329750D01*
X139414250Y-65171000D01*
X137700000Y-65167928D01*
X137575518Y-65180188D01*
X137455820Y-65216498D01*
X137345506Y-65275463D01*
X137248815Y-65354815D01*
X137169463Y-65451506D01*
X137110498Y-65561820D01*
X137074188Y-65681518D01*
X137061928Y-65806000D01*
X136238072Y-65806000D01*
X136225812Y-65681518D01*
X136189502Y-65561820D01*
X136130537Y-65451506D01*
X136051185Y-65354815D01*
X135954494Y-65275463D01*
X135844180Y-65216498D01*
X135724482Y-65180188D01*
X135600000Y-65167928D01*
X131600000Y-65167928D01*
X131522783Y-65175533D01*
X131482250Y-65135000D01*
X130683000Y-65135000D01*
X130683000Y-65159000D01*
X130429000Y-65159000D01*
X130429000Y-65135000D01*
X129629750Y-65135000D01*
X129471000Y-65293750D01*
X129482896Y-65399397D01*
X129521674Y-65518318D01*
X129582907Y-65627389D01*
X129664242Y-65722419D01*
X129762553Y-65799755D01*
X129874063Y-65856425D01*
X129947339Y-65877008D01*
X129926286Y-65894286D01*
X129875080Y-65956681D01*
X126319085Y-69512677D01*
X126165970Y-69699248D01*
X126155412Y-69719000D01*
X125673660Y-69719000D01*
X125505149Y-69735597D01*
X125403745Y-69766358D01*
X125805215Y-69364888D01*
X125848975Y-69328975D01*
X125901458Y-69265025D01*
X125992308Y-69154323D01*
X126005567Y-69129518D01*
X126098816Y-68955061D01*
X126164403Y-68738851D01*
X126181000Y-68570340D01*
X126181000Y-68570331D01*
X126186548Y-68514001D01*
X126181000Y-68457671D01*
X126181000Y-68021336D01*
X126289820Y-68079502D01*
X126409518Y-68115812D01*
X126534000Y-68128072D01*
X126648250Y-68125000D01*
X126807000Y-67966250D01*
X126807000Y-67167000D01*
X127061000Y-67167000D01*
X127061000Y-67966250D01*
X127219750Y-68125000D01*
X127334000Y-68128072D01*
X127458482Y-68115812D01*
X127578180Y-68079502D01*
X127688494Y-68020537D01*
X127785185Y-67941185D01*
X127864537Y-67844494D01*
X127923502Y-67734180D01*
X127959812Y-67614482D01*
X127972072Y-67490000D01*
X127969000Y-67325750D01*
X127810250Y-67167000D01*
X127061000Y-67167000D01*
X126807000Y-67167000D01*
X126787000Y-67167000D01*
X126787000Y-66913000D01*
X126807000Y-66913000D01*
X126807000Y-66113750D01*
X127061000Y-66113750D01*
X127061000Y-66913000D01*
X127810250Y-66913000D01*
X127969000Y-66754250D01*
X127972072Y-66590000D01*
X127959812Y-66465518D01*
X127923502Y-66345820D01*
X127864537Y-66235506D01*
X127785185Y-66138815D01*
X127688494Y-66059463D01*
X127578180Y-66000498D01*
X127458482Y-65964188D01*
X127334000Y-65951928D01*
X127219750Y-65955000D01*
X127061000Y-66113750D01*
X126807000Y-66113750D01*
X126722393Y-66029143D01*
X126738494Y-66020537D01*
X126835185Y-65941185D01*
X126914537Y-65844494D01*
X126973502Y-65734180D01*
X127009812Y-65614482D01*
X127022072Y-65490000D01*
X127022072Y-64590000D01*
X127009812Y-64465518D01*
X126973502Y-64345820D01*
X126914537Y-64235506D01*
X126835185Y-64138815D01*
X126738494Y-64059463D01*
X126628180Y-64000498D01*
X126508482Y-63964188D01*
X126384000Y-63951928D01*
X125631000Y-63951928D01*
X125631000Y-63575529D01*
X125759149Y-63614403D01*
X125984000Y-63636549D01*
X126208850Y-63614403D01*
X126425060Y-63548816D01*
X126464860Y-63527543D01*
X126478180Y-63523502D01*
X126588494Y-63464537D01*
X126599250Y-63455710D01*
X126624321Y-63442309D01*
X126798975Y-63298975D01*
X126942309Y-63124322D01*
X127048816Y-62925061D01*
X127085295Y-62804807D01*
X129432845Y-60457258D01*
X129425597Y-60481150D01*
X129409000Y-60649661D01*
X129409001Y-63568340D01*
X129425598Y-63736851D01*
X129491185Y-63953061D01*
X129512457Y-63992858D01*
X129516498Y-64006180D01*
X129575463Y-64116494D01*
X129584292Y-64127252D01*
X129597692Y-64152322D01*
X129698238Y-64274838D01*
X129664242Y-64301581D01*
X129582907Y-64396611D01*
X129521674Y-64505682D01*
X129482896Y-64624603D01*
X129471000Y-64730250D01*
X129629750Y-64889000D01*
X130429000Y-64889000D01*
X130429000Y-64865000D01*
X130683000Y-64865000D01*
X130683000Y-64889000D01*
X131482250Y-64889000D01*
X131641000Y-64730250D01*
X131629104Y-64624603D01*
X131590326Y-64505682D01*
X131529093Y-64396611D01*
X131447758Y-64301581D01*
X131413762Y-64274838D01*
X131514309Y-64152322D01*
X131527711Y-64127249D01*
X131536537Y-64116494D01*
X131595502Y-64006180D01*
X131599542Y-63992862D01*
X131620816Y-63953061D01*
X131686403Y-63736851D01*
X131703000Y-63568340D01*
X131703000Y-61797529D01*
X131831149Y-61836403D01*
X131999660Y-61853000D01*
X133293671Y-61853000D01*
X133350000Y-61858548D01*
X133406329Y-61853000D01*
X133406340Y-61853000D01*
X133574851Y-61836403D01*
X133791061Y-61770816D01*
X133990322Y-61664309D01*
X134151453Y-61532072D01*
X135162000Y-61532072D01*
X135286482Y-61519812D01*
X135406180Y-61483502D01*
X135516494Y-61424537D01*
X135613185Y-61345185D01*
X135692537Y-61248494D01*
X135751502Y-61138180D01*
X135787812Y-61018482D01*
X135800072Y-60894000D01*
X135800072Y-58994000D01*
X135787812Y-58869518D01*
X135751502Y-58749820D01*
X135692537Y-58639506D01*
X135619902Y-58551000D01*
X139135671Y-58551000D01*
X139192000Y-58556548D01*
X139248329Y-58551000D01*
X139248340Y-58551000D01*
X139416851Y-58534403D01*
X139633061Y-58468816D01*
X139832322Y-58362309D01*
X140006975Y-58218975D01*
X140042892Y-58175210D01*
X140175909Y-58042193D01*
X140307744Y-58288839D01*
X140307744Y-58288839D01*
G37*
X140307744Y-58288839D02*
X140505813Y-58530187D01*
X140681050Y-58674000D01*
X140505813Y-58817813D01*
X140307744Y-59059161D01*
X140160566Y-59334512D01*
X140069934Y-59633286D01*
X140039331Y-59944000D01*
X140069934Y-60254714D01*
X140160566Y-60553488D01*
X140307744Y-60828839D01*
X140505813Y-61070187D01*
X140585000Y-61135174D01*
X140585000Y-61677671D01*
X140579452Y-61734000D01*
X140585000Y-61790329D01*
X140585000Y-61790340D01*
X140601598Y-61958851D01*
X140640830Y-62088180D01*
X140667185Y-62175061D01*
X140773691Y-62374321D01*
X140863702Y-62483999D01*
X140917026Y-62548975D01*
X140960785Y-62584887D01*
X142893987Y-64518090D01*
X142805692Y-64625678D01*
X142792292Y-64650748D01*
X142783463Y-64661506D01*
X142724498Y-64771820D01*
X142720457Y-64785142D01*
X142699185Y-64824939D01*
X142633598Y-65041149D01*
X142617001Y-65209660D01*
X142617000Y-67620339D01*
X142633597Y-67788850D01*
X142699184Y-68005060D01*
X142720457Y-68044860D01*
X142724498Y-68058180D01*
X142783463Y-68168494D01*
X142792290Y-68179250D01*
X142805691Y-68204321D01*
X142906238Y-68326838D01*
X142872242Y-68353581D01*
X142790907Y-68448611D01*
X142729674Y-68557682D01*
X142690896Y-68676603D01*
X142679000Y-68782250D01*
X142837750Y-68941000D01*
X143637000Y-68941000D01*
X143637000Y-68917000D01*
X143891000Y-68917000D01*
X143891000Y-68941000D01*
X143911000Y-68941000D01*
X143911000Y-69187000D01*
X143891000Y-69187000D01*
X143891000Y-69790250D01*
X143916256Y-69815506D01*
X141679001Y-72052761D01*
X138971990Y-69345750D01*
X142679000Y-69345750D01*
X142690896Y-69451397D01*
X142729674Y-69570318D01*
X142790907Y-69679389D01*
X142872242Y-69774419D01*
X142970553Y-69851755D01*
X143082063Y-69908425D01*
X143202486Y-69942252D01*
X143327195Y-69951936D01*
X143478250Y-69949000D01*
X143637000Y-69790250D01*
X143637000Y-69187000D01*
X142837750Y-69187000D01*
X142679000Y-69345750D01*
X138971990Y-69345750D01*
X138568754Y-68942515D01*
X139414250Y-68941000D01*
X139573000Y-68782250D01*
X139573000Y-67183000D01*
X139827000Y-67183000D01*
X139827000Y-68782250D01*
X139985750Y-68941000D01*
X141700000Y-68944072D01*
X141824482Y-68931812D01*
X141944180Y-68895502D01*
X142054494Y-68836537D01*
X142151185Y-68757185D01*
X142230537Y-68660494D01*
X142289502Y-68550180D01*
X142325812Y-68430482D01*
X142338072Y-68306000D01*
X142335000Y-67341750D01*
X142176250Y-67183000D01*
X139827000Y-67183000D01*
X139573000Y-67183000D01*
X137223750Y-67183000D01*
X137065000Y-67341750D01*
X137064692Y-67438453D01*
X136238072Y-66611834D01*
X136238072Y-65806000D01*
X137061928Y-65806000D01*
X137065000Y-66770250D01*
X137223750Y-66929000D01*
X139573000Y-66929000D01*
X139573000Y-65329750D01*
X139827000Y-65329750D01*
X139827000Y-66929000D01*
X142176250Y-66929000D01*
X142335000Y-66770250D01*
X142338072Y-65806000D01*
X142325812Y-65681518D01*
X142289502Y-65561820D01*
X142230537Y-65451506D01*
X142151185Y-65354815D01*
X142054494Y-65275463D01*
X141944180Y-65216498D01*
X141824482Y-65180188D01*
X141700000Y-65167928D01*
X139985750Y-65171000D01*
X139827000Y-65329750D01*
X139573000Y-65329750D01*
X139414250Y-65171000D01*
X137700000Y-65167928D01*
X137575518Y-65180188D01*
X137455820Y-65216498D01*
X137345506Y-65275463D01*
X137248815Y-65354815D01*
X137169463Y-65451506D01*
X137110498Y-65561820D01*
X137074188Y-65681518D01*
X137061928Y-65806000D01*
X136238072Y-65806000D01*
X136225812Y-65681518D01*
X136189502Y-65561820D01*
X136130537Y-65451506D01*
X136051185Y-65354815D01*
X135954494Y-65275463D01*
X135844180Y-65216498D01*
X135724482Y-65180188D01*
X135600000Y-65167928D01*
X131600000Y-65167928D01*
X131522783Y-65175533D01*
X131482250Y-65135000D01*
X130683000Y-65135000D01*
X130683000Y-65159000D01*
X130429000Y-65159000D01*
X130429000Y-65135000D01*
X129629750Y-65135000D01*
X129471000Y-65293750D01*
X129482896Y-65399397D01*
X129521674Y-65518318D01*
X129582907Y-65627389D01*
X129664242Y-65722419D01*
X129762553Y-65799755D01*
X129874063Y-65856425D01*
X129947339Y-65877008D01*
X129926286Y-65894286D01*
X129875080Y-65956681D01*
X126319085Y-69512677D01*
X126165970Y-69699248D01*
X126155412Y-69719000D01*
X125673660Y-69719000D01*
X125505149Y-69735597D01*
X125403745Y-69766358D01*
X125805215Y-69364888D01*
X125848975Y-69328975D01*
X125901458Y-69265025D01*
X125992308Y-69154323D01*
X126005567Y-69129518D01*
X126098816Y-68955061D01*
X126164403Y-68738851D01*
X126181000Y-68570340D01*
X126181000Y-68570331D01*
X126186548Y-68514001D01*
X126181000Y-68457671D01*
X126181000Y-68021336D01*
X126289820Y-68079502D01*
X126409518Y-68115812D01*
X126534000Y-68128072D01*
X126648250Y-68125000D01*
X126807000Y-67966250D01*
X126807000Y-67167000D01*
X127061000Y-67167000D01*
X127061000Y-67966250D01*
X127219750Y-68125000D01*
X127334000Y-68128072D01*
X127458482Y-68115812D01*
X127578180Y-68079502D01*
X127688494Y-68020537D01*
X127785185Y-67941185D01*
X127864537Y-67844494D01*
X127923502Y-67734180D01*
X127959812Y-67614482D01*
X127972072Y-67490000D01*
X127969000Y-67325750D01*
X127810250Y-67167000D01*
X127061000Y-67167000D01*
X126807000Y-67167000D01*
X126787000Y-67167000D01*
X126787000Y-66913000D01*
X126807000Y-66913000D01*
X126807000Y-66113750D01*
X127061000Y-66113750D01*
X127061000Y-66913000D01*
X127810250Y-66913000D01*
X127969000Y-66754250D01*
X127972072Y-66590000D01*
X127959812Y-66465518D01*
X127923502Y-66345820D01*
X127864537Y-66235506D01*
X127785185Y-66138815D01*
X127688494Y-66059463D01*
X127578180Y-66000498D01*
X127458482Y-65964188D01*
X127334000Y-65951928D01*
X127219750Y-65955000D01*
X127061000Y-66113750D01*
X126807000Y-66113750D01*
X126722393Y-66029143D01*
X126738494Y-66020537D01*
X126835185Y-65941185D01*
X126914537Y-65844494D01*
X126973502Y-65734180D01*
X127009812Y-65614482D01*
X127022072Y-65490000D01*
X127022072Y-64590000D01*
X127009812Y-64465518D01*
X126973502Y-64345820D01*
X126914537Y-64235506D01*
X126835185Y-64138815D01*
X126738494Y-64059463D01*
X126628180Y-64000498D01*
X126508482Y-63964188D01*
X126384000Y-63951928D01*
X125631000Y-63951928D01*
X125631000Y-63575529D01*
X125759149Y-63614403D01*
X125984000Y-63636549D01*
X126208850Y-63614403D01*
X126425060Y-63548816D01*
X126464860Y-63527543D01*
X126478180Y-63523502D01*
X126588494Y-63464537D01*
X126599250Y-63455710D01*
X126624321Y-63442309D01*
X126798975Y-63298975D01*
X126942309Y-63124322D01*
X127048816Y-62925061D01*
X127085295Y-62804807D01*
X129432845Y-60457258D01*
X129425597Y-60481150D01*
X129409000Y-60649661D01*
X129409001Y-63568340D01*
X129425598Y-63736851D01*
X129491185Y-63953061D01*
X129512457Y-63992858D01*
X129516498Y-64006180D01*
X129575463Y-64116494D01*
X129584292Y-64127252D01*
X129597692Y-64152322D01*
X129698238Y-64274838D01*
X129664242Y-64301581D01*
X129582907Y-64396611D01*
X129521674Y-64505682D01*
X129482896Y-64624603D01*
X129471000Y-64730250D01*
X129629750Y-64889000D01*
X130429000Y-64889000D01*
X130429000Y-64865000D01*
X130683000Y-64865000D01*
X130683000Y-64889000D01*
X131482250Y-64889000D01*
X131641000Y-64730250D01*
X131629104Y-64624603D01*
X131590326Y-64505682D01*
X131529093Y-64396611D01*
X131447758Y-64301581D01*
X131413762Y-64274838D01*
X131514309Y-64152322D01*
X131527711Y-64127249D01*
X131536537Y-64116494D01*
X131595502Y-64006180D01*
X131599542Y-63992862D01*
X131620816Y-63953061D01*
X131686403Y-63736851D01*
X131703000Y-63568340D01*
X131703000Y-61797529D01*
X131831149Y-61836403D01*
X131999660Y-61853000D01*
X133293671Y-61853000D01*
X133350000Y-61858548D01*
X133406329Y-61853000D01*
X133406340Y-61853000D01*
X133574851Y-61836403D01*
X133791061Y-61770816D01*
X133990322Y-61664309D01*
X134151453Y-61532072D01*
X135162000Y-61532072D01*
X135286482Y-61519812D01*
X135406180Y-61483502D01*
X135516494Y-61424537D01*
X135613185Y-61345185D01*
X135692537Y-61248494D01*
X135751502Y-61138180D01*
X135787812Y-61018482D01*
X135800072Y-60894000D01*
X135800072Y-58994000D01*
X135787812Y-58869518D01*
X135751502Y-58749820D01*
X135692537Y-58639506D01*
X135619902Y-58551000D01*
X139135671Y-58551000D01*
X139192000Y-58556548D01*
X139248329Y-58551000D01*
X139248340Y-58551000D01*
X139416851Y-58534403D01*
X139633061Y-58468816D01*
X139832322Y-58362309D01*
X140006975Y-58218975D01*
X140042892Y-58175210D01*
X140175909Y-58042193D01*
X140307744Y-58288839D01*
M02*
