G04 #@! TF.GenerationSoftware,KiCad,Pcbnew,5.1.2-f72e74a~84~ubuntu16.04.1*
G04 #@! TF.CreationDate,2019-06-07T11:45:15+01:00*
G04 #@! TF.ProjectId,LEDregulator,4c454472-6567-4756-9c61-746f722e6b69,rev?*
G04 #@! TF.SameCoordinates,Original*
G04 #@! TF.FileFunction,Soldermask,Top*
G04 #@! TF.FilePolarity,Negative*
%FSLAX46Y46*%
G04 Gerber Fmt 4.6, Leading zero omitted, Abs format (unit mm)*
G04 Created by KiCad (PCBNEW 5.1.2-f72e74a~84~ubuntu16.04.1) date 2019-06-07 11:45:15*
%MOMM*%
%LPD*%
G04 APERTURE LIST*
%ADD10C,0.100000*%
G04 APERTURE END LIST*
D10*
G36*
X147677610Y-91531114D02*
G01*
X147850214Y-91602609D01*
X147900729Y-91623533D01*
X147951269Y-91657303D01*
X148101529Y-91757703D01*
X148272297Y-91928471D01*
X148406468Y-92129273D01*
X148498886Y-92352390D01*
X148546000Y-92589248D01*
X148546000Y-92830752D01*
X148498886Y-93067610D01*
X148406468Y-93290727D01*
X148272297Y-93491529D01*
X148101529Y-93662297D01*
X147951269Y-93762697D01*
X147900729Y-93796467D01*
X147900728Y-93796468D01*
X147900727Y-93796468D01*
X147677610Y-93888886D01*
X147440752Y-93936000D01*
X147199248Y-93936000D01*
X146962390Y-93888886D01*
X146739273Y-93796468D01*
X146739272Y-93796468D01*
X146739271Y-93796467D01*
X146688731Y-93762697D01*
X146538471Y-93662297D01*
X146367703Y-93491529D01*
X146233532Y-93290727D01*
X146141114Y-93067610D01*
X146094000Y-92830752D01*
X146094000Y-92589248D01*
X146141114Y-92352390D01*
X146233532Y-92129273D01*
X146367703Y-91928471D01*
X146538471Y-91757703D01*
X146688731Y-91657303D01*
X146739271Y-91623533D01*
X146789786Y-91602609D01*
X146962390Y-91531114D01*
X147199248Y-91484000D01*
X147440752Y-91484000D01*
X147677610Y-91531114D01*
X147677610Y-91531114D01*
G37*
G36*
X132357610Y-91531114D02*
G01*
X132530214Y-91602609D01*
X132580729Y-91623533D01*
X132631269Y-91657303D01*
X132781529Y-91757703D01*
X132952297Y-91928471D01*
X133086468Y-92129273D01*
X133178886Y-92352390D01*
X133226000Y-92589248D01*
X133226000Y-92830752D01*
X133178886Y-93067610D01*
X133086468Y-93290727D01*
X132952297Y-93491529D01*
X132781529Y-93662297D01*
X132631269Y-93762697D01*
X132580729Y-93796467D01*
X132580728Y-93796468D01*
X132580727Y-93796468D01*
X132357610Y-93888886D01*
X132120752Y-93936000D01*
X131879248Y-93936000D01*
X131642390Y-93888886D01*
X131419273Y-93796468D01*
X131419272Y-93796468D01*
X131419271Y-93796467D01*
X131368731Y-93762697D01*
X131218471Y-93662297D01*
X131047703Y-93491529D01*
X130913532Y-93290727D01*
X130821114Y-93067610D01*
X130774000Y-92830752D01*
X130774000Y-92589248D01*
X130821114Y-92352390D01*
X130913532Y-92129273D01*
X131047703Y-91928471D01*
X131218471Y-91757703D01*
X131368731Y-91657303D01*
X131419271Y-91623533D01*
X131469786Y-91602609D01*
X131642390Y-91531114D01*
X131879248Y-91484000D01*
X132120752Y-91484000D01*
X132357610Y-91531114D01*
X132357610Y-91531114D01*
G37*
G36*
X122295256Y-89831298D02*
G01*
X122401579Y-89852447D01*
X122702042Y-89976903D01*
X122972451Y-90157585D01*
X123202415Y-90387549D01*
X123202416Y-90387551D01*
X123383098Y-90657960D01*
X123507553Y-90958422D01*
X123571000Y-91277389D01*
X123571000Y-91602611D01*
X123566838Y-91623533D01*
X123507553Y-91921579D01*
X123383097Y-92222042D01*
X123202415Y-92492451D01*
X122972451Y-92722415D01*
X122702042Y-92903097D01*
X122401579Y-93027553D01*
X122295256Y-93048702D01*
X122082611Y-93091000D01*
X121757389Y-93091000D01*
X121544744Y-93048702D01*
X121438421Y-93027553D01*
X121137958Y-92903097D01*
X120867549Y-92722415D01*
X120637585Y-92492451D01*
X120456903Y-92222042D01*
X120332447Y-91921579D01*
X120273162Y-91623533D01*
X120269000Y-91602611D01*
X120269000Y-91277389D01*
X120332447Y-90958422D01*
X120456902Y-90657960D01*
X120637584Y-90387551D01*
X120637585Y-90387549D01*
X120867549Y-90157585D01*
X121137958Y-89976903D01*
X121438421Y-89852447D01*
X121544744Y-89831298D01*
X121757389Y-89789000D01*
X122082611Y-89789000D01*
X122295256Y-89831298D01*
X122295256Y-89831298D01*
G37*
G36*
X157855256Y-89831298D02*
G01*
X157961579Y-89852447D01*
X158262042Y-89976903D01*
X158532451Y-90157585D01*
X158762415Y-90387549D01*
X158762416Y-90387551D01*
X158943098Y-90657960D01*
X159067553Y-90958422D01*
X159131000Y-91277389D01*
X159131000Y-91602611D01*
X159126838Y-91623533D01*
X159067553Y-91921579D01*
X158943097Y-92222042D01*
X158762415Y-92492451D01*
X158532451Y-92722415D01*
X158262042Y-92903097D01*
X157961579Y-93027553D01*
X157855256Y-93048702D01*
X157642611Y-93091000D01*
X157317389Y-93091000D01*
X157104744Y-93048702D01*
X156998421Y-93027553D01*
X156697958Y-92903097D01*
X156427549Y-92722415D01*
X156197585Y-92492451D01*
X156016903Y-92222042D01*
X155892447Y-91921579D01*
X155833162Y-91623533D01*
X155829000Y-91602611D01*
X155829000Y-91277389D01*
X155892447Y-90958422D01*
X156016902Y-90657960D01*
X156197584Y-90387551D01*
X156197585Y-90387549D01*
X156427549Y-90157585D01*
X156697958Y-89976903D01*
X156998421Y-89852447D01*
X157104744Y-89831298D01*
X157317389Y-89789000D01*
X157642611Y-89789000D01*
X157855256Y-89831298D01*
X157855256Y-89831298D01*
G37*
G36*
X132357610Y-86451114D02*
G01*
X132580727Y-86543532D01*
X132580729Y-86543533D01*
X132631269Y-86577303D01*
X132781529Y-86677703D01*
X132952297Y-86848471D01*
X133086468Y-87049273D01*
X133178886Y-87272390D01*
X133226000Y-87509248D01*
X133226000Y-87750752D01*
X133178886Y-87987610D01*
X133086468Y-88210727D01*
X132952297Y-88411529D01*
X132781529Y-88582297D01*
X132631269Y-88682697D01*
X132580729Y-88716467D01*
X132580728Y-88716468D01*
X132580727Y-88716468D01*
X132357610Y-88808886D01*
X132120752Y-88856000D01*
X131879248Y-88856000D01*
X131642390Y-88808886D01*
X131419273Y-88716468D01*
X131419272Y-88716468D01*
X131419271Y-88716467D01*
X131368731Y-88682697D01*
X131218471Y-88582297D01*
X131047703Y-88411529D01*
X130913532Y-88210727D01*
X130821114Y-87987610D01*
X130774000Y-87750752D01*
X130774000Y-87509248D01*
X130821114Y-87272390D01*
X130913532Y-87049273D01*
X131047703Y-86848471D01*
X131218471Y-86677703D01*
X131368731Y-86577303D01*
X131419271Y-86543533D01*
X131419273Y-86543532D01*
X131642390Y-86451114D01*
X131879248Y-86404000D01*
X132120752Y-86404000D01*
X132357610Y-86451114D01*
X132357610Y-86451114D01*
G37*
G36*
X147677610Y-86451114D02*
G01*
X147900727Y-86543532D01*
X147900729Y-86543533D01*
X147951269Y-86577303D01*
X148101529Y-86677703D01*
X148272297Y-86848471D01*
X148406468Y-87049273D01*
X148498886Y-87272390D01*
X148546000Y-87509248D01*
X148546000Y-87750752D01*
X148498886Y-87987610D01*
X148406468Y-88210727D01*
X148272297Y-88411529D01*
X148101529Y-88582297D01*
X147951269Y-88682697D01*
X147900729Y-88716467D01*
X147900728Y-88716468D01*
X147900727Y-88716468D01*
X147677610Y-88808886D01*
X147440752Y-88856000D01*
X147199248Y-88856000D01*
X146962390Y-88808886D01*
X146739273Y-88716468D01*
X146739272Y-88716468D01*
X146739271Y-88716467D01*
X146688731Y-88682697D01*
X146538471Y-88582297D01*
X146367703Y-88411529D01*
X146233532Y-88210727D01*
X146141114Y-87987610D01*
X146094000Y-87750752D01*
X146094000Y-87509248D01*
X146141114Y-87272390D01*
X146233532Y-87049273D01*
X146367703Y-86848471D01*
X146538471Y-86677703D01*
X146688731Y-86577303D01*
X146739271Y-86543533D01*
X146739273Y-86543532D01*
X146962390Y-86451114D01*
X147199248Y-86404000D01*
X147440752Y-86404000D01*
X147677610Y-86451114D01*
X147677610Y-86451114D01*
G37*
G36*
X155241000Y-87623000D02*
G01*
X154639000Y-87623000D01*
X154639000Y-86621000D01*
X155241000Y-86621000D01*
X155241000Y-87623000D01*
X155241000Y-87623000D01*
G37*
G36*
X153741000Y-87623000D02*
G01*
X153139000Y-87623000D01*
X153139000Y-86621000D01*
X153741000Y-86621000D01*
X153741000Y-87623000D01*
X153741000Y-87623000D01*
G37*
G36*
X151123000Y-85875000D02*
G01*
X150121000Y-85875000D01*
X150121000Y-85273000D01*
X151123000Y-85273000D01*
X151123000Y-85875000D01*
X151123000Y-85875000D01*
G37*
G36*
X131798929Y-80367190D02*
G01*
X132244982Y-80551951D01*
X132244984Y-80551952D01*
X132533900Y-80745000D01*
X132646421Y-80820184D01*
X132987816Y-81161579D01*
X133256049Y-81563018D01*
X133440810Y-82009071D01*
X133535000Y-82482596D01*
X133535000Y-82965404D01*
X133440810Y-83438929D01*
X133256049Y-83884982D01*
X133256048Y-83884984D01*
X132987816Y-84286421D01*
X132646421Y-84627816D01*
X132244984Y-84896048D01*
X132244983Y-84896049D01*
X132244982Y-84896049D01*
X131798929Y-85080810D01*
X131325404Y-85175000D01*
X130842596Y-85175000D01*
X130369071Y-85080810D01*
X129923018Y-84896049D01*
X129923017Y-84896049D01*
X129923016Y-84896048D01*
X129521579Y-84627816D01*
X129180184Y-84286421D01*
X128911952Y-83884984D01*
X128911951Y-83884982D01*
X128727190Y-83438929D01*
X128633000Y-82965404D01*
X128633000Y-82482596D01*
X128727190Y-82009071D01*
X128911951Y-81563018D01*
X129180184Y-81161579D01*
X129521579Y-80820184D01*
X129634100Y-80745000D01*
X129923016Y-80551952D01*
X129923018Y-80551951D01*
X130369071Y-80367190D01*
X130842596Y-80273000D01*
X131325404Y-80273000D01*
X131798929Y-80367190D01*
X131798929Y-80367190D01*
G37*
G36*
X142163473Y-82148413D02*
G01*
X142259040Y-82157825D01*
X142504280Y-82232218D01*
X142730294Y-82353025D01*
X142781899Y-82395376D01*
X142928397Y-82515603D01*
X143048624Y-82662101D01*
X143090975Y-82713706D01*
X143211782Y-82939720D01*
X143286175Y-83184960D01*
X143311294Y-83440000D01*
X143286175Y-83695040D01*
X143211782Y-83940280D01*
X143090975Y-84166294D01*
X143048624Y-84217899D01*
X142928397Y-84364397D01*
X142781899Y-84484624D01*
X142730294Y-84526975D01*
X142504280Y-84647782D01*
X142259040Y-84722175D01*
X142163473Y-84731587D01*
X142067906Y-84741000D01*
X140640094Y-84741000D01*
X140544527Y-84731587D01*
X140448960Y-84722175D01*
X140203720Y-84647782D01*
X139977706Y-84526975D01*
X139926101Y-84484624D01*
X139779603Y-84364397D01*
X139659376Y-84217899D01*
X139617025Y-84166294D01*
X139496218Y-83940280D01*
X139421825Y-83695040D01*
X139396706Y-83440000D01*
X139421825Y-83184960D01*
X139496218Y-82939720D01*
X139617025Y-82713706D01*
X139659376Y-82662101D01*
X139779603Y-82515603D01*
X139926101Y-82395376D01*
X139977706Y-82353025D01*
X140203720Y-82232218D01*
X140448960Y-82157825D01*
X140544527Y-82148413D01*
X140640094Y-82139000D01*
X142067906Y-82139000D01*
X142163473Y-82148413D01*
X142163473Y-82148413D01*
G37*
G36*
X146983473Y-82148413D02*
G01*
X147079040Y-82157825D01*
X147324280Y-82232218D01*
X147550294Y-82353025D01*
X147601899Y-82395376D01*
X147748397Y-82515603D01*
X147868624Y-82662101D01*
X147910975Y-82713706D01*
X148031782Y-82939720D01*
X148106175Y-83184960D01*
X148131294Y-83440000D01*
X148106175Y-83695040D01*
X148031782Y-83940280D01*
X147910975Y-84166294D01*
X147868624Y-84217899D01*
X147748397Y-84364397D01*
X147601899Y-84484624D01*
X147550294Y-84526975D01*
X147324280Y-84647782D01*
X147079040Y-84722175D01*
X146983473Y-84731587D01*
X146887906Y-84741000D01*
X145460094Y-84741000D01*
X145364527Y-84731587D01*
X145268960Y-84722175D01*
X145023720Y-84647782D01*
X144797706Y-84526975D01*
X144746101Y-84484624D01*
X144599603Y-84364397D01*
X144479376Y-84217899D01*
X144437025Y-84166294D01*
X144316218Y-83940280D01*
X144241825Y-83695040D01*
X144216706Y-83440000D01*
X144241825Y-83184960D01*
X144316218Y-82939720D01*
X144437025Y-82713706D01*
X144479376Y-82662101D01*
X144599603Y-82515603D01*
X144746101Y-82395376D01*
X144797706Y-82353025D01*
X145023720Y-82232218D01*
X145268960Y-82157825D01*
X145364527Y-82148413D01*
X145460094Y-82139000D01*
X146887906Y-82139000D01*
X146983473Y-82148413D01*
X146983473Y-82148413D01*
G37*
G36*
X151123000Y-84375000D02*
G01*
X150121000Y-84375000D01*
X150121000Y-83773000D01*
X151123000Y-83773000D01*
X151123000Y-84375000D01*
X151123000Y-84375000D01*
G37*
G36*
X157507000Y-83847000D02*
G01*
X154405000Y-83847000D01*
X154405000Y-80745000D01*
X157507000Y-80745000D01*
X157507000Y-83847000D01*
X157507000Y-83847000D01*
G37*
G36*
X151123000Y-83081000D02*
G01*
X150121000Y-83081000D01*
X150121000Y-82479000D01*
X151123000Y-82479000D01*
X151123000Y-83081000D01*
X151123000Y-83081000D01*
G37*
G36*
X151123000Y-81581000D02*
G01*
X150121000Y-81581000D01*
X150121000Y-80979000D01*
X151123000Y-80979000D01*
X151123000Y-81581000D01*
X151123000Y-81581000D01*
G37*
G36*
X134848929Y-75367190D02*
G01*
X135294982Y-75551951D01*
X135294984Y-75551952D01*
X135696421Y-75820184D01*
X136037816Y-76161579D01*
X136251466Y-76481328D01*
X136306049Y-76563018D01*
X136490810Y-77009071D01*
X136585000Y-77482596D01*
X136585000Y-77965404D01*
X136490810Y-78438929D01*
X136327737Y-78832622D01*
X136306048Y-78884984D01*
X136037816Y-79286421D01*
X135696421Y-79627816D01*
X135294984Y-79896048D01*
X135294983Y-79896049D01*
X135294982Y-79896049D01*
X134848929Y-80080810D01*
X134375404Y-80175000D01*
X133892596Y-80175000D01*
X133419071Y-80080810D01*
X132973018Y-79896049D01*
X132973017Y-79896049D01*
X132973016Y-79896048D01*
X132571579Y-79627816D01*
X132230184Y-79286421D01*
X131961952Y-78884984D01*
X131940263Y-78832622D01*
X131777190Y-78438929D01*
X131683000Y-77965404D01*
X131683000Y-77482596D01*
X131777190Y-77009071D01*
X131961951Y-76563018D01*
X132016535Y-76481328D01*
X132230184Y-76161579D01*
X132571579Y-75820184D01*
X132973016Y-75551952D01*
X132973018Y-75551951D01*
X133419071Y-75367190D01*
X133892596Y-75273000D01*
X134375404Y-75273000D01*
X134848929Y-75367190D01*
X134848929Y-75367190D01*
G37*
G36*
X128248929Y-75367190D02*
G01*
X128694982Y-75551951D01*
X128694984Y-75551952D01*
X129096421Y-75820184D01*
X129437816Y-76161579D01*
X129651466Y-76481328D01*
X129706049Y-76563018D01*
X129890810Y-77009071D01*
X129985000Y-77482596D01*
X129985000Y-77965404D01*
X129890810Y-78438929D01*
X129727737Y-78832622D01*
X129706048Y-78884984D01*
X129437816Y-79286421D01*
X129096421Y-79627816D01*
X128694984Y-79896048D01*
X128694983Y-79896049D01*
X128694982Y-79896049D01*
X128248929Y-80080810D01*
X127775404Y-80175000D01*
X127292596Y-80175000D01*
X126819071Y-80080810D01*
X126373018Y-79896049D01*
X126373017Y-79896049D01*
X126373016Y-79896048D01*
X125971579Y-79627816D01*
X125630184Y-79286421D01*
X125361952Y-78884984D01*
X125340263Y-78832622D01*
X125177190Y-78438929D01*
X125132596Y-78214739D01*
X125125483Y-78191290D01*
X125113932Y-78169679D01*
X125098387Y-78150737D01*
X125079445Y-78135192D01*
X125057834Y-78123641D01*
X125034385Y-78116528D01*
X125009999Y-78114126D01*
X124985613Y-78116528D01*
X124962164Y-78123641D01*
X124940553Y-78135192D01*
X124921611Y-78150737D01*
X124906066Y-78169679D01*
X124894515Y-78191290D01*
X124874456Y-78239718D01*
X124842622Y-78316571D01*
X124705715Y-78521466D01*
X124531466Y-78695715D01*
X124326571Y-78832622D01*
X124326570Y-78832623D01*
X124326569Y-78832623D01*
X124098903Y-78926925D01*
X123857214Y-78975000D01*
X123610786Y-78975000D01*
X123369097Y-78926925D01*
X123141431Y-78832623D01*
X123141430Y-78832623D01*
X123141429Y-78832622D01*
X122936534Y-78695715D01*
X122762285Y-78521466D01*
X122625378Y-78316571D01*
X122593545Y-78239718D01*
X122531075Y-78088903D01*
X122483000Y-77847214D01*
X122483000Y-77600786D01*
X122531075Y-77359097D01*
X122625377Y-77131431D01*
X122670941Y-77063240D01*
X122762285Y-76926534D01*
X122936534Y-76752285D01*
X123141429Y-76615378D01*
X123369097Y-76521075D01*
X123610786Y-76473000D01*
X123857214Y-76473000D01*
X124098903Y-76521075D01*
X124326571Y-76615378D01*
X124531466Y-76752285D01*
X124705715Y-76926534D01*
X124797059Y-77063240D01*
X124842623Y-77131431D01*
X124894515Y-77256710D01*
X124906066Y-77278320D01*
X124921611Y-77297262D01*
X124940553Y-77312808D01*
X124962164Y-77324359D01*
X124985613Y-77331472D01*
X125009999Y-77333874D01*
X125034385Y-77331472D01*
X125057834Y-77324359D01*
X125079444Y-77312808D01*
X125098386Y-77297263D01*
X125113932Y-77278321D01*
X125125483Y-77256710D01*
X125132596Y-77233261D01*
X125177190Y-77009071D01*
X125361951Y-76563018D01*
X125416535Y-76481328D01*
X125630184Y-76161579D01*
X125971579Y-75820184D01*
X126373016Y-75551952D01*
X126373018Y-75551951D01*
X126819071Y-75367190D01*
X127292596Y-75273000D01*
X127775404Y-75273000D01*
X128248929Y-75367190D01*
X128248929Y-75367190D01*
G37*
G36*
X142163473Y-77448413D02*
G01*
X142259040Y-77457825D01*
X142504280Y-77532218D01*
X142730294Y-77653025D01*
X142781899Y-77695376D01*
X142928397Y-77815603D01*
X143039244Y-77950672D01*
X143090975Y-78013706D01*
X143211782Y-78239720D01*
X143286175Y-78484960D01*
X143311294Y-78740000D01*
X143286175Y-78995040D01*
X143211782Y-79240280D01*
X143090975Y-79466294D01*
X143048624Y-79517899D01*
X142928397Y-79664397D01*
X142781899Y-79784624D01*
X142730294Y-79826975D01*
X142504280Y-79947782D01*
X142259040Y-80022175D01*
X142163473Y-80031587D01*
X142067906Y-80041000D01*
X140640094Y-80041000D01*
X140544527Y-80031587D01*
X140448960Y-80022175D01*
X140203720Y-79947782D01*
X139977706Y-79826975D01*
X139926101Y-79784624D01*
X139779603Y-79664397D01*
X139659376Y-79517899D01*
X139617025Y-79466294D01*
X139496218Y-79240280D01*
X139421825Y-78995040D01*
X139396706Y-78740000D01*
X139421825Y-78484960D01*
X139496218Y-78239720D01*
X139617025Y-78013706D01*
X139668756Y-77950672D01*
X139779603Y-77815603D01*
X139926101Y-77695376D01*
X139977706Y-77653025D01*
X140203720Y-77532218D01*
X140448960Y-77457825D01*
X140544527Y-77448413D01*
X140640094Y-77439000D01*
X142067906Y-77439000D01*
X142163473Y-77448413D01*
X142163473Y-77448413D01*
G37*
G36*
X146983473Y-77448413D02*
G01*
X147079040Y-77457825D01*
X147324280Y-77532218D01*
X147550294Y-77653025D01*
X147601899Y-77695376D01*
X147748397Y-77815603D01*
X147859244Y-77950672D01*
X147910975Y-78013706D01*
X148031782Y-78239720D01*
X148106175Y-78484960D01*
X148131294Y-78740000D01*
X148106175Y-78995040D01*
X148031782Y-79240280D01*
X147910975Y-79466294D01*
X147868624Y-79517899D01*
X147748397Y-79664397D01*
X147601899Y-79784624D01*
X147550294Y-79826975D01*
X147324280Y-79947782D01*
X147079040Y-80022175D01*
X146983473Y-80031587D01*
X146887906Y-80041000D01*
X145460094Y-80041000D01*
X145364527Y-80031587D01*
X145268960Y-80022175D01*
X145023720Y-79947782D01*
X144797706Y-79826975D01*
X144746101Y-79784624D01*
X144599603Y-79664397D01*
X144479376Y-79517899D01*
X144437025Y-79466294D01*
X144316218Y-79240280D01*
X144241825Y-78995040D01*
X144216706Y-78740000D01*
X144241825Y-78484960D01*
X144316218Y-78239720D01*
X144437025Y-78013706D01*
X144488756Y-77950672D01*
X144599603Y-77815603D01*
X144746101Y-77695376D01*
X144797706Y-77653025D01*
X145023720Y-77532218D01*
X145268960Y-77457825D01*
X145364527Y-77448413D01*
X145460094Y-77439000D01*
X146887906Y-77439000D01*
X146983473Y-77448413D01*
X146983473Y-77448413D01*
G37*
G36*
X156258585Y-75694802D02*
G01*
X156408410Y-75724604D01*
X156690674Y-75841521D01*
X156944705Y-76011259D01*
X157160741Y-76227295D01*
X157330479Y-76481326D01*
X157442713Y-76752285D01*
X157447396Y-76763591D01*
X157507000Y-77063239D01*
X157507000Y-77368761D01*
X157489284Y-77457825D01*
X157447396Y-77668410D01*
X157330479Y-77950674D01*
X157160741Y-78204705D01*
X156944705Y-78420741D01*
X156690674Y-78590479D01*
X156408410Y-78707396D01*
X156258585Y-78737198D01*
X156108761Y-78767000D01*
X155803239Y-78767000D01*
X155653415Y-78737198D01*
X155503590Y-78707396D01*
X155221326Y-78590479D01*
X154967295Y-78420741D01*
X154751259Y-78204705D01*
X154581521Y-77950674D01*
X154464604Y-77668410D01*
X154422716Y-77457825D01*
X154405000Y-77368761D01*
X154405000Y-77063239D01*
X154464604Y-76763591D01*
X154469287Y-76752285D01*
X154581521Y-76481326D01*
X154751259Y-76227295D01*
X154967295Y-76011259D01*
X155221326Y-75841521D01*
X155503590Y-75724604D01*
X155653415Y-75694802D01*
X155803239Y-75665000D01*
X156108761Y-75665000D01*
X156258585Y-75694802D01*
X156258585Y-75694802D01*
G37*
G36*
X146983473Y-72748413D02*
G01*
X147079040Y-72757825D01*
X147324280Y-72832218D01*
X147550294Y-72953025D01*
X147601899Y-72995376D01*
X147748397Y-73115603D01*
X147868624Y-73262101D01*
X147910975Y-73313706D01*
X148031782Y-73539720D01*
X148106175Y-73784960D01*
X148131294Y-74040000D01*
X148106175Y-74295040D01*
X148031782Y-74540280D01*
X147910975Y-74766294D01*
X147868624Y-74817899D01*
X147748397Y-74964397D01*
X147601899Y-75084624D01*
X147550294Y-75126975D01*
X147324280Y-75247782D01*
X147079040Y-75322175D01*
X146983473Y-75331587D01*
X146887906Y-75341000D01*
X145460094Y-75341000D01*
X145364527Y-75331587D01*
X145268960Y-75322175D01*
X145023720Y-75247782D01*
X144797706Y-75126975D01*
X144746101Y-75084624D01*
X144599603Y-74964397D01*
X144479376Y-74817899D01*
X144437025Y-74766294D01*
X144316218Y-74540280D01*
X144241825Y-74295040D01*
X144216706Y-74040000D01*
X144241825Y-73784960D01*
X144316218Y-73539720D01*
X144437025Y-73313706D01*
X144479376Y-73262101D01*
X144599603Y-73115603D01*
X144746101Y-72995376D01*
X144797706Y-72953025D01*
X145023720Y-72832218D01*
X145268960Y-72757825D01*
X145364527Y-72748413D01*
X145460094Y-72739000D01*
X146887906Y-72739000D01*
X146983473Y-72748413D01*
X146983473Y-72748413D01*
G37*
G36*
X142163473Y-72748413D02*
G01*
X142259040Y-72757825D01*
X142504280Y-72832218D01*
X142730294Y-72953025D01*
X142781899Y-72995376D01*
X142928397Y-73115603D01*
X143048624Y-73262101D01*
X143090975Y-73313706D01*
X143211782Y-73539720D01*
X143286175Y-73784960D01*
X143311294Y-74040000D01*
X143286175Y-74295040D01*
X143211782Y-74540280D01*
X143090975Y-74766294D01*
X143048624Y-74817899D01*
X142928397Y-74964397D01*
X142781899Y-75084624D01*
X142730294Y-75126975D01*
X142504280Y-75247782D01*
X142259040Y-75322175D01*
X142163473Y-75331587D01*
X142067906Y-75341000D01*
X140640094Y-75341000D01*
X140544527Y-75331587D01*
X140448960Y-75322175D01*
X140203720Y-75247782D01*
X139977706Y-75126975D01*
X139926101Y-75084624D01*
X139779603Y-74964397D01*
X139659376Y-74817899D01*
X139617025Y-74766294D01*
X139496218Y-74540280D01*
X139421825Y-74295040D01*
X139396706Y-74040000D01*
X139421825Y-73784960D01*
X139496218Y-73539720D01*
X139617025Y-73313706D01*
X139659376Y-73262101D01*
X139779603Y-73115603D01*
X139926101Y-72995376D01*
X139977706Y-72953025D01*
X140203720Y-72832218D01*
X140448960Y-72757825D01*
X140544527Y-72748413D01*
X140640094Y-72739000D01*
X142067906Y-72739000D01*
X142163473Y-72748413D01*
X142163473Y-72748413D01*
G37*
G36*
X131083000Y-71463000D02*
G01*
X129981000Y-71463000D01*
X129981000Y-69761000D01*
X131083000Y-69761000D01*
X131083000Y-71463000D01*
X131083000Y-71463000D01*
G37*
G36*
X128083000Y-71463000D02*
G01*
X126981000Y-71463000D01*
X126981000Y-69761000D01*
X128083000Y-69761000D01*
X128083000Y-71463000D01*
X128083000Y-71463000D01*
G37*
G36*
X124531000Y-71367000D02*
G01*
X123929000Y-71367000D01*
X123929000Y-70365000D01*
X124531000Y-70365000D01*
X124531000Y-71367000D01*
X124531000Y-71367000D01*
G37*
G36*
X126031000Y-71367000D02*
G01*
X125429000Y-71367000D01*
X125429000Y-70365000D01*
X126031000Y-70365000D01*
X126031000Y-71367000D01*
X126031000Y-71367000D01*
G37*
G36*
X122313000Y-71005000D02*
G01*
X120511000Y-71005000D01*
X120511000Y-69203000D01*
X122313000Y-69203000D01*
X122313000Y-71005000D01*
X122313000Y-71005000D01*
G37*
G36*
X158987142Y-68306242D02*
G01*
X159135101Y-68367529D01*
X159268255Y-68456499D01*
X159381501Y-68569745D01*
X159470471Y-68702899D01*
X159531758Y-68850858D01*
X159563000Y-69007925D01*
X159563000Y-69168075D01*
X159531758Y-69325142D01*
X159470471Y-69473101D01*
X159381501Y-69606255D01*
X159268255Y-69719501D01*
X159135101Y-69808471D01*
X158987142Y-69869758D01*
X158830075Y-69901000D01*
X158669925Y-69901000D01*
X158512858Y-69869758D01*
X158364899Y-69808471D01*
X158231745Y-69719501D01*
X158118499Y-69606255D01*
X158029529Y-69473101D01*
X157968242Y-69325142D01*
X157937000Y-69168075D01*
X157937000Y-69007925D01*
X157968242Y-68850858D01*
X158029529Y-68702899D01*
X158118499Y-68569745D01*
X158231745Y-68456499D01*
X158364899Y-68367529D01*
X158512858Y-68306242D01*
X158669925Y-68275000D01*
X158830075Y-68275000D01*
X158987142Y-68306242D01*
X158987142Y-68306242D01*
G37*
G36*
X148827142Y-68306242D02*
G01*
X148975101Y-68367529D01*
X149108255Y-68456499D01*
X149221501Y-68569745D01*
X149310471Y-68702899D01*
X149371758Y-68850858D01*
X149403000Y-69007925D01*
X149403000Y-69168075D01*
X149371758Y-69325142D01*
X149310471Y-69473101D01*
X149221501Y-69606255D01*
X149108255Y-69719501D01*
X148975101Y-69808471D01*
X148827142Y-69869758D01*
X148670075Y-69901000D01*
X148509925Y-69901000D01*
X148352858Y-69869758D01*
X148204899Y-69808471D01*
X148071745Y-69719501D01*
X147958499Y-69606255D01*
X147869529Y-69473101D01*
X147808242Y-69325142D01*
X147777000Y-69168075D01*
X147777000Y-69007925D01*
X147808242Y-68850858D01*
X147869529Y-68702899D01*
X147958499Y-68569745D01*
X148071745Y-68456499D01*
X148204899Y-68367529D01*
X148352858Y-68306242D01*
X148509925Y-68275000D01*
X148670075Y-68275000D01*
X148827142Y-68306242D01*
X148827142Y-68306242D01*
G37*
G36*
X144265000Y-69365000D02*
G01*
X143263000Y-69365000D01*
X143263000Y-68763000D01*
X144265000Y-68763000D01*
X144265000Y-69365000D01*
X144265000Y-69365000D01*
G37*
G36*
X121522443Y-66669519D02*
G01*
X121588627Y-66676037D01*
X121758466Y-66727557D01*
X121914991Y-66811222D01*
X121950729Y-66840552D01*
X122052186Y-66923814D01*
X122135448Y-67025271D01*
X122164778Y-67061009D01*
X122248443Y-67217534D01*
X122299963Y-67387373D01*
X122317359Y-67564000D01*
X122299963Y-67740627D01*
X122248443Y-67910466D01*
X122164778Y-68066991D01*
X122135448Y-68102729D01*
X122052186Y-68204186D01*
X121950729Y-68287448D01*
X121914991Y-68316778D01*
X121758466Y-68400443D01*
X121588627Y-68451963D01*
X121542571Y-68456499D01*
X121456260Y-68465000D01*
X121367740Y-68465000D01*
X121281429Y-68456499D01*
X121235373Y-68451963D01*
X121065534Y-68400443D01*
X120909009Y-68316778D01*
X120873271Y-68287448D01*
X120771814Y-68204186D01*
X120688552Y-68102729D01*
X120659222Y-68066991D01*
X120575557Y-67910466D01*
X120524037Y-67740627D01*
X120506641Y-67564000D01*
X120524037Y-67387373D01*
X120575557Y-67217534D01*
X120659222Y-67061009D01*
X120688552Y-67025271D01*
X120771814Y-66923814D01*
X120873271Y-66840552D01*
X120909009Y-66811222D01*
X121065534Y-66727557D01*
X121235373Y-66676037D01*
X121301557Y-66669519D01*
X121367740Y-66663000D01*
X121456260Y-66663000D01*
X121522443Y-66669519D01*
X121522443Y-66669519D01*
G37*
G36*
X141751000Y-68357000D02*
G01*
X137649000Y-68357000D01*
X137649000Y-65755000D01*
X141751000Y-65755000D01*
X141751000Y-68357000D01*
X141751000Y-68357000D01*
G37*
G36*
X135651000Y-68357000D02*
G01*
X131549000Y-68357000D01*
X131549000Y-65755000D01*
X135651000Y-65755000D01*
X135651000Y-68357000D01*
X135651000Y-68357000D01*
G37*
G36*
X144265000Y-67865000D02*
G01*
X143263000Y-67865000D01*
X143263000Y-67263000D01*
X144265000Y-67263000D01*
X144265000Y-67865000D01*
X144265000Y-67865000D01*
G37*
G36*
X127385000Y-67541000D02*
G01*
X126483000Y-67541000D01*
X126483000Y-66539000D01*
X127385000Y-66539000D01*
X127385000Y-67541000D01*
X127385000Y-67541000D01*
G37*
G36*
X125485000Y-67541000D02*
G01*
X124583000Y-67541000D01*
X124583000Y-66539000D01*
X125485000Y-66539000D01*
X125485000Y-67541000D01*
X125485000Y-67541000D01*
G37*
G36*
X158987142Y-65766242D02*
G01*
X159135101Y-65827529D01*
X159268255Y-65916499D01*
X159381501Y-66029745D01*
X159470471Y-66162899D01*
X159531758Y-66310858D01*
X159563000Y-66467925D01*
X159563000Y-66628075D01*
X159531758Y-66785142D01*
X159470471Y-66933101D01*
X159381501Y-67066255D01*
X159268255Y-67179501D01*
X159135101Y-67268471D01*
X158987142Y-67329758D01*
X158830075Y-67361000D01*
X158669925Y-67361000D01*
X158512858Y-67329758D01*
X158364899Y-67268471D01*
X158231745Y-67179501D01*
X158118499Y-67066255D01*
X158029529Y-66933101D01*
X157968242Y-66785142D01*
X157937000Y-66628075D01*
X157937000Y-66467925D01*
X157968242Y-66310858D01*
X158029529Y-66162899D01*
X158118499Y-66029745D01*
X158231745Y-65916499D01*
X158364899Y-65827529D01*
X158512858Y-65766242D01*
X158669925Y-65735000D01*
X158830075Y-65735000D01*
X158987142Y-65766242D01*
X158987142Y-65766242D01*
G37*
G36*
X148827142Y-65766242D02*
G01*
X148975101Y-65827529D01*
X149108255Y-65916499D01*
X149221501Y-66029745D01*
X149310471Y-66162899D01*
X149371758Y-66310858D01*
X149403000Y-66467925D01*
X149403000Y-66628075D01*
X149371758Y-66785142D01*
X149310471Y-66933101D01*
X149221501Y-67066255D01*
X149108255Y-67179501D01*
X148975101Y-67268471D01*
X148827142Y-67329758D01*
X148670075Y-67361000D01*
X148509925Y-67361000D01*
X148352858Y-67329758D01*
X148204899Y-67268471D01*
X148071745Y-67179501D01*
X147958499Y-67066255D01*
X147869529Y-66933101D01*
X147808242Y-66785142D01*
X147777000Y-66628075D01*
X147777000Y-66467925D01*
X147808242Y-66310858D01*
X147869529Y-66162899D01*
X147958499Y-66029745D01*
X148071745Y-65916499D01*
X148204899Y-65827529D01*
X148352858Y-65766242D01*
X148509925Y-65735000D01*
X148670075Y-65735000D01*
X148827142Y-65766242D01*
X148827142Y-65766242D01*
G37*
G36*
X121522443Y-64129519D02*
G01*
X121588627Y-64136037D01*
X121758466Y-64187557D01*
X121914991Y-64271222D01*
X121950729Y-64300552D01*
X122052186Y-64383814D01*
X122135448Y-64485271D01*
X122164778Y-64521009D01*
X122248443Y-64677534D01*
X122299963Y-64847373D01*
X122317359Y-65024000D01*
X122299963Y-65200627D01*
X122248443Y-65370466D01*
X122164778Y-65526991D01*
X122153281Y-65541000D01*
X122052186Y-65664186D01*
X121950729Y-65747448D01*
X121914991Y-65776778D01*
X121758466Y-65860443D01*
X121588627Y-65911963D01*
X121542571Y-65916499D01*
X121456260Y-65925000D01*
X121367740Y-65925000D01*
X121281429Y-65916499D01*
X121235373Y-65911963D01*
X121065534Y-65860443D01*
X120909009Y-65776778D01*
X120873271Y-65747448D01*
X120771814Y-65664186D01*
X120670719Y-65541000D01*
X120659222Y-65526991D01*
X120575557Y-65370466D01*
X120524037Y-65200627D01*
X120506641Y-65024000D01*
X120524037Y-64847373D01*
X120575557Y-64677534D01*
X120659222Y-64521009D01*
X120688552Y-64485271D01*
X120771814Y-64383814D01*
X120873271Y-64300552D01*
X120909009Y-64271222D01*
X121065534Y-64187557D01*
X121235373Y-64136037D01*
X121301557Y-64129519D01*
X121367740Y-64123000D01*
X121456260Y-64123000D01*
X121522443Y-64129519D01*
X121522443Y-64129519D01*
G37*
G36*
X144265000Y-65567000D02*
G01*
X143263000Y-65567000D01*
X143263000Y-64965000D01*
X144265000Y-64965000D01*
X144265000Y-65567000D01*
X144265000Y-65567000D01*
G37*
G36*
X126435000Y-65541000D02*
G01*
X125533000Y-65541000D01*
X125533000Y-64539000D01*
X126435000Y-64539000D01*
X126435000Y-65541000D01*
X126435000Y-65541000D01*
G37*
G36*
X131057000Y-65313000D02*
G01*
X130055000Y-65313000D01*
X130055000Y-64711000D01*
X131057000Y-64711000D01*
X131057000Y-65313000D01*
X131057000Y-65313000D01*
G37*
G36*
X144265000Y-64067000D02*
G01*
X143263000Y-64067000D01*
X143263000Y-63465000D01*
X144265000Y-63465000D01*
X144265000Y-64067000D01*
X144265000Y-64067000D01*
G37*
G36*
X131057000Y-63813000D02*
G01*
X130055000Y-63813000D01*
X130055000Y-63211000D01*
X131057000Y-63211000D01*
X131057000Y-63813000D01*
X131057000Y-63813000D01*
G37*
G36*
X126285000Y-62985000D02*
G01*
X125683000Y-62985000D01*
X125683000Y-61983000D01*
X126285000Y-61983000D01*
X126285000Y-62985000D01*
X126285000Y-62985000D01*
G37*
G36*
X124785000Y-62985000D02*
G01*
X124183000Y-62985000D01*
X124183000Y-61983000D01*
X124785000Y-61983000D01*
X124785000Y-62985000D01*
X124785000Y-62985000D01*
G37*
G36*
X145281000Y-62519000D02*
G01*
X144279000Y-62519000D01*
X144279000Y-61917000D01*
X145281000Y-61917000D01*
X145281000Y-62519000D01*
X145281000Y-62519000D01*
G37*
G36*
X123235000Y-61895000D02*
G01*
X122383000Y-61895000D01*
X122383000Y-60993000D01*
X123235000Y-60993000D01*
X123235000Y-61895000D01*
X123235000Y-61895000D01*
G37*
G36*
X132357000Y-61207000D02*
G01*
X131755000Y-61207000D01*
X131755000Y-60205000D01*
X132357000Y-60205000D01*
X132357000Y-61207000D01*
X132357000Y-61207000D01*
G37*
G36*
X130857000Y-61207000D02*
G01*
X130255000Y-61207000D01*
X130255000Y-60205000D01*
X130857000Y-60205000D01*
X130857000Y-61207000D01*
X130857000Y-61207000D01*
G37*
G36*
X145281000Y-61019000D02*
G01*
X144279000Y-61019000D01*
X144279000Y-60417000D01*
X145281000Y-60417000D01*
X145281000Y-61019000D01*
X145281000Y-61019000D01*
G37*
G36*
X142028228Y-58957483D02*
G01*
X142216922Y-59014723D01*
X142390815Y-59107671D01*
X142543239Y-59232761D01*
X142668329Y-59385185D01*
X142761277Y-59559078D01*
X142818517Y-59747772D01*
X142837843Y-59944000D01*
X142818517Y-60140228D01*
X142761277Y-60328922D01*
X142668329Y-60502815D01*
X142543239Y-60655239D01*
X142390815Y-60780329D01*
X142216922Y-60873277D01*
X142028228Y-60930517D01*
X141881175Y-60945000D01*
X141582825Y-60945000D01*
X141435772Y-60930517D01*
X141247078Y-60873277D01*
X141073185Y-60780329D01*
X140920761Y-60655239D01*
X140795671Y-60502815D01*
X140702723Y-60328922D01*
X140645483Y-60140228D01*
X140626157Y-59944000D01*
X140645483Y-59747772D01*
X140702723Y-59559078D01*
X140795671Y-59385185D01*
X140920761Y-59232761D01*
X141073185Y-59107671D01*
X141247078Y-59014723D01*
X141435772Y-58957483D01*
X141582825Y-58943000D01*
X141881175Y-58943000D01*
X142028228Y-58957483D01*
X142028228Y-58957483D01*
G37*
G36*
X135213000Y-60945000D02*
G01*
X133011000Y-60945000D01*
X133011000Y-58943000D01*
X135213000Y-58943000D01*
X135213000Y-60945000D01*
X135213000Y-60945000D01*
G37*
G36*
X123235000Y-60395000D02*
G01*
X122383000Y-60395000D01*
X122383000Y-59493000D01*
X123235000Y-59493000D01*
X123235000Y-60395000D01*
X123235000Y-60395000D01*
G37*
G36*
X145281000Y-59471000D02*
G01*
X144279000Y-59471000D01*
X144279000Y-58869000D01*
X145281000Y-58869000D01*
X145281000Y-59471000D01*
X145281000Y-59471000D01*
G37*
G36*
X134408228Y-56417483D02*
G01*
X134596922Y-56474723D01*
X134770815Y-56567671D01*
X134923239Y-56692761D01*
X135048329Y-56845185D01*
X135141277Y-57019078D01*
X135198517Y-57207772D01*
X135217843Y-57404000D01*
X135198517Y-57600228D01*
X135141277Y-57788922D01*
X135048329Y-57962815D01*
X134923239Y-58115239D01*
X134770815Y-58240329D01*
X134596922Y-58333277D01*
X134408228Y-58390517D01*
X134261175Y-58405000D01*
X133962825Y-58405000D01*
X133815772Y-58390517D01*
X133627078Y-58333277D01*
X133453185Y-58240329D01*
X133300761Y-58115239D01*
X133175671Y-57962815D01*
X133082723Y-57788922D01*
X133025483Y-57600228D01*
X133006157Y-57404000D01*
X133025483Y-57207772D01*
X133082723Y-57019078D01*
X133175671Y-56845185D01*
X133300761Y-56692761D01*
X133453185Y-56567671D01*
X133627078Y-56474723D01*
X133815772Y-56417483D01*
X133962825Y-56403000D01*
X134261175Y-56403000D01*
X134408228Y-56417483D01*
X134408228Y-56417483D01*
G37*
G36*
X142028228Y-56417483D02*
G01*
X142216922Y-56474723D01*
X142390815Y-56567671D01*
X142543239Y-56692761D01*
X142668329Y-56845185D01*
X142761277Y-57019078D01*
X142818517Y-57207772D01*
X142837843Y-57404000D01*
X142818517Y-57600228D01*
X142761277Y-57788922D01*
X142668329Y-57962815D01*
X142543239Y-58115239D01*
X142390815Y-58240329D01*
X142216922Y-58333277D01*
X142028228Y-58390517D01*
X141881175Y-58405000D01*
X141582825Y-58405000D01*
X141435772Y-58390517D01*
X141247078Y-58333277D01*
X141073185Y-58240329D01*
X140920761Y-58115239D01*
X140795671Y-57962815D01*
X140702723Y-57788922D01*
X140645483Y-57600228D01*
X140626157Y-57404000D01*
X140645483Y-57207772D01*
X140702723Y-57019078D01*
X140795671Y-56845185D01*
X140920761Y-56692761D01*
X141073185Y-56567671D01*
X141247078Y-56474723D01*
X141435772Y-56417483D01*
X141582825Y-56403000D01*
X141881175Y-56403000D01*
X142028228Y-56417483D01*
X142028228Y-56417483D01*
G37*
G36*
X145281000Y-57971000D02*
G01*
X144279000Y-57971000D01*
X144279000Y-57369000D01*
X145281000Y-57369000D01*
X145281000Y-57971000D01*
X145281000Y-57971000D01*
G37*
G36*
X123732498Y-54864000D02*
G01*
X123896410Y-54896604D01*
X124178674Y-55013521D01*
X124432705Y-55183259D01*
X124648741Y-55399295D01*
X124818479Y-55653326D01*
X124935396Y-55935590D01*
X124995000Y-56235240D01*
X124995000Y-56540760D01*
X124935396Y-56840410D01*
X124818479Y-57122674D01*
X124648741Y-57376705D01*
X124432705Y-57592741D01*
X124178674Y-57762479D01*
X123896410Y-57879396D01*
X123767690Y-57905000D01*
X123596761Y-57939000D01*
X123291239Y-57939000D01*
X123120310Y-57905000D01*
X122991590Y-57879396D01*
X122709326Y-57762479D01*
X122455295Y-57592741D01*
X122239259Y-57376705D01*
X122069521Y-57122674D01*
X121952604Y-56840410D01*
X121893000Y-56540760D01*
X121893000Y-56235240D01*
X121952604Y-55935590D01*
X122069521Y-55653326D01*
X122239259Y-55399295D01*
X122455295Y-55183259D01*
X122709326Y-55013521D01*
X122991590Y-54896604D01*
X123155502Y-54864000D01*
X123291239Y-54837000D01*
X123596761Y-54837000D01*
X123732498Y-54864000D01*
X123732498Y-54864000D01*
G37*
G36*
X128571000Y-57905000D02*
G01*
X127969000Y-57905000D01*
X127969000Y-56903000D01*
X128571000Y-56903000D01*
X128571000Y-57905000D01*
X128571000Y-57905000D01*
G37*
G36*
X130071000Y-57905000D02*
G01*
X129469000Y-57905000D01*
X129469000Y-56903000D01*
X130071000Y-56903000D01*
X130071000Y-57905000D01*
X130071000Y-57905000D01*
G37*
G36*
X148827142Y-55606242D02*
G01*
X148975101Y-55667529D01*
X149108255Y-55756499D01*
X149221501Y-55869745D01*
X149310471Y-56002899D01*
X149371758Y-56150858D01*
X149403000Y-56307925D01*
X149403000Y-56468075D01*
X149371758Y-56625142D01*
X149310471Y-56773101D01*
X149221501Y-56906255D01*
X149108255Y-57019501D01*
X148975101Y-57108471D01*
X148827142Y-57169758D01*
X148670075Y-57201000D01*
X148509925Y-57201000D01*
X148352858Y-57169758D01*
X148204899Y-57108471D01*
X148071745Y-57019501D01*
X147958499Y-56906255D01*
X147869529Y-56773101D01*
X147808242Y-56625142D01*
X147777000Y-56468075D01*
X147777000Y-56307925D01*
X147808242Y-56150858D01*
X147869529Y-56002899D01*
X147958499Y-55869745D01*
X148071745Y-55756499D01*
X148204899Y-55667529D01*
X148352858Y-55606242D01*
X148509925Y-55575000D01*
X148670075Y-55575000D01*
X148827142Y-55606242D01*
X148827142Y-55606242D01*
G37*
G36*
X145206000Y-56307000D02*
G01*
X144354000Y-56307000D01*
X144354000Y-55405000D01*
X145206000Y-55405000D01*
X145206000Y-56307000D01*
X145206000Y-56307000D01*
G37*
G36*
X142028228Y-53877483D02*
G01*
X142216922Y-53934723D01*
X142390815Y-54027671D01*
X142543239Y-54152761D01*
X142668329Y-54305185D01*
X142761277Y-54479078D01*
X142818517Y-54667772D01*
X142837843Y-54864000D01*
X142818517Y-55060228D01*
X142761277Y-55248922D01*
X142668329Y-55422815D01*
X142543239Y-55575239D01*
X142390815Y-55700329D01*
X142216922Y-55793277D01*
X142028228Y-55850517D01*
X141881175Y-55865000D01*
X141582825Y-55865000D01*
X141435772Y-55850517D01*
X141247078Y-55793277D01*
X141073185Y-55700329D01*
X140920761Y-55575239D01*
X140795671Y-55422815D01*
X140702723Y-55248922D01*
X140645483Y-55060228D01*
X140626157Y-54864000D01*
X140645483Y-54667772D01*
X140702723Y-54479078D01*
X140795671Y-54305185D01*
X140920761Y-54152761D01*
X141073185Y-54027671D01*
X141247078Y-53934723D01*
X141435772Y-53877483D01*
X141582825Y-53863000D01*
X141881175Y-53863000D01*
X142028228Y-53877483D01*
X142028228Y-53877483D01*
G37*
G36*
X134408228Y-53877483D02*
G01*
X134596922Y-53934723D01*
X134770815Y-54027671D01*
X134923239Y-54152761D01*
X135048329Y-54305185D01*
X135141277Y-54479078D01*
X135198517Y-54667772D01*
X135217843Y-54864000D01*
X135198517Y-55060228D01*
X135141277Y-55248922D01*
X135048329Y-55422815D01*
X134923239Y-55575239D01*
X134770815Y-55700329D01*
X134596922Y-55793277D01*
X134408228Y-55850517D01*
X134261175Y-55865000D01*
X133962825Y-55865000D01*
X133815772Y-55850517D01*
X133627078Y-55793277D01*
X133453185Y-55700329D01*
X133300761Y-55575239D01*
X133175671Y-55422815D01*
X133082723Y-55248922D01*
X133025483Y-55060228D01*
X133006157Y-54864000D01*
X133025483Y-54667772D01*
X133082723Y-54479078D01*
X133175671Y-54305185D01*
X133300761Y-54152761D01*
X133453185Y-54027671D01*
X133627078Y-53934723D01*
X133815772Y-53877483D01*
X133962825Y-53863000D01*
X134261175Y-53863000D01*
X134408228Y-53877483D01*
X134408228Y-53877483D01*
G37*
G36*
X132369000Y-55365000D02*
G01*
X131767000Y-55365000D01*
X131767000Y-54363000D01*
X132369000Y-54363000D01*
X132369000Y-55365000D01*
X132369000Y-55365000D01*
G37*
G36*
X130869000Y-55365000D02*
G01*
X130267000Y-55365000D01*
X130267000Y-54363000D01*
X130869000Y-54363000D01*
X130869000Y-55365000D01*
X130869000Y-55365000D01*
G37*
G36*
X145206000Y-54807000D02*
G01*
X144354000Y-54807000D01*
X144354000Y-53905000D01*
X145206000Y-53905000D01*
X145206000Y-54807000D01*
X145206000Y-54807000D01*
G37*
G36*
X148827142Y-53066242D02*
G01*
X148975101Y-53127529D01*
X149108255Y-53216499D01*
X149221501Y-53329745D01*
X149310471Y-53462899D01*
X149371758Y-53610858D01*
X149403000Y-53767925D01*
X149403000Y-53928075D01*
X149371758Y-54085142D01*
X149310471Y-54233101D01*
X149221501Y-54366255D01*
X149108255Y-54479501D01*
X148975101Y-54568471D01*
X148827142Y-54629758D01*
X148670075Y-54661000D01*
X148509925Y-54661000D01*
X148352858Y-54629758D01*
X148204899Y-54568471D01*
X148071745Y-54479501D01*
X147958499Y-54366255D01*
X147869529Y-54233101D01*
X147808242Y-54085142D01*
X147777000Y-53928075D01*
X147777000Y-53767925D01*
X147808242Y-53610858D01*
X147869529Y-53462899D01*
X147958499Y-53329745D01*
X148071745Y-53216499D01*
X148204899Y-53127529D01*
X148352858Y-53066242D01*
X148509925Y-53035000D01*
X148670075Y-53035000D01*
X148827142Y-53066242D01*
X148827142Y-53066242D01*
G37*
G36*
X158987142Y-53066242D02*
G01*
X159135101Y-53127529D01*
X159268255Y-53216499D01*
X159381501Y-53329745D01*
X159470471Y-53462899D01*
X159531758Y-53610858D01*
X159563000Y-53767925D01*
X159563000Y-53928075D01*
X159531758Y-54085142D01*
X159470471Y-54233101D01*
X159381501Y-54366255D01*
X159268255Y-54479501D01*
X159135101Y-54568471D01*
X158987142Y-54629758D01*
X158830075Y-54661000D01*
X158669925Y-54661000D01*
X158512858Y-54629758D01*
X158364899Y-54568471D01*
X158231745Y-54479501D01*
X158118499Y-54366255D01*
X158029529Y-54233101D01*
X157968242Y-54085142D01*
X157937000Y-53928075D01*
X157937000Y-53767925D01*
X157968242Y-53610858D01*
X158029529Y-53462899D01*
X158118499Y-53329745D01*
X158231745Y-53216499D01*
X158364899Y-53127529D01*
X158512858Y-53066242D01*
X158669925Y-53035000D01*
X158830075Y-53035000D01*
X158987142Y-53066242D01*
X158987142Y-53066242D01*
G37*
G36*
X134408228Y-51337483D02*
G01*
X134596922Y-51394723D01*
X134770815Y-51487671D01*
X134923239Y-51612761D01*
X135048329Y-51765185D01*
X135141277Y-51939078D01*
X135198517Y-52127772D01*
X135217843Y-52324000D01*
X135198517Y-52520228D01*
X135141277Y-52708922D01*
X135048329Y-52882815D01*
X134923239Y-53035239D01*
X134770815Y-53160329D01*
X134596922Y-53253277D01*
X134408228Y-53310517D01*
X134261175Y-53325000D01*
X133962825Y-53325000D01*
X133815772Y-53310517D01*
X133627078Y-53253277D01*
X133453185Y-53160329D01*
X133300761Y-53035239D01*
X133175671Y-52882815D01*
X133082723Y-52708922D01*
X133025483Y-52520228D01*
X133006157Y-52324000D01*
X133025483Y-52127772D01*
X133082723Y-51939078D01*
X133175671Y-51765185D01*
X133300761Y-51612761D01*
X133453185Y-51487671D01*
X133627078Y-51394723D01*
X133815772Y-51337483D01*
X133962825Y-51323000D01*
X134261175Y-51323000D01*
X134408228Y-51337483D01*
X134408228Y-51337483D01*
G37*
G36*
X142028228Y-51337483D02*
G01*
X142216922Y-51394723D01*
X142390815Y-51487671D01*
X142543239Y-51612761D01*
X142668329Y-51765185D01*
X142761277Y-51939078D01*
X142818517Y-52127772D01*
X142837843Y-52324000D01*
X142818517Y-52520228D01*
X142761277Y-52708922D01*
X142668329Y-52882815D01*
X142543239Y-53035239D01*
X142390815Y-53160329D01*
X142216922Y-53253277D01*
X142028228Y-53310517D01*
X141881175Y-53325000D01*
X141582825Y-53325000D01*
X141435772Y-53310517D01*
X141247078Y-53253277D01*
X141073185Y-53160329D01*
X140920761Y-53035239D01*
X140795671Y-52882815D01*
X140702723Y-52708922D01*
X140645483Y-52520228D01*
X140626157Y-52324000D01*
X140645483Y-52127772D01*
X140702723Y-51939078D01*
X140795671Y-51765185D01*
X140920761Y-51612761D01*
X141073185Y-51487671D01*
X141247078Y-51394723D01*
X141435772Y-51337483D01*
X141582825Y-51323000D01*
X141881175Y-51323000D01*
X142028228Y-51337483D01*
X142028228Y-51337483D01*
G37*
G36*
X124995000Y-52859000D02*
G01*
X121893000Y-52859000D01*
X121893000Y-49757000D01*
X124995000Y-49757000D01*
X124995000Y-52859000D01*
X124995000Y-52859000D01*
G37*
G36*
X148827142Y-50526242D02*
G01*
X148975101Y-50587529D01*
X149108255Y-50676499D01*
X149221501Y-50789745D01*
X149310471Y-50922899D01*
X149371758Y-51070858D01*
X149403000Y-51227925D01*
X149403000Y-51388075D01*
X149371758Y-51545142D01*
X149310471Y-51693101D01*
X149221501Y-51826255D01*
X149108255Y-51939501D01*
X148975101Y-52028471D01*
X148827142Y-52089758D01*
X148670075Y-52121000D01*
X148509925Y-52121000D01*
X148352858Y-52089758D01*
X148204899Y-52028471D01*
X148071745Y-51939501D01*
X147958499Y-51826255D01*
X147869529Y-51693101D01*
X147808242Y-51545142D01*
X147777000Y-51388075D01*
X147777000Y-51227925D01*
X147808242Y-51070858D01*
X147869529Y-50922899D01*
X147958499Y-50789745D01*
X148071745Y-50676499D01*
X148204899Y-50587529D01*
X148352858Y-50526242D01*
X148509925Y-50495000D01*
X148670075Y-50495000D01*
X148827142Y-50526242D01*
X148827142Y-50526242D01*
G37*
G36*
X158987142Y-50526242D02*
G01*
X159135101Y-50587529D01*
X159268255Y-50676499D01*
X159381501Y-50789745D01*
X159470471Y-50922899D01*
X159531758Y-51070858D01*
X159563000Y-51227925D01*
X159563000Y-51388075D01*
X159531758Y-51545142D01*
X159470471Y-51693101D01*
X159381501Y-51826255D01*
X159268255Y-51939501D01*
X159135101Y-52028471D01*
X158987142Y-52089758D01*
X158830075Y-52121000D01*
X158669925Y-52121000D01*
X158512858Y-52089758D01*
X158364899Y-52028471D01*
X158231745Y-51939501D01*
X158118499Y-51826255D01*
X158029529Y-51693101D01*
X157968242Y-51545142D01*
X157937000Y-51388075D01*
X157937000Y-51227925D01*
X157968242Y-51070858D01*
X158029529Y-50922899D01*
X158118499Y-50789745D01*
X158231745Y-50676499D01*
X158364899Y-50587529D01*
X158512858Y-50526242D01*
X158669925Y-50495000D01*
X158830075Y-50495000D01*
X158987142Y-50526242D01*
X158987142Y-50526242D01*
G37*
G36*
X140279000Y-49269000D02*
G01*
X139677000Y-49269000D01*
X139677000Y-48267000D01*
X140279000Y-48267000D01*
X140279000Y-49269000D01*
X140279000Y-49269000D01*
G37*
G36*
X141779000Y-49269000D02*
G01*
X141177000Y-49269000D01*
X141177000Y-48267000D01*
X141779000Y-48267000D01*
X141779000Y-49269000D01*
X141779000Y-49269000D01*
G37*
G36*
X132889000Y-49269000D02*
G01*
X132287000Y-49269000D01*
X132287000Y-48267000D01*
X132889000Y-48267000D01*
X132889000Y-49269000D01*
X132889000Y-49269000D01*
G37*
G36*
X134389000Y-49269000D02*
G01*
X133787000Y-49269000D01*
X133787000Y-48267000D01*
X134389000Y-48267000D01*
X134389000Y-49269000D01*
X134389000Y-49269000D01*
G37*
G36*
X131365000Y-49269000D02*
G01*
X130763000Y-49269000D01*
X130763000Y-48267000D01*
X131365000Y-48267000D01*
X131365000Y-49269000D01*
X131365000Y-49269000D01*
G37*
G36*
X129865000Y-49269000D02*
G01*
X129263000Y-49269000D01*
X129263000Y-48267000D01*
X129865000Y-48267000D01*
X129865000Y-49269000D01*
X129865000Y-49269000D01*
G37*
G36*
X143315000Y-49269000D02*
G01*
X142713000Y-49269000D01*
X142713000Y-48267000D01*
X143315000Y-48267000D01*
X143315000Y-49269000D01*
X143315000Y-49269000D01*
G37*
G36*
X144815000Y-49269000D02*
G01*
X144213000Y-49269000D01*
X144213000Y-48267000D01*
X144815000Y-48267000D01*
X144815000Y-49269000D01*
X144815000Y-49269000D01*
G37*
G36*
X122295256Y-40301298D02*
G01*
X122401579Y-40322447D01*
X122702042Y-40446903D01*
X122972451Y-40627585D01*
X123202415Y-40857549D01*
X123383097Y-41127958D01*
X123507553Y-41428421D01*
X123571000Y-41747391D01*
X123571000Y-42072609D01*
X123507553Y-42391579D01*
X123383097Y-42692042D01*
X123202415Y-42962451D01*
X122972451Y-43192415D01*
X122702042Y-43373097D01*
X122401579Y-43497553D01*
X122295256Y-43518702D01*
X122082611Y-43561000D01*
X121757389Y-43561000D01*
X121544744Y-43518702D01*
X121438421Y-43497553D01*
X121137958Y-43373097D01*
X120867549Y-43192415D01*
X120637585Y-42962451D01*
X120456903Y-42692042D01*
X120332447Y-42391579D01*
X120269000Y-42072609D01*
X120269000Y-41747391D01*
X120332447Y-41428421D01*
X120456903Y-41127958D01*
X120637585Y-40857549D01*
X120867549Y-40627585D01*
X121137958Y-40446903D01*
X121438421Y-40322447D01*
X121544744Y-40301298D01*
X121757389Y-40259000D01*
X122082611Y-40259000D01*
X122295256Y-40301298D01*
X122295256Y-40301298D01*
G37*
G36*
X157855256Y-40301298D02*
G01*
X157961579Y-40322447D01*
X158262042Y-40446903D01*
X158532451Y-40627585D01*
X158762415Y-40857549D01*
X158943097Y-41127958D01*
X159067553Y-41428421D01*
X159131000Y-41747391D01*
X159131000Y-42072609D01*
X159067553Y-42391579D01*
X158943097Y-42692042D01*
X158762415Y-42962451D01*
X158532451Y-43192415D01*
X158262042Y-43373097D01*
X157961579Y-43497553D01*
X157855256Y-43518702D01*
X157642611Y-43561000D01*
X157317389Y-43561000D01*
X157104744Y-43518702D01*
X156998421Y-43497553D01*
X156697958Y-43373097D01*
X156427549Y-43192415D01*
X156197585Y-42962451D01*
X156016903Y-42692042D01*
X155892447Y-42391579D01*
X155829000Y-42072609D01*
X155829000Y-41747391D01*
X155892447Y-41428421D01*
X156016903Y-41127958D01*
X156197585Y-40857549D01*
X156427549Y-40627585D01*
X156697958Y-40446903D01*
X156998421Y-40322447D01*
X157104744Y-40301298D01*
X157317389Y-40259000D01*
X157642611Y-40259000D01*
X157855256Y-40301298D01*
X157855256Y-40301298D01*
G37*
M02*
