G04 #@! TF.GenerationSoftware,KiCad,Pcbnew,5.1.2-f72e74a~84~ubuntu16.04.1*
G04 #@! TF.CreationDate,2019-06-16T18:39:55+01:00*
G04 #@! TF.ProjectId,LEDregulator,4c454472-6567-4756-9c61-746f722e6b69,rev?*
G04 #@! TF.SameCoordinates,Original*
G04 #@! TF.FileFunction,Legend,Bot*
G04 #@! TF.FilePolarity,Positive*
%FSLAX46Y46*%
G04 Gerber Fmt 4.6, Leading zero omitted, Abs format (unit mm)*
G04 Created by KiCad (PCBNEW 5.1.2-f72e74a~84~ubuntu16.04.1) date 2019-06-16 18:39:55*
%MOMM*%
%LPD*%
G04 APERTURE LIST*
%ADD10C,0.150000*%
G04 APERTURE END LIST*
D10*
X136865904Y-47093142D02*
X136913523Y-47140761D01*
X137056380Y-47188380D01*
X137151619Y-47188380D01*
X137294476Y-47140761D01*
X137389714Y-47045523D01*
X137437333Y-46950285D01*
X137484952Y-46759809D01*
X137484952Y-46616952D01*
X137437333Y-46426476D01*
X137389714Y-46331238D01*
X137294476Y-46236000D01*
X137151619Y-46188380D01*
X137056380Y-46188380D01*
X136913523Y-46236000D01*
X136865904Y-46283619D01*
X135865904Y-47093142D02*
X135913523Y-47140761D01*
X136056380Y-47188380D01*
X136151619Y-47188380D01*
X136294476Y-47140761D01*
X136389714Y-47045523D01*
X136437333Y-46950285D01*
X136484952Y-46759809D01*
X136484952Y-46616952D01*
X136437333Y-46426476D01*
X136389714Y-46331238D01*
X136294476Y-46236000D01*
X136151619Y-46188380D01*
X136056380Y-46188380D01*
X135913523Y-46236000D01*
X135865904Y-46283619D01*
X135437333Y-46807428D02*
X134675428Y-46807428D01*
X133865904Y-46664571D02*
X133723047Y-46712190D01*
X133675428Y-46759809D01*
X133627809Y-46855047D01*
X133627809Y-46997904D01*
X133675428Y-47093142D01*
X133723047Y-47140761D01*
X133818285Y-47188380D01*
X134199238Y-47188380D01*
X134199238Y-46188380D01*
X133865904Y-46188380D01*
X133770666Y-46236000D01*
X133723047Y-46283619D01*
X133675428Y-46378857D01*
X133675428Y-46474095D01*
X133723047Y-46569333D01*
X133770666Y-46616952D01*
X133865904Y-46664571D01*
X134199238Y-46664571D01*
X133008761Y-46712190D02*
X133008761Y-47188380D01*
X133342095Y-46188380D02*
X133008761Y-46712190D01*
X132675428Y-46188380D01*
X132342095Y-46807428D02*
X131580190Y-46807428D01*
X131151619Y-47140761D02*
X131008761Y-47188380D01*
X130770666Y-47188380D01*
X130675428Y-47140761D01*
X130627809Y-47093142D01*
X130580190Y-46997904D01*
X130580190Y-46902666D01*
X130627809Y-46807428D01*
X130675428Y-46759809D01*
X130770666Y-46712190D01*
X130961142Y-46664571D01*
X131056380Y-46616952D01*
X131104000Y-46569333D01*
X131151619Y-46474095D01*
X131151619Y-46378857D01*
X131104000Y-46283619D01*
X131056380Y-46236000D01*
X130961142Y-46188380D01*
X130723047Y-46188380D01*
X130580190Y-46236000D01*
X130199238Y-46902666D02*
X129723047Y-46902666D01*
X130294476Y-47188380D02*
X129961142Y-46188380D01*
X129627809Y-47188380D01*
M02*
