G04 #@! TF.GenerationSoftware,KiCad,Pcbnew,5.1.2-f72e74a~84~ubuntu16.04.1*
G04 #@! TF.CreationDate,2019-06-16T18:39:55+01:00*
G04 #@! TF.ProjectId,LEDregulator,4c454472-6567-4756-9c61-746f722e6b69,rev?*
G04 #@! TF.SameCoordinates,Original*
G04 #@! TF.FileFunction,Legend,Top*
G04 #@! TF.FilePolarity,Positive*
%FSLAX46Y46*%
G04 Gerber Fmt 4.6, Leading zero omitted, Abs format (unit mm)*
G04 Created by KiCad (PCBNEW 5.1.2-f72e74a~84~ubuntu16.04.1) date 2019-06-16 18:39:55*
%MOMM*%
%LPD*%
G04 APERTURE LIST*
%ADD10C,0.150000*%
%ADD11C,0.120000*%
G04 APERTURE END LIST*
D10*
X161016904Y-82810285D02*
X161016904Y-83191238D01*
X160216904Y-83191238D01*
X160597857Y-82543619D02*
X160597857Y-82276952D01*
X161016904Y-82162666D02*
X161016904Y-82543619D01*
X160216904Y-82543619D01*
X160216904Y-82162666D01*
X161016904Y-81819809D02*
X160216904Y-81819809D01*
X160216904Y-81629333D01*
X160255000Y-81515047D01*
X160331190Y-81438857D01*
X160407380Y-81400761D01*
X160559761Y-81362666D01*
X160674047Y-81362666D01*
X160826428Y-81400761D01*
X160902619Y-81438857D01*
X160978809Y-81515047D01*
X161016904Y-81629333D01*
X161016904Y-81819809D01*
X160255000Y-77825523D02*
X160216904Y-77901714D01*
X160216904Y-78016000D01*
X160255000Y-78130285D01*
X160331190Y-78206476D01*
X160407380Y-78244571D01*
X160559761Y-78282666D01*
X160674047Y-78282666D01*
X160826428Y-78244571D01*
X160902619Y-78206476D01*
X160978809Y-78130285D01*
X161016904Y-78016000D01*
X161016904Y-77939809D01*
X160978809Y-77825523D01*
X160940714Y-77787428D01*
X160674047Y-77787428D01*
X160674047Y-77939809D01*
X161016904Y-77444571D02*
X160216904Y-77444571D01*
X161016904Y-76987428D01*
X160216904Y-76987428D01*
X161016904Y-76606476D02*
X160216904Y-76606476D01*
X160216904Y-76416000D01*
X160255000Y-76301714D01*
X160331190Y-76225523D01*
X160407380Y-76187428D01*
X160559761Y-76149333D01*
X160674047Y-76149333D01*
X160826428Y-76187428D01*
X160902619Y-76225523D01*
X160978809Y-76301714D01*
X161016904Y-76416000D01*
X161016904Y-76606476D01*
X119157714Y-52088952D02*
X119195809Y-52127047D01*
X119233904Y-52241333D01*
X119233904Y-52317523D01*
X119195809Y-52431809D01*
X119119619Y-52508000D01*
X119043428Y-52546095D01*
X118891047Y-52584190D01*
X118776761Y-52584190D01*
X118624380Y-52546095D01*
X118548190Y-52508000D01*
X118472000Y-52431809D01*
X118433904Y-52317523D01*
X118433904Y-52241333D01*
X118472000Y-52127047D01*
X118510095Y-52088952D01*
X118433904Y-51860380D02*
X118433904Y-51403238D01*
X119233904Y-51631809D02*
X118433904Y-51631809D01*
X119233904Y-50679428D02*
X118852952Y-50946095D01*
X119233904Y-51136571D02*
X118433904Y-51136571D01*
X118433904Y-50831809D01*
X118472000Y-50755619D01*
X118510095Y-50717523D01*
X118586285Y-50679428D01*
X118700571Y-50679428D01*
X118776761Y-50717523D01*
X118814857Y-50755619D01*
X118852952Y-50831809D01*
X118852952Y-51136571D01*
X119233904Y-49955619D02*
X119233904Y-50336571D01*
X118433904Y-50336571D01*
X118472000Y-56997523D02*
X118433904Y-57073714D01*
X118433904Y-57188000D01*
X118472000Y-57302285D01*
X118548190Y-57378476D01*
X118624380Y-57416571D01*
X118776761Y-57454666D01*
X118891047Y-57454666D01*
X119043428Y-57416571D01*
X119119619Y-57378476D01*
X119195809Y-57302285D01*
X119233904Y-57188000D01*
X119233904Y-57111809D01*
X119195809Y-56997523D01*
X119157714Y-56959428D01*
X118891047Y-56959428D01*
X118891047Y-57111809D01*
X119233904Y-56616571D02*
X118433904Y-56616571D01*
X119233904Y-56159428D01*
X118433904Y-56159428D01*
X119233904Y-55778476D02*
X118433904Y-55778476D01*
X118433904Y-55588000D01*
X118472000Y-55473714D01*
X118548190Y-55397523D01*
X118624380Y-55359428D01*
X118776761Y-55321333D01*
X118891047Y-55321333D01*
X119043428Y-55359428D01*
X119119619Y-55397523D01*
X119195809Y-55473714D01*
X119233904Y-55588000D01*
X119233904Y-55778476D01*
X149354166Y-43140380D02*
X149163690Y-43140380D01*
X149068452Y-43188000D01*
X149020833Y-43235619D01*
X148925595Y-43378476D01*
X148877976Y-43568952D01*
X148877976Y-43949904D01*
X148925595Y-44045142D01*
X148973214Y-44092761D01*
X149068452Y-44140380D01*
X149258928Y-44140380D01*
X149354166Y-44092761D01*
X149401785Y-44045142D01*
X149449404Y-43949904D01*
X149449404Y-43711809D01*
X149401785Y-43616571D01*
X149354166Y-43568952D01*
X149258928Y-43521333D01*
X149068452Y-43521333D01*
X148973214Y-43568952D01*
X148925595Y-43616571D01*
X148877976Y-43711809D01*
X149877976Y-44045142D02*
X149925595Y-44092761D01*
X149877976Y-44140380D01*
X149830357Y-44092761D01*
X149877976Y-44045142D01*
X149877976Y-44140380D01*
X149877976Y-43521333D02*
X149925595Y-43568952D01*
X149877976Y-43616571D01*
X149830357Y-43568952D01*
X149877976Y-43521333D01*
X149877976Y-43616571D01*
X150306547Y-43235619D02*
X150354166Y-43188000D01*
X150449404Y-43140380D01*
X150687500Y-43140380D01*
X150782738Y-43188000D01*
X150830357Y-43235619D01*
X150877976Y-43330857D01*
X150877976Y-43426095D01*
X150830357Y-43568952D01*
X150258928Y-44140380D01*
X150877976Y-44140380D01*
X151735119Y-43473714D02*
X151735119Y-44140380D01*
X151497023Y-43092761D02*
X151258928Y-43807047D01*
X151877976Y-43807047D01*
X152211309Y-44140380D02*
X152973214Y-43140380D01*
X152354166Y-43140380D02*
X152449404Y-43188000D01*
X152497023Y-43283238D01*
X152449404Y-43378476D01*
X152354166Y-43426095D01*
X152258928Y-43378476D01*
X152211309Y-43283238D01*
X152258928Y-43188000D01*
X152354166Y-43140380D01*
X152925595Y-44092761D02*
X152973214Y-43997523D01*
X152925595Y-43902285D01*
X152830357Y-43854666D01*
X152735119Y-43902285D01*
X152687500Y-43997523D01*
X152735119Y-44092761D01*
X152830357Y-44140380D01*
X152925595Y-44092761D01*
X141734166Y-43410714D02*
X141734166Y-44077380D01*
X141496071Y-43029761D02*
X141257976Y-43744047D01*
X141877023Y-43744047D01*
X142257976Y-43982142D02*
X142305595Y-44029761D01*
X142257976Y-44077380D01*
X142210357Y-44029761D01*
X142257976Y-43982142D01*
X142257976Y-44077380D01*
X142257976Y-43458333D02*
X142305595Y-43505952D01*
X142257976Y-43553571D01*
X142210357Y-43505952D01*
X142257976Y-43458333D01*
X142257976Y-43553571D01*
X143162738Y-43410714D02*
X143162738Y-44077380D01*
X142924642Y-43029761D02*
X142686547Y-43744047D01*
X143305595Y-43744047D01*
X143734166Y-44077380D02*
X143924642Y-44077380D01*
X144019880Y-44029761D01*
X144067500Y-43982142D01*
X144162738Y-43839285D01*
X144210357Y-43648809D01*
X144210357Y-43267857D01*
X144162738Y-43172619D01*
X144115119Y-43125000D01*
X144019880Y-43077380D01*
X143829404Y-43077380D01*
X143734166Y-43125000D01*
X143686547Y-43172619D01*
X143638928Y-43267857D01*
X143638928Y-43505952D01*
X143686547Y-43601190D01*
X143734166Y-43648809D01*
X143829404Y-43696428D01*
X144019880Y-43696428D01*
X144115119Y-43648809D01*
X144162738Y-43601190D01*
X144210357Y-43505952D01*
X144591309Y-44077380D02*
X145353214Y-43077380D01*
X144734166Y-43077380D02*
X144829404Y-43125000D01*
X144877023Y-43220238D01*
X144829404Y-43315476D01*
X144734166Y-43363095D01*
X144638928Y-43315476D01*
X144591309Y-43220238D01*
X144638928Y-43125000D01*
X144734166Y-43077380D01*
X145305595Y-44029761D02*
X145353214Y-43934523D01*
X145305595Y-43839285D01*
X145210357Y-43791666D01*
X145115119Y-43839285D01*
X145067500Y-43934523D01*
X145115119Y-44029761D01*
X145210357Y-44077380D01*
X145305595Y-44029761D01*
X141781785Y-44727380D02*
X141305595Y-44727380D01*
X141257976Y-45203571D01*
X141305595Y-45155952D01*
X141400833Y-45108333D01*
X141638928Y-45108333D01*
X141734166Y-45155952D01*
X141781785Y-45203571D01*
X141829404Y-45298809D01*
X141829404Y-45536904D01*
X141781785Y-45632142D01*
X141734166Y-45679761D01*
X141638928Y-45727380D01*
X141400833Y-45727380D01*
X141305595Y-45679761D01*
X141257976Y-45632142D01*
X142257976Y-45632142D02*
X142305595Y-45679761D01*
X142257976Y-45727380D01*
X142210357Y-45679761D01*
X142257976Y-45632142D01*
X142257976Y-45727380D01*
X142257976Y-45108333D02*
X142305595Y-45155952D01*
X142257976Y-45203571D01*
X142210357Y-45155952D01*
X142257976Y-45108333D01*
X142257976Y-45203571D01*
X142638928Y-44727380D02*
X143257976Y-44727380D01*
X142924642Y-45108333D01*
X143067500Y-45108333D01*
X143162738Y-45155952D01*
X143210357Y-45203571D01*
X143257976Y-45298809D01*
X143257976Y-45536904D01*
X143210357Y-45632142D01*
X143162738Y-45679761D01*
X143067500Y-45727380D01*
X142781785Y-45727380D01*
X142686547Y-45679761D01*
X142638928Y-45632142D01*
X144115119Y-44727380D02*
X143924642Y-44727380D01*
X143829404Y-44775000D01*
X143781785Y-44822619D01*
X143686547Y-44965476D01*
X143638928Y-45155952D01*
X143638928Y-45536904D01*
X143686547Y-45632142D01*
X143734166Y-45679761D01*
X143829404Y-45727380D01*
X144019880Y-45727380D01*
X144115119Y-45679761D01*
X144162738Y-45632142D01*
X144210357Y-45536904D01*
X144210357Y-45298809D01*
X144162738Y-45203571D01*
X144115119Y-45155952D01*
X144019880Y-45108333D01*
X143829404Y-45108333D01*
X143734166Y-45155952D01*
X143686547Y-45203571D01*
X143638928Y-45298809D01*
X144591309Y-45727380D02*
X145353214Y-44727380D01*
X144734166Y-44727380D02*
X144829404Y-44775000D01*
X144877023Y-44870238D01*
X144829404Y-44965476D01*
X144734166Y-45013095D01*
X144638928Y-44965476D01*
X144591309Y-44870238D01*
X144638928Y-44775000D01*
X144734166Y-44727380D01*
X145305595Y-45679761D02*
X145353214Y-45584523D01*
X145305595Y-45489285D01*
X145210357Y-45441666D01*
X145115119Y-45489285D01*
X145067500Y-45584523D01*
X145115119Y-45679761D01*
X145210357Y-45727380D01*
X145305595Y-45679761D01*
X133637976Y-43172619D02*
X133685595Y-43125000D01*
X133780833Y-43077380D01*
X134018928Y-43077380D01*
X134114166Y-43125000D01*
X134161785Y-43172619D01*
X134209404Y-43267857D01*
X134209404Y-43363095D01*
X134161785Y-43505952D01*
X133590357Y-44077380D01*
X134209404Y-44077380D01*
X134637976Y-43982142D02*
X134685595Y-44029761D01*
X134637976Y-44077380D01*
X134590357Y-44029761D01*
X134637976Y-43982142D01*
X134637976Y-44077380D01*
X134637976Y-43458333D02*
X134685595Y-43505952D01*
X134637976Y-43553571D01*
X134590357Y-43505952D01*
X134637976Y-43458333D01*
X134637976Y-43553571D01*
X135018928Y-43077380D02*
X135685595Y-43077380D01*
X135257023Y-44077380D01*
X136495119Y-43410714D02*
X136495119Y-44077380D01*
X136257023Y-43029761D02*
X136018928Y-43744047D01*
X136637976Y-43744047D01*
X136971309Y-44077380D02*
X137733214Y-43077380D01*
X137114166Y-43077380D02*
X137209404Y-43125000D01*
X137257023Y-43220238D01*
X137209404Y-43315476D01*
X137114166Y-43363095D01*
X137018928Y-43315476D01*
X136971309Y-43220238D01*
X137018928Y-43125000D01*
X137114166Y-43077380D01*
X137685595Y-44029761D02*
X137733214Y-43934523D01*
X137685595Y-43839285D01*
X137590357Y-43791666D01*
X137495119Y-43839285D01*
X137447500Y-43934523D01*
X137495119Y-44029761D01*
X137590357Y-44077380D01*
X137685595Y-44029761D01*
X133590357Y-44727380D02*
X134209404Y-44727380D01*
X133876071Y-45108333D01*
X134018928Y-45108333D01*
X134114166Y-45155952D01*
X134161785Y-45203571D01*
X134209404Y-45298809D01*
X134209404Y-45536904D01*
X134161785Y-45632142D01*
X134114166Y-45679761D01*
X134018928Y-45727380D01*
X133733214Y-45727380D01*
X133637976Y-45679761D01*
X133590357Y-45632142D01*
X134637976Y-45632142D02*
X134685595Y-45679761D01*
X134637976Y-45727380D01*
X134590357Y-45679761D01*
X134637976Y-45632142D01*
X134637976Y-45727380D01*
X134637976Y-45108333D02*
X134685595Y-45155952D01*
X134637976Y-45203571D01*
X134590357Y-45155952D01*
X134637976Y-45108333D01*
X134637976Y-45203571D01*
X135542738Y-44727380D02*
X135352261Y-44727380D01*
X135257023Y-44775000D01*
X135209404Y-44822619D01*
X135114166Y-44965476D01*
X135066547Y-45155952D01*
X135066547Y-45536904D01*
X135114166Y-45632142D01*
X135161785Y-45679761D01*
X135257023Y-45727380D01*
X135447500Y-45727380D01*
X135542738Y-45679761D01*
X135590357Y-45632142D01*
X135637976Y-45536904D01*
X135637976Y-45298809D01*
X135590357Y-45203571D01*
X135542738Y-45155952D01*
X135447500Y-45108333D01*
X135257023Y-45108333D01*
X135161785Y-45155952D01*
X135114166Y-45203571D01*
X135066547Y-45298809D01*
X136018928Y-44822619D02*
X136066547Y-44775000D01*
X136161785Y-44727380D01*
X136399880Y-44727380D01*
X136495119Y-44775000D01*
X136542738Y-44822619D01*
X136590357Y-44917857D01*
X136590357Y-45013095D01*
X136542738Y-45155952D01*
X135971309Y-45727380D01*
X136590357Y-45727380D01*
X136971309Y-45727380D02*
X137733214Y-44727380D01*
X137114166Y-44727380D02*
X137209404Y-44775000D01*
X137257023Y-44870238D01*
X137209404Y-44965476D01*
X137114166Y-45013095D01*
X137018928Y-44965476D01*
X136971309Y-44870238D01*
X137018928Y-44775000D01*
X137114166Y-44727380D01*
X137685595Y-45679761D02*
X137733214Y-45584523D01*
X137685595Y-45489285D01*
X137590357Y-45441666D01*
X137495119Y-45489285D01*
X137447500Y-45584523D01*
X137495119Y-45679761D01*
X137590357Y-45727380D01*
X137685595Y-45679761D01*
X126208452Y-43648809D02*
X126160833Y-43696428D01*
X126208452Y-43744047D01*
X126256071Y-43696428D01*
X126208452Y-43648809D01*
X126208452Y-43744047D01*
X126827500Y-43982142D02*
X126875119Y-44029761D01*
X126827500Y-44077380D01*
X126779880Y-44029761D01*
X126827500Y-43982142D01*
X126827500Y-44077380D01*
X126827500Y-43458333D02*
X126875119Y-43505952D01*
X126827500Y-43553571D01*
X126779880Y-43505952D01*
X126827500Y-43458333D01*
X126827500Y-43553571D01*
X127827500Y-44077380D02*
X127256071Y-44077380D01*
X127541785Y-44077380D02*
X127541785Y-43077380D01*
X127446547Y-43220238D01*
X127351309Y-43315476D01*
X127256071Y-43363095D01*
X128446547Y-43077380D02*
X128541785Y-43077380D01*
X128637023Y-43125000D01*
X128684642Y-43172619D01*
X128732261Y-43267857D01*
X128779880Y-43458333D01*
X128779880Y-43696428D01*
X128732261Y-43886904D01*
X128684642Y-43982142D01*
X128637023Y-44029761D01*
X128541785Y-44077380D01*
X128446547Y-44077380D01*
X128351309Y-44029761D01*
X128303690Y-43982142D01*
X128256071Y-43886904D01*
X128208452Y-43696428D01*
X128208452Y-43458333D01*
X128256071Y-43267857D01*
X128303690Y-43172619D01*
X128351309Y-43125000D01*
X128446547Y-43077380D01*
X129398928Y-43077380D02*
X129494166Y-43077380D01*
X129589404Y-43125000D01*
X129637023Y-43172619D01*
X129684642Y-43267857D01*
X129732261Y-43458333D01*
X129732261Y-43696428D01*
X129684642Y-43886904D01*
X129637023Y-43982142D01*
X129589404Y-44029761D01*
X129494166Y-44077380D01*
X129398928Y-44077380D01*
X129303690Y-44029761D01*
X129256071Y-43982142D01*
X129208452Y-43886904D01*
X129160833Y-43696428D01*
X129160833Y-43458333D01*
X129208452Y-43267857D01*
X129256071Y-43172619D01*
X129303690Y-43125000D01*
X129398928Y-43077380D01*
X130113214Y-44077380D02*
X130875119Y-43077380D01*
X130256071Y-43077380D02*
X130351309Y-43125000D01*
X130398928Y-43220238D01*
X130351309Y-43315476D01*
X130256071Y-43363095D01*
X130160833Y-43315476D01*
X130113214Y-43220238D01*
X130160833Y-43125000D01*
X130256071Y-43077380D01*
X130827500Y-44029761D02*
X130875119Y-43934523D01*
X130827500Y-43839285D01*
X130732261Y-43791666D01*
X130637023Y-43839285D01*
X130589404Y-43934523D01*
X130637023Y-44029761D01*
X130732261Y-44077380D01*
X130827500Y-44029761D01*
X126589404Y-45727380D02*
X126017976Y-45727380D01*
X126303690Y-45727380D02*
X126303690Y-44727380D01*
X126208452Y-44870238D01*
X126113214Y-44965476D01*
X126017976Y-45013095D01*
X127017976Y-45632142D02*
X127065595Y-45679761D01*
X127017976Y-45727380D01*
X126970357Y-45679761D01*
X127017976Y-45632142D01*
X127017976Y-45727380D01*
X127017976Y-45108333D02*
X127065595Y-45155952D01*
X127017976Y-45203571D01*
X126970357Y-45155952D01*
X127017976Y-45108333D01*
X127017976Y-45203571D01*
X127637023Y-45155952D02*
X127541785Y-45108333D01*
X127494166Y-45060714D01*
X127446547Y-44965476D01*
X127446547Y-44917857D01*
X127494166Y-44822619D01*
X127541785Y-44775000D01*
X127637023Y-44727380D01*
X127827500Y-44727380D01*
X127922738Y-44775000D01*
X127970357Y-44822619D01*
X128017976Y-44917857D01*
X128017976Y-44965476D01*
X127970357Y-45060714D01*
X127922738Y-45108333D01*
X127827500Y-45155952D01*
X127637023Y-45155952D01*
X127541785Y-45203571D01*
X127494166Y-45251190D01*
X127446547Y-45346428D01*
X127446547Y-45536904D01*
X127494166Y-45632142D01*
X127541785Y-45679761D01*
X127637023Y-45727380D01*
X127827500Y-45727380D01*
X127922738Y-45679761D01*
X127970357Y-45632142D01*
X128017976Y-45536904D01*
X128017976Y-45346428D01*
X127970357Y-45251190D01*
X127922738Y-45203571D01*
X127827500Y-45155952D01*
X128351309Y-44727380D02*
X129017976Y-44727380D01*
X128589404Y-45727380D01*
X129351309Y-45727380D02*
X130113214Y-44727380D01*
X129494166Y-44727380D02*
X129589404Y-44775000D01*
X129637023Y-44870238D01*
X129589404Y-44965476D01*
X129494166Y-45013095D01*
X129398928Y-44965476D01*
X129351309Y-44870238D01*
X129398928Y-44775000D01*
X129494166Y-44727380D01*
X130065595Y-45679761D02*
X130113214Y-45584523D01*
X130065595Y-45489285D01*
X129970357Y-45441666D01*
X129875119Y-45489285D01*
X129827500Y-45584523D01*
X129875119Y-45679761D01*
X129970357Y-45727380D01*
X130065595Y-45679761D01*
X134604761Y-39759380D02*
X134128571Y-39759380D01*
X134128571Y-38759380D01*
X134938095Y-39235571D02*
X135271428Y-39235571D01*
X135414285Y-39759380D02*
X134938095Y-39759380D01*
X134938095Y-38759380D01*
X135414285Y-38759380D01*
X135842857Y-39759380D02*
X135842857Y-38759380D01*
X136080952Y-38759380D01*
X136223809Y-38807000D01*
X136319047Y-38902238D01*
X136366666Y-38997476D01*
X136414285Y-39187952D01*
X136414285Y-39330809D01*
X136366666Y-39521285D01*
X136319047Y-39616523D01*
X136223809Y-39711761D01*
X136080952Y-39759380D01*
X135842857Y-39759380D01*
X138033333Y-39759380D02*
X138033333Y-38759380D01*
X138033333Y-39711761D02*
X137938095Y-39759380D01*
X137747619Y-39759380D01*
X137652380Y-39711761D01*
X137604761Y-39664142D01*
X137557142Y-39568904D01*
X137557142Y-39283190D01*
X137604761Y-39187952D01*
X137652380Y-39140333D01*
X137747619Y-39092714D01*
X137938095Y-39092714D01*
X138033333Y-39140333D01*
X138509523Y-39759380D02*
X138509523Y-39092714D01*
X138509523Y-39283190D02*
X138557142Y-39187952D01*
X138604761Y-39140333D01*
X138700000Y-39092714D01*
X138795238Y-39092714D01*
X139128571Y-39759380D02*
X139128571Y-39092714D01*
X139128571Y-38759380D02*
X139080952Y-38807000D01*
X139128571Y-38854619D01*
X139176190Y-38807000D01*
X139128571Y-38759380D01*
X139128571Y-38854619D01*
X139509523Y-39092714D02*
X139747619Y-39759380D01*
X139985714Y-39092714D01*
X140747619Y-39711761D02*
X140652380Y-39759380D01*
X140461904Y-39759380D01*
X140366666Y-39711761D01*
X140319047Y-39616523D01*
X140319047Y-39235571D01*
X140366666Y-39140333D01*
X140461904Y-39092714D01*
X140652380Y-39092714D01*
X140747619Y-39140333D01*
X140795238Y-39235571D01*
X140795238Y-39330809D01*
X140319047Y-39426047D01*
X141223809Y-39759380D02*
X141223809Y-39092714D01*
X141223809Y-39283190D02*
X141271428Y-39187952D01*
X141319047Y-39140333D01*
X141414285Y-39092714D01*
X141509523Y-39092714D01*
X142509523Y-39092714D02*
X142747619Y-39759380D01*
X142985714Y-39092714D01*
X143890476Y-39759380D02*
X143319047Y-39759380D01*
X143604761Y-39759380D02*
X143604761Y-38759380D01*
X143509523Y-38902238D01*
X143414285Y-38997476D01*
X143319047Y-39045095D01*
X144319047Y-39664142D02*
X144366666Y-39711761D01*
X144319047Y-39759380D01*
X144271428Y-39711761D01*
X144319047Y-39664142D01*
X144319047Y-39759380D01*
X144985714Y-38759380D02*
X145080952Y-38759380D01*
X145176190Y-38807000D01*
X145223809Y-38854619D01*
X145271428Y-38949857D01*
X145319047Y-39140333D01*
X145319047Y-39378428D01*
X145271428Y-39568904D01*
X145223809Y-39664142D01*
X145176190Y-39711761D01*
X145080952Y-39759380D01*
X144985714Y-39759380D01*
X144890476Y-39711761D01*
X144842857Y-39664142D01*
X144795238Y-39568904D01*
X144747619Y-39378428D01*
X144747619Y-39140333D01*
X144795238Y-38949857D01*
X144842857Y-38854619D01*
X144890476Y-38807000D01*
X144985714Y-38759380D01*
X132604761Y-40409380D02*
X132604761Y-41123666D01*
X132557142Y-41266523D01*
X132461904Y-41361761D01*
X132319047Y-41409380D01*
X132223809Y-41409380D01*
X133509523Y-41409380D02*
X133509523Y-40885571D01*
X133461904Y-40790333D01*
X133366666Y-40742714D01*
X133176190Y-40742714D01*
X133080952Y-40790333D01*
X133509523Y-41361761D02*
X133414285Y-41409380D01*
X133176190Y-41409380D01*
X133080952Y-41361761D01*
X133033333Y-41266523D01*
X133033333Y-41171285D01*
X133080952Y-41076047D01*
X133176190Y-41028428D01*
X133414285Y-41028428D01*
X133509523Y-40980809D01*
X133985714Y-41409380D02*
X133985714Y-40409380D01*
X134080952Y-41028428D02*
X134366666Y-41409380D01*
X134366666Y-40742714D02*
X133985714Y-41123666D01*
X135223809Y-40742714D02*
X135223809Y-41409380D01*
X134795238Y-40742714D02*
X134795238Y-41266523D01*
X134842857Y-41361761D01*
X134938095Y-41409380D01*
X135080952Y-41409380D01*
X135176190Y-41361761D01*
X135223809Y-41314142D01*
X135700000Y-41409380D02*
X135700000Y-40409380D01*
X135700000Y-40790333D02*
X135795238Y-40742714D01*
X135985714Y-40742714D01*
X136080952Y-40790333D01*
X136128571Y-40837952D01*
X136176190Y-40933190D01*
X136176190Y-41218904D01*
X136128571Y-41314142D01*
X136080952Y-41361761D01*
X135985714Y-41409380D01*
X135795238Y-41409380D01*
X135700000Y-41361761D01*
X137366666Y-41409380D02*
X137366666Y-40409380D01*
X137938095Y-41409380D01*
X137938095Y-40409380D01*
X138795238Y-41361761D02*
X138700000Y-41409380D01*
X138509523Y-41409380D01*
X138414285Y-41361761D01*
X138366666Y-41266523D01*
X138366666Y-40885571D01*
X138414285Y-40790333D01*
X138509523Y-40742714D01*
X138700000Y-40742714D01*
X138795238Y-40790333D01*
X138842857Y-40885571D01*
X138842857Y-40980809D01*
X138366666Y-41076047D01*
X139700000Y-41409380D02*
X139700000Y-40409380D01*
X139700000Y-41361761D02*
X139604761Y-41409380D01*
X139414285Y-41409380D01*
X139319047Y-41361761D01*
X139271428Y-41314142D01*
X139223809Y-41218904D01*
X139223809Y-40933190D01*
X139271428Y-40837952D01*
X139319047Y-40790333D01*
X139414285Y-40742714D01*
X139604761Y-40742714D01*
X139700000Y-40790333D01*
X140176190Y-41409380D02*
X140176190Y-40409380D01*
X140176190Y-40790333D02*
X140271428Y-40742714D01*
X140461904Y-40742714D01*
X140557142Y-40790333D01*
X140604761Y-40837952D01*
X140652380Y-40933190D01*
X140652380Y-41218904D01*
X140604761Y-41314142D01*
X140557142Y-41361761D01*
X140461904Y-41409380D01*
X140271428Y-41409380D01*
X140176190Y-41361761D01*
X141509523Y-41409380D02*
X141509523Y-40885571D01*
X141461904Y-40790333D01*
X141366666Y-40742714D01*
X141176190Y-40742714D01*
X141080952Y-40790333D01*
X141509523Y-41361761D02*
X141414285Y-41409380D01*
X141176190Y-41409380D01*
X141080952Y-41361761D01*
X141033333Y-41266523D01*
X141033333Y-41171285D01*
X141080952Y-41076047D01*
X141176190Y-41028428D01*
X141414285Y-41028428D01*
X141509523Y-40980809D01*
X142128571Y-41409380D02*
X142033333Y-41361761D01*
X141985714Y-41266523D01*
X141985714Y-40409380D01*
X142557142Y-41361761D02*
X142557142Y-41409380D01*
X142509523Y-41504619D01*
X142461904Y-41552238D01*
X143700000Y-40504619D02*
X143747619Y-40457000D01*
X143842857Y-40409380D01*
X144080952Y-40409380D01*
X144176190Y-40457000D01*
X144223809Y-40504619D01*
X144271428Y-40599857D01*
X144271428Y-40695095D01*
X144223809Y-40837952D01*
X143652380Y-41409380D01*
X144271428Y-41409380D01*
X144890476Y-40409380D02*
X144985714Y-40409380D01*
X145080952Y-40457000D01*
X145128571Y-40504619D01*
X145176190Y-40599857D01*
X145223809Y-40790333D01*
X145223809Y-41028428D01*
X145176190Y-41218904D01*
X145128571Y-41314142D01*
X145080952Y-41361761D01*
X144985714Y-41409380D01*
X144890476Y-41409380D01*
X144795238Y-41361761D01*
X144747619Y-41314142D01*
X144700000Y-41218904D01*
X144652380Y-41028428D01*
X144652380Y-40790333D01*
X144700000Y-40599857D01*
X144747619Y-40504619D01*
X144795238Y-40457000D01*
X144890476Y-40409380D01*
X146176190Y-41409380D02*
X145604761Y-41409380D01*
X145890476Y-41409380D02*
X145890476Y-40409380D01*
X145795238Y-40552238D01*
X145700000Y-40647476D01*
X145604761Y-40695095D01*
X146652380Y-41409380D02*
X146842857Y-41409380D01*
X146938095Y-41361761D01*
X146985714Y-41314142D01*
X147080952Y-41171285D01*
X147128571Y-40980809D01*
X147128571Y-40599857D01*
X147080952Y-40504619D01*
X147033333Y-40457000D01*
X146938095Y-40409380D01*
X146747619Y-40409380D01*
X146652380Y-40457000D01*
X146604761Y-40504619D01*
X146557142Y-40599857D01*
X146557142Y-40837952D01*
X146604761Y-40933190D01*
X146652380Y-40980809D01*
X146747619Y-41028428D01*
X146938095Y-41028428D01*
X147033333Y-40980809D01*
X147080952Y-40933190D01*
X147128571Y-40837952D01*
X119068857Y-67151142D02*
X119068857Y-66884476D01*
X119487904Y-66770190D02*
X119487904Y-67151142D01*
X118687904Y-67151142D01*
X118687904Y-66770190D01*
X118687904Y-66503523D02*
X119487904Y-65970190D01*
X118687904Y-65970190D02*
X119487904Y-66503523D01*
X118687904Y-65779714D02*
X118687904Y-65322571D01*
X119487904Y-65551142D02*
X118687904Y-65551142D01*
X119487904Y-69557809D02*
X118687904Y-69557809D01*
X119487904Y-69176857D02*
X118687904Y-69176857D01*
X119487904Y-68719714D01*
X118687904Y-68719714D01*
X118687904Y-68453047D02*
X118687904Y-67995904D01*
X119487904Y-68224476D02*
X118687904Y-68224476D01*
X119996000Y-56997523D02*
X119957904Y-57073714D01*
X119957904Y-57188000D01*
X119996000Y-57302285D01*
X120072190Y-57378476D01*
X120148380Y-57416571D01*
X120300761Y-57454666D01*
X120415047Y-57454666D01*
X120567428Y-57416571D01*
X120643619Y-57378476D01*
X120719809Y-57302285D01*
X120757904Y-57188000D01*
X120757904Y-57111809D01*
X120719809Y-56997523D01*
X120681714Y-56959428D01*
X120415047Y-56959428D01*
X120415047Y-57111809D01*
X120757904Y-56616571D02*
X119957904Y-56616571D01*
X120757904Y-56159428D01*
X119957904Y-56159428D01*
X120757904Y-55778476D02*
X119957904Y-55778476D01*
X119957904Y-55588000D01*
X119996000Y-55473714D01*
X120072190Y-55397523D01*
X120148380Y-55359428D01*
X120300761Y-55321333D01*
X120415047Y-55321333D01*
X120567428Y-55359428D01*
X120643619Y-55397523D01*
X120719809Y-55473714D01*
X120757904Y-55588000D01*
X120757904Y-55778476D01*
X120681714Y-52088952D02*
X120719809Y-52127047D01*
X120757904Y-52241333D01*
X120757904Y-52317523D01*
X120719809Y-52431809D01*
X120643619Y-52508000D01*
X120567428Y-52546095D01*
X120415047Y-52584190D01*
X120300761Y-52584190D01*
X120148380Y-52546095D01*
X120072190Y-52508000D01*
X119996000Y-52431809D01*
X119957904Y-52317523D01*
X119957904Y-52241333D01*
X119996000Y-52127047D01*
X120034095Y-52088952D01*
X119957904Y-51860380D02*
X119957904Y-51403238D01*
X120757904Y-51631809D02*
X119957904Y-51631809D01*
X120757904Y-50679428D02*
X120376952Y-50946095D01*
X120757904Y-51136571D02*
X119957904Y-51136571D01*
X119957904Y-50831809D01*
X119996000Y-50755619D01*
X120034095Y-50717523D01*
X120110285Y-50679428D01*
X120224571Y-50679428D01*
X120300761Y-50717523D01*
X120338857Y-50755619D01*
X120376952Y-50831809D01*
X120376952Y-51136571D01*
X120757904Y-49955619D02*
X120757904Y-50336571D01*
X119957904Y-50336571D01*
X159492904Y-82810285D02*
X159492904Y-83191238D01*
X158692904Y-83191238D01*
X159073857Y-82543619D02*
X159073857Y-82276952D01*
X159492904Y-82162666D02*
X159492904Y-82543619D01*
X158692904Y-82543619D01*
X158692904Y-82162666D01*
X159492904Y-81819809D02*
X158692904Y-81819809D01*
X158692904Y-81629333D01*
X158731000Y-81515047D01*
X158807190Y-81438857D01*
X158883380Y-81400761D01*
X159035761Y-81362666D01*
X159150047Y-81362666D01*
X159302428Y-81400761D01*
X159378619Y-81438857D01*
X159454809Y-81515047D01*
X159492904Y-81629333D01*
X159492904Y-81819809D01*
X158731000Y-77825523D02*
X158692904Y-77901714D01*
X158692904Y-78016000D01*
X158731000Y-78130285D01*
X158807190Y-78206476D01*
X158883380Y-78244571D01*
X159035761Y-78282666D01*
X159150047Y-78282666D01*
X159302428Y-78244571D01*
X159378619Y-78206476D01*
X159454809Y-78130285D01*
X159492904Y-78016000D01*
X159492904Y-77939809D01*
X159454809Y-77825523D01*
X159416714Y-77787428D01*
X159150047Y-77787428D01*
X159150047Y-77939809D01*
X159492904Y-77444571D02*
X158692904Y-77444571D01*
X159492904Y-76987428D01*
X158692904Y-76987428D01*
X159492904Y-76606476D02*
X158692904Y-76606476D01*
X158692904Y-76416000D01*
X158731000Y-76301714D01*
X158807190Y-76225523D01*
X158883380Y-76187428D01*
X159035761Y-76149333D01*
X159150047Y-76149333D01*
X159302428Y-76187428D01*
X159378619Y-76225523D01*
X159454809Y-76301714D01*
X159492904Y-76416000D01*
X159492904Y-76606476D01*
D11*
X134252000Y-61174000D02*
X141592000Y-61174000D01*
X134252000Y-61174000D02*
X134252000Y-61094000D01*
X141592000Y-61174000D02*
X141592000Y-61094000D01*
X140482000Y-56134000D02*
G75*
G03X140482000Y-56134000I-2560000J0D01*
G01*
X134252000Y-51174000D02*
X134252000Y-51094000D01*
X134252000Y-51094000D02*
X141592000Y-51094000D01*
X141592000Y-51094000D02*
X141592000Y-51174000D01*
X134252000Y-58554000D02*
X134252000Y-58794000D01*
X141592000Y-58794000D02*
X141592000Y-58554000D01*
X134252000Y-53474000D02*
X134252000Y-53714000D01*
X134252000Y-56014000D02*
X134252000Y-56254000D01*
X141592000Y-53474000D02*
X141592000Y-53714000D01*
X141592000Y-56014000D02*
X141592000Y-56254000D01*
X134252000Y-53594000D02*
X136752000Y-51094000D01*
X137922000Y-54102000D02*
X137922000Y-57942000D01*
X137922000Y-57912000D02*
X139202000Y-56632000D01*
X136642000Y-56632000D02*
X137922000Y-57912000D01*
X128032000Y-71632000D02*
X130032000Y-71632000D01*
X130032000Y-69592000D02*
X128032000Y-69592000D01*
X133220000Y-62866000D02*
X140840000Y-62866000D01*
X132460000Y-63626000D02*
X133220000Y-62866000D01*
X133220000Y-71246000D02*
X132460000Y-70486000D01*
X140840000Y-71246000D02*
X133220000Y-71246000D01*
X140840000Y-62866000D02*
X140840000Y-65546000D01*
X140840000Y-71246000D02*
X140840000Y-68566000D01*
X132460000Y-63626000D02*
X132460000Y-65546000D01*
X132460000Y-70486000D02*
X132460000Y-68566000D01*
X123409000Y-60344000D02*
X123409000Y-61044000D01*
X122209000Y-61044000D02*
X122209000Y-60344000D01*
X144180000Y-55456000D02*
X144180000Y-54756000D01*
X145380000Y-54756000D02*
X145380000Y-55456000D01*
X119634000Y-48768000D02*
X119634000Y-58928000D01*
X127254000Y-48768000D02*
X119634000Y-48768000D01*
X127254000Y-58928000D02*
X127254000Y-48768000D01*
X119634000Y-58928000D02*
X127254000Y-58928000D01*
X120904000Y-58928000D02*
X120904000Y-48768000D01*
X158496000Y-74676000D02*
X158496000Y-84836000D01*
X159766000Y-74676000D02*
X152146000Y-74676000D01*
X152146000Y-74676000D02*
X152146000Y-84836000D01*
X152146000Y-84836000D02*
X159766000Y-84836000D01*
X159766000Y-84836000D02*
X159766000Y-74676000D01*
X125480000Y-71546000D02*
X124480000Y-71546000D01*
X124480000Y-70186000D02*
X125480000Y-70186000D01*
X124734000Y-61804000D02*
X125734000Y-61804000D01*
X125734000Y-63164000D02*
X124734000Y-63164000D01*
X130806000Y-60026000D02*
X131806000Y-60026000D01*
X131806000Y-61386000D02*
X130806000Y-61386000D01*
X131818000Y-55544000D02*
X130818000Y-55544000D01*
X130818000Y-54184000D02*
X131818000Y-54184000D01*
X132838000Y-48088000D02*
X133838000Y-48088000D01*
X133838000Y-49448000D02*
X132838000Y-49448000D01*
X144444000Y-64016000D02*
X144444000Y-65016000D01*
X143084000Y-65016000D02*
X143084000Y-64016000D01*
X145460000Y-57920000D02*
X145460000Y-58920000D01*
X144100000Y-58920000D02*
X144100000Y-57920000D01*
X141228000Y-49448000D02*
X140228000Y-49448000D01*
X140228000Y-48088000D02*
X141228000Y-48088000D01*
X131236000Y-63762000D02*
X131236000Y-64762000D01*
X129876000Y-64762000D02*
X129876000Y-63762000D01*
X129520000Y-58084000D02*
X128520000Y-58084000D01*
X128520000Y-56724000D02*
X129520000Y-56724000D01*
X129814000Y-48088000D02*
X130814000Y-48088000D01*
X130814000Y-49448000D02*
X129814000Y-49448000D01*
X143084000Y-68814000D02*
X143084000Y-67814000D01*
X144444000Y-67814000D02*
X144444000Y-68814000D01*
X144100000Y-61968000D02*
X144100000Y-60968000D01*
X145460000Y-60968000D02*
X145460000Y-61968000D01*
X144264000Y-49448000D02*
X143264000Y-49448000D01*
X143264000Y-48088000D02*
X144264000Y-48088000D01*
X134834000Y-73224000D02*
X134834000Y-75324000D01*
X119634000Y-73224000D02*
X134834000Y-73224000D01*
X133534000Y-82224000D02*
X134834000Y-82224000D01*
X134834000Y-80124000D02*
X134834000Y-82224000D01*
X119634000Y-82224000D02*
X119634000Y-73224000D01*
X128634000Y-82224000D02*
X119634000Y-82224000D01*
X123134000Y-73224000D02*
X123134000Y-76524000D01*
X123134000Y-78924000D02*
X123134000Y-82224000D01*
D10*
X146670000Y-48498000D02*
X160670000Y-48498000D01*
X160670000Y-48498000D02*
X160670000Y-71898000D01*
X160670000Y-71898000D02*
X146670000Y-71898000D01*
X146670000Y-71898000D02*
X146670000Y-48498000D01*
X147955000Y-49403000D02*
G75*
G03X147955000Y-49403000I-381000J0D01*
G01*
D11*
X122742000Y-71434000D02*
X121412000Y-71434000D01*
X122742000Y-70104000D02*
X122742000Y-71434000D01*
X122742000Y-68834000D02*
X120082000Y-68834000D01*
X120082000Y-68834000D02*
X120082000Y-63694000D01*
X122742000Y-68834000D02*
X122742000Y-63694000D01*
X122742000Y-63694000D02*
X120082000Y-63694000D01*
D10*
X138054000Y-72390000D02*
X138054000Y-85090000D01*
X138054000Y-85090000D02*
X149474000Y-85090000D01*
X149474000Y-85090000D02*
X149474000Y-72390000D01*
X149474000Y-72390000D02*
X138054000Y-72390000D01*
D11*
X127564000Y-65280000D02*
X127564000Y-66740000D01*
X124404000Y-65280000D02*
X124404000Y-67440000D01*
X124404000Y-65280000D02*
X125334000Y-65280000D01*
X127564000Y-65280000D02*
X126634000Y-65280000D01*
X136440000Y-87630000D02*
X136440000Y-90170000D01*
X127680000Y-92710000D02*
X127680000Y-87630000D01*
X136440000Y-90170000D02*
X136440000Y-92710000D01*
X143000000Y-87630000D02*
X143000000Y-90170000D01*
X151760000Y-92710000D02*
X151760000Y-87630000D01*
X143000000Y-90170000D02*
X143000000Y-92710000D01*
X145500000Y-92710000D02*
X133940000Y-92710000D01*
X133940000Y-87630000D02*
X145630000Y-87630000D01*
X143000000Y-93600000D02*
X143000000Y-92580000D01*
X143000000Y-86740000D02*
X143000000Y-87630000D01*
X152530000Y-93600000D02*
X152530000Y-86740000D01*
X136440000Y-93600000D02*
X136440000Y-92710000D01*
X136440000Y-86740000D02*
X136440000Y-87630000D01*
X126790000Y-93600000D02*
X126790000Y-86740000D01*
X151760000Y-92710000D02*
X148970000Y-92710000D01*
X143000000Y-92710000D02*
X145670000Y-92710000D01*
X143000000Y-93600000D02*
X145800000Y-93600000D01*
X152530000Y-93600000D02*
X148720000Y-93600000D01*
X151760000Y-87630000D02*
X148970000Y-87630000D01*
X145540000Y-87630000D02*
X143000000Y-87630000D01*
X145540000Y-87630000D02*
X145670000Y-87630000D01*
X143000000Y-86740000D02*
X145800000Y-86740000D01*
X152530000Y-86740000D02*
X148840000Y-86740000D01*
X136440000Y-93600000D02*
X133520000Y-93600000D01*
X126790000Y-93600000D02*
X130470000Y-93600000D01*
X127680000Y-92710000D02*
X130350000Y-92710000D01*
X136440000Y-92710000D02*
X133650000Y-92710000D01*
X127680000Y-87630000D02*
X130350000Y-87630000D01*
X133940000Y-87630000D02*
X133400000Y-87630000D01*
X136440000Y-86740000D02*
X133400000Y-86740000D01*
X126790000Y-86740000D02*
X130600000Y-86740000D01*
X136410000Y-90170000D02*
X142910000Y-90170000D01*
X149942000Y-82530000D02*
X149942000Y-81530000D01*
X151302000Y-81530000D02*
X151302000Y-82530000D01*
X149942000Y-85324000D02*
X149942000Y-84324000D01*
X151302000Y-84324000D02*
X151302000Y-85324000D01*
X154690000Y-87802000D02*
X153690000Y-87802000D01*
X153690000Y-86442000D02*
X154690000Y-86442000D01*
D10*
X136855333Y-50615809D02*
X136969619Y-50653904D01*
X137160095Y-50653904D01*
X137236285Y-50615809D01*
X137274380Y-50577714D01*
X137312476Y-50501523D01*
X137312476Y-50425333D01*
X137274380Y-50349142D01*
X137236285Y-50311047D01*
X137160095Y-50272952D01*
X137007714Y-50234857D01*
X136931523Y-50196761D01*
X136893428Y-50158666D01*
X136855333Y-50082476D01*
X136855333Y-50006285D01*
X136893428Y-49930095D01*
X136931523Y-49892000D01*
X137007714Y-49853904D01*
X137198190Y-49853904D01*
X137312476Y-49892000D01*
X137579142Y-49853904D02*
X137769619Y-50653904D01*
X137922000Y-50082476D01*
X138074380Y-50653904D01*
X138264857Y-49853904D01*
X138531523Y-49930095D02*
X138569619Y-49892000D01*
X138645809Y-49853904D01*
X138836285Y-49853904D01*
X138912476Y-49892000D01*
X138950571Y-49930095D01*
X138988666Y-50006285D01*
X138988666Y-50082476D01*
X138950571Y-50196761D01*
X138493428Y-50653904D01*
X138988666Y-50653904D01*
X128898666Y-69119714D02*
X128860571Y-69157809D01*
X128746285Y-69195904D01*
X128670095Y-69195904D01*
X128555809Y-69157809D01*
X128479619Y-69081619D01*
X128441523Y-69005428D01*
X128403428Y-68853047D01*
X128403428Y-68738761D01*
X128441523Y-68586380D01*
X128479619Y-68510190D01*
X128555809Y-68434000D01*
X128670095Y-68395904D01*
X128746285Y-68395904D01*
X128860571Y-68434000D01*
X128898666Y-68472095D01*
X129660571Y-69195904D02*
X129203428Y-69195904D01*
X129432000Y-69195904D02*
X129432000Y-68395904D01*
X129355809Y-68510190D01*
X129279619Y-68586380D01*
X129203428Y-68624476D01*
D11*
X127248666Y-72706666D02*
X126848666Y-72706666D01*
X127048666Y-72706666D02*
X127048666Y-72006666D01*
X126982000Y-72106666D01*
X126915333Y-72173333D01*
X126848666Y-72206666D01*
X127682000Y-72006666D02*
X127748666Y-72006666D01*
X127815333Y-72040000D01*
X127848666Y-72073333D01*
X127882000Y-72140000D01*
X127915333Y-72273333D01*
X127915333Y-72440000D01*
X127882000Y-72573333D01*
X127848666Y-72640000D01*
X127815333Y-72673333D01*
X127748666Y-72706666D01*
X127682000Y-72706666D01*
X127615333Y-72673333D01*
X127582000Y-72640000D01*
X127548666Y-72573333D01*
X127515333Y-72440000D01*
X127515333Y-72273333D01*
X127548666Y-72140000D01*
X127582000Y-72073333D01*
X127615333Y-72040000D01*
X127682000Y-72006666D01*
X128515333Y-72240000D02*
X128515333Y-72706666D01*
X128215333Y-72240000D02*
X128215333Y-72606666D01*
X128248666Y-72673333D01*
X128315333Y-72706666D01*
X128415333Y-72706666D01*
X128482000Y-72673333D01*
X128515333Y-72640000D01*
X129348666Y-71973333D02*
X128748666Y-72873333D01*
X129915333Y-72006666D02*
X129582000Y-72006666D01*
X129548666Y-72340000D01*
X129582000Y-72306666D01*
X129648666Y-72273333D01*
X129815333Y-72273333D01*
X129882000Y-72306666D01*
X129915333Y-72340000D01*
X129948666Y-72406666D01*
X129948666Y-72573333D01*
X129915333Y-72640000D01*
X129882000Y-72673333D01*
X129815333Y-72706666D01*
X129648666Y-72706666D01*
X129582000Y-72673333D01*
X129548666Y-72640000D01*
X130382000Y-72006666D02*
X130448666Y-72006666D01*
X130515333Y-72040000D01*
X130548666Y-72073333D01*
X130582000Y-72140000D01*
X130615333Y-72273333D01*
X130615333Y-72440000D01*
X130582000Y-72573333D01*
X130548666Y-72640000D01*
X130515333Y-72673333D01*
X130448666Y-72706666D01*
X130382000Y-72706666D01*
X130315333Y-72673333D01*
X130282000Y-72640000D01*
X130248666Y-72573333D01*
X130215333Y-72440000D01*
X130215333Y-72273333D01*
X130248666Y-72140000D01*
X130282000Y-72073333D01*
X130315333Y-72040000D01*
X130382000Y-72006666D01*
X130815333Y-72006666D02*
X131048666Y-72706666D01*
X131282000Y-72006666D01*
D10*
X133978666Y-62515714D02*
X133940571Y-62553809D01*
X133826285Y-62591904D01*
X133750095Y-62591904D01*
X133635809Y-62553809D01*
X133559619Y-62477619D01*
X133521523Y-62401428D01*
X133483428Y-62249047D01*
X133483428Y-62134761D01*
X133521523Y-61982380D01*
X133559619Y-61906190D01*
X133635809Y-61830000D01*
X133750095Y-61791904D01*
X133826285Y-61791904D01*
X133940571Y-61830000D01*
X133978666Y-61868095D01*
X134283428Y-61868095D02*
X134321523Y-61830000D01*
X134397714Y-61791904D01*
X134588190Y-61791904D01*
X134664380Y-61830000D01*
X134702476Y-61868095D01*
X134740571Y-61944285D01*
X134740571Y-62020476D01*
X134702476Y-62134761D01*
X134245333Y-62591904D01*
X134740571Y-62591904D01*
D11*
X134800000Y-71732000D02*
X134800000Y-72198666D01*
X134633333Y-71465333D02*
X134466666Y-71965333D01*
X134900000Y-71965333D01*
X135100000Y-71498666D02*
X135566666Y-71498666D01*
X135266666Y-72198666D01*
X136133333Y-71732000D02*
X136133333Y-72198666D01*
X135833333Y-71732000D02*
X135833333Y-72098666D01*
X135866666Y-72165333D01*
X135933333Y-72198666D01*
X136033333Y-72198666D01*
X136100000Y-72165333D01*
X136133333Y-72132000D01*
X136966666Y-71465333D02*
X136366666Y-72365333D01*
X137500000Y-71498666D02*
X137366666Y-71498666D01*
X137300000Y-71532000D01*
X137266666Y-71565333D01*
X137200000Y-71665333D01*
X137166666Y-71798666D01*
X137166666Y-72065333D01*
X137200000Y-72132000D01*
X137233333Y-72165333D01*
X137300000Y-72198666D01*
X137433333Y-72198666D01*
X137500000Y-72165333D01*
X137533333Y-72132000D01*
X137566666Y-72065333D01*
X137566666Y-71898666D01*
X137533333Y-71832000D01*
X137500000Y-71798666D01*
X137433333Y-71765333D01*
X137300000Y-71765333D01*
X137233333Y-71798666D01*
X137200000Y-71832000D01*
X137166666Y-71898666D01*
X137800000Y-71498666D02*
X138233333Y-71498666D01*
X138000000Y-71765333D01*
X138100000Y-71765333D01*
X138166666Y-71798666D01*
X138200000Y-71832000D01*
X138233333Y-71898666D01*
X138233333Y-72065333D01*
X138200000Y-72132000D01*
X138166666Y-72165333D01*
X138100000Y-72198666D01*
X137900000Y-72198666D01*
X137833333Y-72165333D01*
X137800000Y-72132000D01*
X138433333Y-71498666D02*
X138666666Y-72198666D01*
X138900000Y-71498666D01*
D10*
X131489047Y-71037428D02*
X132250952Y-71037428D01*
X131870000Y-71418380D02*
X131870000Y-70656476D01*
X121951714Y-60815333D02*
X121989809Y-60853428D01*
X122027904Y-60967714D01*
X122027904Y-61043904D01*
X121989809Y-61158190D01*
X121913619Y-61234380D01*
X121837428Y-61272476D01*
X121685047Y-61310571D01*
X121570761Y-61310571D01*
X121418380Y-61272476D01*
X121342190Y-61234380D01*
X121266000Y-61158190D01*
X121227904Y-61043904D01*
X121227904Y-60967714D01*
X121266000Y-60853428D01*
X121304095Y-60815333D01*
X121227904Y-60548666D02*
X121227904Y-60053428D01*
X121532666Y-60320095D01*
X121532666Y-60205809D01*
X121570761Y-60129619D01*
X121608857Y-60091523D01*
X121685047Y-60053428D01*
X121875523Y-60053428D01*
X121951714Y-60091523D01*
X121989809Y-60129619D01*
X122027904Y-60205809D01*
X122027904Y-60434380D01*
X121989809Y-60510571D01*
X121951714Y-60548666D01*
D11*
X124268666Y-61465333D02*
X124268666Y-61865333D01*
X124268666Y-61665333D02*
X123568666Y-61665333D01*
X123668666Y-61732000D01*
X123735333Y-61798666D01*
X123768666Y-61865333D01*
X123568666Y-61032000D02*
X123568666Y-60965333D01*
X123602000Y-60898666D01*
X123635333Y-60865333D01*
X123702000Y-60832000D01*
X123835333Y-60798666D01*
X124002000Y-60798666D01*
X124135333Y-60832000D01*
X124202000Y-60865333D01*
X124235333Y-60898666D01*
X124268666Y-60965333D01*
X124268666Y-61032000D01*
X124235333Y-61098666D01*
X124202000Y-61132000D01*
X124135333Y-61165333D01*
X124002000Y-61198666D01*
X123835333Y-61198666D01*
X123702000Y-61165333D01*
X123635333Y-61132000D01*
X123602000Y-61098666D01*
X123568666Y-61032000D01*
X123568666Y-60365333D02*
X123568666Y-60298666D01*
X123602000Y-60232000D01*
X123635333Y-60198666D01*
X123702000Y-60165333D01*
X123835333Y-60132000D01*
X124002000Y-60132000D01*
X124135333Y-60165333D01*
X124202000Y-60198666D01*
X124235333Y-60232000D01*
X124268666Y-60298666D01*
X124268666Y-60365333D01*
X124235333Y-60432000D01*
X124202000Y-60465333D01*
X124135333Y-60498666D01*
X124002000Y-60532000D01*
X123835333Y-60532000D01*
X123702000Y-60498666D01*
X123635333Y-60465333D01*
X123602000Y-60432000D01*
X123568666Y-60365333D01*
X123802000Y-59832000D02*
X124268666Y-59832000D01*
X123868666Y-59832000D02*
X123835333Y-59798666D01*
X123802000Y-59732000D01*
X123802000Y-59632000D01*
X123835333Y-59565333D01*
X123902000Y-59532000D01*
X124268666Y-59532000D01*
D10*
X143795714Y-55239333D02*
X143833809Y-55277428D01*
X143871904Y-55391714D01*
X143871904Y-55467904D01*
X143833809Y-55582190D01*
X143757619Y-55658380D01*
X143681428Y-55696476D01*
X143529047Y-55734571D01*
X143414761Y-55734571D01*
X143262380Y-55696476D01*
X143186190Y-55658380D01*
X143110000Y-55582190D01*
X143071904Y-55467904D01*
X143071904Y-55391714D01*
X143110000Y-55277428D01*
X143148095Y-55239333D01*
X143338571Y-54553619D02*
X143871904Y-54553619D01*
X143033809Y-54744095D02*
X143605238Y-54934571D01*
X143605238Y-54439333D01*
D11*
X146366666Y-55889333D02*
X146366666Y-56289333D01*
X146366666Y-56089333D02*
X145666666Y-56089333D01*
X145766666Y-56156000D01*
X145833333Y-56222666D01*
X145866666Y-56289333D01*
X145666666Y-55456000D02*
X145666666Y-55389333D01*
X145700000Y-55322666D01*
X145733333Y-55289333D01*
X145800000Y-55256000D01*
X145933333Y-55222666D01*
X146100000Y-55222666D01*
X146233333Y-55256000D01*
X146300000Y-55289333D01*
X146333333Y-55322666D01*
X146366666Y-55389333D01*
X146366666Y-55456000D01*
X146333333Y-55522666D01*
X146300000Y-55556000D01*
X146233333Y-55589333D01*
X146100000Y-55622666D01*
X145933333Y-55622666D01*
X145800000Y-55589333D01*
X145733333Y-55556000D01*
X145700000Y-55522666D01*
X145666666Y-55456000D01*
X145666666Y-54789333D02*
X145666666Y-54722666D01*
X145700000Y-54656000D01*
X145733333Y-54622666D01*
X145800000Y-54589333D01*
X145933333Y-54556000D01*
X146100000Y-54556000D01*
X146233333Y-54589333D01*
X146300000Y-54622666D01*
X146333333Y-54656000D01*
X146366666Y-54722666D01*
X146366666Y-54789333D01*
X146333333Y-54856000D01*
X146300000Y-54889333D01*
X146233333Y-54922666D01*
X146100000Y-54956000D01*
X145933333Y-54956000D01*
X145800000Y-54922666D01*
X145733333Y-54889333D01*
X145700000Y-54856000D01*
X145666666Y-54789333D01*
X145900000Y-54256000D02*
X146366666Y-54256000D01*
X145966666Y-54256000D02*
X145933333Y-54222666D01*
X145900000Y-54156000D01*
X145900000Y-54056000D01*
X145933333Y-53989333D01*
X146000000Y-53956000D01*
X146366666Y-53956000D01*
X120129333Y-47567904D02*
X120129333Y-48139333D01*
X120091238Y-48253619D01*
X120015047Y-48329809D01*
X119900761Y-48367904D01*
X119824571Y-48367904D01*
X120472190Y-47644095D02*
X120510285Y-47606000D01*
X120586476Y-47567904D01*
X120776952Y-47567904D01*
X120853142Y-47606000D01*
X120891238Y-47644095D01*
X120929333Y-47720285D01*
X120929333Y-47796476D01*
X120891238Y-47910761D01*
X120434095Y-48367904D01*
X120929333Y-48367904D01*
D10*
X152574666Y-73112380D02*
X152574666Y-73826666D01*
X152527047Y-73969523D01*
X152431809Y-74064761D01*
X152288952Y-74112380D01*
X152193714Y-74112380D01*
X152955619Y-73112380D02*
X153574666Y-73112380D01*
X153241333Y-73493333D01*
X153384190Y-73493333D01*
X153479428Y-73540952D01*
X153527047Y-73588571D01*
X153574666Y-73683809D01*
X153574666Y-73921904D01*
X153527047Y-74017142D01*
X153479428Y-74064761D01*
X153384190Y-74112380D01*
X153098476Y-74112380D01*
X153003238Y-74064761D01*
X152955619Y-74017142D01*
X124858666Y-69957904D02*
X124592000Y-69576952D01*
X124401523Y-69957904D02*
X124401523Y-69157904D01*
X124706285Y-69157904D01*
X124782476Y-69196000D01*
X124820571Y-69234095D01*
X124858666Y-69310285D01*
X124858666Y-69424571D01*
X124820571Y-69500761D01*
X124782476Y-69538857D01*
X124706285Y-69576952D01*
X124401523Y-69576952D01*
X125620571Y-69957904D02*
X125163428Y-69957904D01*
X125392000Y-69957904D02*
X125392000Y-69157904D01*
X125315809Y-69272190D01*
X125239619Y-69348380D01*
X125163428Y-69386476D01*
D11*
X124175333Y-72073333D02*
X124208666Y-72040000D01*
X124275333Y-72006666D01*
X124442000Y-72006666D01*
X124508666Y-72040000D01*
X124542000Y-72073333D01*
X124575333Y-72140000D01*
X124575333Y-72206666D01*
X124542000Y-72306666D01*
X124142000Y-72706666D01*
X124575333Y-72706666D01*
X124808666Y-72006666D02*
X125275333Y-72006666D01*
X124975333Y-72706666D01*
X125542000Y-72706666D02*
X125542000Y-72006666D01*
X125608666Y-72440000D02*
X125808666Y-72706666D01*
X125808666Y-72240000D02*
X125542000Y-72506666D01*
D10*
X125100666Y-61575904D02*
X124834000Y-61194952D01*
X124643523Y-61575904D02*
X124643523Y-60775904D01*
X124948285Y-60775904D01*
X125024476Y-60814000D01*
X125062571Y-60852095D01*
X125100666Y-60928285D01*
X125100666Y-61042571D01*
X125062571Y-61118761D01*
X125024476Y-61156857D01*
X124948285Y-61194952D01*
X124643523Y-61194952D01*
X125405428Y-60852095D02*
X125443523Y-60814000D01*
X125519714Y-60775904D01*
X125710190Y-60775904D01*
X125786380Y-60814000D01*
X125824476Y-60852095D01*
X125862571Y-60928285D01*
X125862571Y-61004476D01*
X125824476Y-61118761D01*
X125367333Y-61575904D01*
X125862571Y-61575904D01*
D11*
X124805333Y-64070666D02*
X124405333Y-64070666D01*
X124605333Y-64070666D02*
X124605333Y-63370666D01*
X124538666Y-63470666D01*
X124472000Y-63537333D01*
X124405333Y-63570666D01*
X125105333Y-64070666D02*
X125105333Y-63370666D01*
X125172000Y-63804000D02*
X125372000Y-64070666D01*
X125372000Y-63604000D02*
X125105333Y-63870666D01*
X125805333Y-63370666D02*
X125872000Y-63370666D01*
X125938666Y-63404000D01*
X125972000Y-63437333D01*
X126005333Y-63504000D01*
X126038666Y-63637333D01*
X126038666Y-63804000D01*
X126005333Y-63937333D01*
X125972000Y-64004000D01*
X125938666Y-64037333D01*
X125872000Y-64070666D01*
X125805333Y-64070666D01*
X125738666Y-64037333D01*
X125705333Y-64004000D01*
X125672000Y-63937333D01*
X125638666Y-63804000D01*
X125638666Y-63637333D01*
X125672000Y-63504000D01*
X125705333Y-63437333D01*
X125738666Y-63404000D01*
X125805333Y-63370666D01*
D10*
X131172666Y-59617904D02*
X130906000Y-59236952D01*
X130715523Y-59617904D02*
X130715523Y-58817904D01*
X131020285Y-58817904D01*
X131096476Y-58856000D01*
X131134571Y-58894095D01*
X131172666Y-58970285D01*
X131172666Y-59084571D01*
X131134571Y-59160761D01*
X131096476Y-59198857D01*
X131020285Y-59236952D01*
X130715523Y-59236952D01*
X131858380Y-58817904D02*
X131706000Y-58817904D01*
X131629809Y-58856000D01*
X131591714Y-58894095D01*
X131515523Y-59008380D01*
X131477428Y-59160761D01*
X131477428Y-59465523D01*
X131515523Y-59541714D01*
X131553619Y-59579809D01*
X131629809Y-59617904D01*
X131782190Y-59617904D01*
X131858380Y-59579809D01*
X131896476Y-59541714D01*
X131934571Y-59465523D01*
X131934571Y-59275047D01*
X131896476Y-59198857D01*
X131858380Y-59160761D01*
X131782190Y-59122666D01*
X131629809Y-59122666D01*
X131553619Y-59160761D01*
X131515523Y-59198857D01*
X131477428Y-59275047D01*
D11*
X130822666Y-61822666D02*
X130689333Y-61822666D01*
X130622666Y-61856000D01*
X130589333Y-61889333D01*
X130522666Y-61989333D01*
X130489333Y-62122666D01*
X130489333Y-62389333D01*
X130522666Y-62456000D01*
X130556000Y-62489333D01*
X130622666Y-62522666D01*
X130756000Y-62522666D01*
X130822666Y-62489333D01*
X130856000Y-62456000D01*
X130889333Y-62389333D01*
X130889333Y-62222666D01*
X130856000Y-62156000D01*
X130822666Y-62122666D01*
X130756000Y-62089333D01*
X130622666Y-62089333D01*
X130556000Y-62122666D01*
X130522666Y-62156000D01*
X130489333Y-62222666D01*
X131189333Y-62522666D02*
X131189333Y-61822666D01*
X131256000Y-62256000D02*
X131456000Y-62522666D01*
X131456000Y-62056000D02*
X131189333Y-62322666D01*
X131856000Y-62122666D02*
X131789333Y-62089333D01*
X131756000Y-62056000D01*
X131722666Y-61989333D01*
X131722666Y-61956000D01*
X131756000Y-61889333D01*
X131789333Y-61856000D01*
X131856000Y-61822666D01*
X131989333Y-61822666D01*
X132056000Y-61856000D01*
X132089333Y-61889333D01*
X132122666Y-61956000D01*
X132122666Y-61989333D01*
X132089333Y-62056000D01*
X132056000Y-62089333D01*
X131989333Y-62122666D01*
X131856000Y-62122666D01*
X131789333Y-62156000D01*
X131756000Y-62189333D01*
X131722666Y-62256000D01*
X131722666Y-62389333D01*
X131756000Y-62456000D01*
X131789333Y-62489333D01*
X131856000Y-62522666D01*
X131989333Y-62522666D01*
X132056000Y-62489333D01*
X132089333Y-62456000D01*
X132122666Y-62389333D01*
X132122666Y-62256000D01*
X132089333Y-62189333D01*
X132056000Y-62156000D01*
X131989333Y-62122666D01*
D10*
X131184666Y-53955904D02*
X130918000Y-53574952D01*
X130727523Y-53955904D02*
X130727523Y-53155904D01*
X131032285Y-53155904D01*
X131108476Y-53194000D01*
X131146571Y-53232095D01*
X131184666Y-53308285D01*
X131184666Y-53422571D01*
X131146571Y-53498761D01*
X131108476Y-53536857D01*
X131032285Y-53574952D01*
X130727523Y-53574952D01*
X131451333Y-53155904D02*
X131984666Y-53155904D01*
X131641809Y-53955904D01*
D11*
X130501333Y-55817333D02*
X130534666Y-55784000D01*
X130601333Y-55750666D01*
X130768000Y-55750666D01*
X130834666Y-55784000D01*
X130868000Y-55817333D01*
X130901333Y-55884000D01*
X130901333Y-55950666D01*
X130868000Y-56050666D01*
X130468000Y-56450666D01*
X130901333Y-56450666D01*
X131201333Y-56450666D02*
X131201333Y-55750666D01*
X131268000Y-56184000D02*
X131468000Y-56450666D01*
X131468000Y-55984000D02*
X131201333Y-56250666D01*
X131701333Y-55750666D02*
X132168000Y-55750666D01*
X131868000Y-56450666D01*
D10*
X133204666Y-47679904D02*
X132938000Y-47298952D01*
X132747523Y-47679904D02*
X132747523Y-46879904D01*
X133052285Y-46879904D01*
X133128476Y-46918000D01*
X133166571Y-46956095D01*
X133204666Y-47032285D01*
X133204666Y-47146571D01*
X133166571Y-47222761D01*
X133128476Y-47260857D01*
X133052285Y-47298952D01*
X132747523Y-47298952D01*
X133661809Y-47222761D02*
X133585619Y-47184666D01*
X133547523Y-47146571D01*
X133509428Y-47070380D01*
X133509428Y-47032285D01*
X133547523Y-46956095D01*
X133585619Y-46918000D01*
X133661809Y-46879904D01*
X133814190Y-46879904D01*
X133890380Y-46918000D01*
X133928476Y-46956095D01*
X133966571Y-47032285D01*
X133966571Y-47070380D01*
X133928476Y-47146571D01*
X133890380Y-47184666D01*
X133814190Y-47222761D01*
X133661809Y-47222761D01*
X133585619Y-47260857D01*
X133547523Y-47298952D01*
X133509428Y-47375142D01*
X133509428Y-47527523D01*
X133547523Y-47603714D01*
X133585619Y-47641809D01*
X133661809Y-47679904D01*
X133814190Y-47679904D01*
X133890380Y-47641809D01*
X133928476Y-47603714D01*
X133966571Y-47527523D01*
X133966571Y-47375142D01*
X133928476Y-47298952D01*
X133890380Y-47260857D01*
X133814190Y-47222761D01*
D11*
X132266666Y-49954666D02*
X132200000Y-49921333D01*
X132166666Y-49888000D01*
X132133333Y-49821333D01*
X132133333Y-49788000D01*
X132166666Y-49721333D01*
X132200000Y-49688000D01*
X132266666Y-49654666D01*
X132400000Y-49654666D01*
X132466666Y-49688000D01*
X132500000Y-49721333D01*
X132533333Y-49788000D01*
X132533333Y-49821333D01*
X132500000Y-49888000D01*
X132466666Y-49921333D01*
X132400000Y-49954666D01*
X132266666Y-49954666D01*
X132200000Y-49988000D01*
X132166666Y-50021333D01*
X132133333Y-50088000D01*
X132133333Y-50221333D01*
X132166666Y-50288000D01*
X132200000Y-50321333D01*
X132266666Y-50354666D01*
X132400000Y-50354666D01*
X132466666Y-50321333D01*
X132500000Y-50288000D01*
X132533333Y-50221333D01*
X132533333Y-50088000D01*
X132500000Y-50021333D01*
X132466666Y-49988000D01*
X132400000Y-49954666D01*
X132800000Y-49721333D02*
X132833333Y-49688000D01*
X132900000Y-49654666D01*
X133066666Y-49654666D01*
X133133333Y-49688000D01*
X133166666Y-49721333D01*
X133200000Y-49788000D01*
X133200000Y-49854666D01*
X133166666Y-49954666D01*
X132766666Y-50354666D01*
X133200000Y-50354666D01*
X133633333Y-49654666D02*
X133700000Y-49654666D01*
X133766666Y-49688000D01*
X133800000Y-49721333D01*
X133833333Y-49788000D01*
X133866666Y-49921333D01*
X133866666Y-50088000D01*
X133833333Y-50221333D01*
X133800000Y-50288000D01*
X133766666Y-50321333D01*
X133700000Y-50354666D01*
X133633333Y-50354666D01*
X133566666Y-50321333D01*
X133533333Y-50288000D01*
X133500000Y-50221333D01*
X133466666Y-50088000D01*
X133466666Y-49921333D01*
X133500000Y-49788000D01*
X133533333Y-49721333D01*
X133566666Y-49688000D01*
X133633333Y-49654666D01*
X134566666Y-50354666D02*
X134333333Y-50021333D01*
X134166666Y-50354666D02*
X134166666Y-49654666D01*
X134433333Y-49654666D01*
X134500000Y-49688000D01*
X134533333Y-49721333D01*
X134566666Y-49788000D01*
X134566666Y-49888000D01*
X134533333Y-49954666D01*
X134500000Y-49988000D01*
X134433333Y-50021333D01*
X134166666Y-50021333D01*
D10*
X142855904Y-64649333D02*
X142474952Y-64916000D01*
X142855904Y-65106476D02*
X142055904Y-65106476D01*
X142055904Y-64801714D01*
X142094000Y-64725523D01*
X142132095Y-64687428D01*
X142208285Y-64649333D01*
X142322571Y-64649333D01*
X142398761Y-64687428D01*
X142436857Y-64725523D01*
X142474952Y-64801714D01*
X142474952Y-65106476D01*
X142855904Y-64268380D02*
X142855904Y-64116000D01*
X142817809Y-64039809D01*
X142779714Y-64001714D01*
X142665428Y-63925523D01*
X142513047Y-63887428D01*
X142208285Y-63887428D01*
X142132095Y-63925523D01*
X142094000Y-63963619D01*
X142055904Y-64039809D01*
X142055904Y-64192190D01*
X142094000Y-64268380D01*
X142132095Y-64306476D01*
X142208285Y-64344571D01*
X142398761Y-64344571D01*
X142474952Y-64306476D01*
X142513047Y-64268380D01*
X142551142Y-64192190D01*
X142551142Y-64039809D01*
X142513047Y-63963619D01*
X142474952Y-63925523D01*
X142398761Y-63887428D01*
D11*
X144950666Y-65599333D02*
X144917333Y-65666000D01*
X144884000Y-65699333D01*
X144817333Y-65732666D01*
X144784000Y-65732666D01*
X144717333Y-65699333D01*
X144684000Y-65666000D01*
X144650666Y-65599333D01*
X144650666Y-65466000D01*
X144684000Y-65399333D01*
X144717333Y-65366000D01*
X144784000Y-65332666D01*
X144817333Y-65332666D01*
X144884000Y-65366000D01*
X144917333Y-65399333D01*
X144950666Y-65466000D01*
X144950666Y-65599333D01*
X144984000Y-65666000D01*
X145017333Y-65699333D01*
X145084000Y-65732666D01*
X145217333Y-65732666D01*
X145284000Y-65699333D01*
X145317333Y-65666000D01*
X145350666Y-65599333D01*
X145350666Y-65466000D01*
X145317333Y-65399333D01*
X145284000Y-65366000D01*
X145217333Y-65332666D01*
X145084000Y-65332666D01*
X145017333Y-65366000D01*
X144984000Y-65399333D01*
X144950666Y-65466000D01*
X144717333Y-65066000D02*
X144684000Y-65032666D01*
X144650666Y-64966000D01*
X144650666Y-64799333D01*
X144684000Y-64732666D01*
X144717333Y-64699333D01*
X144784000Y-64666000D01*
X144850666Y-64666000D01*
X144950666Y-64699333D01*
X145350666Y-65099333D01*
X145350666Y-64666000D01*
X144650666Y-64232666D02*
X144650666Y-64166000D01*
X144684000Y-64099333D01*
X144717333Y-64066000D01*
X144784000Y-64032666D01*
X144917333Y-63999333D01*
X145084000Y-63999333D01*
X145217333Y-64032666D01*
X145284000Y-64066000D01*
X145317333Y-64099333D01*
X145350666Y-64166000D01*
X145350666Y-64232666D01*
X145317333Y-64299333D01*
X145284000Y-64332666D01*
X145217333Y-64366000D01*
X145084000Y-64399333D01*
X144917333Y-64399333D01*
X144784000Y-64366000D01*
X144717333Y-64332666D01*
X144684000Y-64299333D01*
X144650666Y-64232666D01*
X145350666Y-63299333D02*
X145017333Y-63532666D01*
X145350666Y-63699333D02*
X144650666Y-63699333D01*
X144650666Y-63432666D01*
X144684000Y-63366000D01*
X144717333Y-63332666D01*
X144784000Y-63299333D01*
X144884000Y-63299333D01*
X144950666Y-63332666D01*
X144984000Y-63366000D01*
X145017333Y-63432666D01*
X145017333Y-63699333D01*
D10*
X143871904Y-58934285D02*
X143490952Y-59200952D01*
X143871904Y-59391428D02*
X143071904Y-59391428D01*
X143071904Y-59086666D01*
X143110000Y-59010476D01*
X143148095Y-58972380D01*
X143224285Y-58934285D01*
X143338571Y-58934285D01*
X143414761Y-58972380D01*
X143452857Y-59010476D01*
X143490952Y-59086666D01*
X143490952Y-59391428D01*
X143871904Y-58172380D02*
X143871904Y-58629523D01*
X143871904Y-58400952D02*
X143071904Y-58400952D01*
X143186190Y-58477142D01*
X143262380Y-58553333D01*
X143300476Y-58629523D01*
X143071904Y-57677142D02*
X143071904Y-57600952D01*
X143110000Y-57524761D01*
X143148095Y-57486666D01*
X143224285Y-57448571D01*
X143376666Y-57410476D01*
X143567142Y-57410476D01*
X143719523Y-57448571D01*
X143795714Y-57486666D01*
X143833809Y-57524761D01*
X143871904Y-57600952D01*
X143871904Y-57677142D01*
X143833809Y-57753333D01*
X143795714Y-57791428D01*
X143719523Y-57829523D01*
X143567142Y-57867619D01*
X143376666Y-57867619D01*
X143224285Y-57829523D01*
X143148095Y-57791428D01*
X143110000Y-57753333D01*
X143071904Y-57677142D01*
D11*
X145666666Y-59670000D02*
X145666666Y-59236666D01*
X145933333Y-59470000D01*
X145933333Y-59370000D01*
X145966666Y-59303333D01*
X146000000Y-59270000D01*
X146066666Y-59236666D01*
X146233333Y-59236666D01*
X146300000Y-59270000D01*
X146333333Y-59303333D01*
X146366666Y-59370000D01*
X146366666Y-59570000D01*
X146333333Y-59636666D01*
X146300000Y-59670000D01*
X146366666Y-58903333D02*
X146366666Y-58770000D01*
X146333333Y-58703333D01*
X146300000Y-58670000D01*
X146200000Y-58603333D01*
X146066666Y-58570000D01*
X145800000Y-58570000D01*
X145733333Y-58603333D01*
X145700000Y-58636666D01*
X145666666Y-58703333D01*
X145666666Y-58836666D01*
X145700000Y-58903333D01*
X145733333Y-58936666D01*
X145800000Y-58970000D01*
X145966666Y-58970000D01*
X146033333Y-58936666D01*
X146066666Y-58903333D01*
X146100000Y-58836666D01*
X146100000Y-58703333D01*
X146066666Y-58636666D01*
X146033333Y-58603333D01*
X145966666Y-58570000D01*
X145666666Y-58136666D02*
X145666666Y-58070000D01*
X145700000Y-58003333D01*
X145733333Y-57970000D01*
X145800000Y-57936666D01*
X145933333Y-57903333D01*
X146100000Y-57903333D01*
X146233333Y-57936666D01*
X146300000Y-57970000D01*
X146333333Y-58003333D01*
X146366666Y-58070000D01*
X146366666Y-58136666D01*
X146333333Y-58203333D01*
X146300000Y-58236666D01*
X146233333Y-58270000D01*
X146100000Y-58303333D01*
X145933333Y-58303333D01*
X145800000Y-58270000D01*
X145733333Y-58236666D01*
X145700000Y-58203333D01*
X145666666Y-58136666D01*
X146366666Y-57203333D02*
X146033333Y-57436666D01*
X146366666Y-57603333D02*
X145666666Y-57603333D01*
X145666666Y-57336666D01*
X145700000Y-57270000D01*
X145733333Y-57236666D01*
X145800000Y-57203333D01*
X145900000Y-57203333D01*
X145966666Y-57236666D01*
X146000000Y-57270000D01*
X146033333Y-57336666D01*
X146033333Y-57603333D01*
D10*
X140213714Y-47605904D02*
X139947047Y-47224952D01*
X139756571Y-47605904D02*
X139756571Y-46805904D01*
X140061333Y-46805904D01*
X140137523Y-46844000D01*
X140175619Y-46882095D01*
X140213714Y-46958285D01*
X140213714Y-47072571D01*
X140175619Y-47148761D01*
X140137523Y-47186857D01*
X140061333Y-47224952D01*
X139756571Y-47224952D01*
X140975619Y-47605904D02*
X140518476Y-47605904D01*
X140747047Y-47605904D02*
X140747047Y-46805904D01*
X140670857Y-46920190D01*
X140594666Y-46996380D01*
X140518476Y-47034476D01*
X141737523Y-47605904D02*
X141280380Y-47605904D01*
X141508952Y-47605904D02*
X141508952Y-46805904D01*
X141432761Y-46920190D01*
X141356571Y-46996380D01*
X141280380Y-47034476D01*
D11*
X139499333Y-49721333D02*
X139532666Y-49688000D01*
X139599333Y-49654666D01*
X139766000Y-49654666D01*
X139832666Y-49688000D01*
X139866000Y-49721333D01*
X139899333Y-49788000D01*
X139899333Y-49854666D01*
X139866000Y-49954666D01*
X139466000Y-50354666D01*
X139899333Y-50354666D01*
X140132666Y-49654666D02*
X140599333Y-49654666D01*
X140299333Y-50354666D01*
X140999333Y-49654666D02*
X141066000Y-49654666D01*
X141132666Y-49688000D01*
X141166000Y-49721333D01*
X141199333Y-49788000D01*
X141232666Y-49921333D01*
X141232666Y-50088000D01*
X141199333Y-50221333D01*
X141166000Y-50288000D01*
X141132666Y-50321333D01*
X141066000Y-50354666D01*
X140999333Y-50354666D01*
X140932666Y-50321333D01*
X140899333Y-50288000D01*
X140866000Y-50221333D01*
X140832666Y-50088000D01*
X140832666Y-49921333D01*
X140866000Y-49788000D01*
X140899333Y-49721333D01*
X140932666Y-49688000D01*
X140999333Y-49654666D01*
X141932666Y-50354666D02*
X141699333Y-50021333D01*
X141532666Y-50354666D02*
X141532666Y-49654666D01*
X141799333Y-49654666D01*
X141866000Y-49688000D01*
X141899333Y-49721333D01*
X141932666Y-49788000D01*
X141932666Y-49888000D01*
X141899333Y-49954666D01*
X141866000Y-49988000D01*
X141799333Y-50021333D01*
X141532666Y-50021333D01*
D10*
X129467904Y-64776285D02*
X129086952Y-65042952D01*
X129467904Y-65233428D02*
X128667904Y-65233428D01*
X128667904Y-64928666D01*
X128706000Y-64852476D01*
X128744095Y-64814380D01*
X128820285Y-64776285D01*
X128934571Y-64776285D01*
X129010761Y-64814380D01*
X129048857Y-64852476D01*
X129086952Y-64928666D01*
X129086952Y-65233428D01*
X129467904Y-64014380D02*
X129467904Y-64471523D01*
X129467904Y-64242952D02*
X128667904Y-64242952D01*
X128782190Y-64319142D01*
X128858380Y-64395333D01*
X128896476Y-64471523D01*
X128744095Y-63709619D02*
X128706000Y-63671523D01*
X128667904Y-63595333D01*
X128667904Y-63404857D01*
X128706000Y-63328666D01*
X128744095Y-63290571D01*
X128820285Y-63252476D01*
X128896476Y-63252476D01*
X129010761Y-63290571D01*
X129467904Y-63747714D01*
X129467904Y-63252476D01*
D11*
X130872666Y-67872666D02*
X130872666Y-68272666D01*
X130872666Y-68072666D02*
X130172666Y-68072666D01*
X130272666Y-68139333D01*
X130339333Y-68206000D01*
X130372666Y-68272666D01*
X130172666Y-67439333D02*
X130172666Y-67372666D01*
X130206000Y-67306000D01*
X130239333Y-67272666D01*
X130306000Y-67239333D01*
X130439333Y-67206000D01*
X130606000Y-67206000D01*
X130739333Y-67239333D01*
X130806000Y-67272666D01*
X130839333Y-67306000D01*
X130872666Y-67372666D01*
X130872666Y-67439333D01*
X130839333Y-67506000D01*
X130806000Y-67539333D01*
X130739333Y-67572666D01*
X130606000Y-67606000D01*
X130439333Y-67606000D01*
X130306000Y-67572666D01*
X130239333Y-67539333D01*
X130206000Y-67506000D01*
X130172666Y-67439333D01*
X130172666Y-66772666D02*
X130172666Y-66706000D01*
X130206000Y-66639333D01*
X130239333Y-66606000D01*
X130306000Y-66572666D01*
X130439333Y-66539333D01*
X130606000Y-66539333D01*
X130739333Y-66572666D01*
X130806000Y-66606000D01*
X130839333Y-66639333D01*
X130872666Y-66706000D01*
X130872666Y-66772666D01*
X130839333Y-66839333D01*
X130806000Y-66872666D01*
X130739333Y-66906000D01*
X130606000Y-66939333D01*
X130439333Y-66939333D01*
X130306000Y-66906000D01*
X130239333Y-66872666D01*
X130206000Y-66839333D01*
X130172666Y-66772666D01*
X130872666Y-65839333D02*
X130539333Y-66072666D01*
X130872666Y-66239333D02*
X130172666Y-66239333D01*
X130172666Y-65972666D01*
X130206000Y-65906000D01*
X130239333Y-65872666D01*
X130306000Y-65839333D01*
X130406000Y-65839333D01*
X130472666Y-65872666D01*
X130506000Y-65906000D01*
X130539333Y-65972666D01*
X130539333Y-66239333D01*
D10*
X128505714Y-56495904D02*
X128239047Y-56114952D01*
X128048571Y-56495904D02*
X128048571Y-55695904D01*
X128353333Y-55695904D01*
X128429523Y-55734000D01*
X128467619Y-55772095D01*
X128505714Y-55848285D01*
X128505714Y-55962571D01*
X128467619Y-56038761D01*
X128429523Y-56076857D01*
X128353333Y-56114952D01*
X128048571Y-56114952D01*
X129267619Y-56495904D02*
X128810476Y-56495904D01*
X129039047Y-56495904D02*
X129039047Y-55695904D01*
X128962857Y-55810190D01*
X128886666Y-55886380D01*
X128810476Y-55924476D01*
X129534285Y-55695904D02*
X130029523Y-55695904D01*
X129762857Y-56000666D01*
X129877142Y-56000666D01*
X129953333Y-56038761D01*
X129991428Y-56076857D01*
X130029523Y-56153047D01*
X130029523Y-56343523D01*
X129991428Y-56419714D01*
X129953333Y-56457809D01*
X129877142Y-56495904D01*
X129648571Y-56495904D01*
X129572380Y-56457809D01*
X129534285Y-56419714D01*
D11*
X127791333Y-58357333D02*
X127824666Y-58324000D01*
X127891333Y-58290666D01*
X128058000Y-58290666D01*
X128124666Y-58324000D01*
X128158000Y-58357333D01*
X128191333Y-58424000D01*
X128191333Y-58490666D01*
X128158000Y-58590666D01*
X127758000Y-58990666D01*
X128191333Y-58990666D01*
X128458000Y-58357333D02*
X128491333Y-58324000D01*
X128558000Y-58290666D01*
X128724666Y-58290666D01*
X128791333Y-58324000D01*
X128824666Y-58357333D01*
X128858000Y-58424000D01*
X128858000Y-58490666D01*
X128824666Y-58590666D01*
X128424666Y-58990666D01*
X128858000Y-58990666D01*
X129291333Y-58290666D02*
X129358000Y-58290666D01*
X129424666Y-58324000D01*
X129458000Y-58357333D01*
X129491333Y-58424000D01*
X129524666Y-58557333D01*
X129524666Y-58724000D01*
X129491333Y-58857333D01*
X129458000Y-58924000D01*
X129424666Y-58957333D01*
X129358000Y-58990666D01*
X129291333Y-58990666D01*
X129224666Y-58957333D01*
X129191333Y-58924000D01*
X129158000Y-58857333D01*
X129124666Y-58724000D01*
X129124666Y-58557333D01*
X129158000Y-58424000D01*
X129191333Y-58357333D01*
X129224666Y-58324000D01*
X129291333Y-58290666D01*
X130224666Y-58990666D02*
X129991333Y-58657333D01*
X129824666Y-58990666D02*
X129824666Y-58290666D01*
X130091333Y-58290666D01*
X130158000Y-58324000D01*
X130191333Y-58357333D01*
X130224666Y-58424000D01*
X130224666Y-58524000D01*
X130191333Y-58590666D01*
X130158000Y-58624000D01*
X130091333Y-58657333D01*
X129824666Y-58657333D01*
D10*
X129799714Y-47679904D02*
X129533047Y-47298952D01*
X129342571Y-47679904D02*
X129342571Y-46879904D01*
X129647333Y-46879904D01*
X129723523Y-46918000D01*
X129761619Y-46956095D01*
X129799714Y-47032285D01*
X129799714Y-47146571D01*
X129761619Y-47222761D01*
X129723523Y-47260857D01*
X129647333Y-47298952D01*
X129342571Y-47298952D01*
X130561619Y-47679904D02*
X130104476Y-47679904D01*
X130333047Y-47679904D02*
X130333047Y-46879904D01*
X130256857Y-46994190D01*
X130180666Y-47070380D01*
X130104476Y-47108476D01*
X131247333Y-47146571D02*
X131247333Y-47679904D01*
X131056857Y-46841809D02*
X130866380Y-47413238D01*
X131361619Y-47413238D01*
D11*
X129230666Y-49954666D02*
X129164000Y-49921333D01*
X129130666Y-49888000D01*
X129097333Y-49821333D01*
X129097333Y-49788000D01*
X129130666Y-49721333D01*
X129164000Y-49688000D01*
X129230666Y-49654666D01*
X129364000Y-49654666D01*
X129430666Y-49688000D01*
X129464000Y-49721333D01*
X129497333Y-49788000D01*
X129497333Y-49821333D01*
X129464000Y-49888000D01*
X129430666Y-49921333D01*
X129364000Y-49954666D01*
X129230666Y-49954666D01*
X129164000Y-49988000D01*
X129130666Y-50021333D01*
X129097333Y-50088000D01*
X129097333Y-50221333D01*
X129130666Y-50288000D01*
X129164000Y-50321333D01*
X129230666Y-50354666D01*
X129364000Y-50354666D01*
X129430666Y-50321333D01*
X129464000Y-50288000D01*
X129497333Y-50221333D01*
X129497333Y-50088000D01*
X129464000Y-50021333D01*
X129430666Y-49988000D01*
X129364000Y-49954666D01*
X129764000Y-49721333D02*
X129797333Y-49688000D01*
X129864000Y-49654666D01*
X130030666Y-49654666D01*
X130097333Y-49688000D01*
X130130666Y-49721333D01*
X130164000Y-49788000D01*
X130164000Y-49854666D01*
X130130666Y-49954666D01*
X129730666Y-50354666D01*
X130164000Y-50354666D01*
X130597333Y-49654666D02*
X130664000Y-49654666D01*
X130730666Y-49688000D01*
X130764000Y-49721333D01*
X130797333Y-49788000D01*
X130830666Y-49921333D01*
X130830666Y-50088000D01*
X130797333Y-50221333D01*
X130764000Y-50288000D01*
X130730666Y-50321333D01*
X130664000Y-50354666D01*
X130597333Y-50354666D01*
X130530666Y-50321333D01*
X130497333Y-50288000D01*
X130464000Y-50221333D01*
X130430666Y-50088000D01*
X130430666Y-49921333D01*
X130464000Y-49788000D01*
X130497333Y-49721333D01*
X130530666Y-49688000D01*
X130597333Y-49654666D01*
X131530666Y-50354666D02*
X131297333Y-50021333D01*
X131130666Y-50354666D02*
X131130666Y-49654666D01*
X131397333Y-49654666D01*
X131464000Y-49688000D01*
X131497333Y-49721333D01*
X131530666Y-49788000D01*
X131530666Y-49888000D01*
X131497333Y-49954666D01*
X131464000Y-49988000D01*
X131397333Y-50021333D01*
X131130666Y-50021333D01*
D10*
X142855904Y-68828285D02*
X142474952Y-69094952D01*
X142855904Y-69285428D02*
X142055904Y-69285428D01*
X142055904Y-68980666D01*
X142094000Y-68904476D01*
X142132095Y-68866380D01*
X142208285Y-68828285D01*
X142322571Y-68828285D01*
X142398761Y-68866380D01*
X142436857Y-68904476D01*
X142474952Y-68980666D01*
X142474952Y-69285428D01*
X142855904Y-68066380D02*
X142855904Y-68523523D01*
X142855904Y-68294952D02*
X142055904Y-68294952D01*
X142170190Y-68371142D01*
X142246380Y-68447333D01*
X142284476Y-68523523D01*
X142055904Y-67342571D02*
X142055904Y-67723523D01*
X142436857Y-67761619D01*
X142398761Y-67723523D01*
X142360666Y-67647333D01*
X142360666Y-67456857D01*
X142398761Y-67380666D01*
X142436857Y-67342571D01*
X142513047Y-67304476D01*
X142703523Y-67304476D01*
X142779714Y-67342571D01*
X142817809Y-67380666D01*
X142855904Y-67456857D01*
X142855904Y-67647333D01*
X142817809Y-67723523D01*
X142779714Y-67761619D01*
D11*
X145350666Y-69130666D02*
X145350666Y-69530666D01*
X145350666Y-69330666D02*
X144650666Y-69330666D01*
X144750666Y-69397333D01*
X144817333Y-69464000D01*
X144850666Y-69530666D01*
X144650666Y-68497333D02*
X144650666Y-68830666D01*
X144984000Y-68864000D01*
X144950666Y-68830666D01*
X144917333Y-68764000D01*
X144917333Y-68597333D01*
X144950666Y-68530666D01*
X144984000Y-68497333D01*
X145050666Y-68464000D01*
X145217333Y-68464000D01*
X145284000Y-68497333D01*
X145317333Y-68530666D01*
X145350666Y-68597333D01*
X145350666Y-68764000D01*
X145317333Y-68830666D01*
X145284000Y-68864000D01*
X144650666Y-68030666D02*
X144650666Y-67964000D01*
X144684000Y-67897333D01*
X144717333Y-67864000D01*
X144784000Y-67830666D01*
X144917333Y-67797333D01*
X145084000Y-67797333D01*
X145217333Y-67830666D01*
X145284000Y-67864000D01*
X145317333Y-67897333D01*
X145350666Y-67964000D01*
X145350666Y-68030666D01*
X145317333Y-68097333D01*
X145284000Y-68130666D01*
X145217333Y-68164000D01*
X145084000Y-68197333D01*
X144917333Y-68197333D01*
X144784000Y-68164000D01*
X144717333Y-68130666D01*
X144684000Y-68097333D01*
X144650666Y-68030666D01*
X145350666Y-67097333D02*
X145017333Y-67330666D01*
X145350666Y-67497333D02*
X144650666Y-67497333D01*
X144650666Y-67230666D01*
X144684000Y-67164000D01*
X144717333Y-67130666D01*
X144784000Y-67097333D01*
X144884000Y-67097333D01*
X144950666Y-67130666D01*
X144984000Y-67164000D01*
X145017333Y-67230666D01*
X145017333Y-67497333D01*
D10*
X143871904Y-61982285D02*
X143490952Y-62248952D01*
X143871904Y-62439428D02*
X143071904Y-62439428D01*
X143071904Y-62134666D01*
X143110000Y-62058476D01*
X143148095Y-62020380D01*
X143224285Y-61982285D01*
X143338571Y-61982285D01*
X143414761Y-62020380D01*
X143452857Y-62058476D01*
X143490952Y-62134666D01*
X143490952Y-62439428D01*
X143871904Y-61220380D02*
X143871904Y-61677523D01*
X143871904Y-61448952D02*
X143071904Y-61448952D01*
X143186190Y-61525142D01*
X143262380Y-61601333D01*
X143300476Y-61677523D01*
X143071904Y-60534666D02*
X143071904Y-60687047D01*
X143110000Y-60763238D01*
X143148095Y-60801333D01*
X143262380Y-60877523D01*
X143414761Y-60915619D01*
X143719523Y-60915619D01*
X143795714Y-60877523D01*
X143833809Y-60839428D01*
X143871904Y-60763238D01*
X143871904Y-60610857D01*
X143833809Y-60534666D01*
X143795714Y-60496571D01*
X143719523Y-60458476D01*
X143529047Y-60458476D01*
X143452857Y-60496571D01*
X143414761Y-60534666D01*
X143376666Y-60610857D01*
X143376666Y-60763238D01*
X143414761Y-60839428D01*
X143452857Y-60877523D01*
X143529047Y-60915619D01*
D11*
X146366666Y-62284666D02*
X146366666Y-62684666D01*
X146366666Y-62484666D02*
X145666666Y-62484666D01*
X145766666Y-62551333D01*
X145833333Y-62618000D01*
X145866666Y-62684666D01*
X145966666Y-61884666D02*
X145933333Y-61951333D01*
X145900000Y-61984666D01*
X145833333Y-62018000D01*
X145800000Y-62018000D01*
X145733333Y-61984666D01*
X145700000Y-61951333D01*
X145666666Y-61884666D01*
X145666666Y-61751333D01*
X145700000Y-61684666D01*
X145733333Y-61651333D01*
X145800000Y-61618000D01*
X145833333Y-61618000D01*
X145900000Y-61651333D01*
X145933333Y-61684666D01*
X145966666Y-61751333D01*
X145966666Y-61884666D01*
X146000000Y-61951333D01*
X146033333Y-61984666D01*
X146100000Y-62018000D01*
X146233333Y-62018000D01*
X146300000Y-61984666D01*
X146333333Y-61951333D01*
X146366666Y-61884666D01*
X146366666Y-61751333D01*
X146333333Y-61684666D01*
X146300000Y-61651333D01*
X146233333Y-61618000D01*
X146100000Y-61618000D01*
X146033333Y-61651333D01*
X146000000Y-61684666D01*
X145966666Y-61751333D01*
X145666666Y-61184666D02*
X145666666Y-61118000D01*
X145700000Y-61051333D01*
X145733333Y-61018000D01*
X145800000Y-60984666D01*
X145933333Y-60951333D01*
X146100000Y-60951333D01*
X146233333Y-60984666D01*
X146300000Y-61018000D01*
X146333333Y-61051333D01*
X146366666Y-61118000D01*
X146366666Y-61184666D01*
X146333333Y-61251333D01*
X146300000Y-61284666D01*
X146233333Y-61318000D01*
X146100000Y-61351333D01*
X145933333Y-61351333D01*
X145800000Y-61318000D01*
X145733333Y-61284666D01*
X145700000Y-61251333D01*
X145666666Y-61184666D01*
X146366666Y-60251333D02*
X146033333Y-60484666D01*
X146366666Y-60651333D02*
X145666666Y-60651333D01*
X145666666Y-60384666D01*
X145700000Y-60318000D01*
X145733333Y-60284666D01*
X145800000Y-60251333D01*
X145900000Y-60251333D01*
X145966666Y-60284666D01*
X146000000Y-60318000D01*
X146033333Y-60384666D01*
X146033333Y-60651333D01*
D10*
X143249714Y-47605904D02*
X142983047Y-47224952D01*
X142792571Y-47605904D02*
X142792571Y-46805904D01*
X143097333Y-46805904D01*
X143173523Y-46844000D01*
X143211619Y-46882095D01*
X143249714Y-46958285D01*
X143249714Y-47072571D01*
X143211619Y-47148761D01*
X143173523Y-47186857D01*
X143097333Y-47224952D01*
X142792571Y-47224952D01*
X144011619Y-47605904D02*
X143554476Y-47605904D01*
X143783047Y-47605904D02*
X143783047Y-46805904D01*
X143706857Y-46920190D01*
X143630666Y-46996380D01*
X143554476Y-47034476D01*
X144278285Y-46805904D02*
X144811619Y-46805904D01*
X144468761Y-47605904D01*
D11*
X143214000Y-49888000D02*
X143214000Y-50354666D01*
X143047333Y-49621333D02*
X142880666Y-50121333D01*
X143314000Y-50121333D01*
X143514000Y-49654666D02*
X143980666Y-49654666D01*
X143680666Y-50354666D01*
X144647333Y-50354666D02*
X144414000Y-50021333D01*
X144247333Y-50354666D02*
X144247333Y-49654666D01*
X144514000Y-49654666D01*
X144580666Y-49688000D01*
X144614000Y-49721333D01*
X144647333Y-49788000D01*
X144647333Y-49888000D01*
X144614000Y-49954666D01*
X144580666Y-49988000D01*
X144514000Y-50021333D01*
X144247333Y-50021333D01*
D10*
X121653333Y-82619904D02*
X121653333Y-83191333D01*
X121615238Y-83305619D01*
X121539047Y-83381809D01*
X121424761Y-83419904D01*
X121348571Y-83419904D01*
X122453333Y-83419904D02*
X121996190Y-83419904D01*
X122224761Y-83419904D02*
X122224761Y-82619904D01*
X122148571Y-82734190D01*
X122072380Y-82810380D01*
X121996190Y-82848476D01*
X146837523Y-48113904D02*
X146837523Y-47313904D01*
X147028000Y-47313904D01*
X147142285Y-47352000D01*
X147218476Y-47428190D01*
X147256571Y-47504380D01*
X147294666Y-47656761D01*
X147294666Y-47771047D01*
X147256571Y-47923428D01*
X147218476Y-47999619D01*
X147142285Y-48075809D01*
X147028000Y-48113904D01*
X146837523Y-48113904D01*
X148094666Y-48037714D02*
X148056571Y-48075809D01*
X147942285Y-48113904D01*
X147866095Y-48113904D01*
X147751809Y-48075809D01*
X147675619Y-47999619D01*
X147637523Y-47923428D01*
X147599428Y-47771047D01*
X147599428Y-47656761D01*
X147637523Y-47504380D01*
X147675619Y-47428190D01*
X147751809Y-47352000D01*
X147866095Y-47313904D01*
X147942285Y-47313904D01*
X148056571Y-47352000D01*
X148094666Y-47390095D01*
X148856571Y-48113904D02*
X148399428Y-48113904D01*
X148628000Y-48113904D02*
X148628000Y-47313904D01*
X148551809Y-47428190D01*
X148475619Y-47504380D01*
X148399428Y-47542476D01*
D11*
X150170000Y-48068666D02*
X149836666Y-48068666D01*
X149836666Y-47368666D01*
X150403333Y-48068666D02*
X150403333Y-47368666D01*
X150570000Y-47368666D01*
X150670000Y-47402000D01*
X150736666Y-47468666D01*
X150770000Y-47535333D01*
X150803333Y-47668666D01*
X150803333Y-47768666D01*
X150770000Y-47902000D01*
X150736666Y-47968666D01*
X150670000Y-48035333D01*
X150570000Y-48068666D01*
X150403333Y-48068666D01*
X151103333Y-47368666D02*
X151103333Y-47935333D01*
X151136666Y-48002000D01*
X151170000Y-48035333D01*
X151236666Y-48068666D01*
X151370000Y-48068666D01*
X151436666Y-48035333D01*
X151470000Y-48002000D01*
X151503333Y-47935333D01*
X151503333Y-47368666D01*
X151803333Y-47435333D02*
X151836666Y-47402000D01*
X151903333Y-47368666D01*
X152070000Y-47368666D01*
X152136666Y-47402000D01*
X152170000Y-47435333D01*
X152203333Y-47502000D01*
X152203333Y-47568666D01*
X152170000Y-47668666D01*
X151770000Y-48068666D01*
X152203333Y-48068666D01*
X152803333Y-47602000D02*
X152803333Y-48068666D01*
X152636666Y-47335333D02*
X152470000Y-47835333D01*
X152903333Y-47835333D01*
X153103333Y-47368666D02*
X153536666Y-47368666D01*
X153303333Y-47635333D01*
X153403333Y-47635333D01*
X153470000Y-47668666D01*
X153503333Y-47702000D01*
X153536666Y-47768666D01*
X153536666Y-47935333D01*
X153503333Y-48002000D01*
X153470000Y-48035333D01*
X153403333Y-48068666D01*
X153203333Y-48068666D01*
X153136666Y-48035333D01*
X153103333Y-48002000D01*
X153970000Y-47368666D02*
X154036666Y-47368666D01*
X154103333Y-47402000D01*
X154136666Y-47435333D01*
X154170000Y-47502000D01*
X154203333Y-47635333D01*
X154203333Y-47802000D01*
X154170000Y-47935333D01*
X154136666Y-48002000D01*
X154103333Y-48035333D01*
X154036666Y-48068666D01*
X153970000Y-48068666D01*
X153903333Y-48035333D01*
X153870000Y-48002000D01*
X153836666Y-47935333D01*
X153803333Y-47802000D01*
X153803333Y-47635333D01*
X153836666Y-47502000D01*
X153870000Y-47435333D01*
X153903333Y-47402000D01*
X153970000Y-47368666D01*
X154470000Y-48035333D02*
X154570000Y-48068666D01*
X154736666Y-48068666D01*
X154803333Y-48035333D01*
X154836666Y-48002000D01*
X154870000Y-47935333D01*
X154870000Y-47868666D01*
X154836666Y-47802000D01*
X154803333Y-47768666D01*
X154736666Y-47735333D01*
X154603333Y-47702000D01*
X154536666Y-47668666D01*
X154503333Y-47635333D01*
X154470000Y-47568666D01*
X154470000Y-47502000D01*
X154503333Y-47435333D01*
X154536666Y-47402000D01*
X154603333Y-47368666D01*
X154770000Y-47368666D01*
X154870000Y-47402000D01*
X155536666Y-48068666D02*
X155136666Y-48068666D01*
X155336666Y-48068666D02*
X155336666Y-47368666D01*
X155270000Y-47468666D01*
X155203333Y-47535333D01*
X155136666Y-47568666D01*
X155970000Y-47368666D02*
X156036666Y-47368666D01*
X156103333Y-47402000D01*
X156136666Y-47435333D01*
X156170000Y-47502000D01*
X156203333Y-47635333D01*
X156203333Y-47802000D01*
X156170000Y-47935333D01*
X156136666Y-48002000D01*
X156103333Y-48035333D01*
X156036666Y-48068666D01*
X155970000Y-48068666D01*
X155903333Y-48035333D01*
X155870000Y-48002000D01*
X155836666Y-47935333D01*
X155803333Y-47802000D01*
X155803333Y-47635333D01*
X155836666Y-47502000D01*
X155870000Y-47435333D01*
X155903333Y-47402000D01*
X155970000Y-47368666D01*
X156636666Y-47368666D02*
X156703333Y-47368666D01*
X156770000Y-47402000D01*
X156803333Y-47435333D01*
X156836666Y-47502000D01*
X156870000Y-47635333D01*
X156870000Y-47802000D01*
X156836666Y-47935333D01*
X156803333Y-48002000D01*
X156770000Y-48035333D01*
X156703333Y-48068666D01*
X156636666Y-48068666D01*
X156570000Y-48035333D01*
X156536666Y-48002000D01*
X156503333Y-47935333D01*
X156470000Y-47802000D01*
X156470000Y-47635333D01*
X156503333Y-47502000D01*
X156536666Y-47435333D01*
X156570000Y-47402000D01*
X156636666Y-47368666D01*
X157303333Y-47368666D02*
X157370000Y-47368666D01*
X157436666Y-47402000D01*
X157470000Y-47435333D01*
X157503333Y-47502000D01*
X157536666Y-47635333D01*
X157536666Y-47802000D01*
X157503333Y-47935333D01*
X157470000Y-48002000D01*
X157436666Y-48035333D01*
X157370000Y-48068666D01*
X157303333Y-48068666D01*
X157236666Y-48035333D01*
X157203333Y-48002000D01*
X157170000Y-47935333D01*
X157136666Y-47802000D01*
X157136666Y-47635333D01*
X157170000Y-47502000D01*
X157203333Y-47435333D01*
X157236666Y-47402000D01*
X157303333Y-47368666D01*
D10*
X120745333Y-71951904D02*
X120745333Y-72523333D01*
X120707238Y-72637619D01*
X120631047Y-72713809D01*
X120516761Y-72751904D01*
X120440571Y-72751904D01*
X121126285Y-72751904D02*
X121126285Y-71951904D01*
X121431047Y-71951904D01*
X121507238Y-71990000D01*
X121545333Y-72028095D01*
X121583428Y-72104285D01*
X121583428Y-72218571D01*
X121545333Y-72294761D01*
X121507238Y-72332857D01*
X121431047Y-72370952D01*
X121126285Y-72370952D01*
X122345333Y-72751904D02*
X121888190Y-72751904D01*
X122116761Y-72751904D02*
X122116761Y-71951904D01*
X122040571Y-72066190D01*
X121964380Y-72142380D01*
X121888190Y-72180476D01*
X142697333Y-71951809D02*
X142811619Y-71989904D01*
X143002095Y-71989904D01*
X143078285Y-71951809D01*
X143116380Y-71913714D01*
X143154476Y-71837523D01*
X143154476Y-71761333D01*
X143116380Y-71685142D01*
X143078285Y-71647047D01*
X143002095Y-71608952D01*
X142849714Y-71570857D01*
X142773523Y-71532761D01*
X142735428Y-71494666D01*
X142697333Y-71418476D01*
X142697333Y-71342285D01*
X142735428Y-71266095D01*
X142773523Y-71228000D01*
X142849714Y-71189904D01*
X143040190Y-71189904D01*
X143154476Y-71228000D01*
X143421142Y-71189904D02*
X143611619Y-71989904D01*
X143764000Y-71418476D01*
X143916380Y-71989904D01*
X144106857Y-71189904D01*
X144830666Y-71989904D02*
X144373523Y-71989904D01*
X144602095Y-71989904D02*
X144602095Y-71189904D01*
X144525904Y-71304190D01*
X144449714Y-71380380D01*
X144373523Y-71418476D01*
X126917523Y-64877904D02*
X126917523Y-64077904D01*
X127108000Y-64077904D01*
X127222285Y-64116000D01*
X127298476Y-64192190D01*
X127336571Y-64268380D01*
X127374666Y-64420761D01*
X127374666Y-64535047D01*
X127336571Y-64687428D01*
X127298476Y-64763619D01*
X127222285Y-64839809D01*
X127108000Y-64877904D01*
X126917523Y-64877904D01*
X128136571Y-64877904D02*
X127679428Y-64877904D01*
X127908000Y-64877904D02*
X127908000Y-64077904D01*
X127831809Y-64192190D01*
X127755619Y-64268380D01*
X127679428Y-64306476D01*
D11*
X123784000Y-68642666D02*
X123784000Y-67942666D01*
X124017333Y-68442666D01*
X124250666Y-67942666D01*
X124250666Y-68642666D01*
X124550666Y-68442666D02*
X124884000Y-68442666D01*
X124484000Y-68642666D02*
X124717333Y-67942666D01*
X124950666Y-68642666D01*
X125117333Y-67942666D02*
X125584000Y-68642666D01*
X125584000Y-67942666D02*
X125117333Y-68642666D01*
X126150666Y-67942666D02*
X126017333Y-67942666D01*
X125950666Y-67976000D01*
X125917333Y-68009333D01*
X125850666Y-68109333D01*
X125817333Y-68242666D01*
X125817333Y-68509333D01*
X125850666Y-68576000D01*
X125884000Y-68609333D01*
X125950666Y-68642666D01*
X126084000Y-68642666D01*
X126150666Y-68609333D01*
X126184000Y-68576000D01*
X126217333Y-68509333D01*
X126217333Y-68342666D01*
X126184000Y-68276000D01*
X126150666Y-68242666D01*
X126084000Y-68209333D01*
X125950666Y-68209333D01*
X125884000Y-68242666D01*
X125850666Y-68276000D01*
X125817333Y-68342666D01*
X126650666Y-67942666D02*
X126717333Y-67942666D01*
X126784000Y-67976000D01*
X126817333Y-68009333D01*
X126850666Y-68076000D01*
X126884000Y-68209333D01*
X126884000Y-68376000D01*
X126850666Y-68509333D01*
X126817333Y-68576000D01*
X126784000Y-68609333D01*
X126717333Y-68642666D01*
X126650666Y-68642666D01*
X126584000Y-68609333D01*
X126550666Y-68576000D01*
X126517333Y-68509333D01*
X126484000Y-68376000D01*
X126484000Y-68209333D01*
X126517333Y-68076000D01*
X126550666Y-68009333D01*
X126584000Y-67976000D01*
X126650666Y-67942666D01*
X127317333Y-67942666D02*
X127384000Y-67942666D01*
X127450666Y-67976000D01*
X127484000Y-68009333D01*
X127517333Y-68076000D01*
X127550666Y-68209333D01*
X127550666Y-68376000D01*
X127517333Y-68509333D01*
X127484000Y-68576000D01*
X127450666Y-68609333D01*
X127384000Y-68642666D01*
X127317333Y-68642666D01*
X127250666Y-68609333D01*
X127217333Y-68576000D01*
X127184000Y-68509333D01*
X127150666Y-68376000D01*
X127150666Y-68209333D01*
X127184000Y-68076000D01*
X127217333Y-68009333D01*
X127250666Y-67976000D01*
X127317333Y-67942666D01*
X128150666Y-67942666D02*
X128017333Y-67942666D01*
X127950666Y-67976000D01*
X127917333Y-68009333D01*
X127850666Y-68109333D01*
X127817333Y-68242666D01*
X127817333Y-68509333D01*
X127850666Y-68576000D01*
X127884000Y-68609333D01*
X127950666Y-68642666D01*
X128084000Y-68642666D01*
X128150666Y-68609333D01*
X128184000Y-68576000D01*
X128217333Y-68509333D01*
X128217333Y-68342666D01*
X128184000Y-68276000D01*
X128150666Y-68242666D01*
X128084000Y-68209333D01*
X127950666Y-68209333D01*
X127884000Y-68242666D01*
X127850666Y-68276000D01*
X127817333Y-68342666D01*
D10*
X139433333Y-93414857D02*
X139166666Y-93414857D01*
X139166666Y-93833904D02*
X139166666Y-93033904D01*
X139547619Y-93033904D01*
X140271428Y-93833904D02*
X139814285Y-93833904D01*
X140042857Y-93833904D02*
X140042857Y-93033904D01*
X139966666Y-93148190D01*
X139890476Y-93224380D01*
X139814285Y-93262476D01*
D11*
X138033333Y-86484666D02*
X138433333Y-86484666D01*
X138233333Y-87184666D02*
X138233333Y-86484666D01*
X139033333Y-87184666D02*
X138633333Y-87184666D01*
X138833333Y-87184666D02*
X138833333Y-86484666D01*
X138766666Y-86584666D01*
X138700000Y-86651333D01*
X138633333Y-86684666D01*
X139333333Y-87118000D02*
X139366666Y-87151333D01*
X139333333Y-87184666D01*
X139300000Y-87151333D01*
X139333333Y-87118000D01*
X139333333Y-87184666D01*
X139633333Y-86551333D02*
X139666666Y-86518000D01*
X139733333Y-86484666D01*
X139900000Y-86484666D01*
X139966666Y-86518000D01*
X140000000Y-86551333D01*
X140033333Y-86618000D01*
X140033333Y-86684666D01*
X140000000Y-86784666D01*
X139600000Y-87184666D01*
X140033333Y-87184666D01*
X140666666Y-86484666D02*
X140333333Y-86484666D01*
X140300000Y-86818000D01*
X140333333Y-86784666D01*
X140400000Y-86751333D01*
X140566666Y-86751333D01*
X140633333Y-86784666D01*
X140666666Y-86818000D01*
X140700000Y-86884666D01*
X140700000Y-87051333D01*
X140666666Y-87118000D01*
X140633333Y-87151333D01*
X140566666Y-87184666D01*
X140400000Y-87184666D01*
X140333333Y-87151333D01*
X140300000Y-87118000D01*
X140966666Y-86984666D02*
X141300000Y-86984666D01*
X140900000Y-87184666D02*
X141133333Y-86484666D01*
X141366666Y-87184666D01*
D10*
X118770476Y-94341904D02*
X118770476Y-93541904D01*
X118770476Y-93922857D02*
X119227619Y-93922857D01*
X119227619Y-94341904D02*
X119227619Y-93541904D01*
X120027619Y-94341904D02*
X119570476Y-94341904D01*
X119799047Y-94341904D02*
X119799047Y-93541904D01*
X119722857Y-93656190D01*
X119646666Y-93732380D01*
X119570476Y-93770476D01*
X118618095Y-39822380D02*
X118618095Y-38822380D01*
X118618095Y-39298571D02*
X119189523Y-39298571D01*
X119189523Y-39822380D02*
X119189523Y-38822380D01*
X119618095Y-38917619D02*
X119665714Y-38870000D01*
X119760952Y-38822380D01*
X119999047Y-38822380D01*
X120094285Y-38870000D01*
X120141904Y-38917619D01*
X120189523Y-39012857D01*
X120189523Y-39108095D01*
X120141904Y-39250952D01*
X119570476Y-39822380D01*
X120189523Y-39822380D01*
X159258095Y-39822380D02*
X159258095Y-38822380D01*
X159258095Y-39298571D02*
X159829523Y-39298571D01*
X159829523Y-39822380D02*
X159829523Y-38822380D01*
X160210476Y-38822380D02*
X160829523Y-38822380D01*
X160496190Y-39203333D01*
X160639047Y-39203333D01*
X160734285Y-39250952D01*
X160781904Y-39298571D01*
X160829523Y-39393809D01*
X160829523Y-39631904D01*
X160781904Y-39727142D01*
X160734285Y-39774761D01*
X160639047Y-39822380D01*
X160353333Y-39822380D01*
X160258095Y-39774761D01*
X160210476Y-39727142D01*
X159410476Y-94341904D02*
X159410476Y-93541904D01*
X159410476Y-93922857D02*
X159867619Y-93922857D01*
X159867619Y-94341904D02*
X159867619Y-93541904D01*
X160591428Y-93808571D02*
X160591428Y-94341904D01*
X160400952Y-93503809D02*
X160210476Y-94075238D01*
X160705714Y-94075238D01*
X150729904Y-80143333D02*
X150348952Y-80410000D01*
X150729904Y-80600476D02*
X149929904Y-80600476D01*
X149929904Y-80295714D01*
X149968000Y-80219523D01*
X150006095Y-80181428D01*
X150082285Y-80143333D01*
X150196571Y-80143333D01*
X150272761Y-80181428D01*
X150310857Y-80219523D01*
X150348952Y-80295714D01*
X150348952Y-80600476D01*
X149929904Y-79876666D02*
X149929904Y-79381428D01*
X150234666Y-79648095D01*
X150234666Y-79533809D01*
X150272761Y-79457619D01*
X150310857Y-79419523D01*
X150387047Y-79381428D01*
X150577523Y-79381428D01*
X150653714Y-79419523D01*
X150691809Y-79457619D01*
X150729904Y-79533809D01*
X150729904Y-79762380D01*
X150691809Y-79838571D01*
X150653714Y-79876666D01*
D11*
X151700666Y-80318666D02*
X151700666Y-80718666D01*
X151700666Y-80518666D02*
X151000666Y-80518666D01*
X151100666Y-80585333D01*
X151167333Y-80652000D01*
X151200666Y-80718666D01*
X151067333Y-80052000D02*
X151034000Y-80018666D01*
X151000666Y-79952000D01*
X151000666Y-79785333D01*
X151034000Y-79718666D01*
X151067333Y-79685333D01*
X151134000Y-79652000D01*
X151200666Y-79652000D01*
X151300666Y-79685333D01*
X151700666Y-80085333D01*
X151700666Y-79652000D01*
X151000666Y-79218666D02*
X151000666Y-79152000D01*
X151034000Y-79085333D01*
X151067333Y-79052000D01*
X151134000Y-79018666D01*
X151267333Y-78985333D01*
X151434000Y-78985333D01*
X151567333Y-79018666D01*
X151634000Y-79052000D01*
X151667333Y-79085333D01*
X151700666Y-79152000D01*
X151700666Y-79218666D01*
X151667333Y-79285333D01*
X151634000Y-79318666D01*
X151567333Y-79352000D01*
X151434000Y-79385333D01*
X151267333Y-79385333D01*
X151134000Y-79352000D01*
X151067333Y-79318666D01*
X151034000Y-79285333D01*
X151000666Y-79218666D01*
X151700666Y-78285333D02*
X151367333Y-78518666D01*
X151700666Y-78685333D02*
X151000666Y-78685333D01*
X151000666Y-78418666D01*
X151034000Y-78352000D01*
X151067333Y-78318666D01*
X151134000Y-78285333D01*
X151234000Y-78285333D01*
X151300666Y-78318666D01*
X151334000Y-78352000D01*
X151367333Y-78418666D01*
X151367333Y-78685333D01*
D10*
X148964666Y-86213904D02*
X148698000Y-85832952D01*
X148507523Y-86213904D02*
X148507523Y-85413904D01*
X148812285Y-85413904D01*
X148888476Y-85452000D01*
X148926571Y-85490095D01*
X148964666Y-85566285D01*
X148964666Y-85680571D01*
X148926571Y-85756761D01*
X148888476Y-85794857D01*
X148812285Y-85832952D01*
X148507523Y-85832952D01*
X149650380Y-85680571D02*
X149650380Y-86213904D01*
X149459904Y-85375809D02*
X149269428Y-85947238D01*
X149764666Y-85947238D01*
D11*
X152091333Y-86168666D02*
X151691333Y-86168666D01*
X151891333Y-86168666D02*
X151891333Y-85468666D01*
X151824666Y-85568666D01*
X151758000Y-85635333D01*
X151691333Y-85668666D01*
X152358000Y-85535333D02*
X152391333Y-85502000D01*
X152458000Y-85468666D01*
X152624666Y-85468666D01*
X152691333Y-85502000D01*
X152724666Y-85535333D01*
X152758000Y-85602000D01*
X152758000Y-85668666D01*
X152724666Y-85768666D01*
X152324666Y-86168666D01*
X152758000Y-86168666D01*
X153191333Y-85468666D02*
X153258000Y-85468666D01*
X153324666Y-85502000D01*
X153358000Y-85535333D01*
X153391333Y-85602000D01*
X153424666Y-85735333D01*
X153424666Y-85902000D01*
X153391333Y-86035333D01*
X153358000Y-86102000D01*
X153324666Y-86135333D01*
X153258000Y-86168666D01*
X153191333Y-86168666D01*
X153124666Y-86135333D01*
X153091333Y-86102000D01*
X153058000Y-86035333D01*
X153024666Y-85902000D01*
X153024666Y-85735333D01*
X153058000Y-85602000D01*
X153091333Y-85535333D01*
X153124666Y-85502000D01*
X153191333Y-85468666D01*
X154124666Y-86168666D02*
X153891333Y-85835333D01*
X153724666Y-86168666D02*
X153724666Y-85468666D01*
X153991333Y-85468666D01*
X154058000Y-85502000D01*
X154091333Y-85535333D01*
X154124666Y-85602000D01*
X154124666Y-85702000D01*
X154091333Y-85768666D01*
X154058000Y-85802000D01*
X153991333Y-85835333D01*
X153724666Y-85835333D01*
D10*
X156330666Y-86467904D02*
X156064000Y-86086952D01*
X155873523Y-86467904D02*
X155873523Y-85667904D01*
X156178285Y-85667904D01*
X156254476Y-85706000D01*
X156292571Y-85744095D01*
X156330666Y-85820285D01*
X156330666Y-85934571D01*
X156292571Y-86010761D01*
X156254476Y-86048857D01*
X156178285Y-86086952D01*
X155873523Y-86086952D01*
X157054476Y-85667904D02*
X156673523Y-85667904D01*
X156635428Y-86048857D01*
X156673523Y-86010761D01*
X156749714Y-85972666D01*
X156940190Y-85972666D01*
X157016380Y-86010761D01*
X157054476Y-86048857D01*
X157092571Y-86125047D01*
X157092571Y-86315523D01*
X157054476Y-86391714D01*
X157016380Y-86429809D01*
X156940190Y-86467904D01*
X156749714Y-86467904D01*
X156673523Y-86429809D01*
X156635428Y-86391714D01*
D11*
X156155333Y-87438666D02*
X155755333Y-87438666D01*
X155955333Y-87438666D02*
X155955333Y-86738666D01*
X155888666Y-86838666D01*
X155822000Y-86905333D01*
X155755333Y-86938666D01*
X156422000Y-86805333D02*
X156455333Y-86772000D01*
X156522000Y-86738666D01*
X156688666Y-86738666D01*
X156755333Y-86772000D01*
X156788666Y-86805333D01*
X156822000Y-86872000D01*
X156822000Y-86938666D01*
X156788666Y-87038666D01*
X156388666Y-87438666D01*
X156822000Y-87438666D01*
X157255333Y-86738666D02*
X157322000Y-86738666D01*
X157388666Y-86772000D01*
X157422000Y-86805333D01*
X157455333Y-86872000D01*
X157488666Y-87005333D01*
X157488666Y-87172000D01*
X157455333Y-87305333D01*
X157422000Y-87372000D01*
X157388666Y-87405333D01*
X157322000Y-87438666D01*
X157255333Y-87438666D01*
X157188666Y-87405333D01*
X157155333Y-87372000D01*
X157122000Y-87305333D01*
X157088666Y-87172000D01*
X157088666Y-87005333D01*
X157122000Y-86872000D01*
X157155333Y-86805333D01*
X157188666Y-86772000D01*
X157255333Y-86738666D01*
X158188666Y-87438666D02*
X157955333Y-87105333D01*
X157788666Y-87438666D02*
X157788666Y-86738666D01*
X158055333Y-86738666D01*
X158122000Y-86772000D01*
X158155333Y-86805333D01*
X158188666Y-86872000D01*
X158188666Y-86972000D01*
X158155333Y-87038666D01*
X158122000Y-87072000D01*
X158055333Y-87105333D01*
X157788666Y-87105333D01*
M02*
