G04 #@! TF.GenerationSoftware,KiCad,Pcbnew,5.1.3*
G04 #@! TF.CreationDate,2019-08-09T23:07:45+01:00*
G04 #@! TF.ProjectId,LEDregulator,4c454472-6567-4756-9c61-746f722e6b69,rev?*
G04 #@! TF.SameCoordinates,Original*
G04 #@! TF.FileFunction,Copper,L2,Bot*
G04 #@! TF.FilePolarity,Positive*
%FSLAX46Y46*%
G04 Gerber Fmt 4.6, Leading zero omitted, Abs format (unit mm)*
G04 Created by KiCad (PCBNEW 5.1.3) date 2019-08-09 23:07:45*
%MOMM*%
%LPD*%
G04 APERTURE LIST*
%ADD10C,0.381000*%
%ADD11C,1.400000*%
%ADD12R,1.400000X1.400000*%
%ADD13C,2.400000*%
%ADD14C,4.800000*%
%ADD15O,2.100000X1.900000*%
%ADD16R,2.100000X1.900000*%
%ADD17C,1.524000*%
%ADD18O,1.700000X1.700000*%
%ADD19R,1.700000X1.700000*%
%ADD20O,3.800000X2.500000*%
%ADD21C,2.350000*%
%ADD22C,0.800000*%
%ADD23C,1.200000*%
%ADD24C,1.024000*%
%ADD25C,2.000000*%
%ADD26C,0.508000*%
%ADD27C,0.254000*%
G04 APERTURE END LIST*
D10*
X129956560Y-39509700D02*
X130556000Y-39410640D01*
X129555240Y-39608760D02*
X129956560Y-39509700D01*
X129054860Y-39911020D02*
X129555240Y-39608760D01*
X128557020Y-40408860D02*
X129054860Y-39911020D01*
X128254760Y-40909240D02*
X128557020Y-40408860D01*
X128056640Y-41511220D02*
X128254760Y-40909240D01*
X128056640Y-42110660D02*
X128056640Y-41511220D01*
X128155700Y-42710100D02*
X128056640Y-42110660D01*
X128557020Y-43411140D02*
X128155700Y-42710100D01*
X129054860Y-43908980D02*
X128557020Y-43411140D01*
X129656840Y-44211240D02*
X129054860Y-43908980D01*
X130256280Y-44409360D02*
X129656840Y-44211240D01*
X131056380Y-44409360D02*
X130256280Y-44409360D01*
X131754880Y-44109640D02*
X131056380Y-44409360D01*
X132255260Y-43710860D02*
X131754880Y-44109640D01*
X132857240Y-43009820D02*
X132255260Y-43710860D01*
X133055360Y-42209720D02*
X132857240Y-43009820D01*
X133055360Y-41610280D02*
X133055360Y-42209720D01*
X132956300Y-41109900D02*
X133055360Y-41610280D01*
X132755640Y-40711120D02*
X132956300Y-41109900D01*
X132255260Y-40109140D02*
X132755640Y-40711120D01*
X131754880Y-39710360D02*
X132255260Y-40109140D01*
X131257040Y-39509700D02*
X131754880Y-39710360D01*
X130655060Y-39410640D02*
X131257040Y-39509700D01*
X130556000Y-39410640D02*
X130655060Y-39410640D01*
X131056380Y-40408860D02*
X131556760Y-40609520D01*
X130655060Y-40309800D02*
X131056380Y-40408860D01*
X130256280Y-40309800D02*
X130655060Y-40309800D01*
X129656840Y-40609520D02*
X130256280Y-40309800D01*
X129357120Y-40909240D02*
X129656840Y-40609520D01*
X129054860Y-41409620D02*
X129357120Y-40909240D01*
X128955800Y-41910000D02*
X129054860Y-41409620D01*
X128955800Y-42308780D02*
X128955800Y-41910000D01*
X129255520Y-42809160D02*
X128955800Y-42308780D01*
X129656840Y-43210480D02*
X129255520Y-42809160D01*
X130157220Y-43411140D02*
X129656840Y-43210480D01*
X130655060Y-43510200D02*
X130157220Y-43411140D01*
X131155440Y-43411140D02*
X130655060Y-43510200D01*
X131655820Y-43108880D02*
X131155440Y-43411140D01*
X136052560Y-39509700D02*
X136652000Y-39410640D01*
X135651240Y-39608760D02*
X136052560Y-39509700D01*
X135150860Y-39911020D02*
X135651240Y-39608760D01*
X134653020Y-40408860D02*
X135150860Y-39911020D01*
X134350760Y-40909240D02*
X134653020Y-40408860D01*
X134152640Y-41511220D02*
X134350760Y-40909240D01*
X134152640Y-42110660D02*
X134152640Y-41511220D01*
X134251700Y-42710100D02*
X134152640Y-42110660D01*
X134653020Y-43411140D02*
X134251700Y-42710100D01*
X135150860Y-43908980D02*
X134653020Y-43411140D01*
X135752840Y-44211240D02*
X135150860Y-43908980D01*
X136352280Y-44409360D02*
X135752840Y-44211240D01*
X137152380Y-44409360D02*
X136352280Y-44409360D01*
X137850880Y-44109640D02*
X137152380Y-44409360D01*
X138351260Y-43710860D02*
X137850880Y-44109640D01*
X138953240Y-43009820D02*
X138351260Y-43710860D01*
X139151360Y-42209720D02*
X138953240Y-43009820D01*
X139151360Y-41610280D02*
X139151360Y-42209720D01*
X139052300Y-41109900D02*
X139151360Y-41610280D01*
X138851640Y-40711120D02*
X139052300Y-41109900D01*
X138351260Y-40109140D02*
X138851640Y-40711120D01*
X137850880Y-39710360D02*
X138351260Y-40109140D01*
X137353040Y-39509700D02*
X137850880Y-39710360D01*
X136751060Y-39410640D02*
X137353040Y-39509700D01*
X136652000Y-39410640D02*
X136751060Y-39410640D01*
X136967666Y-40210740D02*
G75*
G03X136967666Y-40210740I-315666J0D01*
G01*
X137452100Y-42110660D02*
X137452100Y-40909240D01*
X135950960Y-42110660D02*
X137452100Y-42110660D01*
X135950960Y-40909240D02*
X135950960Y-42110660D01*
X137452100Y-40909240D02*
X135950960Y-40909240D01*
X136951720Y-43710860D02*
X136451340Y-43710860D01*
X136951720Y-42209720D02*
X136951720Y-43710860D01*
X136352280Y-43710860D02*
X136352280Y-42110660D01*
X136552940Y-43710860D02*
X136352280Y-43710860D01*
X136652000Y-42209720D02*
X136652000Y-43510200D01*
X137452100Y-41810940D02*
X136151620Y-41810940D01*
X136151620Y-41511220D02*
X137353040Y-41511220D01*
X137353040Y-41208960D02*
X136052560Y-41208960D01*
X136652000Y-40010080D02*
X136652000Y-40408860D01*
D11*
X165735000Y-75565000D03*
D12*
X165735000Y-71755000D03*
D11*
X165735000Y-67945000D03*
D12*
X165735000Y-64135000D03*
D11*
X165735000Y-59690000D03*
D12*
X165735000Y-55880000D03*
D11*
X165735000Y-52070000D03*
D12*
X165735000Y-48260000D03*
D11*
X165735000Y-85090000D03*
D12*
X165735000Y-81280000D03*
D13*
X123734000Y-77724000D03*
D14*
X127534000Y-77724000D03*
X134134000Y-77724000D03*
X131084000Y-82724000D03*
D15*
X141732000Y-52324000D03*
X134112000Y-52324000D03*
D16*
X134112000Y-59944000D03*
D15*
X141732000Y-59944000D03*
X134112000Y-57404000D03*
X141732000Y-54864000D03*
X134112000Y-54864000D03*
X141732000Y-57404000D03*
D17*
X148590000Y-51308000D03*
X148590000Y-53848000D03*
X148590000Y-56388000D03*
X148590000Y-66548000D03*
X148590000Y-69088000D03*
X158750000Y-69088000D03*
X158750000Y-66548000D03*
X158750000Y-53848000D03*
X158750000Y-51308000D03*
D18*
X121412000Y-65024000D03*
X121412000Y-67564000D03*
D19*
X121412000Y-70104000D03*
D20*
X141354000Y-83440000D03*
X141354000Y-78740000D03*
X141354000Y-74040000D03*
X146174000Y-83440000D03*
X146174000Y-78740000D03*
X146174000Y-74040000D03*
D21*
X147320000Y-87630000D03*
X147320000Y-92710000D03*
X132000000Y-87630000D03*
X132000000Y-92710000D03*
D12*
X123190000Y-55880000D03*
D11*
X123190000Y-52070000D03*
D22*
X131826000Y-64262000D03*
X128270000Y-66548000D03*
X131826000Y-64262000D03*
X144780000Y-62738000D03*
X145034000Y-48768000D03*
X145288000Y-54356000D03*
X131572000Y-69596000D03*
X128778000Y-48768000D03*
X127381000Y-57404000D03*
D23*
X138430000Y-65405000D03*
D24*
X129540000Y-66548000D02*
X131826000Y-64262000D01*
X128270000Y-66548000D02*
X129540000Y-66548000D01*
X131572000Y-64516000D02*
X131826000Y-64262000D01*
X131572000Y-69596000D02*
X131572000Y-64516000D01*
X131572000Y-73686000D02*
X127534000Y-77724000D01*
X131572000Y-69596000D02*
X131572000Y-73686000D01*
X144780000Y-62738000D02*
X144780000Y-63754000D01*
X145288000Y-64262000D02*
X146304000Y-64262000D01*
X144780000Y-63754000D02*
X145288000Y-64262000D01*
X149351999Y-54609999D02*
X148590000Y-53848000D01*
X150064001Y-55322001D02*
X149351999Y-54609999D01*
X150064001Y-57095521D02*
X150064001Y-55322001D01*
X146304000Y-60855522D02*
X150064001Y-57095521D01*
X146304000Y-64262000D02*
X146304000Y-60855522D01*
X128778000Y-50292000D02*
X128778000Y-48768000D01*
X127381000Y-57404000D02*
X127381000Y-51816000D01*
X127381000Y-51816000D02*
X127317500Y-51752500D01*
X123190000Y-55880000D02*
X127317500Y-51752500D01*
X127317500Y-51752500D02*
X128778000Y-50292000D01*
X127381000Y-60325000D02*
X131572000Y-64516000D01*
X127381000Y-57404000D02*
X127381000Y-60325000D01*
X136652000Y-64262000D02*
X145288000Y-64262000D01*
X136652000Y-64262000D02*
X137287000Y-64262000D01*
X131826000Y-64262000D02*
X136652000Y-64262000D01*
X137287000Y-64262000D02*
X138430000Y-65405000D01*
X158645522Y-64262000D02*
X146304000Y-64262000D01*
X165735000Y-71351478D02*
X158645522Y-64262000D01*
X165735000Y-71755000D02*
X165735000Y-71351478D01*
X165735000Y-57604000D02*
X165735000Y-55880000D01*
X159077000Y-64262000D02*
X165735000Y-57604000D01*
X158645522Y-64262000D02*
X159077000Y-64262000D01*
D25*
X148590000Y-66548000D02*
X148590000Y-69088000D01*
X160782000Y-81280000D02*
X148590000Y-69088000D01*
X165735000Y-81280000D02*
X160782000Y-81280000D01*
X146174000Y-78740000D02*
X150074000Y-78740000D01*
X156424000Y-85090000D02*
X150074000Y-78740000D01*
X165735000Y-85090000D02*
X156424000Y-85090000D01*
D26*
X166434999Y-58990001D02*
X165735000Y-59690000D01*
X166889001Y-58535999D02*
X166434999Y-58990001D01*
X166889001Y-50622001D02*
X166889001Y-58535999D01*
X165735000Y-49468000D02*
X166889001Y-50622001D01*
X165735000Y-48260000D02*
X165735000Y-49468000D01*
X166889001Y-66497001D02*
X166889001Y-74410999D01*
X165735000Y-64135000D02*
X165735000Y-65343000D01*
X166889001Y-74410999D02*
X165735000Y-75565000D01*
X165735000Y-65343000D02*
X166889001Y-66497001D01*
D27*
G36*
X129318044Y-38817033D02*
G01*
X129315365Y-38817981D01*
X129273106Y-38828721D01*
X129238895Y-38845046D01*
X129203167Y-38857691D01*
X129165699Y-38879974D01*
X129163127Y-38881201D01*
X129130808Y-38900724D01*
X129063405Y-38940809D01*
X129061276Y-38942725D01*
X128646613Y-39193208D01*
X128594017Y-39221321D01*
X128545729Y-39260951D01*
X128495696Y-39298325D01*
X128455805Y-39342643D01*
X127988643Y-39809805D01*
X127944325Y-39849696D01*
X127906947Y-39899735D01*
X127867321Y-39948018D01*
X127839212Y-40000606D01*
X127562914Y-40458007D01*
X127532571Y-40501193D01*
X127504563Y-40564569D01*
X127474721Y-40627108D01*
X127461719Y-40678266D01*
X127294886Y-41185182D01*
X127290287Y-41193786D01*
X127269482Y-41262370D01*
X127259838Y-41291674D01*
X127257728Y-41301118D01*
X127243084Y-41349394D01*
X127240040Y-41380301D01*
X127233271Y-41410603D01*
X127232090Y-41461026D01*
X127231140Y-41470667D01*
X127231140Y-41501552D01*
X127229462Y-41573167D01*
X127231140Y-41582773D01*
X127231140Y-42056618D01*
X127227586Y-42083644D01*
X127231140Y-42137738D01*
X127231140Y-42151212D01*
X127233799Y-42178212D01*
X127235575Y-42205241D01*
X127237769Y-42218515D01*
X127243084Y-42272485D01*
X127250999Y-42298578D01*
X127332166Y-42789745D01*
X127332910Y-42815349D01*
X127345395Y-42869799D01*
X127347858Y-42884702D01*
X127354452Y-42909296D01*
X127369253Y-42973846D01*
X127375478Y-42987719D01*
X127379415Y-43002405D01*
X127408717Y-43061801D01*
X127419138Y-43085027D01*
X127426640Y-43098132D01*
X127451357Y-43148234D01*
X127466955Y-43168555D01*
X127834636Y-43810834D01*
X127867321Y-43871982D01*
X127900794Y-43912769D01*
X127931369Y-43955769D01*
X127981795Y-44003347D01*
X128421169Y-44442721D01*
X128427300Y-44451408D01*
X128478612Y-44500164D01*
X128499819Y-44521371D01*
X128507977Y-44528066D01*
X128545181Y-44563417D01*
X128570691Y-44579535D01*
X128594017Y-44598679D01*
X128639277Y-44622871D01*
X128648200Y-44628509D01*
X128675003Y-44641967D01*
X128737426Y-44675333D01*
X128747602Y-44678420D01*
X129231585Y-44921433D01*
X129247885Y-44932916D01*
X129304096Y-44957841D01*
X129322661Y-44967163D01*
X129341181Y-44974286D01*
X129359284Y-44982313D01*
X129378975Y-44988821D01*
X129436399Y-45010906D01*
X129456054Y-45014296D01*
X129929779Y-45170867D01*
X129938846Y-45175713D01*
X130006941Y-45196369D01*
X130035732Y-45205885D01*
X130045677Y-45208120D01*
X130094454Y-45222916D01*
X130124841Y-45225909D01*
X130154627Y-45232602D01*
X130205569Y-45233860D01*
X130215727Y-45234860D01*
X130246095Y-45234860D01*
X130317187Y-45236615D01*
X130327309Y-45234860D01*
X131021054Y-45234860D01*
X131066857Y-45238788D01*
X131142445Y-45230378D01*
X131218206Y-45222916D01*
X131223246Y-45221387D01*
X131228469Y-45220806D01*
X131300927Y-45197823D01*
X131373814Y-45175713D01*
X131414367Y-45154037D01*
X132070152Y-44872645D01*
X132135369Y-44846721D01*
X132178938Y-44818504D01*
X132224396Y-44793463D01*
X132278063Y-44748273D01*
X132735452Y-44383755D01*
X132767059Y-44363640D01*
X132798892Y-44333196D01*
X132801459Y-44331150D01*
X132828158Y-44305207D01*
X132855126Y-44279415D01*
X132857270Y-44276919D01*
X132888854Y-44246228D01*
X132910110Y-44215383D01*
X133477068Y-43555129D01*
X133524828Y-43502148D01*
X133550782Y-43458581D01*
X133579888Y-43417055D01*
X133592297Y-43388890D01*
X133608049Y-43362448D01*
X133625002Y-43314661D01*
X133634393Y-43293346D01*
X133930636Y-43810834D01*
X133963321Y-43871982D01*
X133996794Y-43912769D01*
X134027369Y-43955769D01*
X134077795Y-44003347D01*
X134517169Y-44442721D01*
X134523300Y-44451408D01*
X134574612Y-44500164D01*
X134595819Y-44521371D01*
X134603977Y-44528066D01*
X134641181Y-44563417D01*
X134666691Y-44579535D01*
X134690017Y-44598679D01*
X134735277Y-44622871D01*
X134744200Y-44628509D01*
X134771003Y-44641967D01*
X134833426Y-44675333D01*
X134843602Y-44678420D01*
X135327585Y-44921433D01*
X135343885Y-44932916D01*
X135400096Y-44957841D01*
X135418661Y-44967163D01*
X135437181Y-44974286D01*
X135455284Y-44982313D01*
X135474975Y-44988821D01*
X135532399Y-45010906D01*
X135552054Y-45014296D01*
X136025779Y-45170867D01*
X136034846Y-45175713D01*
X136102941Y-45196369D01*
X136131732Y-45205885D01*
X136141677Y-45208120D01*
X136190454Y-45222916D01*
X136220841Y-45225909D01*
X136250627Y-45232602D01*
X136301569Y-45233860D01*
X136311727Y-45234860D01*
X136342095Y-45234860D01*
X136413187Y-45236615D01*
X136423309Y-45234860D01*
X137117054Y-45234860D01*
X137162857Y-45238788D01*
X137238445Y-45230378D01*
X137314206Y-45222916D01*
X137319246Y-45221387D01*
X137324469Y-45220806D01*
X137396927Y-45197823D01*
X137469814Y-45175713D01*
X137510367Y-45154037D01*
X138166152Y-44872645D01*
X138231369Y-44846721D01*
X138274938Y-44818504D01*
X138320396Y-44793463D01*
X138374063Y-44748273D01*
X138831452Y-44383755D01*
X138863059Y-44363640D01*
X138894892Y-44333196D01*
X138897459Y-44331150D01*
X138924158Y-44305207D01*
X138951126Y-44279415D01*
X138953270Y-44276919D01*
X138984854Y-44246228D01*
X139006110Y-44215383D01*
X139573068Y-43555129D01*
X139620828Y-43502148D01*
X139646782Y-43458581D01*
X139675888Y-43417055D01*
X139688297Y-43388890D01*
X139704049Y-43362448D01*
X139721002Y-43314661D01*
X139741451Y-43268248D01*
X139756931Y-43198579D01*
X139947517Y-42428904D01*
X139964916Y-42371546D01*
X139971009Y-42309683D01*
X139979962Y-42248185D01*
X139976860Y-42188344D01*
X139976860Y-41689872D01*
X164770000Y-41689872D01*
X164770000Y-42130128D01*
X164855890Y-42561925D01*
X165024369Y-42968669D01*
X165268962Y-43334729D01*
X165580271Y-43646038D01*
X165946331Y-43890631D01*
X166353075Y-44059110D01*
X166784872Y-44145000D01*
X167225128Y-44145000D01*
X167656925Y-44059110D01*
X168063669Y-43890631D01*
X168429729Y-43646038D01*
X168741038Y-43334729D01*
X168985631Y-42968669D01*
X169154110Y-42561925D01*
X169240000Y-42130128D01*
X169240000Y-41689872D01*
X169154110Y-41258075D01*
X168985631Y-40851331D01*
X168741038Y-40485271D01*
X168429729Y-40173962D01*
X168063669Y-39929369D01*
X167656925Y-39760890D01*
X167225128Y-39675000D01*
X166784872Y-39675000D01*
X166353075Y-39760890D01*
X165946331Y-39929369D01*
X165580271Y-40173962D01*
X165268962Y-40485271D01*
X165024369Y-40851331D01*
X164855890Y-41258075D01*
X164770000Y-41689872D01*
X139976860Y-41689872D01*
X139976860Y-41651208D01*
X139980854Y-41611031D01*
X139976860Y-41570101D01*
X139976860Y-41569727D01*
X139972894Y-41529462D01*
X139969019Y-41489748D01*
X139968947Y-41489386D01*
X139964916Y-41448454D01*
X139953194Y-41409811D01*
X139863994Y-40959239D01*
X139851777Y-40888773D01*
X139833578Y-40841576D01*
X139818940Y-40793162D01*
X139785287Y-40730065D01*
X139601531Y-40364879D01*
X139580723Y-40315520D01*
X139542274Y-40258751D01*
X139505639Y-40200880D01*
X139468730Y-40162102D01*
X139009873Y-39610078D01*
X138984854Y-39573772D01*
X138928958Y-39519458D01*
X138873456Y-39464647D01*
X138836639Y-39440379D01*
X138366993Y-39066092D01*
X138305110Y-39016288D01*
X138267232Y-38996505D01*
X138231369Y-38973279D01*
X138157619Y-38943963D01*
X137825255Y-38810000D01*
X170105001Y-38810000D01*
X170105000Y-94540000D01*
X118820000Y-94540000D01*
X118820000Y-91219872D01*
X119685000Y-91219872D01*
X119685000Y-91660128D01*
X119770890Y-92091925D01*
X119939369Y-92498669D01*
X120183962Y-92864729D01*
X120495271Y-93176038D01*
X120861331Y-93420631D01*
X121268075Y-93589110D01*
X121699872Y-93675000D01*
X122140128Y-93675000D01*
X122571925Y-93589110D01*
X122978669Y-93420631D01*
X123344729Y-93176038D01*
X123656038Y-92864729D01*
X123878539Y-92531731D01*
X130190000Y-92531731D01*
X130190000Y-92888269D01*
X130259557Y-93237958D01*
X130395999Y-93567357D01*
X130594081Y-93863808D01*
X130846192Y-94115919D01*
X131142643Y-94314001D01*
X131472042Y-94450443D01*
X131821731Y-94520000D01*
X132178269Y-94520000D01*
X132527958Y-94450443D01*
X132857357Y-94314001D01*
X133153808Y-94115919D01*
X133405919Y-93863808D01*
X133604001Y-93567357D01*
X133740443Y-93237958D01*
X133810000Y-92888269D01*
X133810000Y-92531731D01*
X145510000Y-92531731D01*
X145510000Y-92888269D01*
X145579557Y-93237958D01*
X145715999Y-93567357D01*
X145914081Y-93863808D01*
X146166192Y-94115919D01*
X146462643Y-94314001D01*
X146792042Y-94450443D01*
X147141731Y-94520000D01*
X147498269Y-94520000D01*
X147847958Y-94450443D01*
X148177357Y-94314001D01*
X148473808Y-94115919D01*
X148725919Y-93863808D01*
X148924001Y-93567357D01*
X149060443Y-93237958D01*
X149130000Y-92888269D01*
X149130000Y-92531731D01*
X149060443Y-92182042D01*
X148924001Y-91852643D01*
X148725919Y-91556192D01*
X148473808Y-91304081D01*
X148347781Y-91219872D01*
X164770000Y-91219872D01*
X164770000Y-91660128D01*
X164855890Y-92091925D01*
X165024369Y-92498669D01*
X165268962Y-92864729D01*
X165580271Y-93176038D01*
X165946331Y-93420631D01*
X166353075Y-93589110D01*
X166784872Y-93675000D01*
X167225128Y-93675000D01*
X167656925Y-93589110D01*
X168063669Y-93420631D01*
X168429729Y-93176038D01*
X168741038Y-92864729D01*
X168985631Y-92498669D01*
X169154110Y-92091925D01*
X169240000Y-91660128D01*
X169240000Y-91219872D01*
X169154110Y-90788075D01*
X168985631Y-90381331D01*
X168741038Y-90015271D01*
X168429729Y-89703962D01*
X168063669Y-89459369D01*
X167656925Y-89290890D01*
X167225128Y-89205000D01*
X166784872Y-89205000D01*
X166353075Y-89290890D01*
X165946331Y-89459369D01*
X165580271Y-89703962D01*
X165268962Y-90015271D01*
X165024369Y-90381331D01*
X164855890Y-90788075D01*
X164770000Y-91219872D01*
X148347781Y-91219872D01*
X148177357Y-91105999D01*
X147847958Y-90969557D01*
X147498269Y-90900000D01*
X147141731Y-90900000D01*
X146792042Y-90969557D01*
X146462643Y-91105999D01*
X146166192Y-91304081D01*
X145914081Y-91556192D01*
X145715999Y-91852643D01*
X145579557Y-92182042D01*
X145510000Y-92531731D01*
X133810000Y-92531731D01*
X133740443Y-92182042D01*
X133604001Y-91852643D01*
X133405919Y-91556192D01*
X133153808Y-91304081D01*
X132857357Y-91105999D01*
X132527958Y-90969557D01*
X132178269Y-90900000D01*
X131821731Y-90900000D01*
X131472042Y-90969557D01*
X131142643Y-91105999D01*
X130846192Y-91304081D01*
X130594081Y-91556192D01*
X130395999Y-91852643D01*
X130259557Y-92182042D01*
X130190000Y-92531731D01*
X123878539Y-92531731D01*
X123900631Y-92498669D01*
X124069110Y-92091925D01*
X124155000Y-91660128D01*
X124155000Y-91219872D01*
X124069110Y-90788075D01*
X123900631Y-90381331D01*
X123656038Y-90015271D01*
X123344729Y-89703962D01*
X122978669Y-89459369D01*
X122571925Y-89290890D01*
X122140128Y-89205000D01*
X121699872Y-89205000D01*
X121268075Y-89290890D01*
X120861331Y-89459369D01*
X120495271Y-89703962D01*
X120183962Y-90015271D01*
X119939369Y-90381331D01*
X119770890Y-90788075D01*
X119685000Y-91219872D01*
X118820000Y-91219872D01*
X118820000Y-87451731D01*
X130190000Y-87451731D01*
X130190000Y-87808269D01*
X130259557Y-88157958D01*
X130395999Y-88487357D01*
X130594081Y-88783808D01*
X130846192Y-89035919D01*
X131142643Y-89234001D01*
X131472042Y-89370443D01*
X131821731Y-89440000D01*
X132178269Y-89440000D01*
X132527958Y-89370443D01*
X132857357Y-89234001D01*
X133153808Y-89035919D01*
X133405919Y-88783808D01*
X133604001Y-88487357D01*
X133740443Y-88157958D01*
X133810000Y-87808269D01*
X133810000Y-87451731D01*
X145510000Y-87451731D01*
X145510000Y-87808269D01*
X145579557Y-88157958D01*
X145715999Y-88487357D01*
X145914081Y-88783808D01*
X146166192Y-89035919D01*
X146462643Y-89234001D01*
X146792042Y-89370443D01*
X147141731Y-89440000D01*
X147498269Y-89440000D01*
X147847958Y-89370443D01*
X148177357Y-89234001D01*
X148473808Y-89035919D01*
X148725919Y-88783808D01*
X148924001Y-88487357D01*
X149060443Y-88157958D01*
X149130000Y-87808269D01*
X149130000Y-87451731D01*
X149060443Y-87102042D01*
X148924001Y-86772643D01*
X148725919Y-86476192D01*
X148473808Y-86224081D01*
X148177357Y-86025999D01*
X147847958Y-85889557D01*
X147498269Y-85820000D01*
X147141731Y-85820000D01*
X146792042Y-85889557D01*
X146462643Y-86025999D01*
X146166192Y-86224081D01*
X145914081Y-86476192D01*
X145715999Y-86772643D01*
X145579557Y-87102042D01*
X145510000Y-87451731D01*
X133810000Y-87451731D01*
X133740443Y-87102042D01*
X133604001Y-86772643D01*
X133405919Y-86476192D01*
X133153808Y-86224081D01*
X132857357Y-86025999D01*
X132527958Y-85889557D01*
X132178269Y-85820000D01*
X131821731Y-85820000D01*
X131472042Y-85889557D01*
X131142643Y-86025999D01*
X130846192Y-86224081D01*
X130594081Y-86476192D01*
X130395999Y-86772643D01*
X130259557Y-87102042D01*
X130190000Y-87451731D01*
X118820000Y-87451731D01*
X118820000Y-82425079D01*
X128049000Y-82425079D01*
X128049000Y-83022921D01*
X128165633Y-83609277D01*
X128394418Y-84161612D01*
X128726562Y-84658700D01*
X129149300Y-85081438D01*
X129646388Y-85413582D01*
X130198723Y-85642367D01*
X130785079Y-85759000D01*
X131382921Y-85759000D01*
X131969277Y-85642367D01*
X132521612Y-85413582D01*
X133018700Y-85081438D01*
X133441438Y-84658700D01*
X133773582Y-84161612D01*
X134002367Y-83609277D01*
X134036038Y-83440000D01*
X138809880Y-83440000D01*
X138846275Y-83809524D01*
X138954061Y-84164848D01*
X139129097Y-84492317D01*
X139364655Y-84779345D01*
X139651683Y-85014903D01*
X139979152Y-85189939D01*
X140334476Y-85297725D01*
X140611403Y-85325000D01*
X142096597Y-85325000D01*
X142373524Y-85297725D01*
X142728848Y-85189939D01*
X143056317Y-85014903D01*
X143343345Y-84779345D01*
X143578903Y-84492317D01*
X143753939Y-84164848D01*
X143764000Y-84131681D01*
X143774061Y-84164848D01*
X143949097Y-84492317D01*
X144184655Y-84779345D01*
X144471683Y-85014903D01*
X144799152Y-85189939D01*
X145154476Y-85297725D01*
X145431403Y-85325000D01*
X146916597Y-85325000D01*
X147193524Y-85297725D01*
X147548848Y-85189939D01*
X147876317Y-85014903D01*
X148163345Y-84779345D01*
X148398903Y-84492317D01*
X148573939Y-84164848D01*
X148681725Y-83809524D01*
X148718120Y-83440000D01*
X148681725Y-83070476D01*
X148573939Y-82715152D01*
X148398903Y-82387683D01*
X148163345Y-82100655D01*
X147876317Y-81865097D01*
X147548848Y-81690061D01*
X147193524Y-81582275D01*
X146916597Y-81555000D01*
X145431403Y-81555000D01*
X145154476Y-81582275D01*
X144799152Y-81690061D01*
X144471683Y-81865097D01*
X144184655Y-82100655D01*
X143949097Y-82387683D01*
X143774061Y-82715152D01*
X143764000Y-82748319D01*
X143753939Y-82715152D01*
X143578903Y-82387683D01*
X143343345Y-82100655D01*
X143056317Y-81865097D01*
X142728848Y-81690061D01*
X142373524Y-81582275D01*
X142096597Y-81555000D01*
X140611403Y-81555000D01*
X140334476Y-81582275D01*
X139979152Y-81690061D01*
X139651683Y-81865097D01*
X139364655Y-82100655D01*
X139129097Y-82387683D01*
X138954061Y-82715152D01*
X138846275Y-83070476D01*
X138809880Y-83440000D01*
X134036038Y-83440000D01*
X134119000Y-83022921D01*
X134119000Y-82425079D01*
X134002367Y-81838723D01*
X133773582Y-81286388D01*
X133441438Y-80789300D01*
X133305873Y-80653735D01*
X133835079Y-80759000D01*
X134432921Y-80759000D01*
X135019277Y-80642367D01*
X135571612Y-80413582D01*
X136068700Y-80081438D01*
X136491438Y-79658700D01*
X136823582Y-79161612D01*
X136998219Y-78740000D01*
X138809880Y-78740000D01*
X138846275Y-79109524D01*
X138954061Y-79464848D01*
X139129097Y-79792317D01*
X139364655Y-80079345D01*
X139651683Y-80314903D01*
X139979152Y-80489939D01*
X140334476Y-80597725D01*
X140611403Y-80625000D01*
X142096597Y-80625000D01*
X142373524Y-80597725D01*
X142728848Y-80489939D01*
X143056317Y-80314903D01*
X143343345Y-80079345D01*
X143578903Y-79792317D01*
X143753939Y-79464848D01*
X143764000Y-79431681D01*
X143774061Y-79464848D01*
X143949097Y-79792317D01*
X144184655Y-80079345D01*
X144471683Y-80314903D01*
X144799152Y-80489939D01*
X145154476Y-80597725D01*
X145431403Y-80625000D01*
X146916597Y-80625000D01*
X147193524Y-80597725D01*
X147548848Y-80489939D01*
X147763884Y-80375000D01*
X149396762Y-80375000D01*
X155211080Y-86189319D01*
X155262286Y-86251714D01*
X155511248Y-86456031D01*
X155795285Y-86607852D01*
X156103484Y-86701343D01*
X156343678Y-86725000D01*
X156343680Y-86725000D01*
X156423999Y-86732911D01*
X156504319Y-86725000D01*
X165815322Y-86725000D01*
X166055516Y-86701343D01*
X166363715Y-86607852D01*
X166647752Y-86456031D01*
X166896714Y-86251714D01*
X167101031Y-86002752D01*
X167252852Y-85718715D01*
X167346343Y-85410516D01*
X167377911Y-85090000D01*
X167346343Y-84769484D01*
X167252852Y-84461285D01*
X167101031Y-84177248D01*
X166896714Y-83928286D01*
X166647752Y-83723969D01*
X166363715Y-83572148D01*
X166055516Y-83478657D01*
X165815322Y-83455000D01*
X157101239Y-83455000D01*
X151286925Y-77640687D01*
X151235714Y-77578286D01*
X150986752Y-77373969D01*
X150702715Y-77222148D01*
X150394516Y-77128657D01*
X150154322Y-77105000D01*
X150154319Y-77105000D01*
X150074000Y-77097089D01*
X149993681Y-77105000D01*
X147763884Y-77105000D01*
X147548848Y-76990061D01*
X147193524Y-76882275D01*
X146916597Y-76855000D01*
X145431403Y-76855000D01*
X145154476Y-76882275D01*
X144799152Y-76990061D01*
X144471683Y-77165097D01*
X144184655Y-77400655D01*
X143949097Y-77687683D01*
X143774061Y-78015152D01*
X143764000Y-78048319D01*
X143753939Y-78015152D01*
X143578903Y-77687683D01*
X143343345Y-77400655D01*
X143056317Y-77165097D01*
X142728848Y-76990061D01*
X142373524Y-76882275D01*
X142096597Y-76855000D01*
X140611403Y-76855000D01*
X140334476Y-76882275D01*
X139979152Y-76990061D01*
X139651683Y-77165097D01*
X139364655Y-77400655D01*
X139129097Y-77687683D01*
X138954061Y-78015152D01*
X138846275Y-78370476D01*
X138809880Y-78740000D01*
X136998219Y-78740000D01*
X137052367Y-78609277D01*
X137169000Y-78022921D01*
X137169000Y-77425079D01*
X137052367Y-76838723D01*
X136823582Y-76286388D01*
X136491438Y-75789300D01*
X136068700Y-75366562D01*
X135571612Y-75034418D01*
X135019277Y-74805633D01*
X134432921Y-74689000D01*
X133835079Y-74689000D01*
X133248723Y-74805633D01*
X132696388Y-75034418D01*
X132199300Y-75366562D01*
X131776562Y-75789300D01*
X131444418Y-76286388D01*
X131215633Y-76838723D01*
X131099000Y-77425079D01*
X131099000Y-78022921D01*
X131215633Y-78609277D01*
X131444418Y-79161612D01*
X131776562Y-79658700D01*
X131912127Y-79794265D01*
X131382921Y-79689000D01*
X130785079Y-79689000D01*
X130198723Y-79805633D01*
X129646388Y-80034418D01*
X129149300Y-80366562D01*
X128726562Y-80789300D01*
X128394418Y-81286388D01*
X128165633Y-81838723D01*
X128049000Y-82425079D01*
X118820000Y-82425079D01*
X118820000Y-79856029D01*
X125581576Y-79856029D01*
X125845740Y-80263755D01*
X126373661Y-80544317D01*
X126946173Y-80716496D01*
X127541275Y-80773676D01*
X128136098Y-80713658D01*
X128707782Y-80538750D01*
X129222260Y-80263755D01*
X129486424Y-79856029D01*
X127534000Y-77903605D01*
X125581576Y-79856029D01*
X118820000Y-79856029D01*
X118820000Y-77543268D01*
X121899000Y-77543268D01*
X121899000Y-77904732D01*
X121969518Y-78259250D01*
X122107844Y-78593199D01*
X122308662Y-78893744D01*
X122564256Y-79149338D01*
X122864801Y-79350156D01*
X123198750Y-79488482D01*
X123553268Y-79559000D01*
X123914732Y-79559000D01*
X124269250Y-79488482D01*
X124603199Y-79350156D01*
X124866877Y-79173972D01*
X124994245Y-79412260D01*
X125401971Y-79676424D01*
X127354395Y-77724000D01*
X127713605Y-77724000D01*
X129666029Y-79676424D01*
X130073755Y-79412260D01*
X130354317Y-78884339D01*
X130526496Y-78311827D01*
X130583676Y-77716725D01*
X130523658Y-77121902D01*
X130348750Y-76550218D01*
X130073755Y-76035740D01*
X129666029Y-75771576D01*
X127713605Y-77724000D01*
X127354395Y-77724000D01*
X125401971Y-75771576D01*
X124994245Y-76035740D01*
X124867416Y-76274388D01*
X124603199Y-76097844D01*
X124269250Y-75959518D01*
X123914732Y-75889000D01*
X123553268Y-75889000D01*
X123198750Y-75959518D01*
X122864801Y-76097844D01*
X122564256Y-76298662D01*
X122308662Y-76554256D01*
X122107844Y-76854801D01*
X121969518Y-77188750D01*
X121899000Y-77543268D01*
X118820000Y-77543268D01*
X118820000Y-75591971D01*
X125581576Y-75591971D01*
X127534000Y-77544395D01*
X129486424Y-75591971D01*
X129222260Y-75184245D01*
X128694339Y-74903683D01*
X128121827Y-74731504D01*
X127526725Y-74674324D01*
X126931902Y-74734342D01*
X126360218Y-74909250D01*
X125845740Y-75184245D01*
X125581576Y-75591971D01*
X118820000Y-75591971D01*
X118820000Y-74040000D01*
X138809880Y-74040000D01*
X138846275Y-74409524D01*
X138954061Y-74764848D01*
X139129097Y-75092317D01*
X139364655Y-75379345D01*
X139651683Y-75614903D01*
X139979152Y-75789939D01*
X140334476Y-75897725D01*
X140611403Y-75925000D01*
X142096597Y-75925000D01*
X142373524Y-75897725D01*
X142728848Y-75789939D01*
X143056317Y-75614903D01*
X143343345Y-75379345D01*
X143578903Y-75092317D01*
X143753939Y-74764848D01*
X143764000Y-74731681D01*
X143774061Y-74764848D01*
X143949097Y-75092317D01*
X144184655Y-75379345D01*
X144471683Y-75614903D01*
X144799152Y-75789939D01*
X145154476Y-75897725D01*
X145431403Y-75925000D01*
X146916597Y-75925000D01*
X147193524Y-75897725D01*
X147548848Y-75789939D01*
X147876317Y-75614903D01*
X148163345Y-75379345D01*
X148398903Y-75092317D01*
X148573939Y-74764848D01*
X148681725Y-74409524D01*
X148718120Y-74040000D01*
X148681725Y-73670476D01*
X148573939Y-73315152D01*
X148398903Y-72987683D01*
X148163345Y-72700655D01*
X147876317Y-72465097D01*
X147548848Y-72290061D01*
X147193524Y-72182275D01*
X146916597Y-72155000D01*
X145431403Y-72155000D01*
X145154476Y-72182275D01*
X144799152Y-72290061D01*
X144471683Y-72465097D01*
X144184655Y-72700655D01*
X143949097Y-72987683D01*
X143774061Y-73315152D01*
X143764000Y-73348319D01*
X143753939Y-73315152D01*
X143578903Y-72987683D01*
X143343345Y-72700655D01*
X143056317Y-72465097D01*
X142728848Y-72290061D01*
X142373524Y-72182275D01*
X142096597Y-72155000D01*
X140611403Y-72155000D01*
X140334476Y-72182275D01*
X139979152Y-72290061D01*
X139651683Y-72465097D01*
X139364655Y-72700655D01*
X139129097Y-72987683D01*
X138954061Y-73315152D01*
X138846275Y-73670476D01*
X138809880Y-74040000D01*
X118820000Y-74040000D01*
X118820000Y-65024000D01*
X119919815Y-65024000D01*
X119948487Y-65315111D01*
X120033401Y-65595034D01*
X120171294Y-65853014D01*
X120356866Y-66079134D01*
X120582986Y-66264706D01*
X120637791Y-66294000D01*
X120582986Y-66323294D01*
X120356866Y-66508866D01*
X120171294Y-66734986D01*
X120033401Y-66992966D01*
X119948487Y-67272889D01*
X119919815Y-67564000D01*
X119948487Y-67855111D01*
X120033401Y-68135034D01*
X120171294Y-68393014D01*
X120356866Y-68619134D01*
X120386687Y-68643607D01*
X120317820Y-68664498D01*
X120207506Y-68723463D01*
X120110815Y-68802815D01*
X120031463Y-68899506D01*
X119972498Y-69009820D01*
X119936188Y-69129518D01*
X119923928Y-69254000D01*
X119923928Y-70954000D01*
X119936188Y-71078482D01*
X119972498Y-71198180D01*
X120031463Y-71308494D01*
X120110815Y-71405185D01*
X120207506Y-71484537D01*
X120317820Y-71543502D01*
X120437518Y-71579812D01*
X120562000Y-71592072D01*
X122262000Y-71592072D01*
X122386482Y-71579812D01*
X122506180Y-71543502D01*
X122616494Y-71484537D01*
X122713185Y-71405185D01*
X122792537Y-71308494D01*
X122851502Y-71198180D01*
X122887812Y-71078482D01*
X122900072Y-70954000D01*
X122900072Y-69254000D01*
X122887812Y-69129518D01*
X122875218Y-69088000D01*
X146947089Y-69088000D01*
X146978658Y-69408516D01*
X147072148Y-69716714D01*
X147072149Y-69716715D01*
X147223970Y-70000752D01*
X147428287Y-70249714D01*
X147490682Y-70300920D01*
X159569080Y-82379319D01*
X159620286Y-82441714D01*
X159869248Y-82646031D01*
X160153285Y-82797852D01*
X160461483Y-82891343D01*
X160782000Y-82922911D01*
X160862322Y-82915000D01*
X165815322Y-82915000D01*
X166055516Y-82891343D01*
X166363715Y-82797852D01*
X166647752Y-82646031D01*
X166896714Y-82441714D01*
X167101031Y-82192752D01*
X167252852Y-81908715D01*
X167346343Y-81600516D01*
X167377911Y-81280000D01*
X167346343Y-80959484D01*
X167252852Y-80651285D01*
X167101031Y-80367248D01*
X166896714Y-80118286D01*
X166647752Y-79913969D01*
X166363715Y-79762148D01*
X166055516Y-79668657D01*
X165815322Y-79645000D01*
X161459239Y-79645000D01*
X154269239Y-72455000D01*
X164396928Y-72455000D01*
X164409188Y-72579482D01*
X164445498Y-72699180D01*
X164504463Y-72809494D01*
X164583815Y-72906185D01*
X164680506Y-72985537D01*
X164790820Y-73044502D01*
X164910518Y-73080812D01*
X165035000Y-73093072D01*
X165449250Y-73090000D01*
X165608000Y-72931250D01*
X165608000Y-71882000D01*
X164558750Y-71882000D01*
X164400000Y-72040750D01*
X164396928Y-72455000D01*
X154269239Y-72455000D01*
X152869239Y-71055000D01*
X164396928Y-71055000D01*
X164400000Y-71469250D01*
X164558750Y-71628000D01*
X165608000Y-71628000D01*
X165608000Y-70578750D01*
X165449250Y-70420000D01*
X165035000Y-70416928D01*
X164910518Y-70429188D01*
X164790820Y-70465498D01*
X164680506Y-70524463D01*
X164583815Y-70603815D01*
X164504463Y-70700506D01*
X164445498Y-70810820D01*
X164409188Y-70930518D01*
X164396928Y-71055000D01*
X152869239Y-71055000D01*
X150225000Y-68410762D01*
X150225000Y-66467678D01*
X150219360Y-66410408D01*
X157353000Y-66410408D01*
X157353000Y-66685592D01*
X157406686Y-66955490D01*
X157511995Y-67209727D01*
X157664880Y-67438535D01*
X157859465Y-67633120D01*
X158088273Y-67786005D01*
X158165515Y-67818000D01*
X158088273Y-67849995D01*
X157859465Y-68002880D01*
X157664880Y-68197465D01*
X157511995Y-68426273D01*
X157406686Y-68680510D01*
X157353000Y-68950408D01*
X157353000Y-69225592D01*
X157406686Y-69495490D01*
X157511995Y-69749727D01*
X157664880Y-69978535D01*
X157859465Y-70173120D01*
X158088273Y-70326005D01*
X158342510Y-70431314D01*
X158612408Y-70485000D01*
X158887592Y-70485000D01*
X159157490Y-70431314D01*
X159411727Y-70326005D01*
X159640535Y-70173120D01*
X159835120Y-69978535D01*
X159988005Y-69749727D01*
X160093314Y-69495490D01*
X160147000Y-69225592D01*
X160147000Y-68950408D01*
X160093314Y-68680510D01*
X159988005Y-68426273D01*
X159835120Y-68197465D01*
X159640535Y-68002880D01*
X159411727Y-67849995D01*
X159334485Y-67818000D01*
X159411727Y-67786005D01*
X159640535Y-67633120D01*
X159835120Y-67438535D01*
X159988005Y-67209727D01*
X160093314Y-66955490D01*
X160147000Y-66685592D01*
X160147000Y-66410408D01*
X160093314Y-66140510D01*
X159988005Y-65886273D01*
X159835120Y-65657465D01*
X159640535Y-65462880D01*
X159411727Y-65309995D01*
X159157490Y-65204686D01*
X158887592Y-65151000D01*
X158612408Y-65151000D01*
X158342510Y-65204686D01*
X158088273Y-65309995D01*
X157859465Y-65462880D01*
X157664880Y-65657465D01*
X157511995Y-65886273D01*
X157406686Y-66140510D01*
X157353000Y-66410408D01*
X150219360Y-66410408D01*
X150201343Y-66227484D01*
X150107852Y-65919285D01*
X149956031Y-65635248D01*
X149751714Y-65386286D01*
X149502751Y-65181969D01*
X149218714Y-65030148D01*
X148910515Y-64936657D01*
X148590000Y-64905089D01*
X148269484Y-64936657D01*
X147961285Y-65030148D01*
X147677248Y-65181969D01*
X147428286Y-65386286D01*
X147223969Y-65635249D01*
X147072148Y-65919286D01*
X146978657Y-66227485D01*
X146955000Y-66467679D01*
X146955001Y-69007671D01*
X146947089Y-69088000D01*
X122875218Y-69088000D01*
X122851502Y-69009820D01*
X122792537Y-68899506D01*
X122713185Y-68802815D01*
X122616494Y-68723463D01*
X122506180Y-68664498D01*
X122437313Y-68643607D01*
X122467134Y-68619134D01*
X122652706Y-68393014D01*
X122790599Y-68135034D01*
X122875513Y-67855111D01*
X122904185Y-67564000D01*
X122875513Y-67272889D01*
X122790599Y-66992966D01*
X122652706Y-66734986D01*
X122467134Y-66508866D01*
X122241014Y-66323294D01*
X122186209Y-66294000D01*
X122241014Y-66264706D01*
X122467134Y-66079134D01*
X122652706Y-65853014D01*
X122790599Y-65595034D01*
X122875513Y-65315111D01*
X122904185Y-65024000D01*
X122875513Y-64732889D01*
X122790599Y-64452966D01*
X122652706Y-64194986D01*
X122467134Y-63968866D01*
X122241014Y-63783294D01*
X121983034Y-63645401D01*
X121703111Y-63560487D01*
X121484950Y-63539000D01*
X121339050Y-63539000D01*
X121120889Y-63560487D01*
X120840966Y-63645401D01*
X120582986Y-63783294D01*
X120356866Y-63968866D01*
X120171294Y-64194986D01*
X120033401Y-64452966D01*
X119948487Y-64732889D01*
X119919815Y-65024000D01*
X118820000Y-65024000D01*
X118820000Y-63435000D01*
X164396928Y-63435000D01*
X164396928Y-64835000D01*
X164409188Y-64959482D01*
X164445498Y-65079180D01*
X164504463Y-65189494D01*
X164583815Y-65286185D01*
X164680506Y-65365537D01*
X164790820Y-65424502D01*
X164851541Y-65442922D01*
X164858864Y-65517274D01*
X164909698Y-65684852D01*
X164992248Y-65839291D01*
X165057898Y-65919285D01*
X165103342Y-65974659D01*
X165137259Y-66002494D01*
X165744764Y-66610000D01*
X165603514Y-66610000D01*
X165345595Y-66661304D01*
X165102641Y-66761939D01*
X164883987Y-66908038D01*
X164698038Y-67093987D01*
X164551939Y-67312641D01*
X164451304Y-67555595D01*
X164400000Y-67813514D01*
X164400000Y-68076486D01*
X164451304Y-68334405D01*
X164551939Y-68577359D01*
X164698038Y-68796013D01*
X164883987Y-68981962D01*
X165102641Y-69128061D01*
X165345595Y-69228696D01*
X165603514Y-69280000D01*
X165866486Y-69280000D01*
X166000001Y-69253442D01*
X166000001Y-70440749D01*
X165862000Y-70578750D01*
X165862000Y-71628000D01*
X165882000Y-71628000D01*
X165882000Y-71882000D01*
X165862000Y-71882000D01*
X165862000Y-72931250D01*
X166000002Y-73069252D01*
X166000002Y-74042762D01*
X165812764Y-74230000D01*
X165603514Y-74230000D01*
X165345595Y-74281304D01*
X165102641Y-74381939D01*
X164883987Y-74528038D01*
X164698038Y-74713987D01*
X164551939Y-74932641D01*
X164451304Y-75175595D01*
X164400000Y-75433514D01*
X164400000Y-75696486D01*
X164451304Y-75954405D01*
X164551939Y-76197359D01*
X164698038Y-76416013D01*
X164883987Y-76601962D01*
X165102641Y-76748061D01*
X165345595Y-76848696D01*
X165603514Y-76900000D01*
X165866486Y-76900000D01*
X166124405Y-76848696D01*
X166367359Y-76748061D01*
X166586013Y-76601962D01*
X166771962Y-76416013D01*
X166918061Y-76197359D01*
X167018696Y-75954405D01*
X167070000Y-75696486D01*
X167070000Y-75487236D01*
X167486742Y-75070494D01*
X167520660Y-75042658D01*
X167631754Y-74907290D01*
X167714304Y-74752850D01*
X167765137Y-74585273D01*
X167778001Y-74454666D01*
X167778001Y-74454659D01*
X167782301Y-74410999D01*
X167778001Y-74367339D01*
X167778001Y-66540661D01*
X167782301Y-66497001D01*
X167778001Y-66453341D01*
X167778001Y-66453334D01*
X167765137Y-66322727D01*
X167714304Y-66155150D01*
X167631754Y-66000710D01*
X167520660Y-65865342D01*
X167486744Y-65837508D01*
X166908378Y-65259143D01*
X166965537Y-65189494D01*
X167024502Y-65079180D01*
X167060812Y-64959482D01*
X167073072Y-64835000D01*
X167073072Y-63435000D01*
X167060812Y-63310518D01*
X167024502Y-63190820D01*
X166965537Y-63080506D01*
X166886185Y-62983815D01*
X166789494Y-62904463D01*
X166679180Y-62845498D01*
X166559482Y-62809188D01*
X166435000Y-62796928D01*
X165035000Y-62796928D01*
X164910518Y-62809188D01*
X164790820Y-62845498D01*
X164680506Y-62904463D01*
X164583815Y-62983815D01*
X164504463Y-63080506D01*
X164445498Y-63190820D01*
X164409188Y-63310518D01*
X164396928Y-63435000D01*
X118820000Y-63435000D01*
X118820000Y-56580000D01*
X121851928Y-56580000D01*
X121864188Y-56704482D01*
X121900498Y-56824180D01*
X121959463Y-56934494D01*
X122038815Y-57031185D01*
X122135506Y-57110537D01*
X122245820Y-57169502D01*
X122365518Y-57205812D01*
X122490000Y-57218072D01*
X122904250Y-57215000D01*
X123063000Y-57056250D01*
X123063000Y-56007000D01*
X123317000Y-56007000D01*
X123317000Y-57056250D01*
X123475750Y-57215000D01*
X123890000Y-57218072D01*
X124014482Y-57205812D01*
X124134180Y-57169502D01*
X124244494Y-57110537D01*
X124341185Y-57031185D01*
X124420537Y-56934494D01*
X124479502Y-56824180D01*
X124515812Y-56704482D01*
X124528072Y-56580000D01*
X124525000Y-56165750D01*
X124366250Y-56007000D01*
X123317000Y-56007000D01*
X123063000Y-56007000D01*
X122013750Y-56007000D01*
X121855000Y-56165750D01*
X121851928Y-56580000D01*
X118820000Y-56580000D01*
X118820000Y-55180000D01*
X121851928Y-55180000D01*
X121855000Y-55594250D01*
X122013750Y-55753000D01*
X123063000Y-55753000D01*
X123063000Y-54703750D01*
X123317000Y-54703750D01*
X123317000Y-55753000D01*
X124366250Y-55753000D01*
X124525000Y-55594250D01*
X124528072Y-55180000D01*
X124515812Y-55055518D01*
X124479502Y-54935820D01*
X124420537Y-54825506D01*
X124341185Y-54728815D01*
X124244494Y-54649463D01*
X124134180Y-54590498D01*
X124014482Y-54554188D01*
X123890000Y-54541928D01*
X123475750Y-54545000D01*
X123317000Y-54703750D01*
X123063000Y-54703750D01*
X122904250Y-54545000D01*
X122490000Y-54541928D01*
X122365518Y-54554188D01*
X122245820Y-54590498D01*
X122135506Y-54649463D01*
X122038815Y-54728815D01*
X121959463Y-54825506D01*
X121900498Y-54935820D01*
X121864188Y-55055518D01*
X121851928Y-55180000D01*
X118820000Y-55180000D01*
X118820000Y-51938514D01*
X121855000Y-51938514D01*
X121855000Y-52201486D01*
X121906304Y-52459405D01*
X122006939Y-52702359D01*
X122153038Y-52921013D01*
X122338987Y-53106962D01*
X122557641Y-53253061D01*
X122800595Y-53353696D01*
X123058514Y-53405000D01*
X123321486Y-53405000D01*
X123579405Y-53353696D01*
X123822359Y-53253061D01*
X124041013Y-53106962D01*
X124226962Y-52921013D01*
X124373061Y-52702359D01*
X124473696Y-52459405D01*
X124500630Y-52324000D01*
X132419331Y-52324000D01*
X132449934Y-52634714D01*
X132540566Y-52933488D01*
X132687744Y-53208839D01*
X132885813Y-53450187D01*
X133061050Y-53594000D01*
X132885813Y-53737813D01*
X132687744Y-53979161D01*
X132540566Y-54254512D01*
X132449934Y-54553286D01*
X132419331Y-54864000D01*
X132449934Y-55174714D01*
X132540566Y-55473488D01*
X132687744Y-55748839D01*
X132885813Y-55990187D01*
X133061050Y-56134000D01*
X132885813Y-56277813D01*
X132687744Y-56519161D01*
X132540566Y-56794512D01*
X132449934Y-57093286D01*
X132419331Y-57404000D01*
X132449934Y-57714714D01*
X132540566Y-58013488D01*
X132687744Y-58288839D01*
X132793383Y-58417560D01*
X132707506Y-58463463D01*
X132610815Y-58542815D01*
X132531463Y-58639506D01*
X132472498Y-58749820D01*
X132436188Y-58869518D01*
X132423928Y-58994000D01*
X132423928Y-60894000D01*
X132436188Y-61018482D01*
X132472498Y-61138180D01*
X132531463Y-61248494D01*
X132610815Y-61345185D01*
X132707506Y-61424537D01*
X132817820Y-61483502D01*
X132937518Y-61519812D01*
X133062000Y-61532072D01*
X135162000Y-61532072D01*
X135286482Y-61519812D01*
X135406180Y-61483502D01*
X135516494Y-61424537D01*
X135613185Y-61345185D01*
X135692537Y-61248494D01*
X135751502Y-61138180D01*
X135787812Y-61018482D01*
X135800072Y-60894000D01*
X135800072Y-58994000D01*
X135787812Y-58869518D01*
X135751502Y-58749820D01*
X135692537Y-58639506D01*
X135613185Y-58542815D01*
X135516494Y-58463463D01*
X135430617Y-58417560D01*
X135536256Y-58288839D01*
X135683434Y-58013488D01*
X135774066Y-57714714D01*
X135804669Y-57404000D01*
X135774066Y-57093286D01*
X135683434Y-56794512D01*
X135536256Y-56519161D01*
X135338187Y-56277813D01*
X135162950Y-56134000D01*
X135338187Y-55990187D01*
X135536256Y-55748839D01*
X135683434Y-55473488D01*
X135774066Y-55174714D01*
X135804669Y-54864000D01*
X135774066Y-54553286D01*
X135683434Y-54254512D01*
X135536256Y-53979161D01*
X135338187Y-53737813D01*
X135162950Y-53594000D01*
X135338187Y-53450187D01*
X135536256Y-53208839D01*
X135683434Y-52933488D01*
X135774066Y-52634714D01*
X135804669Y-52324000D01*
X140039331Y-52324000D01*
X140069934Y-52634714D01*
X140160566Y-52933488D01*
X140307744Y-53208839D01*
X140505813Y-53450187D01*
X140681050Y-53594000D01*
X140505813Y-53737813D01*
X140307744Y-53979161D01*
X140160566Y-54254512D01*
X140069934Y-54553286D01*
X140039331Y-54864000D01*
X140069934Y-55174714D01*
X140160566Y-55473488D01*
X140307744Y-55748839D01*
X140505813Y-55990187D01*
X140681050Y-56134000D01*
X140505813Y-56277813D01*
X140307744Y-56519161D01*
X140160566Y-56794512D01*
X140069934Y-57093286D01*
X140039331Y-57404000D01*
X140069934Y-57714714D01*
X140160566Y-58013488D01*
X140307744Y-58288839D01*
X140505813Y-58530187D01*
X140681050Y-58674000D01*
X140505813Y-58817813D01*
X140307744Y-59059161D01*
X140160566Y-59334512D01*
X140069934Y-59633286D01*
X140039331Y-59944000D01*
X140069934Y-60254714D01*
X140160566Y-60553488D01*
X140307744Y-60828839D01*
X140505813Y-61070187D01*
X140747161Y-61268256D01*
X141022512Y-61415434D01*
X141321286Y-61506066D01*
X141554136Y-61529000D01*
X141909864Y-61529000D01*
X142142714Y-61506066D01*
X142441488Y-61415434D01*
X142716839Y-61268256D01*
X142958187Y-61070187D01*
X143156256Y-60828839D01*
X143303434Y-60553488D01*
X143394066Y-60254714D01*
X143424669Y-59944000D01*
X143394066Y-59633286D01*
X143303434Y-59334512D01*
X143156256Y-59059161D01*
X142958187Y-58817813D01*
X142782950Y-58674000D01*
X142958187Y-58530187D01*
X143156256Y-58288839D01*
X143303434Y-58013488D01*
X143394066Y-57714714D01*
X143424669Y-57404000D01*
X143394066Y-57093286D01*
X143303434Y-56794512D01*
X143156256Y-56519161D01*
X142958187Y-56277813D01*
X142924794Y-56250408D01*
X147193000Y-56250408D01*
X147193000Y-56525592D01*
X147246686Y-56795490D01*
X147351995Y-57049727D01*
X147504880Y-57278535D01*
X147699465Y-57473120D01*
X147928273Y-57626005D01*
X148182510Y-57731314D01*
X148452408Y-57785000D01*
X148727592Y-57785000D01*
X148997490Y-57731314D01*
X149251727Y-57626005D01*
X149480535Y-57473120D01*
X149675120Y-57278535D01*
X149828005Y-57049727D01*
X149933314Y-56795490D01*
X149976177Y-56580000D01*
X164396928Y-56580000D01*
X164409188Y-56704482D01*
X164445498Y-56824180D01*
X164504463Y-56934494D01*
X164583815Y-57031185D01*
X164680506Y-57110537D01*
X164790820Y-57169502D01*
X164910518Y-57205812D01*
X165035000Y-57218072D01*
X165449250Y-57215000D01*
X165608000Y-57056250D01*
X165608000Y-56007000D01*
X164558750Y-56007000D01*
X164400000Y-56165750D01*
X164396928Y-56580000D01*
X149976177Y-56580000D01*
X149987000Y-56525592D01*
X149987000Y-56250408D01*
X149933314Y-55980510D01*
X149828005Y-55726273D01*
X149675120Y-55497465D01*
X149480535Y-55302880D01*
X149251727Y-55149995D01*
X149180057Y-55120308D01*
X149193023Y-55115636D01*
X149308980Y-55053656D01*
X149375960Y-54813565D01*
X148590000Y-54027605D01*
X147804040Y-54813565D01*
X147871020Y-55053656D01*
X148006760Y-55117485D01*
X147928273Y-55149995D01*
X147699465Y-55302880D01*
X147504880Y-55497465D01*
X147351995Y-55726273D01*
X147246686Y-55980510D01*
X147193000Y-56250408D01*
X142924794Y-56250408D01*
X142782950Y-56134000D01*
X142958187Y-55990187D01*
X143156256Y-55748839D01*
X143303434Y-55473488D01*
X143394066Y-55174714D01*
X143424669Y-54864000D01*
X143394066Y-54553286D01*
X143303434Y-54254512D01*
X143156256Y-53979161D01*
X143107718Y-53920017D01*
X147188090Y-53920017D01*
X147229078Y-54192133D01*
X147322364Y-54451023D01*
X147384344Y-54566980D01*
X147624435Y-54633960D01*
X148410395Y-53848000D01*
X148769605Y-53848000D01*
X149555565Y-54633960D01*
X149795656Y-54566980D01*
X149912756Y-54317952D01*
X149979023Y-54050865D01*
X149991910Y-53775983D01*
X149950922Y-53503867D01*
X149857636Y-53244977D01*
X149795656Y-53129020D01*
X149555565Y-53062040D01*
X148769605Y-53848000D01*
X148410395Y-53848000D01*
X147624435Y-53062040D01*
X147384344Y-53129020D01*
X147267244Y-53378048D01*
X147200977Y-53645135D01*
X147188090Y-53920017D01*
X143107718Y-53920017D01*
X142958187Y-53737813D01*
X142782950Y-53594000D01*
X142958187Y-53450187D01*
X143156256Y-53208839D01*
X143303434Y-52933488D01*
X143394066Y-52634714D01*
X143424669Y-52324000D01*
X143419702Y-52273565D01*
X147804040Y-52273565D01*
X147871020Y-52513656D01*
X148001644Y-52575079D01*
X147986977Y-52580364D01*
X147871020Y-52642344D01*
X147804040Y-52882435D01*
X148590000Y-53668395D01*
X149375960Y-52882435D01*
X149308980Y-52642344D01*
X149178356Y-52580921D01*
X149193023Y-52575636D01*
X149308980Y-52513656D01*
X149375960Y-52273565D01*
X148590000Y-51487605D01*
X147804040Y-52273565D01*
X143419702Y-52273565D01*
X143394066Y-52013286D01*
X143303434Y-51714512D01*
X143156256Y-51439161D01*
X143107718Y-51380017D01*
X147188090Y-51380017D01*
X147229078Y-51652133D01*
X147322364Y-51911023D01*
X147384344Y-52026980D01*
X147624435Y-52093960D01*
X148410395Y-51308000D01*
X148769605Y-51308000D01*
X149555565Y-52093960D01*
X149795656Y-52026980D01*
X149912756Y-51777952D01*
X149979023Y-51510865D01*
X149991910Y-51235983D01*
X149982033Y-51170408D01*
X157353000Y-51170408D01*
X157353000Y-51445592D01*
X157406686Y-51715490D01*
X157511995Y-51969727D01*
X157664880Y-52198535D01*
X157859465Y-52393120D01*
X158088273Y-52546005D01*
X158165515Y-52578000D01*
X158088273Y-52609995D01*
X157859465Y-52762880D01*
X157664880Y-52957465D01*
X157511995Y-53186273D01*
X157406686Y-53440510D01*
X157353000Y-53710408D01*
X157353000Y-53985592D01*
X157406686Y-54255490D01*
X157511995Y-54509727D01*
X157664880Y-54738535D01*
X157859465Y-54933120D01*
X158088273Y-55086005D01*
X158342510Y-55191314D01*
X158612408Y-55245000D01*
X158887592Y-55245000D01*
X159157490Y-55191314D01*
X159184804Y-55180000D01*
X164396928Y-55180000D01*
X164400000Y-55594250D01*
X164558750Y-55753000D01*
X165608000Y-55753000D01*
X165608000Y-54703750D01*
X165449250Y-54545000D01*
X165035000Y-54541928D01*
X164910518Y-54554188D01*
X164790820Y-54590498D01*
X164680506Y-54649463D01*
X164583815Y-54728815D01*
X164504463Y-54825506D01*
X164445498Y-54935820D01*
X164409188Y-55055518D01*
X164396928Y-55180000D01*
X159184804Y-55180000D01*
X159411727Y-55086005D01*
X159640535Y-54933120D01*
X159835120Y-54738535D01*
X159988005Y-54509727D01*
X160093314Y-54255490D01*
X160147000Y-53985592D01*
X160147000Y-53710408D01*
X160093314Y-53440510D01*
X159988005Y-53186273D01*
X159835120Y-52957465D01*
X159640535Y-52762880D01*
X159411727Y-52609995D01*
X159334485Y-52578000D01*
X159411727Y-52546005D01*
X159640535Y-52393120D01*
X159835120Y-52198535D01*
X159988005Y-51969727D01*
X160093314Y-51715490D01*
X160147000Y-51445592D01*
X160147000Y-51170408D01*
X160093314Y-50900510D01*
X159988005Y-50646273D01*
X159835120Y-50417465D01*
X159640535Y-50222880D01*
X159411727Y-50069995D01*
X159157490Y-49964686D01*
X158887592Y-49911000D01*
X158612408Y-49911000D01*
X158342510Y-49964686D01*
X158088273Y-50069995D01*
X157859465Y-50222880D01*
X157664880Y-50417465D01*
X157511995Y-50646273D01*
X157406686Y-50900510D01*
X157353000Y-51170408D01*
X149982033Y-51170408D01*
X149950922Y-50963867D01*
X149857636Y-50704977D01*
X149795656Y-50589020D01*
X149555565Y-50522040D01*
X148769605Y-51308000D01*
X148410395Y-51308000D01*
X147624435Y-50522040D01*
X147384344Y-50589020D01*
X147267244Y-50838048D01*
X147200977Y-51105135D01*
X147188090Y-51380017D01*
X143107718Y-51380017D01*
X142958187Y-51197813D01*
X142716839Y-50999744D01*
X142441488Y-50852566D01*
X142142714Y-50761934D01*
X141909864Y-50739000D01*
X141554136Y-50739000D01*
X141321286Y-50761934D01*
X141022512Y-50852566D01*
X140747161Y-50999744D01*
X140505813Y-51197813D01*
X140307744Y-51439161D01*
X140160566Y-51714512D01*
X140069934Y-52013286D01*
X140039331Y-52324000D01*
X135804669Y-52324000D01*
X135774066Y-52013286D01*
X135683434Y-51714512D01*
X135536256Y-51439161D01*
X135338187Y-51197813D01*
X135096839Y-50999744D01*
X134821488Y-50852566D01*
X134522714Y-50761934D01*
X134289864Y-50739000D01*
X133934136Y-50739000D01*
X133701286Y-50761934D01*
X133402512Y-50852566D01*
X133127161Y-50999744D01*
X132885813Y-51197813D01*
X132687744Y-51439161D01*
X132540566Y-51714512D01*
X132449934Y-52013286D01*
X132419331Y-52324000D01*
X124500630Y-52324000D01*
X124525000Y-52201486D01*
X124525000Y-51938514D01*
X124473696Y-51680595D01*
X124373061Y-51437641D01*
X124226962Y-51218987D01*
X124041013Y-51033038D01*
X123822359Y-50886939D01*
X123579405Y-50786304D01*
X123321486Y-50735000D01*
X123058514Y-50735000D01*
X122800595Y-50786304D01*
X122557641Y-50886939D01*
X122338987Y-51033038D01*
X122153038Y-51218987D01*
X122006939Y-51437641D01*
X121906304Y-51680595D01*
X121855000Y-51938514D01*
X118820000Y-51938514D01*
X118820000Y-50342435D01*
X147804040Y-50342435D01*
X148590000Y-51128395D01*
X149375960Y-50342435D01*
X149308980Y-50102344D01*
X149059952Y-49985244D01*
X148792865Y-49918977D01*
X148517983Y-49906090D01*
X148245867Y-49947078D01*
X147986977Y-50040364D01*
X147871020Y-50102344D01*
X147804040Y-50342435D01*
X118820000Y-50342435D01*
X118820000Y-47560000D01*
X164396928Y-47560000D01*
X164396928Y-48960000D01*
X164409188Y-49084482D01*
X164445498Y-49204180D01*
X164504463Y-49314494D01*
X164583815Y-49411185D01*
X164680506Y-49490537D01*
X164790820Y-49549502D01*
X164851541Y-49567922D01*
X164858864Y-49642274D01*
X164909698Y-49809852D01*
X164992248Y-49964291D01*
X165054680Y-50040364D01*
X165103342Y-50099659D01*
X165137259Y-50127494D01*
X165744764Y-50735000D01*
X165603514Y-50735000D01*
X165345595Y-50786304D01*
X165102641Y-50886939D01*
X164883987Y-51033038D01*
X164698038Y-51218987D01*
X164551939Y-51437641D01*
X164451304Y-51680595D01*
X164400000Y-51938514D01*
X164400000Y-52201486D01*
X164451304Y-52459405D01*
X164551939Y-52702359D01*
X164698038Y-52921013D01*
X164883987Y-53106962D01*
X165102641Y-53253061D01*
X165345595Y-53353696D01*
X165603514Y-53405000D01*
X165866486Y-53405000D01*
X166000001Y-53378442D01*
X166000001Y-54565749D01*
X165862000Y-54703750D01*
X165862000Y-55753000D01*
X165882000Y-55753000D01*
X165882000Y-56007000D01*
X165862000Y-56007000D01*
X165862000Y-57056250D01*
X166000002Y-57194252D01*
X166000002Y-58167763D01*
X165837264Y-58330501D01*
X165837258Y-58330506D01*
X165812764Y-58355000D01*
X165603514Y-58355000D01*
X165345595Y-58406304D01*
X165102641Y-58506939D01*
X164883987Y-58653038D01*
X164698038Y-58838987D01*
X164551939Y-59057641D01*
X164451304Y-59300595D01*
X164400000Y-59558514D01*
X164400000Y-59821486D01*
X164451304Y-60079405D01*
X164551939Y-60322359D01*
X164698038Y-60541013D01*
X164883987Y-60726962D01*
X165102641Y-60873061D01*
X165345595Y-60973696D01*
X165603514Y-61025000D01*
X165866486Y-61025000D01*
X166124405Y-60973696D01*
X166367359Y-60873061D01*
X166586013Y-60726962D01*
X166771962Y-60541013D01*
X166918061Y-60322359D01*
X167018696Y-60079405D01*
X167070000Y-59821486D01*
X167070000Y-59612236D01*
X167094494Y-59587742D01*
X167094499Y-59587736D01*
X167486737Y-59195498D01*
X167520660Y-59167658D01*
X167631754Y-59032290D01*
X167714304Y-58877850D01*
X167765137Y-58710273D01*
X167778001Y-58579666D01*
X167778001Y-58579659D01*
X167782301Y-58535999D01*
X167778001Y-58492339D01*
X167778001Y-50665661D01*
X167782301Y-50622001D01*
X167778001Y-50578341D01*
X167778001Y-50578334D01*
X167765137Y-50447727D01*
X167714304Y-50280150D01*
X167631754Y-50125710D01*
X167520660Y-49990342D01*
X167486744Y-49962508D01*
X166908378Y-49384143D01*
X166965537Y-49314494D01*
X167024502Y-49204180D01*
X167060812Y-49084482D01*
X167073072Y-48960000D01*
X167073072Y-47560000D01*
X167060812Y-47435518D01*
X167024502Y-47315820D01*
X166965537Y-47205506D01*
X166886185Y-47108815D01*
X166789494Y-47029463D01*
X166679180Y-46970498D01*
X166559482Y-46934188D01*
X166435000Y-46921928D01*
X165035000Y-46921928D01*
X164910518Y-46934188D01*
X164790820Y-46970498D01*
X164680506Y-47029463D01*
X164583815Y-47108815D01*
X164504463Y-47205506D01*
X164445498Y-47315820D01*
X164409188Y-47435518D01*
X164396928Y-47560000D01*
X118820000Y-47560000D01*
X118820000Y-41689872D01*
X119685000Y-41689872D01*
X119685000Y-42130128D01*
X119770890Y-42561925D01*
X119939369Y-42968669D01*
X120183962Y-43334729D01*
X120495271Y-43646038D01*
X120861331Y-43890631D01*
X121268075Y-44059110D01*
X121699872Y-44145000D01*
X122140128Y-44145000D01*
X122571925Y-44059110D01*
X122978669Y-43890631D01*
X123344729Y-43646038D01*
X123656038Y-43334729D01*
X123900631Y-42968669D01*
X124069110Y-42561925D01*
X124155000Y-42130128D01*
X124155000Y-41689872D01*
X124069110Y-41258075D01*
X123900631Y-40851331D01*
X123656038Y-40485271D01*
X123344729Y-40173962D01*
X122978669Y-39929369D01*
X122571925Y-39760890D01*
X122140128Y-39675000D01*
X121699872Y-39675000D01*
X121268075Y-39760890D01*
X120861331Y-39929369D01*
X120495271Y-40173962D01*
X120183962Y-40485271D01*
X119939369Y-40851331D01*
X119770890Y-41258075D01*
X119685000Y-41689872D01*
X118820000Y-41689872D01*
X118820000Y-38810000D01*
X129346537Y-38810000D01*
X129318044Y-38817033D01*
X129318044Y-38817033D01*
G37*
X129318044Y-38817033D02*
X129315365Y-38817981D01*
X129273106Y-38828721D01*
X129238895Y-38845046D01*
X129203167Y-38857691D01*
X129165699Y-38879974D01*
X129163127Y-38881201D01*
X129130808Y-38900724D01*
X129063405Y-38940809D01*
X129061276Y-38942725D01*
X128646613Y-39193208D01*
X128594017Y-39221321D01*
X128545729Y-39260951D01*
X128495696Y-39298325D01*
X128455805Y-39342643D01*
X127988643Y-39809805D01*
X127944325Y-39849696D01*
X127906947Y-39899735D01*
X127867321Y-39948018D01*
X127839212Y-40000606D01*
X127562914Y-40458007D01*
X127532571Y-40501193D01*
X127504563Y-40564569D01*
X127474721Y-40627108D01*
X127461719Y-40678266D01*
X127294886Y-41185182D01*
X127290287Y-41193786D01*
X127269482Y-41262370D01*
X127259838Y-41291674D01*
X127257728Y-41301118D01*
X127243084Y-41349394D01*
X127240040Y-41380301D01*
X127233271Y-41410603D01*
X127232090Y-41461026D01*
X127231140Y-41470667D01*
X127231140Y-41501552D01*
X127229462Y-41573167D01*
X127231140Y-41582773D01*
X127231140Y-42056618D01*
X127227586Y-42083644D01*
X127231140Y-42137738D01*
X127231140Y-42151212D01*
X127233799Y-42178212D01*
X127235575Y-42205241D01*
X127237769Y-42218515D01*
X127243084Y-42272485D01*
X127250999Y-42298578D01*
X127332166Y-42789745D01*
X127332910Y-42815349D01*
X127345395Y-42869799D01*
X127347858Y-42884702D01*
X127354452Y-42909296D01*
X127369253Y-42973846D01*
X127375478Y-42987719D01*
X127379415Y-43002405D01*
X127408717Y-43061801D01*
X127419138Y-43085027D01*
X127426640Y-43098132D01*
X127451357Y-43148234D01*
X127466955Y-43168555D01*
X127834636Y-43810834D01*
X127867321Y-43871982D01*
X127900794Y-43912769D01*
X127931369Y-43955769D01*
X127981795Y-44003347D01*
X128421169Y-44442721D01*
X128427300Y-44451408D01*
X128478612Y-44500164D01*
X128499819Y-44521371D01*
X128507977Y-44528066D01*
X128545181Y-44563417D01*
X128570691Y-44579535D01*
X128594017Y-44598679D01*
X128639277Y-44622871D01*
X128648200Y-44628509D01*
X128675003Y-44641967D01*
X128737426Y-44675333D01*
X128747602Y-44678420D01*
X129231585Y-44921433D01*
X129247885Y-44932916D01*
X129304096Y-44957841D01*
X129322661Y-44967163D01*
X129341181Y-44974286D01*
X129359284Y-44982313D01*
X129378975Y-44988821D01*
X129436399Y-45010906D01*
X129456054Y-45014296D01*
X129929779Y-45170867D01*
X129938846Y-45175713D01*
X130006941Y-45196369D01*
X130035732Y-45205885D01*
X130045677Y-45208120D01*
X130094454Y-45222916D01*
X130124841Y-45225909D01*
X130154627Y-45232602D01*
X130205569Y-45233860D01*
X130215727Y-45234860D01*
X130246095Y-45234860D01*
X130317187Y-45236615D01*
X130327309Y-45234860D01*
X131021054Y-45234860D01*
X131066857Y-45238788D01*
X131142445Y-45230378D01*
X131218206Y-45222916D01*
X131223246Y-45221387D01*
X131228469Y-45220806D01*
X131300927Y-45197823D01*
X131373814Y-45175713D01*
X131414367Y-45154037D01*
X132070152Y-44872645D01*
X132135369Y-44846721D01*
X132178938Y-44818504D01*
X132224396Y-44793463D01*
X132278063Y-44748273D01*
X132735452Y-44383755D01*
X132767059Y-44363640D01*
X132798892Y-44333196D01*
X132801459Y-44331150D01*
X132828158Y-44305207D01*
X132855126Y-44279415D01*
X132857270Y-44276919D01*
X132888854Y-44246228D01*
X132910110Y-44215383D01*
X133477068Y-43555129D01*
X133524828Y-43502148D01*
X133550782Y-43458581D01*
X133579888Y-43417055D01*
X133592297Y-43388890D01*
X133608049Y-43362448D01*
X133625002Y-43314661D01*
X133634393Y-43293346D01*
X133930636Y-43810834D01*
X133963321Y-43871982D01*
X133996794Y-43912769D01*
X134027369Y-43955769D01*
X134077795Y-44003347D01*
X134517169Y-44442721D01*
X134523300Y-44451408D01*
X134574612Y-44500164D01*
X134595819Y-44521371D01*
X134603977Y-44528066D01*
X134641181Y-44563417D01*
X134666691Y-44579535D01*
X134690017Y-44598679D01*
X134735277Y-44622871D01*
X134744200Y-44628509D01*
X134771003Y-44641967D01*
X134833426Y-44675333D01*
X134843602Y-44678420D01*
X135327585Y-44921433D01*
X135343885Y-44932916D01*
X135400096Y-44957841D01*
X135418661Y-44967163D01*
X135437181Y-44974286D01*
X135455284Y-44982313D01*
X135474975Y-44988821D01*
X135532399Y-45010906D01*
X135552054Y-45014296D01*
X136025779Y-45170867D01*
X136034846Y-45175713D01*
X136102941Y-45196369D01*
X136131732Y-45205885D01*
X136141677Y-45208120D01*
X136190454Y-45222916D01*
X136220841Y-45225909D01*
X136250627Y-45232602D01*
X136301569Y-45233860D01*
X136311727Y-45234860D01*
X136342095Y-45234860D01*
X136413187Y-45236615D01*
X136423309Y-45234860D01*
X137117054Y-45234860D01*
X137162857Y-45238788D01*
X137238445Y-45230378D01*
X137314206Y-45222916D01*
X137319246Y-45221387D01*
X137324469Y-45220806D01*
X137396927Y-45197823D01*
X137469814Y-45175713D01*
X137510367Y-45154037D01*
X138166152Y-44872645D01*
X138231369Y-44846721D01*
X138274938Y-44818504D01*
X138320396Y-44793463D01*
X138374063Y-44748273D01*
X138831452Y-44383755D01*
X138863059Y-44363640D01*
X138894892Y-44333196D01*
X138897459Y-44331150D01*
X138924158Y-44305207D01*
X138951126Y-44279415D01*
X138953270Y-44276919D01*
X138984854Y-44246228D01*
X139006110Y-44215383D01*
X139573068Y-43555129D01*
X139620828Y-43502148D01*
X139646782Y-43458581D01*
X139675888Y-43417055D01*
X139688297Y-43388890D01*
X139704049Y-43362448D01*
X139721002Y-43314661D01*
X139741451Y-43268248D01*
X139756931Y-43198579D01*
X139947517Y-42428904D01*
X139964916Y-42371546D01*
X139971009Y-42309683D01*
X139979962Y-42248185D01*
X139976860Y-42188344D01*
X139976860Y-41689872D01*
X164770000Y-41689872D01*
X164770000Y-42130128D01*
X164855890Y-42561925D01*
X165024369Y-42968669D01*
X165268962Y-43334729D01*
X165580271Y-43646038D01*
X165946331Y-43890631D01*
X166353075Y-44059110D01*
X166784872Y-44145000D01*
X167225128Y-44145000D01*
X167656925Y-44059110D01*
X168063669Y-43890631D01*
X168429729Y-43646038D01*
X168741038Y-43334729D01*
X168985631Y-42968669D01*
X169154110Y-42561925D01*
X169240000Y-42130128D01*
X169240000Y-41689872D01*
X169154110Y-41258075D01*
X168985631Y-40851331D01*
X168741038Y-40485271D01*
X168429729Y-40173962D01*
X168063669Y-39929369D01*
X167656925Y-39760890D01*
X167225128Y-39675000D01*
X166784872Y-39675000D01*
X166353075Y-39760890D01*
X165946331Y-39929369D01*
X165580271Y-40173962D01*
X165268962Y-40485271D01*
X165024369Y-40851331D01*
X164855890Y-41258075D01*
X164770000Y-41689872D01*
X139976860Y-41689872D01*
X139976860Y-41651208D01*
X139980854Y-41611031D01*
X139976860Y-41570101D01*
X139976860Y-41569727D01*
X139972894Y-41529462D01*
X139969019Y-41489748D01*
X139968947Y-41489386D01*
X139964916Y-41448454D01*
X139953194Y-41409811D01*
X139863994Y-40959239D01*
X139851777Y-40888773D01*
X139833578Y-40841576D01*
X139818940Y-40793162D01*
X139785287Y-40730065D01*
X139601531Y-40364879D01*
X139580723Y-40315520D01*
X139542274Y-40258751D01*
X139505639Y-40200880D01*
X139468730Y-40162102D01*
X139009873Y-39610078D01*
X138984854Y-39573772D01*
X138928958Y-39519458D01*
X138873456Y-39464647D01*
X138836639Y-39440379D01*
X138366993Y-39066092D01*
X138305110Y-39016288D01*
X138267232Y-38996505D01*
X138231369Y-38973279D01*
X138157619Y-38943963D01*
X137825255Y-38810000D01*
X170105001Y-38810000D01*
X170105000Y-94540000D01*
X118820000Y-94540000D01*
X118820000Y-91219872D01*
X119685000Y-91219872D01*
X119685000Y-91660128D01*
X119770890Y-92091925D01*
X119939369Y-92498669D01*
X120183962Y-92864729D01*
X120495271Y-93176038D01*
X120861331Y-93420631D01*
X121268075Y-93589110D01*
X121699872Y-93675000D01*
X122140128Y-93675000D01*
X122571925Y-93589110D01*
X122978669Y-93420631D01*
X123344729Y-93176038D01*
X123656038Y-92864729D01*
X123878539Y-92531731D01*
X130190000Y-92531731D01*
X130190000Y-92888269D01*
X130259557Y-93237958D01*
X130395999Y-93567357D01*
X130594081Y-93863808D01*
X130846192Y-94115919D01*
X131142643Y-94314001D01*
X131472042Y-94450443D01*
X131821731Y-94520000D01*
X132178269Y-94520000D01*
X132527958Y-94450443D01*
X132857357Y-94314001D01*
X133153808Y-94115919D01*
X133405919Y-93863808D01*
X133604001Y-93567357D01*
X133740443Y-93237958D01*
X133810000Y-92888269D01*
X133810000Y-92531731D01*
X145510000Y-92531731D01*
X145510000Y-92888269D01*
X145579557Y-93237958D01*
X145715999Y-93567357D01*
X145914081Y-93863808D01*
X146166192Y-94115919D01*
X146462643Y-94314001D01*
X146792042Y-94450443D01*
X147141731Y-94520000D01*
X147498269Y-94520000D01*
X147847958Y-94450443D01*
X148177357Y-94314001D01*
X148473808Y-94115919D01*
X148725919Y-93863808D01*
X148924001Y-93567357D01*
X149060443Y-93237958D01*
X149130000Y-92888269D01*
X149130000Y-92531731D01*
X149060443Y-92182042D01*
X148924001Y-91852643D01*
X148725919Y-91556192D01*
X148473808Y-91304081D01*
X148347781Y-91219872D01*
X164770000Y-91219872D01*
X164770000Y-91660128D01*
X164855890Y-92091925D01*
X165024369Y-92498669D01*
X165268962Y-92864729D01*
X165580271Y-93176038D01*
X165946331Y-93420631D01*
X166353075Y-93589110D01*
X166784872Y-93675000D01*
X167225128Y-93675000D01*
X167656925Y-93589110D01*
X168063669Y-93420631D01*
X168429729Y-93176038D01*
X168741038Y-92864729D01*
X168985631Y-92498669D01*
X169154110Y-92091925D01*
X169240000Y-91660128D01*
X169240000Y-91219872D01*
X169154110Y-90788075D01*
X168985631Y-90381331D01*
X168741038Y-90015271D01*
X168429729Y-89703962D01*
X168063669Y-89459369D01*
X167656925Y-89290890D01*
X167225128Y-89205000D01*
X166784872Y-89205000D01*
X166353075Y-89290890D01*
X165946331Y-89459369D01*
X165580271Y-89703962D01*
X165268962Y-90015271D01*
X165024369Y-90381331D01*
X164855890Y-90788075D01*
X164770000Y-91219872D01*
X148347781Y-91219872D01*
X148177357Y-91105999D01*
X147847958Y-90969557D01*
X147498269Y-90900000D01*
X147141731Y-90900000D01*
X146792042Y-90969557D01*
X146462643Y-91105999D01*
X146166192Y-91304081D01*
X145914081Y-91556192D01*
X145715999Y-91852643D01*
X145579557Y-92182042D01*
X145510000Y-92531731D01*
X133810000Y-92531731D01*
X133740443Y-92182042D01*
X133604001Y-91852643D01*
X133405919Y-91556192D01*
X133153808Y-91304081D01*
X132857357Y-91105999D01*
X132527958Y-90969557D01*
X132178269Y-90900000D01*
X131821731Y-90900000D01*
X131472042Y-90969557D01*
X131142643Y-91105999D01*
X130846192Y-91304081D01*
X130594081Y-91556192D01*
X130395999Y-91852643D01*
X130259557Y-92182042D01*
X130190000Y-92531731D01*
X123878539Y-92531731D01*
X123900631Y-92498669D01*
X124069110Y-92091925D01*
X124155000Y-91660128D01*
X124155000Y-91219872D01*
X124069110Y-90788075D01*
X123900631Y-90381331D01*
X123656038Y-90015271D01*
X123344729Y-89703962D01*
X122978669Y-89459369D01*
X122571925Y-89290890D01*
X122140128Y-89205000D01*
X121699872Y-89205000D01*
X121268075Y-89290890D01*
X120861331Y-89459369D01*
X120495271Y-89703962D01*
X120183962Y-90015271D01*
X119939369Y-90381331D01*
X119770890Y-90788075D01*
X119685000Y-91219872D01*
X118820000Y-91219872D01*
X118820000Y-87451731D01*
X130190000Y-87451731D01*
X130190000Y-87808269D01*
X130259557Y-88157958D01*
X130395999Y-88487357D01*
X130594081Y-88783808D01*
X130846192Y-89035919D01*
X131142643Y-89234001D01*
X131472042Y-89370443D01*
X131821731Y-89440000D01*
X132178269Y-89440000D01*
X132527958Y-89370443D01*
X132857357Y-89234001D01*
X133153808Y-89035919D01*
X133405919Y-88783808D01*
X133604001Y-88487357D01*
X133740443Y-88157958D01*
X133810000Y-87808269D01*
X133810000Y-87451731D01*
X145510000Y-87451731D01*
X145510000Y-87808269D01*
X145579557Y-88157958D01*
X145715999Y-88487357D01*
X145914081Y-88783808D01*
X146166192Y-89035919D01*
X146462643Y-89234001D01*
X146792042Y-89370443D01*
X147141731Y-89440000D01*
X147498269Y-89440000D01*
X147847958Y-89370443D01*
X148177357Y-89234001D01*
X148473808Y-89035919D01*
X148725919Y-88783808D01*
X148924001Y-88487357D01*
X149060443Y-88157958D01*
X149130000Y-87808269D01*
X149130000Y-87451731D01*
X149060443Y-87102042D01*
X148924001Y-86772643D01*
X148725919Y-86476192D01*
X148473808Y-86224081D01*
X148177357Y-86025999D01*
X147847958Y-85889557D01*
X147498269Y-85820000D01*
X147141731Y-85820000D01*
X146792042Y-85889557D01*
X146462643Y-86025999D01*
X146166192Y-86224081D01*
X145914081Y-86476192D01*
X145715999Y-86772643D01*
X145579557Y-87102042D01*
X145510000Y-87451731D01*
X133810000Y-87451731D01*
X133740443Y-87102042D01*
X133604001Y-86772643D01*
X133405919Y-86476192D01*
X133153808Y-86224081D01*
X132857357Y-86025999D01*
X132527958Y-85889557D01*
X132178269Y-85820000D01*
X131821731Y-85820000D01*
X131472042Y-85889557D01*
X131142643Y-86025999D01*
X130846192Y-86224081D01*
X130594081Y-86476192D01*
X130395999Y-86772643D01*
X130259557Y-87102042D01*
X130190000Y-87451731D01*
X118820000Y-87451731D01*
X118820000Y-82425079D01*
X128049000Y-82425079D01*
X128049000Y-83022921D01*
X128165633Y-83609277D01*
X128394418Y-84161612D01*
X128726562Y-84658700D01*
X129149300Y-85081438D01*
X129646388Y-85413582D01*
X130198723Y-85642367D01*
X130785079Y-85759000D01*
X131382921Y-85759000D01*
X131969277Y-85642367D01*
X132521612Y-85413582D01*
X133018700Y-85081438D01*
X133441438Y-84658700D01*
X133773582Y-84161612D01*
X134002367Y-83609277D01*
X134036038Y-83440000D01*
X138809880Y-83440000D01*
X138846275Y-83809524D01*
X138954061Y-84164848D01*
X139129097Y-84492317D01*
X139364655Y-84779345D01*
X139651683Y-85014903D01*
X139979152Y-85189939D01*
X140334476Y-85297725D01*
X140611403Y-85325000D01*
X142096597Y-85325000D01*
X142373524Y-85297725D01*
X142728848Y-85189939D01*
X143056317Y-85014903D01*
X143343345Y-84779345D01*
X143578903Y-84492317D01*
X143753939Y-84164848D01*
X143764000Y-84131681D01*
X143774061Y-84164848D01*
X143949097Y-84492317D01*
X144184655Y-84779345D01*
X144471683Y-85014903D01*
X144799152Y-85189939D01*
X145154476Y-85297725D01*
X145431403Y-85325000D01*
X146916597Y-85325000D01*
X147193524Y-85297725D01*
X147548848Y-85189939D01*
X147876317Y-85014903D01*
X148163345Y-84779345D01*
X148398903Y-84492317D01*
X148573939Y-84164848D01*
X148681725Y-83809524D01*
X148718120Y-83440000D01*
X148681725Y-83070476D01*
X148573939Y-82715152D01*
X148398903Y-82387683D01*
X148163345Y-82100655D01*
X147876317Y-81865097D01*
X147548848Y-81690061D01*
X147193524Y-81582275D01*
X146916597Y-81555000D01*
X145431403Y-81555000D01*
X145154476Y-81582275D01*
X144799152Y-81690061D01*
X144471683Y-81865097D01*
X144184655Y-82100655D01*
X143949097Y-82387683D01*
X143774061Y-82715152D01*
X143764000Y-82748319D01*
X143753939Y-82715152D01*
X143578903Y-82387683D01*
X143343345Y-82100655D01*
X143056317Y-81865097D01*
X142728848Y-81690061D01*
X142373524Y-81582275D01*
X142096597Y-81555000D01*
X140611403Y-81555000D01*
X140334476Y-81582275D01*
X139979152Y-81690061D01*
X139651683Y-81865097D01*
X139364655Y-82100655D01*
X139129097Y-82387683D01*
X138954061Y-82715152D01*
X138846275Y-83070476D01*
X138809880Y-83440000D01*
X134036038Y-83440000D01*
X134119000Y-83022921D01*
X134119000Y-82425079D01*
X134002367Y-81838723D01*
X133773582Y-81286388D01*
X133441438Y-80789300D01*
X133305873Y-80653735D01*
X133835079Y-80759000D01*
X134432921Y-80759000D01*
X135019277Y-80642367D01*
X135571612Y-80413582D01*
X136068700Y-80081438D01*
X136491438Y-79658700D01*
X136823582Y-79161612D01*
X136998219Y-78740000D01*
X138809880Y-78740000D01*
X138846275Y-79109524D01*
X138954061Y-79464848D01*
X139129097Y-79792317D01*
X139364655Y-80079345D01*
X139651683Y-80314903D01*
X139979152Y-80489939D01*
X140334476Y-80597725D01*
X140611403Y-80625000D01*
X142096597Y-80625000D01*
X142373524Y-80597725D01*
X142728848Y-80489939D01*
X143056317Y-80314903D01*
X143343345Y-80079345D01*
X143578903Y-79792317D01*
X143753939Y-79464848D01*
X143764000Y-79431681D01*
X143774061Y-79464848D01*
X143949097Y-79792317D01*
X144184655Y-80079345D01*
X144471683Y-80314903D01*
X144799152Y-80489939D01*
X145154476Y-80597725D01*
X145431403Y-80625000D01*
X146916597Y-80625000D01*
X147193524Y-80597725D01*
X147548848Y-80489939D01*
X147763884Y-80375000D01*
X149396762Y-80375000D01*
X155211080Y-86189319D01*
X155262286Y-86251714D01*
X155511248Y-86456031D01*
X155795285Y-86607852D01*
X156103484Y-86701343D01*
X156343678Y-86725000D01*
X156343680Y-86725000D01*
X156423999Y-86732911D01*
X156504319Y-86725000D01*
X165815322Y-86725000D01*
X166055516Y-86701343D01*
X166363715Y-86607852D01*
X166647752Y-86456031D01*
X166896714Y-86251714D01*
X167101031Y-86002752D01*
X167252852Y-85718715D01*
X167346343Y-85410516D01*
X167377911Y-85090000D01*
X167346343Y-84769484D01*
X167252852Y-84461285D01*
X167101031Y-84177248D01*
X166896714Y-83928286D01*
X166647752Y-83723969D01*
X166363715Y-83572148D01*
X166055516Y-83478657D01*
X165815322Y-83455000D01*
X157101239Y-83455000D01*
X151286925Y-77640687D01*
X151235714Y-77578286D01*
X150986752Y-77373969D01*
X150702715Y-77222148D01*
X150394516Y-77128657D01*
X150154322Y-77105000D01*
X150154319Y-77105000D01*
X150074000Y-77097089D01*
X149993681Y-77105000D01*
X147763884Y-77105000D01*
X147548848Y-76990061D01*
X147193524Y-76882275D01*
X146916597Y-76855000D01*
X145431403Y-76855000D01*
X145154476Y-76882275D01*
X144799152Y-76990061D01*
X144471683Y-77165097D01*
X144184655Y-77400655D01*
X143949097Y-77687683D01*
X143774061Y-78015152D01*
X143764000Y-78048319D01*
X143753939Y-78015152D01*
X143578903Y-77687683D01*
X143343345Y-77400655D01*
X143056317Y-77165097D01*
X142728848Y-76990061D01*
X142373524Y-76882275D01*
X142096597Y-76855000D01*
X140611403Y-76855000D01*
X140334476Y-76882275D01*
X139979152Y-76990061D01*
X139651683Y-77165097D01*
X139364655Y-77400655D01*
X139129097Y-77687683D01*
X138954061Y-78015152D01*
X138846275Y-78370476D01*
X138809880Y-78740000D01*
X136998219Y-78740000D01*
X137052367Y-78609277D01*
X137169000Y-78022921D01*
X137169000Y-77425079D01*
X137052367Y-76838723D01*
X136823582Y-76286388D01*
X136491438Y-75789300D01*
X136068700Y-75366562D01*
X135571612Y-75034418D01*
X135019277Y-74805633D01*
X134432921Y-74689000D01*
X133835079Y-74689000D01*
X133248723Y-74805633D01*
X132696388Y-75034418D01*
X132199300Y-75366562D01*
X131776562Y-75789300D01*
X131444418Y-76286388D01*
X131215633Y-76838723D01*
X131099000Y-77425079D01*
X131099000Y-78022921D01*
X131215633Y-78609277D01*
X131444418Y-79161612D01*
X131776562Y-79658700D01*
X131912127Y-79794265D01*
X131382921Y-79689000D01*
X130785079Y-79689000D01*
X130198723Y-79805633D01*
X129646388Y-80034418D01*
X129149300Y-80366562D01*
X128726562Y-80789300D01*
X128394418Y-81286388D01*
X128165633Y-81838723D01*
X128049000Y-82425079D01*
X118820000Y-82425079D01*
X118820000Y-79856029D01*
X125581576Y-79856029D01*
X125845740Y-80263755D01*
X126373661Y-80544317D01*
X126946173Y-80716496D01*
X127541275Y-80773676D01*
X128136098Y-80713658D01*
X128707782Y-80538750D01*
X129222260Y-80263755D01*
X129486424Y-79856029D01*
X127534000Y-77903605D01*
X125581576Y-79856029D01*
X118820000Y-79856029D01*
X118820000Y-77543268D01*
X121899000Y-77543268D01*
X121899000Y-77904732D01*
X121969518Y-78259250D01*
X122107844Y-78593199D01*
X122308662Y-78893744D01*
X122564256Y-79149338D01*
X122864801Y-79350156D01*
X123198750Y-79488482D01*
X123553268Y-79559000D01*
X123914732Y-79559000D01*
X124269250Y-79488482D01*
X124603199Y-79350156D01*
X124866877Y-79173972D01*
X124994245Y-79412260D01*
X125401971Y-79676424D01*
X127354395Y-77724000D01*
X127713605Y-77724000D01*
X129666029Y-79676424D01*
X130073755Y-79412260D01*
X130354317Y-78884339D01*
X130526496Y-78311827D01*
X130583676Y-77716725D01*
X130523658Y-77121902D01*
X130348750Y-76550218D01*
X130073755Y-76035740D01*
X129666029Y-75771576D01*
X127713605Y-77724000D01*
X127354395Y-77724000D01*
X125401971Y-75771576D01*
X124994245Y-76035740D01*
X124867416Y-76274388D01*
X124603199Y-76097844D01*
X124269250Y-75959518D01*
X123914732Y-75889000D01*
X123553268Y-75889000D01*
X123198750Y-75959518D01*
X122864801Y-76097844D01*
X122564256Y-76298662D01*
X122308662Y-76554256D01*
X122107844Y-76854801D01*
X121969518Y-77188750D01*
X121899000Y-77543268D01*
X118820000Y-77543268D01*
X118820000Y-75591971D01*
X125581576Y-75591971D01*
X127534000Y-77544395D01*
X129486424Y-75591971D01*
X129222260Y-75184245D01*
X128694339Y-74903683D01*
X128121827Y-74731504D01*
X127526725Y-74674324D01*
X126931902Y-74734342D01*
X126360218Y-74909250D01*
X125845740Y-75184245D01*
X125581576Y-75591971D01*
X118820000Y-75591971D01*
X118820000Y-74040000D01*
X138809880Y-74040000D01*
X138846275Y-74409524D01*
X138954061Y-74764848D01*
X139129097Y-75092317D01*
X139364655Y-75379345D01*
X139651683Y-75614903D01*
X139979152Y-75789939D01*
X140334476Y-75897725D01*
X140611403Y-75925000D01*
X142096597Y-75925000D01*
X142373524Y-75897725D01*
X142728848Y-75789939D01*
X143056317Y-75614903D01*
X143343345Y-75379345D01*
X143578903Y-75092317D01*
X143753939Y-74764848D01*
X143764000Y-74731681D01*
X143774061Y-74764848D01*
X143949097Y-75092317D01*
X144184655Y-75379345D01*
X144471683Y-75614903D01*
X144799152Y-75789939D01*
X145154476Y-75897725D01*
X145431403Y-75925000D01*
X146916597Y-75925000D01*
X147193524Y-75897725D01*
X147548848Y-75789939D01*
X147876317Y-75614903D01*
X148163345Y-75379345D01*
X148398903Y-75092317D01*
X148573939Y-74764848D01*
X148681725Y-74409524D01*
X148718120Y-74040000D01*
X148681725Y-73670476D01*
X148573939Y-73315152D01*
X148398903Y-72987683D01*
X148163345Y-72700655D01*
X147876317Y-72465097D01*
X147548848Y-72290061D01*
X147193524Y-72182275D01*
X146916597Y-72155000D01*
X145431403Y-72155000D01*
X145154476Y-72182275D01*
X144799152Y-72290061D01*
X144471683Y-72465097D01*
X144184655Y-72700655D01*
X143949097Y-72987683D01*
X143774061Y-73315152D01*
X143764000Y-73348319D01*
X143753939Y-73315152D01*
X143578903Y-72987683D01*
X143343345Y-72700655D01*
X143056317Y-72465097D01*
X142728848Y-72290061D01*
X142373524Y-72182275D01*
X142096597Y-72155000D01*
X140611403Y-72155000D01*
X140334476Y-72182275D01*
X139979152Y-72290061D01*
X139651683Y-72465097D01*
X139364655Y-72700655D01*
X139129097Y-72987683D01*
X138954061Y-73315152D01*
X138846275Y-73670476D01*
X138809880Y-74040000D01*
X118820000Y-74040000D01*
X118820000Y-65024000D01*
X119919815Y-65024000D01*
X119948487Y-65315111D01*
X120033401Y-65595034D01*
X120171294Y-65853014D01*
X120356866Y-66079134D01*
X120582986Y-66264706D01*
X120637791Y-66294000D01*
X120582986Y-66323294D01*
X120356866Y-66508866D01*
X120171294Y-66734986D01*
X120033401Y-66992966D01*
X119948487Y-67272889D01*
X119919815Y-67564000D01*
X119948487Y-67855111D01*
X120033401Y-68135034D01*
X120171294Y-68393014D01*
X120356866Y-68619134D01*
X120386687Y-68643607D01*
X120317820Y-68664498D01*
X120207506Y-68723463D01*
X120110815Y-68802815D01*
X120031463Y-68899506D01*
X119972498Y-69009820D01*
X119936188Y-69129518D01*
X119923928Y-69254000D01*
X119923928Y-70954000D01*
X119936188Y-71078482D01*
X119972498Y-71198180D01*
X120031463Y-71308494D01*
X120110815Y-71405185D01*
X120207506Y-71484537D01*
X120317820Y-71543502D01*
X120437518Y-71579812D01*
X120562000Y-71592072D01*
X122262000Y-71592072D01*
X122386482Y-71579812D01*
X122506180Y-71543502D01*
X122616494Y-71484537D01*
X122713185Y-71405185D01*
X122792537Y-71308494D01*
X122851502Y-71198180D01*
X122887812Y-71078482D01*
X122900072Y-70954000D01*
X122900072Y-69254000D01*
X122887812Y-69129518D01*
X122875218Y-69088000D01*
X146947089Y-69088000D01*
X146978658Y-69408516D01*
X147072148Y-69716714D01*
X147072149Y-69716715D01*
X147223970Y-70000752D01*
X147428287Y-70249714D01*
X147490682Y-70300920D01*
X159569080Y-82379319D01*
X159620286Y-82441714D01*
X159869248Y-82646031D01*
X160153285Y-82797852D01*
X160461483Y-82891343D01*
X160782000Y-82922911D01*
X160862322Y-82915000D01*
X165815322Y-82915000D01*
X166055516Y-82891343D01*
X166363715Y-82797852D01*
X166647752Y-82646031D01*
X166896714Y-82441714D01*
X167101031Y-82192752D01*
X167252852Y-81908715D01*
X167346343Y-81600516D01*
X167377911Y-81280000D01*
X167346343Y-80959484D01*
X167252852Y-80651285D01*
X167101031Y-80367248D01*
X166896714Y-80118286D01*
X166647752Y-79913969D01*
X166363715Y-79762148D01*
X166055516Y-79668657D01*
X165815322Y-79645000D01*
X161459239Y-79645000D01*
X154269239Y-72455000D01*
X164396928Y-72455000D01*
X164409188Y-72579482D01*
X164445498Y-72699180D01*
X164504463Y-72809494D01*
X164583815Y-72906185D01*
X164680506Y-72985537D01*
X164790820Y-73044502D01*
X164910518Y-73080812D01*
X165035000Y-73093072D01*
X165449250Y-73090000D01*
X165608000Y-72931250D01*
X165608000Y-71882000D01*
X164558750Y-71882000D01*
X164400000Y-72040750D01*
X164396928Y-72455000D01*
X154269239Y-72455000D01*
X152869239Y-71055000D01*
X164396928Y-71055000D01*
X164400000Y-71469250D01*
X164558750Y-71628000D01*
X165608000Y-71628000D01*
X165608000Y-70578750D01*
X165449250Y-70420000D01*
X165035000Y-70416928D01*
X164910518Y-70429188D01*
X164790820Y-70465498D01*
X164680506Y-70524463D01*
X164583815Y-70603815D01*
X164504463Y-70700506D01*
X164445498Y-70810820D01*
X164409188Y-70930518D01*
X164396928Y-71055000D01*
X152869239Y-71055000D01*
X150225000Y-68410762D01*
X150225000Y-66467678D01*
X150219360Y-66410408D01*
X157353000Y-66410408D01*
X157353000Y-66685592D01*
X157406686Y-66955490D01*
X157511995Y-67209727D01*
X157664880Y-67438535D01*
X157859465Y-67633120D01*
X158088273Y-67786005D01*
X158165515Y-67818000D01*
X158088273Y-67849995D01*
X157859465Y-68002880D01*
X157664880Y-68197465D01*
X157511995Y-68426273D01*
X157406686Y-68680510D01*
X157353000Y-68950408D01*
X157353000Y-69225592D01*
X157406686Y-69495490D01*
X157511995Y-69749727D01*
X157664880Y-69978535D01*
X157859465Y-70173120D01*
X158088273Y-70326005D01*
X158342510Y-70431314D01*
X158612408Y-70485000D01*
X158887592Y-70485000D01*
X159157490Y-70431314D01*
X159411727Y-70326005D01*
X159640535Y-70173120D01*
X159835120Y-69978535D01*
X159988005Y-69749727D01*
X160093314Y-69495490D01*
X160147000Y-69225592D01*
X160147000Y-68950408D01*
X160093314Y-68680510D01*
X159988005Y-68426273D01*
X159835120Y-68197465D01*
X159640535Y-68002880D01*
X159411727Y-67849995D01*
X159334485Y-67818000D01*
X159411727Y-67786005D01*
X159640535Y-67633120D01*
X159835120Y-67438535D01*
X159988005Y-67209727D01*
X160093314Y-66955490D01*
X160147000Y-66685592D01*
X160147000Y-66410408D01*
X160093314Y-66140510D01*
X159988005Y-65886273D01*
X159835120Y-65657465D01*
X159640535Y-65462880D01*
X159411727Y-65309995D01*
X159157490Y-65204686D01*
X158887592Y-65151000D01*
X158612408Y-65151000D01*
X158342510Y-65204686D01*
X158088273Y-65309995D01*
X157859465Y-65462880D01*
X157664880Y-65657465D01*
X157511995Y-65886273D01*
X157406686Y-66140510D01*
X157353000Y-66410408D01*
X150219360Y-66410408D01*
X150201343Y-66227484D01*
X150107852Y-65919285D01*
X149956031Y-65635248D01*
X149751714Y-65386286D01*
X149502751Y-65181969D01*
X149218714Y-65030148D01*
X148910515Y-64936657D01*
X148590000Y-64905089D01*
X148269484Y-64936657D01*
X147961285Y-65030148D01*
X147677248Y-65181969D01*
X147428286Y-65386286D01*
X147223969Y-65635249D01*
X147072148Y-65919286D01*
X146978657Y-66227485D01*
X146955000Y-66467679D01*
X146955001Y-69007671D01*
X146947089Y-69088000D01*
X122875218Y-69088000D01*
X122851502Y-69009820D01*
X122792537Y-68899506D01*
X122713185Y-68802815D01*
X122616494Y-68723463D01*
X122506180Y-68664498D01*
X122437313Y-68643607D01*
X122467134Y-68619134D01*
X122652706Y-68393014D01*
X122790599Y-68135034D01*
X122875513Y-67855111D01*
X122904185Y-67564000D01*
X122875513Y-67272889D01*
X122790599Y-66992966D01*
X122652706Y-66734986D01*
X122467134Y-66508866D01*
X122241014Y-66323294D01*
X122186209Y-66294000D01*
X122241014Y-66264706D01*
X122467134Y-66079134D01*
X122652706Y-65853014D01*
X122790599Y-65595034D01*
X122875513Y-65315111D01*
X122904185Y-65024000D01*
X122875513Y-64732889D01*
X122790599Y-64452966D01*
X122652706Y-64194986D01*
X122467134Y-63968866D01*
X122241014Y-63783294D01*
X121983034Y-63645401D01*
X121703111Y-63560487D01*
X121484950Y-63539000D01*
X121339050Y-63539000D01*
X121120889Y-63560487D01*
X120840966Y-63645401D01*
X120582986Y-63783294D01*
X120356866Y-63968866D01*
X120171294Y-64194986D01*
X120033401Y-64452966D01*
X119948487Y-64732889D01*
X119919815Y-65024000D01*
X118820000Y-65024000D01*
X118820000Y-63435000D01*
X164396928Y-63435000D01*
X164396928Y-64835000D01*
X164409188Y-64959482D01*
X164445498Y-65079180D01*
X164504463Y-65189494D01*
X164583815Y-65286185D01*
X164680506Y-65365537D01*
X164790820Y-65424502D01*
X164851541Y-65442922D01*
X164858864Y-65517274D01*
X164909698Y-65684852D01*
X164992248Y-65839291D01*
X165057898Y-65919285D01*
X165103342Y-65974659D01*
X165137259Y-66002494D01*
X165744764Y-66610000D01*
X165603514Y-66610000D01*
X165345595Y-66661304D01*
X165102641Y-66761939D01*
X164883987Y-66908038D01*
X164698038Y-67093987D01*
X164551939Y-67312641D01*
X164451304Y-67555595D01*
X164400000Y-67813514D01*
X164400000Y-68076486D01*
X164451304Y-68334405D01*
X164551939Y-68577359D01*
X164698038Y-68796013D01*
X164883987Y-68981962D01*
X165102641Y-69128061D01*
X165345595Y-69228696D01*
X165603514Y-69280000D01*
X165866486Y-69280000D01*
X166000001Y-69253442D01*
X166000001Y-70440749D01*
X165862000Y-70578750D01*
X165862000Y-71628000D01*
X165882000Y-71628000D01*
X165882000Y-71882000D01*
X165862000Y-71882000D01*
X165862000Y-72931250D01*
X166000002Y-73069252D01*
X166000002Y-74042762D01*
X165812764Y-74230000D01*
X165603514Y-74230000D01*
X165345595Y-74281304D01*
X165102641Y-74381939D01*
X164883987Y-74528038D01*
X164698038Y-74713987D01*
X164551939Y-74932641D01*
X164451304Y-75175595D01*
X164400000Y-75433514D01*
X164400000Y-75696486D01*
X164451304Y-75954405D01*
X164551939Y-76197359D01*
X164698038Y-76416013D01*
X164883987Y-76601962D01*
X165102641Y-76748061D01*
X165345595Y-76848696D01*
X165603514Y-76900000D01*
X165866486Y-76900000D01*
X166124405Y-76848696D01*
X166367359Y-76748061D01*
X166586013Y-76601962D01*
X166771962Y-76416013D01*
X166918061Y-76197359D01*
X167018696Y-75954405D01*
X167070000Y-75696486D01*
X167070000Y-75487236D01*
X167486742Y-75070494D01*
X167520660Y-75042658D01*
X167631754Y-74907290D01*
X167714304Y-74752850D01*
X167765137Y-74585273D01*
X167778001Y-74454666D01*
X167778001Y-74454659D01*
X167782301Y-74410999D01*
X167778001Y-74367339D01*
X167778001Y-66540661D01*
X167782301Y-66497001D01*
X167778001Y-66453341D01*
X167778001Y-66453334D01*
X167765137Y-66322727D01*
X167714304Y-66155150D01*
X167631754Y-66000710D01*
X167520660Y-65865342D01*
X167486744Y-65837508D01*
X166908378Y-65259143D01*
X166965537Y-65189494D01*
X167024502Y-65079180D01*
X167060812Y-64959482D01*
X167073072Y-64835000D01*
X167073072Y-63435000D01*
X167060812Y-63310518D01*
X167024502Y-63190820D01*
X166965537Y-63080506D01*
X166886185Y-62983815D01*
X166789494Y-62904463D01*
X166679180Y-62845498D01*
X166559482Y-62809188D01*
X166435000Y-62796928D01*
X165035000Y-62796928D01*
X164910518Y-62809188D01*
X164790820Y-62845498D01*
X164680506Y-62904463D01*
X164583815Y-62983815D01*
X164504463Y-63080506D01*
X164445498Y-63190820D01*
X164409188Y-63310518D01*
X164396928Y-63435000D01*
X118820000Y-63435000D01*
X118820000Y-56580000D01*
X121851928Y-56580000D01*
X121864188Y-56704482D01*
X121900498Y-56824180D01*
X121959463Y-56934494D01*
X122038815Y-57031185D01*
X122135506Y-57110537D01*
X122245820Y-57169502D01*
X122365518Y-57205812D01*
X122490000Y-57218072D01*
X122904250Y-57215000D01*
X123063000Y-57056250D01*
X123063000Y-56007000D01*
X123317000Y-56007000D01*
X123317000Y-57056250D01*
X123475750Y-57215000D01*
X123890000Y-57218072D01*
X124014482Y-57205812D01*
X124134180Y-57169502D01*
X124244494Y-57110537D01*
X124341185Y-57031185D01*
X124420537Y-56934494D01*
X124479502Y-56824180D01*
X124515812Y-56704482D01*
X124528072Y-56580000D01*
X124525000Y-56165750D01*
X124366250Y-56007000D01*
X123317000Y-56007000D01*
X123063000Y-56007000D01*
X122013750Y-56007000D01*
X121855000Y-56165750D01*
X121851928Y-56580000D01*
X118820000Y-56580000D01*
X118820000Y-55180000D01*
X121851928Y-55180000D01*
X121855000Y-55594250D01*
X122013750Y-55753000D01*
X123063000Y-55753000D01*
X123063000Y-54703750D01*
X123317000Y-54703750D01*
X123317000Y-55753000D01*
X124366250Y-55753000D01*
X124525000Y-55594250D01*
X124528072Y-55180000D01*
X124515812Y-55055518D01*
X124479502Y-54935820D01*
X124420537Y-54825506D01*
X124341185Y-54728815D01*
X124244494Y-54649463D01*
X124134180Y-54590498D01*
X124014482Y-54554188D01*
X123890000Y-54541928D01*
X123475750Y-54545000D01*
X123317000Y-54703750D01*
X123063000Y-54703750D01*
X122904250Y-54545000D01*
X122490000Y-54541928D01*
X122365518Y-54554188D01*
X122245820Y-54590498D01*
X122135506Y-54649463D01*
X122038815Y-54728815D01*
X121959463Y-54825506D01*
X121900498Y-54935820D01*
X121864188Y-55055518D01*
X121851928Y-55180000D01*
X118820000Y-55180000D01*
X118820000Y-51938514D01*
X121855000Y-51938514D01*
X121855000Y-52201486D01*
X121906304Y-52459405D01*
X122006939Y-52702359D01*
X122153038Y-52921013D01*
X122338987Y-53106962D01*
X122557641Y-53253061D01*
X122800595Y-53353696D01*
X123058514Y-53405000D01*
X123321486Y-53405000D01*
X123579405Y-53353696D01*
X123822359Y-53253061D01*
X124041013Y-53106962D01*
X124226962Y-52921013D01*
X124373061Y-52702359D01*
X124473696Y-52459405D01*
X124500630Y-52324000D01*
X132419331Y-52324000D01*
X132449934Y-52634714D01*
X132540566Y-52933488D01*
X132687744Y-53208839D01*
X132885813Y-53450187D01*
X133061050Y-53594000D01*
X132885813Y-53737813D01*
X132687744Y-53979161D01*
X132540566Y-54254512D01*
X132449934Y-54553286D01*
X132419331Y-54864000D01*
X132449934Y-55174714D01*
X132540566Y-55473488D01*
X132687744Y-55748839D01*
X132885813Y-55990187D01*
X133061050Y-56134000D01*
X132885813Y-56277813D01*
X132687744Y-56519161D01*
X132540566Y-56794512D01*
X132449934Y-57093286D01*
X132419331Y-57404000D01*
X132449934Y-57714714D01*
X132540566Y-58013488D01*
X132687744Y-58288839D01*
X132793383Y-58417560D01*
X132707506Y-58463463D01*
X132610815Y-58542815D01*
X132531463Y-58639506D01*
X132472498Y-58749820D01*
X132436188Y-58869518D01*
X132423928Y-58994000D01*
X132423928Y-60894000D01*
X132436188Y-61018482D01*
X132472498Y-61138180D01*
X132531463Y-61248494D01*
X132610815Y-61345185D01*
X132707506Y-61424537D01*
X132817820Y-61483502D01*
X132937518Y-61519812D01*
X133062000Y-61532072D01*
X135162000Y-61532072D01*
X135286482Y-61519812D01*
X135406180Y-61483502D01*
X135516494Y-61424537D01*
X135613185Y-61345185D01*
X135692537Y-61248494D01*
X135751502Y-61138180D01*
X135787812Y-61018482D01*
X135800072Y-60894000D01*
X135800072Y-58994000D01*
X135787812Y-58869518D01*
X135751502Y-58749820D01*
X135692537Y-58639506D01*
X135613185Y-58542815D01*
X135516494Y-58463463D01*
X135430617Y-58417560D01*
X135536256Y-58288839D01*
X135683434Y-58013488D01*
X135774066Y-57714714D01*
X135804669Y-57404000D01*
X135774066Y-57093286D01*
X135683434Y-56794512D01*
X135536256Y-56519161D01*
X135338187Y-56277813D01*
X135162950Y-56134000D01*
X135338187Y-55990187D01*
X135536256Y-55748839D01*
X135683434Y-55473488D01*
X135774066Y-55174714D01*
X135804669Y-54864000D01*
X135774066Y-54553286D01*
X135683434Y-54254512D01*
X135536256Y-53979161D01*
X135338187Y-53737813D01*
X135162950Y-53594000D01*
X135338187Y-53450187D01*
X135536256Y-53208839D01*
X135683434Y-52933488D01*
X135774066Y-52634714D01*
X135804669Y-52324000D01*
X140039331Y-52324000D01*
X140069934Y-52634714D01*
X140160566Y-52933488D01*
X140307744Y-53208839D01*
X140505813Y-53450187D01*
X140681050Y-53594000D01*
X140505813Y-53737813D01*
X140307744Y-53979161D01*
X140160566Y-54254512D01*
X140069934Y-54553286D01*
X140039331Y-54864000D01*
X140069934Y-55174714D01*
X140160566Y-55473488D01*
X140307744Y-55748839D01*
X140505813Y-55990187D01*
X140681050Y-56134000D01*
X140505813Y-56277813D01*
X140307744Y-56519161D01*
X140160566Y-56794512D01*
X140069934Y-57093286D01*
X140039331Y-57404000D01*
X140069934Y-57714714D01*
X140160566Y-58013488D01*
X140307744Y-58288839D01*
X140505813Y-58530187D01*
X140681050Y-58674000D01*
X140505813Y-58817813D01*
X140307744Y-59059161D01*
X140160566Y-59334512D01*
X140069934Y-59633286D01*
X140039331Y-59944000D01*
X140069934Y-60254714D01*
X140160566Y-60553488D01*
X140307744Y-60828839D01*
X140505813Y-61070187D01*
X140747161Y-61268256D01*
X141022512Y-61415434D01*
X141321286Y-61506066D01*
X141554136Y-61529000D01*
X141909864Y-61529000D01*
X142142714Y-61506066D01*
X142441488Y-61415434D01*
X142716839Y-61268256D01*
X142958187Y-61070187D01*
X143156256Y-60828839D01*
X143303434Y-60553488D01*
X143394066Y-60254714D01*
X143424669Y-59944000D01*
X143394066Y-59633286D01*
X143303434Y-59334512D01*
X143156256Y-59059161D01*
X142958187Y-58817813D01*
X142782950Y-58674000D01*
X142958187Y-58530187D01*
X143156256Y-58288839D01*
X143303434Y-58013488D01*
X143394066Y-57714714D01*
X143424669Y-57404000D01*
X143394066Y-57093286D01*
X143303434Y-56794512D01*
X143156256Y-56519161D01*
X142958187Y-56277813D01*
X142924794Y-56250408D01*
X147193000Y-56250408D01*
X147193000Y-56525592D01*
X147246686Y-56795490D01*
X147351995Y-57049727D01*
X147504880Y-57278535D01*
X147699465Y-57473120D01*
X147928273Y-57626005D01*
X148182510Y-57731314D01*
X148452408Y-57785000D01*
X148727592Y-57785000D01*
X148997490Y-57731314D01*
X149251727Y-57626005D01*
X149480535Y-57473120D01*
X149675120Y-57278535D01*
X149828005Y-57049727D01*
X149933314Y-56795490D01*
X149976177Y-56580000D01*
X164396928Y-56580000D01*
X164409188Y-56704482D01*
X164445498Y-56824180D01*
X164504463Y-56934494D01*
X164583815Y-57031185D01*
X164680506Y-57110537D01*
X164790820Y-57169502D01*
X164910518Y-57205812D01*
X165035000Y-57218072D01*
X165449250Y-57215000D01*
X165608000Y-57056250D01*
X165608000Y-56007000D01*
X164558750Y-56007000D01*
X164400000Y-56165750D01*
X164396928Y-56580000D01*
X149976177Y-56580000D01*
X149987000Y-56525592D01*
X149987000Y-56250408D01*
X149933314Y-55980510D01*
X149828005Y-55726273D01*
X149675120Y-55497465D01*
X149480535Y-55302880D01*
X149251727Y-55149995D01*
X149180057Y-55120308D01*
X149193023Y-55115636D01*
X149308980Y-55053656D01*
X149375960Y-54813565D01*
X148590000Y-54027605D01*
X147804040Y-54813565D01*
X147871020Y-55053656D01*
X148006760Y-55117485D01*
X147928273Y-55149995D01*
X147699465Y-55302880D01*
X147504880Y-55497465D01*
X147351995Y-55726273D01*
X147246686Y-55980510D01*
X147193000Y-56250408D01*
X142924794Y-56250408D01*
X142782950Y-56134000D01*
X142958187Y-55990187D01*
X143156256Y-55748839D01*
X143303434Y-55473488D01*
X143394066Y-55174714D01*
X143424669Y-54864000D01*
X143394066Y-54553286D01*
X143303434Y-54254512D01*
X143156256Y-53979161D01*
X143107718Y-53920017D01*
X147188090Y-53920017D01*
X147229078Y-54192133D01*
X147322364Y-54451023D01*
X147384344Y-54566980D01*
X147624435Y-54633960D01*
X148410395Y-53848000D01*
X148769605Y-53848000D01*
X149555565Y-54633960D01*
X149795656Y-54566980D01*
X149912756Y-54317952D01*
X149979023Y-54050865D01*
X149991910Y-53775983D01*
X149950922Y-53503867D01*
X149857636Y-53244977D01*
X149795656Y-53129020D01*
X149555565Y-53062040D01*
X148769605Y-53848000D01*
X148410395Y-53848000D01*
X147624435Y-53062040D01*
X147384344Y-53129020D01*
X147267244Y-53378048D01*
X147200977Y-53645135D01*
X147188090Y-53920017D01*
X143107718Y-53920017D01*
X142958187Y-53737813D01*
X142782950Y-53594000D01*
X142958187Y-53450187D01*
X143156256Y-53208839D01*
X143303434Y-52933488D01*
X143394066Y-52634714D01*
X143424669Y-52324000D01*
X143419702Y-52273565D01*
X147804040Y-52273565D01*
X147871020Y-52513656D01*
X148001644Y-52575079D01*
X147986977Y-52580364D01*
X147871020Y-52642344D01*
X147804040Y-52882435D01*
X148590000Y-53668395D01*
X149375960Y-52882435D01*
X149308980Y-52642344D01*
X149178356Y-52580921D01*
X149193023Y-52575636D01*
X149308980Y-52513656D01*
X149375960Y-52273565D01*
X148590000Y-51487605D01*
X147804040Y-52273565D01*
X143419702Y-52273565D01*
X143394066Y-52013286D01*
X143303434Y-51714512D01*
X143156256Y-51439161D01*
X143107718Y-51380017D01*
X147188090Y-51380017D01*
X147229078Y-51652133D01*
X147322364Y-51911023D01*
X147384344Y-52026980D01*
X147624435Y-52093960D01*
X148410395Y-51308000D01*
X148769605Y-51308000D01*
X149555565Y-52093960D01*
X149795656Y-52026980D01*
X149912756Y-51777952D01*
X149979023Y-51510865D01*
X149991910Y-51235983D01*
X149982033Y-51170408D01*
X157353000Y-51170408D01*
X157353000Y-51445592D01*
X157406686Y-51715490D01*
X157511995Y-51969727D01*
X157664880Y-52198535D01*
X157859465Y-52393120D01*
X158088273Y-52546005D01*
X158165515Y-52578000D01*
X158088273Y-52609995D01*
X157859465Y-52762880D01*
X157664880Y-52957465D01*
X157511995Y-53186273D01*
X157406686Y-53440510D01*
X157353000Y-53710408D01*
X157353000Y-53985592D01*
X157406686Y-54255490D01*
X157511995Y-54509727D01*
X157664880Y-54738535D01*
X157859465Y-54933120D01*
X158088273Y-55086005D01*
X158342510Y-55191314D01*
X158612408Y-55245000D01*
X158887592Y-55245000D01*
X159157490Y-55191314D01*
X159184804Y-55180000D01*
X164396928Y-55180000D01*
X164400000Y-55594250D01*
X164558750Y-55753000D01*
X165608000Y-55753000D01*
X165608000Y-54703750D01*
X165449250Y-54545000D01*
X165035000Y-54541928D01*
X164910518Y-54554188D01*
X164790820Y-54590498D01*
X164680506Y-54649463D01*
X164583815Y-54728815D01*
X164504463Y-54825506D01*
X164445498Y-54935820D01*
X164409188Y-55055518D01*
X164396928Y-55180000D01*
X159184804Y-55180000D01*
X159411727Y-55086005D01*
X159640535Y-54933120D01*
X159835120Y-54738535D01*
X159988005Y-54509727D01*
X160093314Y-54255490D01*
X160147000Y-53985592D01*
X160147000Y-53710408D01*
X160093314Y-53440510D01*
X159988005Y-53186273D01*
X159835120Y-52957465D01*
X159640535Y-52762880D01*
X159411727Y-52609995D01*
X159334485Y-52578000D01*
X159411727Y-52546005D01*
X159640535Y-52393120D01*
X159835120Y-52198535D01*
X159988005Y-51969727D01*
X160093314Y-51715490D01*
X160147000Y-51445592D01*
X160147000Y-51170408D01*
X160093314Y-50900510D01*
X159988005Y-50646273D01*
X159835120Y-50417465D01*
X159640535Y-50222880D01*
X159411727Y-50069995D01*
X159157490Y-49964686D01*
X158887592Y-49911000D01*
X158612408Y-49911000D01*
X158342510Y-49964686D01*
X158088273Y-50069995D01*
X157859465Y-50222880D01*
X157664880Y-50417465D01*
X157511995Y-50646273D01*
X157406686Y-50900510D01*
X157353000Y-51170408D01*
X149982033Y-51170408D01*
X149950922Y-50963867D01*
X149857636Y-50704977D01*
X149795656Y-50589020D01*
X149555565Y-50522040D01*
X148769605Y-51308000D01*
X148410395Y-51308000D01*
X147624435Y-50522040D01*
X147384344Y-50589020D01*
X147267244Y-50838048D01*
X147200977Y-51105135D01*
X147188090Y-51380017D01*
X143107718Y-51380017D01*
X142958187Y-51197813D01*
X142716839Y-50999744D01*
X142441488Y-50852566D01*
X142142714Y-50761934D01*
X141909864Y-50739000D01*
X141554136Y-50739000D01*
X141321286Y-50761934D01*
X141022512Y-50852566D01*
X140747161Y-50999744D01*
X140505813Y-51197813D01*
X140307744Y-51439161D01*
X140160566Y-51714512D01*
X140069934Y-52013286D01*
X140039331Y-52324000D01*
X135804669Y-52324000D01*
X135774066Y-52013286D01*
X135683434Y-51714512D01*
X135536256Y-51439161D01*
X135338187Y-51197813D01*
X135096839Y-50999744D01*
X134821488Y-50852566D01*
X134522714Y-50761934D01*
X134289864Y-50739000D01*
X133934136Y-50739000D01*
X133701286Y-50761934D01*
X133402512Y-50852566D01*
X133127161Y-50999744D01*
X132885813Y-51197813D01*
X132687744Y-51439161D01*
X132540566Y-51714512D01*
X132449934Y-52013286D01*
X132419331Y-52324000D01*
X124500630Y-52324000D01*
X124525000Y-52201486D01*
X124525000Y-51938514D01*
X124473696Y-51680595D01*
X124373061Y-51437641D01*
X124226962Y-51218987D01*
X124041013Y-51033038D01*
X123822359Y-50886939D01*
X123579405Y-50786304D01*
X123321486Y-50735000D01*
X123058514Y-50735000D01*
X122800595Y-50786304D01*
X122557641Y-50886939D01*
X122338987Y-51033038D01*
X122153038Y-51218987D01*
X122006939Y-51437641D01*
X121906304Y-51680595D01*
X121855000Y-51938514D01*
X118820000Y-51938514D01*
X118820000Y-50342435D01*
X147804040Y-50342435D01*
X148590000Y-51128395D01*
X149375960Y-50342435D01*
X149308980Y-50102344D01*
X149059952Y-49985244D01*
X148792865Y-49918977D01*
X148517983Y-49906090D01*
X148245867Y-49947078D01*
X147986977Y-50040364D01*
X147871020Y-50102344D01*
X147804040Y-50342435D01*
X118820000Y-50342435D01*
X118820000Y-47560000D01*
X164396928Y-47560000D01*
X164396928Y-48960000D01*
X164409188Y-49084482D01*
X164445498Y-49204180D01*
X164504463Y-49314494D01*
X164583815Y-49411185D01*
X164680506Y-49490537D01*
X164790820Y-49549502D01*
X164851541Y-49567922D01*
X164858864Y-49642274D01*
X164909698Y-49809852D01*
X164992248Y-49964291D01*
X165054680Y-50040364D01*
X165103342Y-50099659D01*
X165137259Y-50127494D01*
X165744764Y-50735000D01*
X165603514Y-50735000D01*
X165345595Y-50786304D01*
X165102641Y-50886939D01*
X164883987Y-51033038D01*
X164698038Y-51218987D01*
X164551939Y-51437641D01*
X164451304Y-51680595D01*
X164400000Y-51938514D01*
X164400000Y-52201486D01*
X164451304Y-52459405D01*
X164551939Y-52702359D01*
X164698038Y-52921013D01*
X164883987Y-53106962D01*
X165102641Y-53253061D01*
X165345595Y-53353696D01*
X165603514Y-53405000D01*
X165866486Y-53405000D01*
X166000001Y-53378442D01*
X166000001Y-54565749D01*
X165862000Y-54703750D01*
X165862000Y-55753000D01*
X165882000Y-55753000D01*
X165882000Y-56007000D01*
X165862000Y-56007000D01*
X165862000Y-57056250D01*
X166000002Y-57194252D01*
X166000002Y-58167763D01*
X165837264Y-58330501D01*
X165837258Y-58330506D01*
X165812764Y-58355000D01*
X165603514Y-58355000D01*
X165345595Y-58406304D01*
X165102641Y-58506939D01*
X164883987Y-58653038D01*
X164698038Y-58838987D01*
X164551939Y-59057641D01*
X164451304Y-59300595D01*
X164400000Y-59558514D01*
X164400000Y-59821486D01*
X164451304Y-60079405D01*
X164551939Y-60322359D01*
X164698038Y-60541013D01*
X164883987Y-60726962D01*
X165102641Y-60873061D01*
X165345595Y-60973696D01*
X165603514Y-61025000D01*
X165866486Y-61025000D01*
X166124405Y-60973696D01*
X166367359Y-60873061D01*
X166586013Y-60726962D01*
X166771962Y-60541013D01*
X166918061Y-60322359D01*
X167018696Y-60079405D01*
X167070000Y-59821486D01*
X167070000Y-59612236D01*
X167094494Y-59587742D01*
X167094499Y-59587736D01*
X167486737Y-59195498D01*
X167520660Y-59167658D01*
X167631754Y-59032290D01*
X167714304Y-58877850D01*
X167765137Y-58710273D01*
X167778001Y-58579666D01*
X167778001Y-58579659D01*
X167782301Y-58535999D01*
X167778001Y-58492339D01*
X167778001Y-50665661D01*
X167782301Y-50622001D01*
X167778001Y-50578341D01*
X167778001Y-50578334D01*
X167765137Y-50447727D01*
X167714304Y-50280150D01*
X167631754Y-50125710D01*
X167520660Y-49990342D01*
X167486744Y-49962508D01*
X166908378Y-49384143D01*
X166965537Y-49314494D01*
X167024502Y-49204180D01*
X167060812Y-49084482D01*
X167073072Y-48960000D01*
X167073072Y-47560000D01*
X167060812Y-47435518D01*
X167024502Y-47315820D01*
X166965537Y-47205506D01*
X166886185Y-47108815D01*
X166789494Y-47029463D01*
X166679180Y-46970498D01*
X166559482Y-46934188D01*
X166435000Y-46921928D01*
X165035000Y-46921928D01*
X164910518Y-46934188D01*
X164790820Y-46970498D01*
X164680506Y-47029463D01*
X164583815Y-47108815D01*
X164504463Y-47205506D01*
X164445498Y-47315820D01*
X164409188Y-47435518D01*
X164396928Y-47560000D01*
X118820000Y-47560000D01*
X118820000Y-41689872D01*
X119685000Y-41689872D01*
X119685000Y-42130128D01*
X119770890Y-42561925D01*
X119939369Y-42968669D01*
X120183962Y-43334729D01*
X120495271Y-43646038D01*
X120861331Y-43890631D01*
X121268075Y-44059110D01*
X121699872Y-44145000D01*
X122140128Y-44145000D01*
X122571925Y-44059110D01*
X122978669Y-43890631D01*
X123344729Y-43646038D01*
X123656038Y-43334729D01*
X123900631Y-42968669D01*
X124069110Y-42561925D01*
X124155000Y-42130128D01*
X124155000Y-41689872D01*
X124069110Y-41258075D01*
X123900631Y-40851331D01*
X123656038Y-40485271D01*
X123344729Y-40173962D01*
X122978669Y-39929369D01*
X122571925Y-39760890D01*
X122140128Y-39675000D01*
X121699872Y-39675000D01*
X121268075Y-39760890D01*
X120861331Y-39929369D01*
X120495271Y-40173962D01*
X120183962Y-40485271D01*
X119939369Y-40851331D01*
X119770890Y-41258075D01*
X119685000Y-41689872D01*
X118820000Y-41689872D01*
X118820000Y-38810000D01*
X129346537Y-38810000D01*
X129318044Y-38817033D01*
M02*
