M48
; DRILL file {KiCad 5.1.3} date Fri 09 Aug 2019 23:10:32 BST
; FORMAT={3:3/ absolute / metric / suppress leading zeros}
; #@! TF.CreationDate,2019-08-09T23:10:32+01:00
; #@! TF.GenerationSoftware,Kicad,Pcbnew,5.1.3
FMAT,2
METRIC,TZ
T1C0.400
T2C0.700
T3C0.762
T4C0.800
T5C1.000
T6C1.020
T7C1.350
T8C2.300
T9C3.200
%
G90
G05
T1
X127381Y-57404
X128270Y-66548
X128778Y-48768
X131572Y-69596
X131826Y-64262
X131826Y-64262
X144780Y-62738
X145034Y-48768
X145288Y-54356
T2
X165735Y-55880
X165735Y-59690
X165735Y-48260
X165735Y-52070
X165735Y-71755
X165735Y-75565
X165735Y-81280
X165735Y-85090
X165735Y-64135
X165735Y-67945
X123190Y-52070
X123190Y-55880
T3
X148590Y-51308
X148590Y-53848
X148590Y-56388
X148590Y-66548
X148590Y-69088
X158750Y-51308
X158750Y-53848
X158750Y-66548
X158750Y-69088
T4
X138430Y-65405
T5
X134112Y-52324
X134112Y-54864
X134112Y-57404
X134112Y-59944
X141732Y-52324
X141732Y-54864
X141732Y-57404
X141732Y-59944
X121412Y-65024
X121412Y-67564
X121412Y-70104
T7
X132000Y-87630
X132000Y-92710
X147320Y-87630
X147320Y-92710
T8
X123734Y-77724
T9
X167005Y-91440
X121920Y-41910
X121920Y-91440
X167005Y-41910
T5
G00X140704Y-74040
M15
G01X142004Y-74040
M16
G05
G00X140704Y-78740
M15
G01X142004Y-78740
M16
G05
G00X140704Y-83440
M15
G01X142004Y-83440
M16
G05
G00X145524Y-74040
M15
G01X146824Y-74040
M16
G05
G00X145524Y-78740
M15
G01X146824Y-78740
M16
G05
G00X145524Y-83440
M15
G01X146824Y-83440
M16
G05
T6
G00X127534Y-76634
M15
G01X127534Y-78814
M16
G05
G00X129994Y-82724
M15
G01X132174Y-82724
M16
G05
G00X134134Y-76634
M15
G01X134134Y-78814
M16
G05
T0
M30
